<svg width="32" height="32" viewBox="0 0 32 32" fill="none" xmlns="http://www.w3.org/2000/svg">
<g clip-path="url(#clip0_12_383)">
<rect width="32" height="32" rx="16" fill="white"/>
<path d="M15.3144 0C9.82972 0 4.98609 2.52856 1.94101 6.441C2.3862 6.5606 3.22315 6.79979 4.25598 7.07314C5.89427 7.53444 11.3077 9.05499 12.3228 9.3796C15.2788 10.2851 16.0623 10.6439 16.8993 11.4981C17.7362 12.3524 19.0006 13.3433 20.2293 14.1805C21.4758 15.0005 22.0634 15.9231 22.0634 17.3582C22.0634 18.7934 20.906 20.0064 20.1937 20.4164C20.1937 20.4164 20.4608 19.733 20.1046 19.4255C19.7663 19.118 18.6622 18.5371 15.8843 18.7421C13.0885 18.9301 9.34892 20.2285 6.82026 21.527C6.82026 21.527 8.03116 19.6989 9.84752 18.8788C9.84752 18.8788 8.3517 18.8788 0 22.3641C2.56427 28.0363 8.45854 32 15.3144 32C24.5209 32 32 24.8414 32 15.9915C32 7.15857 24.5387 0 15.3144 0ZM15.3144 28.4634C11.6817 28.4634 8.38731 27.0283 6.01892 24.7218C12.7501 21.3903 16.9527 22.2445 16.9527 22.8938C16.9527 23.5601 15.9199 25.0977 15.9199 25.0977C21.4046 24.346 25.4112 21.1853 25.4112 16.897C25.4112 12.6086 21.2443 10.5414 20.1758 9.90924C19.0362 9.22584 19.5704 8.30326 15.8308 6.95355C13.5515 6.13347 10.3639 5.3134 9.11742 5.00587C10.9694 4.04912 13.0707 3.5024 15.3144 3.5024C22.4908 3.5024 28.3139 9.08916 28.3139 15.9744C28.3139 22.8937 22.5086 28.4634 15.3144 28.4634Z" fill="#E03A3E"/>
<path d="M15.172 11.8398C15.172 11.8398 14.2282 11.9253 13.2488 11.4469C12.2693 10.9856 10.7735 9.92632 9.47357 11.0881C9.47357 11.0881 10.5598 10.9514 10.4886 11.2248C10.3996 11.4981 10.2927 13.1041 11.7885 13.7021C13.2844 14.3171 15.0117 13.8729 15.172 11.8398Z" fill="#E03A3E"/>
</g>
<rect x="0.5" y="0.5" width="31" height="31" rx="15.5" stroke="white"/>
<defs>
<clipPath id="clip0_12_383">
<rect width="32" height="32" rx="16" fill="white"/>
</clipPath>
</defs>
</svg>
