<svg width="32" height="32" viewBox="0 0 32 32" fill="none" xmlns="http://www.w3.org/2000/svg">
<g clip-path="url(#clip0_12_473)">
<rect width="32" height="32" rx="16" fill="black"/>
<path d="M29.4549 14.4888C29.7032 14.2389 29.8894 13.9683 30.0343 13.6561C31.1723 11.4703 30.1584 9.03463 29.7239 8.18113C26.5788 2.95599 20.6402 -0.104141 14.4534 0.478742C20.8679 0.853452 27.0754 6.61983 29.4549 14.4888ZM8.5149 8.09785C10.0668 8.74319 12.0946 9.8465 14.2258 11.0123C17.5986 12.8442 21.0955 14.7386 23.475 15.3214C25.5856 15.8419 27.3237 15.8002 28.5238 15.1965L28.5031 15.1341L28.441 14.8635C27.4064 10.5335 22.0266 1.04081 12.6739 1.04081C12.2808 1.04081 11.8876 1.06162 11.4738 1.10326C7.85276 2.16494 4.89384 4.39238 2.86606 7.28598C3.19712 7.18189 3.65234 7.07781 4.2524 7.07781C5.43183 7.03617 6.83887 7.39007 8.5149 8.09785ZM6.17673 21.1919C9.96332 22.4409 12.0739 22.8573 14.8466 22.8573C15.8605 22.8573 16.9985 22.7948 18.4676 22.6699C22.5232 22.316 26.7857 20.9629 29.0825 19.8596C29.0825 18.7355 28.979 17.6113 28.7721 16.4664C28.0893 16.8827 27.3237 17.0701 26.3718 17.0701C25.42 17.0701 24.2613 16.8827 22.399 16.4248C20.185 15.9043 17.0399 14.01 14.2465 12.3446C12.7153 11.4286 11.2669 10.5543 10.0875 9.97141C5.53529 7.70232 2.94882 8.01459 2.26599 8.18113C0.65204 10.8874 -0.175627 14.0932 0.0312905 17.3823C0.362358 17.8195 1.91424 19.7763 6.17673 21.1919ZM30.1584 19.2351L30.2619 19.1518C31.6069 18.215 31.9586 16.6746 32 16.4248C32 15.1549 31.8345 13.8434 31.5034 12.5527L31.462 12.407C31.3379 13.5936 30.7585 14.6969 29.7239 15.6962C30.0343 16.8619 30.1584 18.0693 30.1584 19.2351ZM30.5516 20.1094L30.386 20.2343L30.1171 20.4217C30.0343 21.4417 29.8481 22.4618 29.5584 23.4402C30.055 23.2736 30.2412 23.461 30.2826 23.5859L30.3033 23.6483C31.1309 22.0038 31.6689 20.2343 31.8965 18.3816C31.6482 18.9853 31.2344 19.6306 30.5516 20.1094ZM29.9515 24.1063L29.8894 24.0439C29.8481 24.0439 29.7239 24.0647 29.4963 24.2104L29.3721 24.2937L29.2687 24.3769C28.8549 25.4386 28.3376 26.4587 27.7375 27.333C28.6272 26.3962 29.3721 25.3554 30.0136 24.2312H29.9929L29.9515 24.1063ZM13.543 30.8927C15.3639 30.6846 16.8743 30.2058 18.6125 29.3523L19.3574 28.9776C19.5643 28.8735 19.7712 28.7486 19.9781 28.6445C21.4472 27.8742 22.9991 27.0416 24.9027 26.0215C25.5649 25.6676 26.2477 25.2721 26.8891 24.8974L27.634 24.481C27.9237 24.3145 28.2134 24.1688 28.4824 24.0022L28.5652 23.9398C28.8135 23.0446 28.9583 22.0871 29.0411 21.0462C27.1788 21.983 24.3854 22.8157 20.2678 23.6483C15.0121 24.71 9.85986 24.2312 5.26629 22.2744C2.18323 20.9629 0.714116 19.1518 0.114056 18.1526C0.196823 18.8604 0.320974 19.5682 0.486508 20.2759C1.5004 24.3145 3.96272 27.6036 7.16993 29.727L7.14924 29.7062L7.60446 29.9768C7.97691 30.185 8.43213 30.3723 8.94942 30.5389C9.94262 30.8303 10.9358 30.9968 11.9704 30.9968C12.5084 30.9968 13.005 30.9552 13.543 30.8927ZM28.11 25.1888C27.903 25.3345 27.6961 25.4803 27.4685 25.6468C26.8685 26.0631 26.2684 26.417 25.6476 26.7918C25.358 26.9791 25.0476 27.1456 24.7372 27.3538C22.606 28.6861 20.0402 30.1641 17.2882 31.0177C16.4812 31.2675 15.757 31.4548 15.0328 31.5589C14.3707 31.663 13.7499 31.7046 13.1291 31.7046H13.005C12.198 31.7046 11.4117 31.6214 10.6461 31.4756C13.5223 32.4957 16.7088 32.7247 19.8953 31.9336C21.7162 31.4756 23.3922 30.7262 24.8614 29.7478C26.2891 28.6237 27.4271 27.0416 28.172 25.1264L28.11 25.1888Z" fill="white"/>
<path d="M22.3576 19.6931C22.3576 18.5273 22.3576 16.7787 20.9713 15.4255C21.1161 15.1549 21.2403 14.8843 21.3437 14.572C21.5714 13.8642 21.592 13.1148 21.592 12.6152V9.3469C21.5507 8.13949 21.3644 6.86964 20.3919 5.78715C19.5229 4.78792 18.1986 4.26749 16.5847 4.26749H12.2394C11.7635 4.26749 11.2876 4.45484 10.9565 4.80874C10.6254 5.14181 10.4185 5.62061 10.4185 6.09941L10.4599 27.2914C10.4599 27.9159 10.7703 28.4988 11.3083 28.8318C11.5979 29.0192 11.9497 29.1025 12.3015 29.1025H16.7295C18.3228 29.1025 19.6677 28.6445 20.723 27.7285H20.7437C22.2128 26.417 22.3576 24.8558 22.399 23.3569V23.3361L22.3576 19.6931Z" fill="white"/>
<path d="M21.2196 19.8388C21.2196 18.6522 21.2196 17.195 19.9988 16.175C19.7505 15.9668 19.4401 15.7794 19.0677 15.6337C19.647 15.259 20.0195 14.7178 20.2471 14.0516C20.454 13.4479 20.4333 12.7193 20.4333 12.4279V9.05547C20.3919 8.1187 20.3092 7.05702 19.5436 6.20351C18.8814 5.47491 17.8882 5.07938 16.6054 5.07938L12.0739 5.10019C11.9497 5.10019 11.8049 5.16265 11.7014 5.24591C11.598 5.35 11.5566 5.4749 11.5566 5.59981L11.598 27.7286C11.598 27.9159 11.6807 28.0824 11.8463 28.1657C11.929 28.2073 12.0325 28.249 12.1359 28.249L16.7502 28.2282C17.2468 28.2282 18.7366 28.2282 19.9988 27.1457C21.1162 26.1256 21.2196 24.939 21.261 23.5859L21.2196 19.8388ZM18.0124 25.4595C17.6813 25.6885 17.2882 25.8342 16.2743 25.8758H14.3913C14.2258 25.8758 14.1637 25.7925 14.1637 25.626C14.1637 24.3353 14.143 17.2158 14.143 17.1742C14.143 17.1117 14.1637 17.0077 14.2879 17.0077H15.1569C16.0881 17.0493 17.0399 17.1118 17.6813 17.5281C18.0331 17.7363 18.2814 18.0485 18.4469 18.4649C18.5918 18.902 18.6125 19.36 18.6125 19.7972V22.9406C18.6538 24.3562 18.5504 25.0431 18.0124 25.4595ZM16.4812 14.4471C16.1088 14.5512 15.9225 14.5929 15.1156 14.6137H14.3086C14.1637 14.6137 14.143 14.5512 14.143 14.4471L14.1224 7.6399C14.1224 7.53581 14.1637 7.47336 14.2672 7.45254H15.6122C16.2122 7.47336 16.8744 7.49418 17.3089 7.7648C17.5158 7.88971 17.6193 8.03543 17.702 8.22278C17.7641 8.43096 17.8262 8.78485 17.8469 9.36773V12.2197C17.8469 12.8858 17.8262 14.0516 16.4812 14.4471Z" fill="#2E2A25"/>
</g>
<rect x="0.5" y="0.5" width="31" height="31" rx="15.5" stroke="black"/>
<defs>
<clipPath id="clip0_12_473">
<rect width="32" height="32" rx="16" fill="white"/>
</clipPath>
</defs>
</svg>
