<svg width="32" height="33" viewBox="0 0 32 33" fill="none" xmlns="http://www.w3.org/2000/svg">
<rect width="32" height="32" rx="16" fill="white"/>
<g clip-path="url(#clip0_12_472)">
<path d="M16 30.1949C23.6694 30.1949 29.8866 23.8445 29.8866 16.0109C29.8866 8.17729 23.6694 1.8269 16 1.8269C8.33065 1.8269 2.1134 8.17729 2.1134 16.0109C2.1134 23.8445 8.33065 30.1949 16 30.1949Z" fill="#50A263"/>
<path d="M2 16.0109C2 23.8948 8.28026 30.3087 16 30.3087C23.7197 30.3087 30 23.8948 30 16.0109C30 8.12717 23.7197 1.71313 16 1.71313C8.28026 1.71313 2 8.12734 2 16.0109ZM2.22679 16.0109C2.22679 8.25265 8.40549 1.9407 16 1.9407C23.5945 1.9407 29.7732 8.25248 29.7732 16.0109C29.7732 23.7693 23.5945 30.0813 16 30.0813C8.40549 30.0813 2.22679 23.7693 2.22679 16.0109Z" fill="black"/>
<path d="M16.1383 26.5865C21.898 26.5865 26.5671 21.8641 26.5671 16.0388C26.5671 10.2134 21.898 5.49103 16.1383 5.49103C10.3786 5.49103 5.70941 10.2134 5.70941 16.0388C5.70941 21.8641 10.3786 26.5865 16.1383 26.5865Z" fill="white"/>
<path d="M5.59619 16.0388C5.59619 21.9176 10.3253 26.7003 16.1384 26.7003C21.9514 26.7003 26.6805 21.9176 26.6805 16.0388C26.6805 10.1601 21.9514 5.37726 16.1384 5.37726C10.3253 5.37726 5.59619 10.1601 5.59619 16.0388ZM5.82298 16.0388C5.82298 10.2854 10.4505 5.60482 16.1384 5.60482C21.8263 5.60482 26.4539 10.2854 26.4539 16.0388C26.4539 21.7922 21.8263 26.4729 16.1384 26.4729C10.4505 26.4729 5.82298 21.7922 5.82298 16.0388Z" fill="black"/>
<path d="M6.39389 22.769C6.48207 22.6962 6.57436 22.651 6.6706 22.6331C6.76577 22.615 6.86379 22.6192 6.95709 22.6453C7.06962 22.6756 7.1729 22.7257 7.26673 22.7957C7.36057 22.8658 7.46316 22.9684 7.57415 23.1042L8.21523 23.8864L6.44947 25.3434L5.88301 24.6521C5.76533 24.5085 5.6811 24.3954 5.63049 24.3131C5.5808 24.2329 5.54415 24.1453 5.5219 24.0535C5.4984 23.9554 5.50114 23.8656 5.52979 23.7838C5.55861 23.702 5.60991 23.6306 5.68402 23.5695C5.76531 23.5003 5.86642 23.4588 5.97274 23.4511C6.07892 23.4435 6.18203 23.4686 6.28221 23.5266L6.29268 23.518C6.21702 23.3791 6.18477 23.2445 6.19626 23.1138C6.20776 22.9832 6.27346 22.8684 6.39389 22.769ZM6.17928 23.9954C6.14853 24.0217 6.12478 24.0553 6.11015 24.0931C6.09316 24.1344 6.09213 24.1775 6.10672 24.2224C6.12095 24.2651 6.14566 24.309 6.18048 24.3543C6.21548 24.3995 6.26883 24.466 6.34054 24.5536L6.3685 24.5879L6.74419 24.2778L6.69359 24.216C6.64557 24.1569 6.59667 24.0986 6.54691 24.041C6.51559 24.0065 6.47834 23.9779 6.43695 23.9566C6.38806 23.9311 6.34242 23.9231 6.3004 23.9329C6.25571 23.9439 6.21423 23.9653 6.17928 23.9954ZM6.80081 23.28C6.74557 23.3256 6.71229 23.3734 6.70096 23.4235C6.68981 23.4736 6.69633 23.5295 6.72052 23.5915C6.73442 23.6299 6.76204 23.6753 6.80355 23.7279C6.84524 23.7804 6.90168 23.8502 6.97321 23.9375L7.04715 24.0277L7.49232 23.6605L7.47088 23.6344C7.3992 23.5459 7.32617 23.4586 7.25181 23.3724C7.20777 23.3231 7.15582 23.2816 7.0981 23.2495C7.04423 23.2195 6.99174 23.2082 6.94113 23.2156C6.88932 23.2236 6.84074 23.2459 6.80081 23.28ZM4.6132 20.2488C4.9467 20.0899 5.25583 20.0637 5.54026 20.1699C5.82486 20.2763 6.04839 20.5011 6.21102 20.8449C6.37416 21.1895 6.40538 21.5061 6.3052 21.7944C6.20484 22.0829 5.98989 22.3055 5.66051 22.4623C5.32805 22.6207 5.01909 22.6477 4.73346 22.543C4.44783 22.4384 4.22344 22.2139 4.06047 21.8693C3.89801 21.5257 3.86576 21.2095 3.96406 20.9208C4.06236 20.6321 4.27885 20.408 4.6132 20.2488ZM4.8906 20.8406C4.76708 20.8995 4.66879 20.9635 4.59588 21.0329C4.52297 21.1022 4.46944 21.1738 4.43565 21.2479C4.40387 21.3182 4.38945 21.3952 4.39362 21.4723C4.39842 21.546 4.41661 21.6162 4.448 21.6829C4.48145 21.7536 4.52314 21.8123 4.57272 21.859C4.62247 21.9056 4.68937 21.9416 4.77377 21.9667C4.84926 21.9886 4.93829 21.993 5.04105 21.9798C5.14381 21.9667 5.25686 21.9307 5.38037 21.8719C5.50698 21.8114 5.60562 21.7477 5.6763 21.6801C5.74698 21.6126 5.79947 21.541 5.83378 21.4656C5.86775 21.3892 5.88216 21.314 5.87701 21.2398C5.87206 21.1665 5.85344 21.0948 5.82211 21.0284C5.79009 20.9607 5.74488 20.9002 5.68916 20.8504C5.63193 20.7992 5.56317 20.7628 5.48879 20.7442C5.40525 20.7237 5.31724 20.7192 5.22426 20.7308C5.13146 20.7421 5.02012 20.7788 4.8906 20.8406ZM5.38552 18.4141C5.42481 18.6042 5.44282 18.7742 5.44007 18.9249C5.43788 19.0676 5.42481 19.21 5.40096 19.3507L4.86864 19.4616L4.85698 19.405C4.92652 19.261 4.97196 19.1065 4.99147 18.9478C5.01154 18.7872 5.00691 18.6365 4.97775 18.4954C4.97037 18.4597 4.95733 18.4136 4.93863 18.3566C4.91993 18.2997 4.89918 18.2551 4.87636 18.2227C4.8508 18.1829 4.81941 18.1513 4.78218 18.1277C4.74495 18.1041 4.70138 18.0976 4.65146 18.1079C4.59519 18.1196 4.55471 18.1535 4.53 18.2096C4.50441 18.2701 4.49055 18.335 4.48917 18.4007C4.48675 18.495 4.48641 18.5894 4.48814 18.6837C4.48969 18.7837 4.48643 18.8779 4.47819 18.9667C4.45726 19.1715 4.40374 19.3265 4.31762 19.4313C4.23151 19.5363 4.11056 19.6048 3.9548 19.6372C3.74602 19.6805 3.55629 19.6175 3.38577 19.4478C3.21542 19.2781 3.09962 19.0459 3.03872 18.7513C3.00817 18.6035 2.99129 18.4531 2.98828 18.3021C2.9852 18.1502 2.99429 18.0118 3.01573 17.8869L3.52798 17.7803L3.5393 17.8354C3.48681 17.9426 3.44975 18.0678 3.42831 18.2108C3.40676 18.352 3.41053 18.496 3.43946 18.6358C3.45061 18.6902 3.46451 18.7386 3.48046 18.7804C3.49659 18.8223 3.51957 18.8651 3.54908 18.9089C3.57378 18.9443 3.60449 18.9731 3.64189 18.9949C3.67571 19.0161 3.71634 19.0236 3.75545 19.0157C3.78222 19.0111 3.80743 18.9999 3.82886 18.9832C3.85028 18.9664 3.86726 18.9446 3.87828 18.9197C3.90264 18.8677 3.91482 18.7744 3.91465 18.64C3.91517 18.5529 3.91534 18.469 3.91551 18.3885C3.91551 18.3079 3.92031 18.2208 3.92975 18.1272C3.95051 17.9432 3.99957 17.7994 4.0766 17.6958C4.15379 17.5922 4.2701 17.5242 4.42604 17.4918C4.6482 17.4455 4.84668 17.5054 5.02149 17.671C5.19596 17.8366 5.31724 18.0843 5.38552 18.4141ZM5.09852 16.3056L3.24235 16.2884L3.23549 17.0372L2.80576 17.0332L2.82531 14.9004L3.25522 14.9044L3.24835 15.6532L5.10452 15.6704L5.09852 16.3056ZM4.61303 11.9402C4.97123 12.0294 5.22701 12.2056 5.38003 12.4688C5.53305 12.732 5.56376 13.0482 5.4725 13.4173C5.38089 13.7876 5.20522 14.0523 4.94567 14.2117C4.68594 14.371 4.37904 14.4066 4.02513 14.3185C3.66796 14.2295 3.41184 14.0539 3.25693 13.7914C3.10202 13.5289 3.07046 13.2125 3.16189 12.8422C3.25316 12.473 3.42797 12.2079 3.68649 12.0473C3.94485 11.8865 4.25381 11.8507 4.61303 11.9402ZM4.45366 12.5744C4.32088 12.5413 4.2044 12.5284 4.10422 12.5354C4.00403 12.5427 3.91757 12.5642 3.84449 12.5998C3.77549 12.6341 3.71571 12.6845 3.67019 12.7468C3.62731 12.8069 3.59711 12.8727 3.57944 12.9443C3.56057 13.0204 3.55577 13.0921 3.56469 13.1598C3.57361 13.2274 3.60278 13.2978 3.65218 13.371C3.69678 13.4359 3.763 13.496 3.85049 13.5511C3.93833 13.6063 4.04846 13.6504 4.18107 13.6834C4.31711 13.7173 4.43376 13.7306 4.5312 13.7232C4.62864 13.7158 4.71425 13.6939 4.78853 13.6574C4.86315 13.6199 4.92165 13.5709 4.96471 13.5103C5.00777 13.4497 5.03796 13.3836 5.05563 13.312C5.07347 13.2393 5.07673 13.1651 5.06524 13.0897C5.05331 13.0138 5.0231 12.9419 4.97723 12.8802C4.92333 12.8091 4.85686 12.7486 4.78115 12.7016C4.70207 12.6515 4.59296 12.609 4.45366 12.5744ZM6.98505 9.79002L6.69101 10.328L4.82695 10.4133L6.22423 11.1821L5.94494 11.6932L3.94039 10.5905L4.31488 9.90518L5.85042 9.83065L4.70104 9.19821L4.98032 8.68713L6.98505 9.79002Z" fill="white"/>
<path d="M25.0935 6.87072C25.0817 6.81477 25.1057 6.90015 25.0835 6.83732C25.0599 6.77144 25.03 6.70798 24.9943 6.6478C24.9567 6.58359 24.9091 6.52578 24.8533 6.47652C24.7856 6.4161 24.7149 6.37083 24.6409 6.34019C24.567 6.30955 24.4835 6.2956 24.3903 6.29784C24.3049 6.29991 24.2148 6.32452 24.1198 6.37186C24.0247 6.4192 23.9328 6.49339 23.8439 6.59392C23.7506 6.69961 23.6873 6.80221 23.6545 6.90187C23.6218 7.00154 23.6108 7.09587 23.6216 7.18504C23.6322 7.27094 23.6592 7.34995 23.7022 7.42207C23.7451 7.4942 23.7966 7.55669 23.8559 7.60953C23.9177 7.66462 23.9848 7.70782 24.0572 7.73933C24.1294 7.77083 24.1951 7.792 24.2541 7.80284C24.3165 7.81662 24.2819 7.81885 24.3352 7.82281C24.3886 7.82694 24.3342 7.82677 24.3745 7.82849V7.86791L24.2536 8.27984C24.2066 8.26366 24.1522 8.24472 24.0906 8.22286C24.0285 8.20101 23.9677 8.17561 23.9084 8.14678C23.8364 8.10977 23.771 8.07258 23.7123 8.03557C23.6538 7.99856 23.5797 7.94004 23.49 7.86017C23.2094 7.61022 23.0548 7.33446 23.0265 7.03287C22.9982 6.73129 23.1085 6.43968 23.3574 6.15824C23.5972 5.88695 23.8712 5.74425 24.1791 5.73082C24.4869 5.71722 24.7813 5.83531 25.0619 6.08525C25.1366 6.1517 25.2002 6.21504 25.253 6.27564C25.3059 6.33623 25.3536 6.39751 25.3961 6.45948C25.4284 6.5094 25.4608 6.56655 25.4937 6.6311C25.5265 6.69565 25.552 6.74884 25.5704 6.79084M24.53 8.84875L26.3722 7.50659L27.3684 8.88353L27.0205 9.13691L26.3933 8.27003L26.0684 8.50672L26.6455 9.30457L26.2938 9.56072L25.7167 8.76303L25.2465 9.10541L25.8737 9.9723L25.526 10.2257L24.53 8.84875ZM26.5235 12.3259L25.8365 10.7963L27.9121 9.85748L28.1702 10.4321L26.4865 11.1936L26.9155 12.1485L26.5235 12.3259ZM26.7786 13.302L28.5818 12.9009L28.4212 12.1745L28.8408 12.0812L29.2978 14.1496L28.8782 14.2429L28.7177 13.5164L26.9145 13.9175L26.7786 13.302ZM27.0915 16.0295L27.0965 15.4046L27.4931 15.3938L28.9758 15.3533L28.9625 15.355L29.3591 15.3442L29.3673 15.9673L28.9707 15.9782L28.9928 15.9835L27.5101 16.024L27.488 16.0186L27.0915 16.0295ZM28.4562 19.0669C28.4974 19.0273 28.5386 18.9815 28.5802 18.9295C28.6218 18.8775 28.6595 18.8188 28.6938 18.7537C28.7281 18.6885 28.7516 18.6183 28.7647 18.5432C28.78 18.4597 28.7812 18.3741 28.7683 18.2902C28.7552 18.2112 28.723 18.1325 28.6718 18.0542C28.6252 17.9824 28.5567 17.9185 28.4667 17.8624C28.3766 17.8065 28.2653 17.767 28.1334 17.7442C27.9944 17.7201 27.8743 17.7204 27.7726 17.7448C27.6709 17.7693 27.5851 17.8097 27.5153 17.866C27.4495 17.9187 27.3956 17.9847 27.3571 18.0597C27.3195 18.1318 27.2933 18.2093 27.2792 18.2895C27.2652 18.3688 27.2639 18.4498 27.2753 18.5294C27.2868 18.6078 27.3034 18.6749 27.3254 18.731C27.3466 18.7916 27.3694 18.8457 27.3941 18.893L27.3499 18.8961L27.3224 18.8997L26.921 18.982C26.9099 18.9333 26.8973 18.877 26.8833 18.813C26.8692 18.7489 26.8587 18.6839 26.8519 18.6176C26.8454 18.5425 26.8423 18.4671 26.8426 18.3917C26.8431 18.3222 26.8536 18.2282 26.874 18.1098C26.9378 17.7386 27.0898 17.4615 27.3303 17.2783C27.5708 17.0952 27.876 17.0358 28.2455 17.0997C28.6019 17.1613 28.8669 17.3197 29.0405 17.5751C29.2143 17.8304 29.2694 18.1437 29.2055 18.5148C29.1908 18.6037 29.1706 18.6916 29.145 18.778C29.1215 18.855 29.0947 18.9279 29.0647 18.9968C29.0393 19.0505 29.0081 19.1083 28.9707 19.1705C28.9333 19.2325 28.9017 19.2822 28.8758 19.3201M26.2506 20.2173C26.3242 20.0394 26.404 19.8895 26.4901 19.7675C26.5712 19.6515 26.6612 19.5419 26.7591 19.4397L27.2581 19.6475L27.2363 19.7007C27.0999 19.7806 26.9774 19.8822 26.8733 20.0014C26.7678 20.1221 26.6875 20.2486 26.633 20.3808C26.6154 20.4252 26.6006 20.4707 26.5885 20.5169C26.5743 20.564 26.5667 20.6129 26.5659 20.6621C26.5647 20.7092 26.5726 20.7526 26.5896 20.7927C26.6066 20.8325 26.6388 20.8626 26.6865 20.8824C26.7395 20.9044 26.7918 20.8994 26.8435 20.8672C26.8951 20.8351 26.9419 20.7905 26.9838 20.7335C27.0353 20.6621 27.0881 20.5849 27.1425 20.5021C27.1967 20.4192 27.2526 20.3439 27.3099 20.2761C27.4417 20.1197 27.572 20.0227 27.7016 19.985C27.8309 19.9473 27.969 19.9592 28.1157 20.0202C28.3131 20.1023 28.4351 20.261 28.4816 20.4963C28.5281 20.7314 28.4943 20.9871 28.3804 21.263C28.3233 21.4014 28.2536 21.5336 28.1714 21.6599C28.0893 21.7863 28.0042 21.8944 27.9158 21.9844L27.4338 21.7839L27.4552 21.7322C27.5578 21.6737 27.6582 21.5919 27.7561 21.4868C27.8529 21.3834 27.9303 21.2634 27.9844 21.1323C28.0055 21.0814 28.0213 21.0342 28.032 20.991C28.0424 20.9478 28.0469 20.8996 28.0457 20.8466C28.0461 20.8042 28.0367 20.7624 28.0181 20.7244C28.0012 20.6873 27.9709 20.658 27.9333 20.6424C27.8793 20.6199 27.8278 20.6232 27.7786 20.6521C27.7294 20.681 27.6676 20.7507 27.5926 20.8611C27.5437 20.9323 27.4967 21.0008 27.4518 21.0671C27.4068 21.1332 27.3543 21.2019 27.2945 21.2733C27.1747 21.4128 27.054 21.503 26.932 21.5444C26.8102 21.5858 26.676 21.5761 26.5294 21.5152C26.3194 21.4277 26.1885 21.267 26.1367 21.0327C26.0849 20.7977 26.123 20.5261 26.2506 20.2173Z" fill="white"/>
<path d="M15.2486 31.6123L16.4937 31.1468C16.4937 31.1468 16.738 30.9019 16.4937 30.7304C16.2496 30.559 15.2486 31.1224 15.2486 31.1224V31.6123Z" fill="white"/>
<path d="M15.2302 31.0893L15.211 31.1002V31.6668L16.5148 31.1794L16.5206 31.1735C16.526 31.1682 16.652 31.0397 16.6394 30.8934C16.6327 30.8177 16.5911 30.7523 16.5157 30.6993C16.2594 30.5194 15.3347 31.0304 15.2302 31.0893ZM16.4723 30.7614C16.5285 30.8008 16.5594 30.8475 16.564 30.8998C16.5644 30.9046 16.5647 30.9096 16.5647 30.9146C16.5647 31.012 16.4856 31.1 16.4721 31.1145L15.2865 31.5577V31.1449C15.572 30.9864 16.2916 30.6347 16.4723 30.7614Z" fill="black"/>
<path d="M10.561 31.4408L10.5121 31.8082C10.5121 31.8082 11.5864 32.8372 11.8306 32.8861C12.0748 32.9351 12.6851 32.9596 12.6851 32.9596C12.6851 32.9596 12.9047 32.9351 12.9047 32.7635C12.9047 32.5922 10.561 31.4408 10.561 31.4408Z" fill="white"/>
<path d="M10.5236 31.4358L10.4723 31.8224L10.4862 31.8359C10.597 31.9419 11.5756 32.8739 11.8233 32.9236C12.0676 32.9727 12.6587 32.9968 12.6838 32.9978C12.7771 32.9878 12.9428 32.9264 12.9428 32.7639C12.9428 32.5878 11.2889 31.7562 10.5778 31.4069L10.5306 31.3838L10.5236 31.4358ZM10.5915 31.4981C11.6691 32.029 12.8177 32.6459 12.8666 32.7664C12.8639 32.899 12.6884 32.9212 12.6809 32.9221C12.6805 32.9217 12.0765 32.8969 11.838 32.8491C11.6492 32.8112 10.8588 32.0868 10.5521 31.7942L10.5915 31.4981Z" fill="black"/>
<path d="M14.5163 29.4564C14.5163 29.4564 14.6139 28.354 14.0768 27.3741C13.5396 26.3943 15.4684 27.1291 15.4684 27.1291L15.7368 27.913C15.7368 27.913 15.7125 29.4564 15.7614 29.5299C15.8103 29.6034 15.7368 29.9709 15.7368 29.9709L14.7847 30.02L14.5163 29.4564Z" fill="white"/>
<path d="M13.9978 26.933C13.9141 27.0298 13.9296 27.1842 14.0436 27.3923C14.5688 28.3503 14.4796 29.4421 14.4787 29.4531L14.4777 29.4635L14.7616 30.0591L15.7682 30.0073L15.7741 29.9783C15.7919 29.8885 15.8461 29.5891 15.7928 29.5089C15.7629 29.4344 15.7657 28.4904 15.7748 27.9135L15.7749 27.9068L15.4984 27.0998L15.4817 27.0935C15.3569 27.046 14.2541 26.6371 13.9978 26.933ZM14.5604 29.2535C14.5604 28.8846 14.5084 28.0829 14.1099 27.3558C14.05 27.2465 14.02 27.157 14.02 27.0878C14.02 27.0448 14.0316 27.0096 14.055 26.9828C14.2401 26.769 15.1018 27.032 15.4387 27.1585L15.6993 27.919C15.6951 28.1744 15.6928 28.4297 15.6926 28.6851C15.6926 29.1034 15.7005 29.5063 15.7302 29.5509C15.7375 29.5623 15.741 29.5891 15.741 29.6258C15.741 29.7033 15.7259 29.8238 15.7053 29.9346L14.8082 29.9807L14.5549 29.4492C14.5562 29.4265 14.5604 29.3592 14.5604 29.2535Z" fill="black"/>
<path d="M9.99954 26.3452L10.561 26.3696L10.8051 24.9488C10.8051 24.9488 10.4389 24.2628 10.1704 24.8509C9.90193 25.4387 9.99954 26.3452 9.99954 26.3452Z" fill="white"/>
<path d="M10.4193 24.5748C10.3087 24.5782 10.2133 24.6656 10.1361 24.8349C9.86625 25.4255 9.95785 26.3118 9.96197 26.3491L9.96557 26.3815L10.5928 26.4089L10.8448 24.9423L10.8386 24.9307C10.8305 24.9159 10.642 24.5677 10.4193 24.5748ZM10.0203 25.9568C10.0203 25.6436 10.0524 25.2001 10.2047 24.8665C10.269 24.7257 10.342 24.6531 10.4216 24.6507C10.5627 24.6462 10.7123 24.8605 10.7657 24.9559L10.5295 26.3304L10.0342 26.3089C10.0248 26.1918 10.0201 26.0743 10.0203 25.9568ZM11.1714 19.1915C11.1714 19.1915 11.0005 19.7795 11.269 20.5879C11.5375 21.3962 12.5141 24.1892 12.5141 24.1892C12.5141 24.1892 13.9303 26.6146 14.3941 27.2515C14.858 27.8884 15.3706 28.1089 16.3961 27.7414C17.4216 27.3739 17.8611 26.5655 17.9342 26.1736C18.0075 25.7816 18.1295 25.2182 18.1295 25.2182C18.1295 25.2182 19.9606 21.127 19.8384 19.9021C19.7166 18.677 11.1714 19.1915 11.1714 19.1915Z" fill="black"/>
<path d="M10.8784 24.6792C10.8784 24.6792 10.3169 25.9531 10.4878 26.4431C10.6586 26.9332 11.0493 27.3252 10.7319 28.2561C10.4143 29.187 10.5854 29.9709 10.5854 29.9709L10.7074 30.7795C10.7074 30.7795 10.5121 31.2695 10.6585 31.5145C10.805 31.7594 11.684 32.47 11.8792 32.5435C12.0744 32.617 12.9778 32.7885 13.2708 32.617C13.5638 32.4456 14.1498 31.7352 14.1742 31.6617C14.1987 31.5882 15.2484 31.6126 15.2484 31.6126V31.2697L16.4936 30.7308C16.4936 30.7308 16.9085 30.4123 15.8832 29.5058C15.8832 29.5058 15.1507 30.1427 14.5159 29.4568C14.5159 29.4568 13.8079 29.212 12.6848 29.6528C12.6848 29.6528 12.88 26.664 12.0255 25.0715C12.0255 25.0715 11.879 24.7775 11.586 24.6551C11.2935 24.5322 10.8784 24.6792 10.8784 24.6792Z" fill="black"/>
<path d="M11.5377 26.6392L12.7097 26.6637C12.7097 26.6637 12.9538 26.8107 12.9538 26.9331C12.9538 27.0556 12.9782 27.717 12.9782 27.717C12.9782 27.717 13.0025 27.9865 12.8317 27.9865H11.7574C11.7574 27.9865 11.3912 27.8395 11.3912 27.6435C11.3912 27.4474 11.3668 26.9819 11.3668 26.9819C11.3668 26.9819 11.3912 26.6146 11.5377 26.6392Z" fill="#927B5D"/>
<path d="M11.456 26.634C11.3589 26.7112 11.3402 26.9528 11.3385 26.98C11.3386 26.9881 11.3628 27.4505 11.3628 27.6435C11.3628 27.8562 11.7311 28.0065 11.7469 28.0129L11.7519 28.0149H12.8316C12.8776 28.0149 12.9157 27.9986 12.945 27.9664C13.0207 27.8832 13.007 27.7213 13.0063 27.7144L12.9819 26.9329C12.9819 26.7983 12.7503 26.6549 12.7241 26.639L12.7176 26.6352L11.5382 26.6105L11.5423 26.6108C11.5271 26.6083 11.5115 26.6091 11.4966 26.6131C11.4818 26.6171 11.4679 26.6242 11.456 26.634ZM11.4194 27.6436C11.4194 27.4491 11.3953 26.9854 11.3949 26.9805C11.3994 26.9167 11.4254 26.7308 11.491 26.6788C11.4966 26.6738 11.5034 26.6702 11.5106 26.6682C11.5178 26.6662 11.5254 26.6659 11.5328 26.6673L11.5347 26.6676L12.7004 26.692C12.7675 26.7334 12.9251 26.8482 12.9251 26.9332L12.9497 27.7183C12.9497 27.7192 12.9507 27.7321 12.9507 27.7514C12.9507 27.798 12.9445 27.8827 12.903 27.9283C12.894 27.9383 12.8829 27.9461 12.8705 27.9513C12.8582 27.9564 12.8448 27.9588 12.8315 27.9583H11.7631C11.6637 27.9172 11.4194 27.7863 11.4194 27.6436Z" fill="black"/>
<path d="M13.149 29.6769L14.0524 29.5055C14.0524 29.5055 14.2965 29.5055 14.4186 29.6279C14.5406 29.7503 14.7849 30.0198 14.7849 30.0198C14.7849 30.0198 14.907 30.1913 14.6629 30.2648C14.4188 30.3383 14.0526 30.4608 14.0526 30.4608C14.0526 30.4608 13.6376 30.5588 13.5154 30.4364C13.3935 30.3138 13.0759 29.9708 13.0759 29.9708C13.0759 29.9708 13.0514 29.6769 13.149 29.6769Z" fill="#927B5D"/>
<path d="M13.1437 29.649L13.1403 29.6495L13.1488 29.6485L13.0933 29.6738C13.0301 29.7425 13.0454 29.9498 13.0473 29.9732L13.0481 29.9832L13.4948 30.4565C13.6244 30.5865 14.0145 30.499 14.0586 30.4887L14.6707 30.2921C14.76 30.2653 14.8156 30.2219 14.8355 30.1634C14.863 30.0826 14.8098 30.0066 14.8075 30.0033C14.8055 30.0007 14.4384 29.6079 14.4384 29.6079C14.3095 29.4786 14.0627 29.4771 14.0522 29.4771L13.1437 29.649ZM13.1011 29.8961C13.1011 29.8231 13.1094 29.7404 13.1351 29.7124L13.149 29.7053L13.1543 29.705L14.0577 29.5334C14.0548 29.5339 14.2864 29.5354 14.3986 29.648L14.7638 30.0389C14.7621 30.0369 14.8002 30.0923 14.782 30.1451C14.7681 30.1851 14.7252 30.2162 14.6545 30.2376L14.0435 30.4338C13.9347 30.4593 13.6263 30.5073 13.5353 30.4161L13.1037 29.9589C13.1021 29.938 13.1012 29.917 13.1011 29.8961Z" fill="black"/>
<path d="M11.6842 26.3206C11.6842 26.3206 11.5377 25.3162 11.8796 25.2915C12.2214 25.2671 12.4899 25.61 13.2468 25.2671C14.0037 24.9242 14.5652 25.4141 14.5408 26.1001C14.5164 26.786 14.5164 27.5946 13.5398 27.0556C12.563 26.5167 12.2456 26.443 11.6842 26.3206Z" fill="white"/>
<path d="M13.2312 25.2327C12.7287 25.4602 12.4551 25.3804 12.2134 25.31C12.0998 25.2769 11.9926 25.2456 11.8768 25.2538C11.819 25.258 11.7696 25.285 11.7303 25.3342C11.5394 25.5725 11.6423 26.2953 11.6468 26.3261L11.6505 26.3521L11.6761 26.3576C12.2129 26.4746 12.5369 26.5454 13.5215 27.0888C13.8568 27.2739 14.103 27.3164 14.2744 27.2186C14.5453 27.0642 14.561 26.6034 14.5763 26.1577L14.5784 26.1014C14.5911 25.7432 14.4463 25.4268 14.1912 25.2549C13.9294 25.0786 13.5885 25.0707 13.2312 25.2327ZM13.2622 25.3017C13.5949 25.1509 13.9098 25.1567 14.1492 25.3179C14.3825 25.475 14.5147 25.767 14.5029 26.0989L14.501 26.1551C14.4871 26.5604 14.4713 27.0195 14.2372 27.1529C14.0925 27.2353 13.864 27.1916 13.558 27.0226C12.58 26.4827 12.2462 26.4046 11.7183 26.2894C11.7008 26.1501 11.6916 26.0098 11.6907 25.8694C11.6907 25.679 11.7119 25.4786 11.7893 25.3819C11.8154 25.3494 11.8458 25.3322 11.8823 25.3296C11.9847 25.3223 12.0809 25.3504 12.1926 25.3829C12.4338 25.4532 12.7344 25.5408 13.2622 25.3017Z" fill="black"/>
<path d="M11.7574 27.08L11.7085 27.4476L12.7095 27.4966L12.6851 27.1291L11.7574 27.08Z" fill="white"/>
<path d="M11.7198 27.0751L11.6656 27.4835L12.75 27.5366L12.7206 27.093L11.7245 27.0403L11.7198 27.0751ZM11.7902 27.1198L12.6496 27.1653L12.669 27.4567L11.7514 27.4118L11.7902 27.1198Z" fill="black"/>
<path d="M13.564 29.7749L13.9303 29.6032C13.9303 29.6032 14.3452 29.8237 14.4428 30.1422L14.0766 30.2892L13.564 29.7749Z" fill="white"/>
<path d="M13.9143 29.569L13.4991 29.7633L14.0675 30.3338L14.4892 30.1646L14.4789 30.1312C14.3778 29.8014 13.9652 29.5792 13.9477 29.5699L13.9311 29.5611L13.9143 29.569ZM13.9287 29.6459C13.998 29.6857 14.296 29.8709 14.3929 30.1216L14.0858 30.2448L13.6288 29.7862L13.9287 29.6459Z" fill="black"/>
<path d="M10.9273 28.2805C10.9273 28.2805 11.269 27.7662 11.1714 28.3541C11.0738 28.9419 11.0005 29.8974 11.147 30.1668C11.2935 30.4364 11.269 30.9998 10.854 30.3629C10.439 29.726 10.9273 28.2805 10.9273 28.2805Z" fill="white"/>
<path d="M10.8957 28.2594L10.893 28.2635L10.8914 28.2681C10.8712 28.3279 10.402 29.7385 10.8224 30.3834C10.9866 30.6356 11.1094 30.7323 11.1976 30.6793C11.3105 30.6116 11.2678 30.3097 11.1801 30.1486C11.0398 29.8904 11.1141 28.9288 11.2086 28.3601C11.2419 28.1595 11.2299 28.0636 11.1679 28.039C11.0813 28.0049 10.9602 28.1625 10.8957 28.2594ZM11.1395 28.1105C11.1412 28.1122 11.1511 28.1242 11.1511 28.181C11.1511 28.2168 11.147 28.2697 11.134 28.3478C11.0789 28.6796 11.0256 29.1667 11.0256 29.5673C11.0256 29.8368 11.0497 30.0673 11.1137 30.1849C11.1673 30.2834 11.1906 30.4044 11.1906 30.4934C11.1906 30.5555 11.1793 30.602 11.1587 30.6144C11.1559 30.6161 11.0875 30.6521 10.8856 30.3421C10.7667 30.1596 10.7248 29.9062 10.7248 29.6394C10.7248 29.0197 10.9497 28.3325 10.9612 28.2978C11.0278 28.1989 11.1108 28.1115 11.1395 28.1105Z" fill="black"/>
<path d="M14.4413 24.6252L13.9406 25.1227L14.154 25.2034L14.3958 24.9781L15.0798 26.0629L15.2886 25.992L15.2171 25.179C15.2416 25.087 15.3476 24.6627 15.3476 24.2176C15.3476 23.9014 15.2936 23.5765 15.1172 23.3579L14.8218 23.2839C14.9597 23.4548 15.1224 23.9382 15.1224 24.2067C15.1224 24.6655 15.004 25.0748 15.0019 25.0822L14.8216 25.2229" fill="white"/>
<path d="M12.9893 22.3598C13.0397 22.4115 14.1102 23.644 16.4338 23.3712L16.6941 23.1333C14.0107 23.3242 12.8908 22.0701 12.8793 22.0583L12.9893 22.3598Z" fill="white"/>
<path d="M22.5402 23.8965C22.5402 23.8965 22.3021 24.5415 22.3021 24.6131C22.3021 24.6847 22.2782 24.9715 22.4211 25.1149C22.564 25.2581 23.2543 25.8315 23.0878 26.8347C22.921 27.8381 22.7069 28.4592 22.7069 28.4592C22.7069 28.4592 23.302 28.6742 23.3972 29.1758C23.4926 29.6774 23.8973 32.4964 23.8973 32.4964C23.8973 32.4964 23.9211 33.3803 24.0164 32.353C24.1116 31.3258 23.8259 28.1247 23.7782 27.838C23.7307 27.5514 24.0164 26.8587 24.0164 26.8587C24.0164 26.8587 24.5163 26.5719 23.9211 25.8315C23.9211 25.8315 23.7307 25.6165 23.8021 25.3538C23.8735 25.0912 23.6592 24.7088 23.5878 24.5894C23.5163 24.4699 23.5878 24.0876 23.683 23.9683C23.7782 23.849 24.3258 23.156 24.2781 22.7499C24.2305 22.3438 23.921 20.8628 23.921 20.8628L22.4688 21.6988L22.5402 23.8965Z" fill="#915A58"/>
<path d="M23.8832 20.7968L22.3916 21.6556L22.4642 23.8841C22.3731 24.1315 22.2266 24.5402 22.2266 24.613L22.2261 24.6388C22.2257 24.6569 22.225 24.6787 22.225 24.7035C22.225 24.8335 22.2406 25.0406 22.3678 25.1681L22.4067 25.2058C22.5723 25.3642 23.0378 25.8098 23.0378 26.5316C23.0378 26.6241 23.0303 26.7208 23.0133 26.822C22.8498 27.8065 22.6376 28.4281 22.6356 28.4341L22.6112 28.5047L22.6812 28.5301C22.6867 28.5322 23.237 28.7374 23.323 29.1898C23.4161 29.6807 23.8126 32.4382 23.8218 32.5029C23.8325 32.8852 23.8613 32.9229 23.9352 32.9253C24.0205 32.9283 24.0433 32.8797 24.0915 32.3597C24.1052 32.2118 24.1112 32.0206 24.1112 31.8004C24.1112 30.4629 23.8913 28.0573 23.8527 27.8252C23.8495 27.805 23.848 27.7845 23.8482 27.764C23.8482 27.5283 24.004 27.0911 24.0781 26.9076C24.1267 26.8731 24.2431 26.7742 24.2785 26.5862C24.2852 26.5511 24.2884 26.5151 24.2884 26.4784C24.2884 26.272 24.185 26.039 23.9798 25.7837C23.9767 25.7799 23.8618 25.646 23.8618 25.4728C23.8618 25.4408 23.8657 25.4076 23.875 25.3735C23.8868 25.3301 23.892 25.2845 23.892 25.2375C23.892 24.9917 23.7489 24.7109 23.6527 24.55C23.6398 24.5286 23.6343 24.4897 23.6343 24.442C23.6343 24.3035 23.682 24.0907 23.742 24.0153C23.9318 23.7772 24.3567 23.1999 24.3567 22.8C24.3567 22.7797 24.3557 22.7601 24.3533 22.7408C24.3058 22.3361 24.0078 20.9075 23.9951 20.8469L23.9736 20.7447L23.8832 20.7968ZM23.8681 20.9805C23.9381 21.3188 24.1634 22.4213 24.203 22.7587C24.2047 22.7733 24.2056 22.7883 24.2056 22.804C24.2056 23.1625 23.7642 23.7449 23.6239 23.9208C23.5504 24.0129 23.4839 24.2498 23.4839 24.4358C23.4839 24.5135 23.4954 24.5825 23.523 24.6283C23.6633 24.8631 23.7405 25.0826 23.7405 25.2396C23.7405 25.2742 23.7367 25.3057 23.7292 25.3337C23.716 25.3824 23.7103 25.4296 23.7103 25.4743C23.7103 25.7045 23.8572 25.8734 23.8645 25.8818C24.0435 26.1045 24.137 26.3103 24.137 26.4803C24.137 26.5061 24.1349 26.5311 24.1304 26.5552C24.1224 26.6031 24.1048 26.649 24.0786 26.6899C24.0524 26.7308 24.0182 26.7659 23.9781 26.7931L23.9565 26.806L23.9464 26.8296C23.9189 26.8964 23.6973 27.4436 23.6973 27.7658C23.6973 27.7961 23.6992 27.8245 23.7036 27.8504C23.7419 28.0807 23.9604 30.4684 23.9604 31.7935C23.9604 31.9875 23.9548 32.1538 23.9441 32.2922C23.8518 31.6532 23.5516 29.5835 23.4715 29.1615C23.3875 28.7191 22.9639 28.4902 22.8001 28.4165C22.8572 28.2356 23.026 27.6686 23.1624 26.8471C23.1809 26.7358 23.1891 26.6296 23.1891 26.5282C23.1891 25.7455 22.6889 25.2666 22.5108 25.0962L22.4746 25.061C22.3873 24.9734 22.3763 24.8032 22.3763 24.6987C22.3763 24.6767 22.3769 24.6577 22.3772 24.6428L22.3777 24.613C22.3827 24.5641 22.5002 24.2229 22.611 23.9227L22.6162 23.9086L22.5457 21.7415C22.6157 21.7016 23.7137 21.0693 23.8681 20.9805Z" fill="black"/>
<path d="M23.9548 20.712L23.8645 20.764L22.3532 21.6341L22.4261 23.8781C22.2686 24.3055 22.1886 24.5531 22.1886 24.6132L22.1871 24.7037C22.1871 24.9306 22.2374 25.0913 22.3408 25.1951L22.3801 25.2334C22.5498 25.3957 22.9997 25.8262 22.9997 26.5318C22.9997 26.6249 22.9917 26.7205 22.9757 26.816C22.8119 27.8025 22.6016 28.4157 22.5995 28.4219L22.5631 28.5279L22.6681 28.5661C22.6734 28.5682 23.2042 28.7677 23.2857 29.1972C23.3783 29.6848 23.7678 32.3934 23.7842 32.5086C23.7942 32.8782 23.8208 32.9598 23.9338 32.9636C24.062 32.9679 24.0822 32.8691 24.129 32.3635C24.1423 32.2213 24.1488 32.0319 24.1488 31.8008C24.1488 30.4743 23.9287 28.0537 23.8897 27.8194L23.886 27.7643C23.886 27.5455 24.0304 27.1286 24.1097 26.9308C24.2182 26.8485 24.2917 26.728 24.3155 26.5936L24.3262 26.4788C24.3262 26.2636 24.2195 26.0219 24.0093 25.7603C23.9973 25.7462 23.8995 25.626 23.8995 25.4733L23.9113 25.384C23.9235 25.3394 23.9295 25.2903 23.9295 25.238C23.9295 24.992 23.7966 24.7178 23.6849 24.531C23.6818 24.5259 23.6719 24.5044 23.6719 24.4426C23.6719 24.3023 23.7211 24.1026 23.7714 24.0396C23.9587 23.8048 24.3943 23.214 24.3943 22.8005L24.3907 22.7367C24.3419 22.3206 24.035 20.8543 24.0319 20.8395L24 20.6863L23.9548 20.712ZM23.9021 20.8297L23.9472 20.8037L23.9578 20.8547C23.9609 20.8695 24.2678 22.3392 24.3153 22.7453L24.3184 22.8C24.3184 23.1894 23.8945 23.763 23.7122 23.9916C23.6458 24.0749 23.596 24.2981 23.596 24.4419C23.596 24.5007 23.6038 24.5424 23.6199 24.5694C23.7072 24.7156 23.8539 24.9967 23.8539 25.2373C23.8542 25.2798 23.849 25.3222 23.8383 25.3633L23.8239 25.4726C23.8239 25.6525 23.9379 25.7925 23.9508 25.8078C24.1495 26.0552 24.2505 26.2808 24.2505 26.4783L24.2412 26.5791C24.22 26.6985 24.1536 26.8051 24.056 26.8766L24.047 26.883L24.0429 26.8933C23.9566 27.1073 23.8103 27.5312 23.8103 27.764L23.8153 27.8316C23.8541 28.065 24.0733 30.4775 24.0733 31.8006C24.0733 32.0295 24.0666 32.2165 24.0537 32.3563C24.0086 32.8438 23.9856 32.8892 23.9362 32.8875C23.9007 32.8863 23.87 32.8852 23.8594 32.5017C23.8424 32.3822 23.4528 29.6719 23.3598 29.1826C23.2696 28.7076 22.6995 28.4966 22.6937 28.4943L22.6587 28.4816L22.6709 28.4463C22.6729 28.4403 22.887 27.8115 23.0502 26.828C23.0668 26.7284 23.0752 26.6287 23.0752 26.5315C23.0752 25.7933 22.5914 25.3305 22.4324 25.1783L22.3938 25.1408C22.3056 25.0523 22.2626 24.9091 22.2626 24.7034L22.2641 24.6135C22.2641 24.5946 22.2811 24.4892 22.4995 23.8969L22.5021 23.8898L22.4302 21.6766C22.4684 21.6551 23.9021 20.8297 23.9021 20.8297Z" fill="black"/>
<path d="M23.8494 20.9476L22.5072 21.7204L22.5782 23.9027L22.5757 23.9098C22.4878 24.1473 22.3465 24.5474 22.3401 24.6094L22.3395 24.6422L22.3386 24.6989C22.3386 24.8843 22.3753 25.0153 22.448 25.0881L22.4848 25.1237C22.6673 25.2984 23.1514 25.762 23.1514 26.5283C23.1514 26.6308 23.1426 26.7359 23.1251 26.8409C22.9917 27.6452 22.8282 28.2027 22.7642 28.4052L22.7539 28.4374L22.7846 28.4513C22.9534 28.527 23.3547 28.7489 23.4345 29.1688C23.5142 29.5884 23.8161 31.6699 23.9069 32.2979L23.982 32.2953C23.9928 32.1542 23.9983 31.9853 23.9983 31.7937C23.9983 30.4798 23.7798 28.0774 23.741 27.8443L23.7352 27.766C23.7352 27.4501 23.9561 26.9053 23.9814 26.8442L23.9863 26.8325L23.9975 26.8258C24.0422 26.7958 24.0804 26.7569 24.1097 26.7115C24.139 26.6662 24.1588 26.6153 24.1678 26.5621L24.1749 26.4805C24.1749 26.302 24.0778 26.0868 23.894 25.8582C23.887 25.8503 23.748 25.6904 23.748 25.4745C23.748 25.4306 23.7539 25.3867 23.7655 25.3439L23.7782 25.2397C23.7782 25.0733 23.6992 24.8493 23.5554 24.6088C23.5334 24.572 23.5218 24.5121 23.5218 24.4358C23.5218 24.2621 23.5834 24.0325 23.6535 23.9446C23.792 23.7712 24.2435 23.1765 24.2435 22.8041L24.2407 22.7546C24.2009 22.4149 23.974 21.3052 23.9054 20.9729L23.8947 20.9218L23.8494 20.9476ZM23.8417 21.0394C23.9193 21.4153 24.1277 22.4402 24.1654 22.7632L24.1677 22.804C24.1677 23.1517 23.7288 23.7285 23.5943 23.897C23.5139 23.9979 23.4459 24.2446 23.4459 24.4358C23.4459 24.5272 23.4609 24.5985 23.4904 24.6477C23.6252 24.8732 23.7024 25.0889 23.7024 25.2395L23.6923 25.3237C23.679 25.3728 23.6722 25.4235 23.6722 25.4743C23.6722 25.7145 23.8192 25.888 23.8361 25.9069C24.0076 26.1207 24.099 26.3194 24.099 26.4803L24.0932 26.5485C24.086 26.591 24.0704 26.6316 24.0473 26.668C24.0243 26.7044 23.9942 26.7358 23.9589 26.7604L23.9266 26.7795L23.9117 26.8146C23.8858 26.8776 23.6595 27.4352 23.6595 27.7658L23.6664 27.8566C23.705 28.0888 23.9227 30.4829 23.9227 31.7935C23.9227 31.8214 23.9217 31.8448 23.9215 31.8717C23.7975 31.0177 23.5755 29.5065 23.5087 29.1543C23.4264 28.7214 23.0382 28.4878 22.8459 28.3966C22.9155 28.1724 23.0711 27.6281 23.1998 26.8533C23.2178 26.7442 23.2272 26.6347 23.2272 26.5282C23.2272 25.7293 22.726 25.2494 22.5372 25.0688L22.501 25.0337C22.4438 24.976 22.4142 24.8631 22.4142 24.6985L22.4156 24.6137C22.4194 24.5766 22.5275 24.2584 22.6467 23.9358L22.6544 23.9148L22.5846 21.7631L23.8417 21.0394Z" fill="black"/>
<path d="M24.5399 23.0605C24.5399 23.0605 24.5636 23.6338 24.9684 23.2755C25.3731 22.9171 25.3018 22.6783 25.5636 22.4155C25.8253 22.1528 25.7303 21.9617 25.7303 21.7705V21.1733C25.7303 21.1733 25.516 20.9105 25.4685 20.9822L24.9767 21.3134" fill="#E1BA9B"/>
<path d="M25.4865 20.8939C25.4704 20.8946 25.4546 20.8992 25.4405 20.9072C25.4264 20.9152 25.4145 20.9265 25.4056 20.9401L25.4263 20.9191L24.9345 21.2503L25.0187 21.3763L25.4989 21.0528C25.532 21.0718 25.5958 21.1325 25.6547 21.2016V21.7703L25.6632 21.8975C25.6674 21.9386 25.6715 21.9784 25.6715 22.018C25.6715 22.1235 25.6425 22.2287 25.51 22.3618C25.387 22.4852 25.3308 22.6062 25.2764 22.7234C25.2073 22.8722 25.1357 23.026 24.9184 23.2185C24.8307 23.2961 24.7564 23.3304 24.7146 23.3127C24.6535 23.2867 24.6194 23.1448 24.6154 23.0572L24.4644 23.0636C24.4658 23.0956 24.4825 23.3782 24.6552 23.4521C24.7571 23.4956 24.8793 23.4554 25.0184 23.3323C25.2594 23.1188 25.3412 22.9429 25.4133 22.7875C25.4668 22.6726 25.5128 22.5735 25.6169 22.4688C25.8501 22.2351 25.8298 22.0392 25.8135 21.8818L25.8058 21.7703V21.1461L25.7886 21.1251C25.7008 21.0172 25.5769 20.8895 25.4865 20.8939Z" fill="black"/>
<path d="M22.024 20.5416L22.2422 21.2535L23.5156 20.7972L23.2246 19.9575L22.024 20.5416Z" fill="#E1BA9B"/>
<path d="M23.1915 19.8892L21.9325 20.5016L22.1931 21.3515L23.6115 20.8431L23.268 19.8518L23.1915 19.8892ZM23.1811 20.0628L23.4197 20.7511L22.2912 21.1554L22.1152 20.5815L23.1811 20.0628Z" fill="black"/>
<path d="M22.5402 20.8626C22.5402 20.8626 22.2545 21.1015 22.1355 21.1731C22.0396 21.2306 21.9591 21.3107 21.901 21.4065C21.843 21.5022 21.809 21.6107 21.8022 21.7226C21.7783 22.0331 21.8022 22.5349 21.7546 22.6303C21.7071 22.7258 21.8498 23.0603 21.9451 23.1798C22.0404 23.2992 22.1355 23.4424 22.1355 23.4424V23.9201C22.1355 23.9201 22.7784 24.1351 22.826 23.5617C22.8735 22.9883 22.6971 22.7866 22.6971 22.7866C22.6971 22.7866 22.7448 22.3824 22.6971 22.239C22.6496 22.0956 22.9169 22.0342 22.9883 21.8192C23.0596 21.6042 23.3842 21.6999 23.4794 21.5088C23.4794 21.5088 23.5142 21.8596 23.7523 22.0746C23.7523 22.0746 23.326 22.5585 23.4212 22.7974C23.5165 23.0362 23.9211 23.3708 24.1829 23.0601L24.3497 22.6301L24.3258 23.0362C24.3258 23.0362 24.5403 23.2035 24.802 22.7974C25.0638 22.3914 25.1352 21.8419 25.159 21.7224C25.1829 21.603 25.3258 21.1969 25.421 21.0535C25.5162 20.9101 25.3496 20.504 25.2306 20.4085C25.1115 20.313 24.5265 20.1226 24.4075 20.5049L23.8616 20.2128C23.8616 20.2128 23.7784 20.0264 23.5641 20.2414C23.3499 20.4565 23.0641 20.6953 23.0641 20.6953" fill="#E1BA9B"/>
<path d="M23.5104 20.1878C23.3012 20.398 23.0184 20.6347 23.0155 20.6371L23.1123 20.7536C23.1239 20.7438 23.4031 20.5101 23.6173 20.2951C23.6729 20.2393 23.7245 20.2092 23.7558 20.2143C23.7793 20.2181 23.7928 20.245 23.793 20.2451L23.8036 20.2668L23.8257 20.2797L24.4519 20.6149L24.4792 20.5274C24.5044 20.4462 24.5569 20.3946 24.6394 20.3692C24.8257 20.3121 25.112 20.4109 25.1831 20.4677C25.2913 20.5546 25.4212 20.9161 25.3579 21.0115C25.2568 21.1638 25.1108 21.577 25.0848 21.7074L25.0743 21.7649C25.0436 21.9409 24.9623 22.4084 24.7382 22.7561C24.6264 22.9298 24.5318 22.9799 24.4725 22.9913C24.4498 22.9959 24.4263 22.9946 24.4042 22.9876L24.425 22.6344L24.2792 22.6024L24.1188 23.0162C24.0534 23.0901 23.9779 23.1205 23.8873 23.1059C23.7223 23.079 23.5461 22.9067 23.4912 22.7689C23.4375 22.6344 23.6446 22.3111 23.8088 22.1245L23.8583 22.0681L23.8028 22.0178C23.59 21.8257 23.5549 21.5038 23.5545 21.5007L23.5279 21.2416L23.4118 21.4744C23.3835 21.531 23.3198 21.5513 23.2186 21.5778C23.1064 21.6071 22.9668 21.6438 22.9165 21.7947C22.8891 21.8773 22.8227 21.9345 22.7585 21.9896C22.6769 22.0596 22.5846 22.1392 22.6254 22.2624C22.6561 22.3552 22.6397 22.6274 22.622 22.7771L22.6182 22.8093L22.6397 22.8351C22.6412 22.837 22.7942 23.0295 22.7506 23.5548C22.7398 23.685 22.6961 23.7736 22.617 23.8263C22.4883 23.9118 22.3 23.8819 22.2111 23.8611V23.4171L22.0041 23.1317C21.915 23.0202 21.8198 22.769 21.8198 22.6828C21.8198 22.6747 21.8207 22.6678 21.8226 22.6628C21.857 22.5938 21.8608 22.4291 21.8646 22.144L21.8776 21.7278C21.8833 21.6279 21.9133 21.531 21.965 21.4455C22.0168 21.36 22.0887 21.2886 22.1744 21.2375C22.2971 21.1637 22.5769 20.9301 22.5887 20.9201L22.492 20.8036C22.489 20.806 22.2094 21.0396 22.0967 21.1074C21.9907 21.1714 21.9017 21.2601 21.8373 21.3661C21.7729 21.4721 21.7351 21.5922 21.727 21.7161L21.7135 22.1419C21.7112 22.3146 21.7081 22.5513 21.687 22.5957C21.6751 22.6224 21.6694 22.6516 21.6704 22.6809C21.6704 22.852 21.8075 23.1279 21.886 23.2264L22.06 23.4664V23.9742L22.1116 23.9915C22.126 23.9964 22.4666 24.1076 22.6999 23.9533C22.8188 23.8745 22.8865 23.7449 22.9013 23.5676C22.9071 23.4982 22.9095 23.4338 22.9095 23.3743C22.9095 23.0154 22.8176 22.8322 22.7752 22.7663C22.7814 22.7093 22.7937 22.5786 22.7937 22.4485C22.7937 22.3586 22.7875 22.2714 22.7687 22.2146C22.7678 22.2121 22.7674 22.2095 22.7675 22.2068C22.7675 22.1843 22.7978 22.1554 22.8568 22.1047C22.9292 22.0426 23.0193 21.9651 23.06 21.8426C23.0829 21.7732 23.1497 21.7525 23.2567 21.7245C23.3154 21.7092 23.3775 21.6913 23.4324 21.6596C23.4631 21.7758 23.5278 21.9405 23.6515 22.0769C23.5525 22.198 23.3324 22.4922 23.3324 22.7212C23.3324 22.7578 23.3382 22.793 23.3509 22.8251C23.4221 23.0035 23.6381 23.2188 23.8631 23.2555C24.0091 23.2792 24.1397 23.2285 24.2406 23.1087L24.2488 23.099L24.2569 23.0782L24.2793 23.0957C24.2882 23.1026 24.3692 23.1625 24.4939 23.1414C24.625 23.1192 24.7499 23.0171 24.8653 22.8382C25.106 22.4649 25.1913 21.9751 25.2234 21.7909L25.233 21.7371C25.2566 21.6185 25.3965 21.2268 25.4836 21.0953C25.6063 20.9106 25.4176 20.4615 25.2774 20.3491C25.175 20.267 24.8415 20.1484 24.5952 20.224C24.4951 20.2546 24.4195 20.315 24.3713 20.3995L23.9144 20.1551C23.8999 20.1319 23.8809 20.1119 23.8584 20.0964C23.8359 20.0809 23.8105 20.0702 23.7837 20.0649C23.699 20.0496 23.607 20.0909 23.5104 20.1878Z" fill="black"/>
<path d="M24.326 20.5132C24.3816 20.6063 24.4166 21.0332 24.4166 21.1255V22.1289C24.4166 22.2599 24.3953 22.3485 24.3951 22.3494L24.5418 22.386C24.5428 22.3817 24.5679 22.2798 24.5679 22.1289V21.1255C24.5679 21.0766 24.542 20.5796 24.4557 20.4354L24.326 20.5132Z" fill="black"/>
<path d="M10.8981 13.6531C10.8981 13.6531 10.021 13.723 9.82591 13.5553C9.63103 13.3877 9.50563 12.8986 9.53342 12.8287C9.56138 12.7589 9.70051 12.675 9.70051 12.675C9.70051 12.675 9.33854 12.9265 9.1157 12.8427C8.89302 12.7589 8.46123 12.1579 8.46123 12.1579C8.46123 12.1579 8.39158 11.6271 8.57257 11.4454C8.75355 11.2637 8.78152 11.2218 8.78152 11.2218C8.78152 11.2218 8.3499 11.1101 8.65629 10.8027C8.9625 10.4952 9.1018 10.5651 9.18534 10.691C9.18534 10.691 8.87896 10.2858 9.18534 10.132C9.49173 9.97832 9.65882 10.146 9.65882 10.146L9.78422 10.3138L9.03232 9.08423C9.03232 9.08423 8.83727 8.5253 9.00436 8.32975C9.00436 8.32975 9.21331 7.85465 9.63103 8.00837C9.63103 8.00837 9.64493 8.5673 9.63103 8.60913C9.61714 8.65096 9.74237 8.9584 9.82591 9.08423C9.90946 9.20989 10.4107 9.75488 10.5222 9.81083C10.6337 9.86677 10.8981 9.93649 10.9677 10.0623C11.0374 10.1882 11.1626 10.3138 11.1348 10.5235C11.107 10.7331 11.0652 11.6692 11.1209 11.7531C11.1767 11.8369 11.3019 11.8229 11.3158 12.0744C11.3297 12.3259 11.5387 12.4376 11.5387 12.4376L11.65 13.0944L11.3297 13.7511L10.8981 13.6531Z" fill="#E1BA9B"/>
<path d="M8.9366 8.2967C8.88205 8.3709 8.86146 8.47383 8.86146 8.58314C8.86146 8.81449 8.94672 9.06857 8.96096 9.10937L8.9637 9.11694L9.50391 10.0002C9.41299 9.98538 9.29702 9.9914 9.15172 10.0642C9.06149 10.1095 9.00282 10.1802 8.98223 10.2689C8.97653 10.2941 8.97371 10.3198 8.97382 10.3457C8.97382 10.4028 8.98823 10.4577 9.00642 10.5101C8.89182 10.5145 8.75956 10.5922 8.60293 10.7493C8.51493 10.8375 8.47067 10.9234 8.47067 11.0051C8.47067 11.0253 8.47341 11.0449 8.47873 11.0645C8.50446 11.1595 8.58492 11.2167 8.65474 11.2518C8.62438 11.2843 8.58423 11.3267 8.51922 11.3919C8.39793 11.5136 8.37186 11.7486 8.37186 11.9293C8.37186 12.049 8.38335 12.1448 8.38627 12.1681L8.38884 12.187L8.39999 12.2025C8.44562 12.2659 8.85185 12.8244 9.08928 12.9138C9.20336 12.9566 9.33905 12.93 9.45777 12.8859C9.46977 13.0735 9.60015 13.4608 9.77668 13.6128C9.98099 13.7886 10.7212 13.7426 10.8923 13.7295L11.3712 13.838L11.7286 13.1055L11.6069 12.3886L11.5745 12.3707C11.5675 12.3667 11.4026 12.2738 11.3913 12.0698C11.3805 11.8734 11.3081 11.8063 11.2285 11.7496L11.1861 11.7128C11.1741 11.6775 11.1691 11.5615 11.1691 11.4121C11.1691 11.1158 11.1884 10.6934 11.2096 10.5331C11.2129 10.5092 11.2143 10.4863 11.2143 10.4641C11.2143 10.3076 11.141 10.1945 11.0808 10.1014L11.0338 10.0253C10.9691 9.90826 10.7983 9.84113 10.6612 9.78707L10.556 9.74283C10.4665 9.69791 9.97808 9.17616 9.88887 9.04206C9.81013 8.92363 9.71012 8.66801 9.706 8.61877C9.70926 8.59898 9.71303 8.5513 9.71303 8.41427C9.71303 8.32321 9.71132 8.19308 9.70668 8.00631L9.70548 7.95484L9.65711 7.93711C9.27558 7.79682 9.01963 8.10959 8.9366 8.2967ZM9.01208 8.57815C9.01208 8.49329 9.02598 8.42082 9.06166 8.37916L9.06886 8.37072L9.0735 8.36039C9.08053 8.34456 9.24453 7.99684 9.55658 8.07034C9.5595 8.20203 9.56155 8.33664 9.56155 8.43648C9.56155 8.51687 9.56035 8.57488 9.55761 8.59106C9.55517 8.59903 9.55401 8.60734 9.55418 8.61568C9.55418 8.73428 9.71543 9.05497 9.76295 9.12606C9.83998 9.24191 10.3524 9.81014 10.4883 9.87848L10.6059 9.92823C10.7084 9.96851 10.8633 10.0296 10.9017 10.099L10.954 10.1842C11.0099 10.2706 11.0631 10.3527 11.0631 10.4643C11.0631 10.4799 11.0621 10.4963 11.0599 10.5133C11.0491 10.5951 11.0182 11.0416 11.0182 11.3874C11.0182 11.5852 11.0283 11.7501 11.058 11.7949L11.141 11.8734C11.1921 11.9099 11.2326 11.9386 11.2403 12.0784C11.253 12.3084 11.4023 12.4363 11.4697 12.4829L11.5714 13.0828L11.2882 13.6638L10.9036 13.5767L10.8923 13.5776C10.5651 13.6035 9.99969 13.6049 9.87515 13.4978C9.7108 13.3565 9.60496 12.9563 9.60496 12.862C9.60496 12.859 9.60513 12.857 9.60547 12.8547C9.61662 12.8312 9.66637 12.7892 9.71492 12.7566L9.74374 12.7377L9.66174 12.6103L9.65745 12.6131C9.56533 12.6768 9.29394 12.8291 9.14229 12.7719C8.99904 12.7181 8.69917 12.3566 8.53449 12.13C8.52711 12.0638 8.52345 11.9972 8.52351 11.9305C8.52351 11.7699 8.54478 11.5811 8.62626 11.4993C8.80365 11.3213 8.83916 11.2723 8.84448 11.2642L8.90315 11.1757L8.80056 11.1487C8.76076 11.138 8.64273 11.0926 8.62438 11.0244C8.62272 11.0182 8.62191 11.0119 8.62198 11.0055C8.62198 10.9555 8.66812 10.8981 8.70964 10.8564C8.88016 10.6853 8.97623 10.6553 9.02683 10.6603C9.04862 10.6624 9.08224 10.6724 9.12256 10.733L9.12513 10.7368L9.2483 10.6488C9.24745 10.6474 9.24607 10.6469 9.24522 10.6455L9.24573 10.6452C9.20885 10.5961 9.12479 10.4579 9.12479 10.3455C9.12479 10.3309 9.12616 10.3166 9.12942 10.303C9.13971 10.2587 9.16905 10.2248 9.21914 10.1997C9.45982 10.0788 9.58917 10.1854 9.60324 10.198L9.72367 10.3591L9.84873 10.2739L9.10163 9.05222C9.0572 8.92311 9.01208 8.73066 9.01208 8.57815Z" fill="black"/>
<path d="M9.92389 12.6637C10.1462 13.1737 10.936 12.8431 10.9695 12.8288L10.9103 12.6892C10.9034 12.6921 10.2248 12.9759 10.0622 12.6029C9.87276 12.1683 9.82919 11.541 10.0697 11.3358L9.97175 11.2203C9.66691 11.4802 9.70945 12.1721 9.92389 12.6637Z" fill="black"/>
<path d="M9.97295 10.2104C9.93589 10.2135 9.60754 10.2443 9.48025 10.372C9.45727 10.3949 9.41712 10.4204 9.37441 10.4474C9.23717 10.534 9.02994 10.665 9.05447 10.9493C9.07643 11.2031 9.01621 11.3298 8.98019 11.4053L8.94708 11.4792C8.90985 11.5589 8.84758 11.6925 8.87383 11.9023C8.89596 12.0794 8.93198 12.2745 9.08037 12.3466C9.18159 12.3956 9.3063 12.3736 9.46156 12.2789C9.87379 12.0278 10.0325 11.3652 10.039 11.3372L9.8918 11.3026C9.89026 11.3088 9.74084 11.9314 9.38316 12.1493C9.31008 12.1939 9.20955 12.2405 9.14625 12.2099C9.05944 12.1677 9.03543 11.9756 9.02393 11.8834C9.02067 11.8575 9.01901 11.8315 9.01896 11.8054C9.01896 11.6833 9.05738 11.6011 9.08415 11.5434L9.10267 11.5017L9.11691 11.4706C9.15105 11.3986 9.21058 11.2735 9.21058 11.0531C9.21058 11.0168 9.20886 10.9777 9.20526 10.9361C9.20439 10.9256 9.20393 10.9151 9.20389 10.9046C9.20389 10.7343 9.33152 10.6536 9.45521 10.5756C9.5053 10.544 9.55231 10.5142 9.5873 10.4792C9.65318 10.4131 9.8611 10.3729 9.98067 10.3622L10.5993 10.4173L10.6127 10.2663L9.97964 10.2098L9.97295 10.2104Z" fill="black"/>
<path d="M7.89377 8.19255C9.85166 8.19255 11.4388 6.59993 11.4388 4.63532C11.4388 2.67072 9.85166 1.07809 7.89377 1.07809C5.93588 1.07809 4.34869 2.67072 4.34869 4.63532C4.34869 6.59993 5.93588 8.19255 7.89377 8.19255Z" fill="#935A59"/>
<path d="M4.27304 4.63535C4.27304 6.63869 5.89727 8.26849 7.89377 8.26849C9.89026 8.26849 11.5143 6.63869 11.5143 4.63535C11.5143 2.63201 9.89026 1.00238 7.89377 1.00238C5.89727 1.00238 4.27304 2.63218 4.27304 4.63535ZM4.42418 4.63535C4.42418 2.71567 5.98065 1.15386 7.89377 1.15386C9.80689 1.15386 11.3634 2.71567 11.3634 4.63535C11.3634 6.55503 9.80689 8.11684 7.89377 8.11684C5.98065 8.11701 4.42418 6.5552 4.42418 4.63535Z" fill="black"/>
<path d="M7.71536 1.08603C7.69632 1.11254 7.2484 1.74584 7.27413 2.49516C7.33383 4.2279 6.79345 5.1812 5.66826 5.32837L4.51218 5.42701C4.48222 5.42956 4.4545 5.44396 4.43512 5.46702C4.41573 5.49009 4.40628 5.51994 4.40882 5.55C4.41137 5.58006 4.42572 5.60788 4.4487 5.62733C4.47169 5.64678 4.50144 5.65627 4.5314 5.65371L5.69262 5.55456C6.56443 5.44061 7.58104 4.81644 7.50092 2.48741C7.47794 1.81762 7.89549 1.22512 7.89978 1.2191C7.91736 1.19456 7.92451 1.16402 7.91965 1.13419C7.91479 1.10436 7.89833 1.07769 7.87387 1.06004C7.84942 1.0424 7.81898 1.03522 7.78925 1.0401C7.75952 1.04497 7.73294 1.0615 7.71536 1.08603Z" fill="black"/>
<path d="M5.05239 2.62373C5.04826 2.65346 5.05594 2.68363 5.07379 2.70773C5.09164 2.73182 5.11821 2.7479 5.14778 2.75249C5.15498 2.75353 5.86966 2.88125 7.00034 4.39383C7.01838 4.41796 7.04523 4.4339 7.07499 4.43817C7.08973 4.44028 7.10473 4.43945 7.11915 4.43574C7.13357 4.43204 7.14712 4.42551 7.15903 4.41655C7.17093 4.40759 7.18096 4.39636 7.18854 4.38351C7.19612 4.37065 7.20111 4.35643 7.20321 4.34164C7.20531 4.32686 7.20449 4.3118 7.2008 4.29733C7.1971 4.28286 7.1906 4.26927 7.18167 4.25732C5.98099 2.6511 5.21108 2.53147 5.179 2.52716C5.14947 2.52324 5.11959 2.53119 5.09587 2.54928C5.07216 2.56737 5.05653 2.59413 5.05239 2.62373ZM9.92698 2.74268C9.91875 2.76162 9.08553 4.6374 8.08059 5.47761C7.09572 6.30112 5.8664 6.86504 5.39326 6.94009C5.37855 6.94242 5.36444 6.94763 5.35174 6.95543C5.33904 6.96323 5.32799 6.97347 5.31923 6.98555C5.31047 6.99764 5.30416 7.01133 5.30068 7.02586C5.29719 7.04039 5.29659 7.05547 5.29891 7.07023C5.30123 7.08499 5.30643 7.09915 5.3142 7.11189C5.32197 7.12464 5.33217 7.13573 5.34422 7.14452C5.35626 7.15331 5.36991 7.15963 5.38439 7.16313C5.39887 7.16663 5.41389 7.16723 5.4286 7.1649C5.93982 7.08383 7.19642 6.51336 8.22572 5.6525C9.27166 4.77787 10.0997 2.91361 10.1344 2.8346C10.1445 2.80738 10.1439 2.7773 10.1326 2.75053C10.1214 2.72376 10.1003 2.70231 10.0739 2.69057C10.0474 2.67883 10.0174 2.67769 9.99011 2.68737C9.96281 2.69706 9.94023 2.71684 9.92698 2.74268ZM9.01536 6.01003C9.00196 6.03704 8.99977 6.06828 9.00929 6.09691C9.01881 6.12553 9.03926 6.1492 9.06614 6.16272C9.35898 6.30972 9.75045 7.13667 9.87672 7.44308C9.8824 7.45688 9.89075 7.46942 9.90126 7.47999C9.91178 7.49055 9.92427 7.49894 9.93802 7.50466C9.95177 7.51038 9.9665 7.51333 9.98139 7.51334C9.99627 7.51335 10.011 7.51041 10.0248 7.5047C10.0385 7.499 10.051 7.49063 10.0615 7.48007C10.0721 7.46952 10.0804 7.45698 10.0861 7.44319C10.0918 7.42939 10.0948 7.41461 10.0948 7.39967C10.0948 7.38474 10.0919 7.36995 10.0862 7.35615C10.0364 7.23548 9.58851 6.17046 9.16753 5.95925C9.15422 5.95254 9.13972 5.94852 9.12486 5.94744C9.11 5.94636 9.09508 5.94823 9.08094 5.95295C9.06681 5.95767 9.05374 5.96514 9.04249 5.97493C9.03123 5.98473 9.02202 5.99665 9.01536 6.01003Z" fill="black"/>
<path d="M8.96508 5.92826C8.16394 6.68033 7.89169 7.99977 7.89169 8.09358C7.89169 8.15452 7.93973 8.2022 8.00046 8.20478C8.06118 8.20737 8.11316 8.15865 8.11831 8.09789C8.12792 7.98049 8.41012 6.76072 9.12016 6.0942C9.62332 5.62185 10.3064 5.45626 10.7602 5.5017C10.9485 5.52047 11.0938 5.57813 11.1493 5.65594C11.1577 5.66868 11.1685 5.6796 11.1812 5.68804C11.1939 5.69647 11.2082 5.70225 11.2232 5.70503C11.2382 5.70781 11.2535 5.70754 11.2684 5.70422C11.2833 5.7009 11.2973 5.69462 11.3097 5.68573C11.3221 5.67685 11.3326 5.66555 11.3406 5.65251C11.3485 5.63947 11.3537 5.62495 11.356 5.60983C11.3582 5.59471 11.3574 5.5793 11.3536 5.56451C11.3497 5.54971 11.343 5.53585 11.3337 5.52374C11.2367 5.38757 11.0461 5.30168 10.7826 5.27534C10.2778 5.2249 9.52004 5.4072 8.96508 5.92826Z" fill="black"/>
<path d="M11.9912 15.1168L12.8574 15.986L19.2857 15.4599L20.0607 13.8358C20.0607 13.8358 20.6534 15.2769 19.9467 16.3977L21.0864 18.5706L21.9756 18.7536L22.705 17.9759C22.705 17.9759 22.3403 16.7864 22.3175 16.3517C22.2947 15.9171 22.2262 14.9793 22.2262 14.9793L21.7474 15.1852C21.7474 15.1852 21.9754 13.8127 21.9754 13.6297C21.9754 13.4467 22.1121 13.1266 22.1121 13.1266L22.1349 12.2117C22.1349 12.2117 21.907 12.1431 21.907 11.9602C21.907 11.7772 21.2688 10.5648 21.2003 10.4503C21.1319 10.336 20.9495 10.2216 20.79 10.3131C20.6305 10.4047 20.0377 10.519 19.9465 10.3818C19.8552 10.2446 19.7641 9.99297 19.559 10.0159C19.3538 10.0388 15.6382 11.7085 15.6382 11.7085C15.6382 11.7085 14.6351 12.8522 14.5212 13.3553C14.4073 13.8585 14.1793 13.973 14.1793 13.973C14.1793 13.973 13.5866 13.5612 12.8116 13.5154C12.0367 13.47 11.9912 15.1168 11.9912 15.1168Z" fill="white"/>
<path d="M19.5509 9.94064C19.3401 9.96422 15.989 11.4682 15.6075 11.6395L15.5926 11.6462L15.5818 11.6586C15.5402 11.7059 14.5646 12.8227 14.4478 13.3388C14.3701 13.6819 14.2382 13.8294 14.1773 13.8816C14.0253 13.7855 13.4933 13.48 12.8162 13.44C12.6568 13.4307 12.5139 13.4831 12.3913 13.596C11.9514 14.0009 11.9168 15.0697 11.9156 15.1148L11.9147 15.1475L12.8287 16.0646L19.3351 15.5322L20.0492 14.036C20.116 14.2505 20.2162 14.6457 20.2162 15.1018C20.2162 15.5065 20.1367 15.9553 19.883 16.3574L19.8597 16.3944L21.0365 18.6381L22.0018 18.8367L22.7903 17.996L22.7774 17.9538C22.7738 17.9421 22.4151 16.7685 22.3931 16.3481L22.2947 14.8674L22.1965 14.9101L21.8447 15.0614C21.9025 14.708 22.0512 13.7843 22.0512 13.6302C22.0512 13.4932 22.1456 13.2421 22.182 13.1569L22.1876 13.1434L22.2123 12.1564L22.1573 12.1394C22.1555 12.1388 21.9828 12.0839 21.9828 11.9603C21.9828 11.7431 21.2997 10.4688 21.2654 10.4116C21.1798 10.2686 20.9542 10.1321 20.7528 10.2476C20.5826 10.3452 20.0618 10.4099 20.0096 10.34L19.9585 10.2543C19.877 10.1117 19.7655 9.91671 19.5509 9.94064ZM19.5681 10.0913C19.6753 10.0794 19.7432 10.1825 19.8273 10.3297L19.8839 10.424C20.0182 10.6263 20.685 10.4608 20.8277 10.3791C20.9437 10.3125 21.0835 10.4021 21.1357 10.4896C21.2293 10.6462 21.8316 11.8087 21.8316 11.9602C21.8316 12.1335 21.9763 12.2246 22.0583 12.2624L22.0372 13.1106C22.0121 13.1713 21.9001 13.4516 21.9001 13.6299C21.9001 13.7748 21.7363 14.7929 21.6731 15.1728L21.6505 15.3096L22.1581 15.0913L22.2422 16.3559C22.2631 16.7547 22.5556 17.7421 22.6201 17.9559L21.9495 18.6708L21.1369 18.5035L20.0319 16.397C20.287 15.9723 20.3714 15.5114 20.3714 15.0969C20.3714 14.4047 20.1462 13.844 20.1307 13.8067L20.0661 13.6492L19.2364 15.3874L12.8862 15.9073L12.0682 15.0865C12.077 14.9137 12.1382 14.0342 12.4937 13.7072C12.5863 13.622 12.6889 13.5839 12.8074 13.591C13.5508 13.6349 14.1308 14.0311 14.1366 14.0353L14.1733 14.0608L14.2133 14.0408C14.2239 14.0355 14.4746 13.9043 14.5952 13.3722C14.6979 12.9186 15.5836 11.8873 15.6845 11.771C17.1633 11.1065 19.407 10.1159 19.5681 10.0913Z" fill="black"/>
<path d="M10.3272 14.1103C10.3272 14.1103 11.451 12.4804 11.5387 12.4375C11.6263 12.3946 11.7176 12.2116 11.8999 12.4633C12.0823 12.7148 12.447 13.1267 12.447 13.1267C12.447 13.1267 12.675 13.6299 12.5837 14.0645C12.4925 14.4992 12.3558 14.7507 12.1962 14.9337C12.0367 15.1166 11.8315 15.3454 11.8315 15.3454C11.8315 15.3454 11.5807 15.5742 11.4212 15.3683C11.2616 15.1624 10.5776 14.3618 10.4865 14.3162C10.3955 14.2706 10.3272 14.1103 10.3272 14.1103Z" fill="white"/>
<path d="M11.5481 12.3381L11.5056 12.3695C11.4183 12.412 10.7827 13.3162 10.2649 14.0673L10.2411 14.1017L10.2576 14.1403C10.2656 14.1592 10.3401 14.3275 10.4528 14.3842C10.5386 14.4375 11.1846 15.1867 11.3615 15.4151C11.4141 15.4831 11.4831 15.5225 11.5612 15.5292C11.7222 15.5432 11.8665 15.4163 11.8823 15.4019C11.8876 15.3965 12.2532 14.9839 12.2532 14.9839C12.4464 14.7624 12.5749 14.4752 12.6579 14.0804C12.7531 13.6266 12.5256 13.1171 12.5158 13.0956L12.511 13.0851L12.5035 13.0764C12.4999 13.0725 12.1391 12.6645 11.961 12.4189C11.8899 12.3208 11.8199 12.2684 11.747 12.259C11.6586 12.2476 11.5948 12.2999 11.5481 12.3381ZM11.6439 12.4555C11.68 12.4258 11.7054 12.4065 11.7277 12.4094C11.7409 12.4111 11.7782 12.424 11.8389 12.508C12.0123 12.7473 12.3374 13.1171 12.3824 13.1679C12.403 13.2157 12.5297 13.5242 12.5297 13.8449C12.5297 13.9134 12.5239 13.9822 12.5098 14.049C12.4314 14.4224 12.3172 14.6801 12.1393 14.8839L11.7753 15.295C11.7507 15.3165 11.6548 15.3853 11.5737 15.3781C11.538 15.3748 11.5076 15.3566 11.4807 15.322C11.3641 15.1715 10.6379 14.3076 10.5202 14.2485C10.4837 14.2303 10.442 14.1695 10.4144 14.117C10.8312 13.513 11.4956 12.5698 11.5797 12.501L11.5715 12.506L11.6439 12.4555Z" fill="black"/>
<path d="M21.3144 18.4792C21.3144 18.4792 22.477 18.159 22.5909 18.0674C22.7048 17.9758 22.8191 17.9529 22.8874 18.1588C22.9556 18.3647 23.1154 19.2796 23.2293 19.3939C23.3432 19.5084 23.3336 19.857 23.2245 19.9571C23.1152 20.0573 22.0238 20.5414 22.0238 20.5414C22.0238 20.5414 21.3372 20.4462 21.2916 20.2403C21.246 20.0344 21.1549 19.5311 21.0864 19.4397C21.0182 19.3483 21.0182 19.0279 21.0408 18.9365C21.0635 18.8451 20.9271 18.5022 21.3144 18.4792Z" fill="white"/>
<path d="M22.5439 18.0082C22.4763 18.0604 21.8555 18.2514 21.2945 18.406L21.3101 18.4034C21.1866 18.4107 21.0942 18.4491 21.035 18.5172C20.9458 18.6203 20.9573 18.7603 20.965 18.8529L20.9677 18.9185C20.9442 19.0123 20.9353 19.3635 21.0262 19.4852C21.0707 19.5445 21.148 19.9198 21.1851 20.1L21.218 20.2567C21.2709 20.4954 21.8402 20.5923 22.0137 20.6163L22.0349 20.6192L22.0547 20.6106C22.2387 20.5288 23.1631 20.1162 23.2758 20.0131C23.3418 19.9525 23.383 19.8308 23.3864 19.6874C23.3898 19.5383 23.3511 19.4086 23.2831 19.3402C23.2226 19.2784 23.114 18.792 23.0557 18.5307C23.0169 18.3571 22.9834 18.2072 22.9593 18.1347C22.9219 18.022 22.8652 17.9536 22.7906 17.9316C22.716 17.9099 22.6354 17.9349 22.5439 18.0082ZM21.3656 20.2241L21.3331 20.0697C21.2643 19.7361 21.207 19.4747 21.1472 19.3944C21.1177 19.355 21.1029 19.2151 21.1029 19.0989C21.1029 19.0393 21.1067 18.986 21.1144 18.9553L21.1156 18.8408C21.1129 18.8125 21.1114 18.784 21.111 18.7555C21.111 18.7035 21.1187 18.6522 21.1491 18.6171C21.1805 18.5809 21.2376 18.5599 21.3189 18.5553L21.3268 18.5549L21.3343 18.5527C21.5309 18.4986 22.518 18.2234 22.6381 18.127C22.6853 18.0889 22.7253 18.071 22.7476 18.0776C22.7705 18.0845 22.7959 18.1239 22.8157 18.1831C22.8373 18.2483 22.8699 18.3947 22.9078 18.5642C23.0145 19.0426 23.0908 19.3626 23.1757 19.4478C23.2118 19.484 23.2351 19.5723 23.2351 19.6702L23.2349 19.6843C23.2324 19.7972 23.2013 19.8759 23.1735 19.9016C23.1092 19.9604 22.5321 20.2328 22.0135 20.4632C21.7184 20.4194 21.3851 20.313 21.3656 20.2241Z" fill="black"/>
<path d="M14.2023 21.9331C14.0867 22.0097 13.2221 21.0867 13.2221 21.0867L12.5383 21.5901C12.5383 21.5901 12.0823 20.4235 11.9 20.2405C11.7176 20.0575 10.6691 18.4792 10.6691 18.4792L10.2359 18.5021C10.2359 18.5021 10.9197 16.7866 11.9912 16.1002C13.0626 15.4141 14.2251 13.8358 14.476 13.3097L15.1371 14.6364C15.1371 14.6364 17.143 12.6463 17.3484 12.3032C17.5536 11.9602 18.1689 9.92428 18.1689 9.92428L18.6703 9.39822L19.7645 9.92428C19.7645 9.92428 18.8755 10.9079 18.5791 12.3032C18.2826 13.6984 18.2144 14.7507 18.3283 14.9566C18.4424 15.1624 18.7614 15.5969 19.2857 15.4597C19.2857 15.4597 18.921 16.5118 18.921 16.7635C18.921 17.015 18.9893 17.8158 19.2401 18.0902C19.4909 18.3645 20.129 19.7143 19.9239 19.8513C19.9239 19.8513 19.0577 19.737 17.8495 20.0343C16.6414 20.3321 16.6186 20.3319 14.2023 21.9331Z" fill="#A08470"/>
<path d="M18.6156 9.3459L18.1142 9.87213C18.1059 9.88072 18.0999 9.89117 18.0965 9.9026C18.0903 9.92291 17.4815 11.9331 17.2834 12.2643C17.1303 12.5203 15.867 13.8036 15.1579 14.509L14.5434 13.276C14.5371 13.2632 14.5273 13.2525 14.5153 13.2451C14.5032 13.2376 14.4892 13.2337 14.4751 13.2339C14.4609 13.234 14.447 13.2381 14.4351 13.2458C14.4231 13.2534 14.4136 13.2643 14.4075 13.2772C14.1715 13.7724 13.0181 15.3527 11.9502 16.0366C10.8708 16.7279 10.1937 18.4031 10.1654 18.474C10.1608 18.4858 10.1591 18.4986 10.1607 18.5113C10.1622 18.5239 10.1669 18.5359 10.1742 18.5462C10.1816 18.5566 10.1915 18.5649 10.2029 18.5704C10.2143 18.5759 10.2269 18.5785 10.2395 18.5778L10.6296 18.5572C10.7881 18.7952 11.6737 20.121 11.8461 20.294C11.9717 20.42 12.2865 21.1547 12.4674 21.6176C12.4716 21.6285 12.4783 21.6382 12.4868 21.646C12.4954 21.6539 12.5056 21.6597 12.5167 21.6629C12.5279 21.6662 12.5396 21.6668 12.551 21.6648C12.5624 21.6627 12.5732 21.6581 12.5826 21.6512L13.213 21.1873C14.0757 22.101 14.1939 22.0292 14.2435 21.9965C16.6352 20.4114 16.6581 20.4059 17.8469 20.1133L17.8671 20.1083C19.0457 19.8183 19.9052 19.9257 19.9137 19.9269C19.9318 19.9293 19.9502 19.925 19.9654 19.9148C20.005 19.8883 20.029 19.8436 20.0366 19.7819C20.0795 19.4256 19.5204 18.2855 19.2955 18.0392C19.0671 17.7893 18.9961 17.0169 18.9961 16.7638C18.9961 16.5679 19.2564 15.7742 19.3567 15.4849C19.3613 15.4719 19.3623 15.4579 19.3595 15.4444C19.3568 15.4309 19.3504 15.4184 19.3411 15.4083C19.3318 15.3982 19.3199 15.3908 19.3067 15.387C19.2935 15.3832 19.2796 15.383 19.2663 15.3866C18.7824 15.5133 18.495 15.1025 18.394 14.9199C18.3084 14.7655 18.3314 13.832 18.6525 12.3192C18.9409 10.9614 19.8111 9.98522 19.8199 9.97541C19.8278 9.96665 19.8335 9.95618 19.8367 9.9448C19.8398 9.93343 19.8403 9.92148 19.838 9.9099C19.8357 9.89832 19.8308 9.88744 19.8236 9.8781C19.8164 9.86876 19.8072 9.86124 19.7966 9.85612L18.7024 9.33007C18.6881 9.32316 18.672 9.32097 18.6565 9.32381C18.6409 9.32666 18.6266 9.33439 18.6156 9.3459ZM18.687 9.4905L19.643 9.95028C19.4308 10.2068 18.7594 11.0905 18.5051 12.2876C18.3092 13.2094 18.2005 14.0437 18.2005 14.5472C18.2005 14.7631 18.2205 14.9182 18.2622 14.9934C18.3475 15.1473 18.6537 15.6052 19.1749 15.5504C19.0773 15.8395 18.8455 16.5483 18.8455 16.7635C18.8455 16.9761 18.903 17.8333 19.1845 18.1415C19.4391 18.4202 19.8916 19.4659 19.8916 19.7368C19.8916 19.7525 19.8873 19.7608 19.8841 19.7709C19.6856 19.7515 18.8956 19.699 17.8316 19.9608L17.8114 19.9658C16.6239 20.2579 16.5735 20.2708 14.1787 21.8577C14.0685 21.8262 13.6311 21.4126 13.2772 21.0348C13.2645 21.0213 13.2474 21.0129 13.2291 21.0111C13.2107 21.0094 13.1924 21.0145 13.1775 21.0255L12.5724 21.4706C12.456 21.1787 12.1171 20.3508 11.9535 20.1866C11.8135 20.0462 11.0932 18.9806 10.7319 18.4368C10.7246 18.4259 10.7146 18.417 10.7029 18.4111C10.6911 18.4052 10.6781 18.4024 10.665 18.4031L10.3534 18.4196C10.5224 18.0366 11.1463 16.7311 12.0319 16.1639C13.0593 15.506 14.125 14.094 14.4739 13.4748L15.0695 14.67C15.0749 14.6806 15.0827 14.6899 15.0923 14.697C15.1019 14.704 15.1131 14.7087 15.1248 14.7107C15.1366 14.7126 15.1487 14.7118 15.16 14.7082C15.1714 14.7046 15.1818 14.6983 15.1903 14.6899C15.2725 14.6085 17.2055 12.6892 17.4131 12.342C17.6145 12.0049 18.1797 10.1491 18.236 9.96353L18.687 9.4905Z" fill="black"/>
<path d="M15.0208 14.6093C14.9439 14.8102 14.5598 15.8214 14.5598 16.009C14.5598 16.1677 14.2737 16.8172 14.161 16.9981C14.0457 17.1833 13.0601 19.1553 12.9883 19.5404C12.9286 19.8599 12.7886 20.6085 13.1605 21.131C13.1721 21.1473 13.1897 21.1584 13.2095 21.1617C13.2293 21.165 13.2495 21.1604 13.2658 21.1487C13.2821 21.137 13.2932 21.1193 13.2965 21.0995C13.2998 21.0797 13.2951 21.0594 13.2835 21.043C12.949 20.5731 13.0806 19.8692 13.1367 19.5685C13.2003 19.2285 14.1684 17.2725 14.2891 17.0787C14.3924 16.9127 14.7108 16.2249 14.7108 16.0092C14.7108 15.8861 14.9873 15.1187 15.1616 14.6639C15.1688 14.6452 15.1683 14.6243 15.1602 14.606C15.1521 14.5876 15.1371 14.5732 15.1184 14.566C15.0997 14.5587 15.0789 14.5592 15.0606 14.5674C15.0423 14.5755 15.028 14.5906 15.0208 14.6093Z" fill="black"/>
<path d="M15.9098 10.755C16.0232 10.7172 17.9692 10.0914 17.9692 10.0914C17.9692 10.0914 18.6872 9.90191 18.6117 10.4326C18.5362 10.9635 18.2717 11.9304 18.2717 11.9304C18.2717 11.9304 18.026 12.7456 17.346 12.1958C16.666 11.646 16.3067 11.5322 16.2124 11.5133C16.118 11.4944 15.4378 11.4563 15.4378 11.4563L14.1154 12.101C14.1154 12.101 13.5863 12.4043 13.4729 11.9683C13.3595 11.5322 13.2839 10.6412 13.3974 10.4326C13.5108 10.2242 13.5674 9.99659 13.8508 10.1104C14.1342 10.2242 14.7199 10.281 14.8899 10.2999" fill="#A08470"/>
<path d="M17.9498 10.0181C17.9461 10.0191 15.8857 10.683 15.8857 10.683L15.9336 10.827L17.9922 10.1635C18.0857 10.1391 18.3641 10.0962 18.4827 10.2024C18.5336 10.2481 18.5513 10.3198 18.5367 10.4219C18.4626 10.9419 18.2011 11.9006 18.1986 11.9102C18.1982 11.9114 18.0996 12.2268 17.873 12.2967C17.7374 12.3385 17.576 12.2846 17.3931 12.1367C16.685 11.5644 16.3215 11.458 16.227 11.4389C16.13 11.4195 15.5119 11.3847 15.4418 11.3807L15.4222 11.3797L14.0821 12.0328C14.0078 12.075 13.7975 12.166 13.6654 12.1101C13.6067 12.0851 13.5676 12.0326 13.546 11.9491C13.43 11.5033 13.3669 10.6471 13.4636 10.4689L13.5108 10.377C13.6058 10.1864 13.6511 10.1117 13.8227 10.1807C14.0948 10.2899 14.6154 10.3463 14.8377 10.3704L14.8817 10.3753L14.8983 10.2246L14.8539 10.2198C14.6564 10.1983 14.1318 10.1415 13.8788 10.0401C13.5714 9.91669 13.4628 10.1344 13.3756 10.3093L13.331 10.3964C13.1962 10.6443 13.2964 11.5897 13.3998 11.9875C13.4338 12.118 13.5034 12.2063 13.607 12.25C13.8352 12.3464 14.1399 12.1743 14.1527 12.1669L15.4531 11.5332C15.7248 11.5486 16.1336 11.5749 16.1976 11.5876C16.2589 11.5999 16.5997 11.6897 17.2986 12.2548C17.5234 12.4364 17.7318 12.4993 17.9184 12.4413C18.2219 12.3473 18.3392 11.9682 18.344 11.9522C18.3554 11.9107 18.6113 10.9728 18.6866 10.4433C18.7086 10.289 18.6738 10.1699 18.5834 10.089C18.383 9.91032 17.9936 10.0065 17.9498 10.0181Z" fill="black"/>
<path d="M15.5318 10.8307C15.5318 10.8307 15.3807 11.589 15.4941 11.7028C15.6075 11.8166 16.0043 11.8166 16.0986 11.7408C16.1932 11.6649 16.3443 11.0962 16.2309 10.8497" fill="#A08470"/>
<path d="M15.4406 11.7565C15.5797 11.8961 16.016 11.9044 16.1458 11.8001C16.2675 11.7024 16.4277 11.0967 16.2995 10.818L16.1623 10.8815C16.2601 11.0941 16.122 11.6186 16.0513 11.6818C15.988 11.7326 15.6338 11.7343 15.5482 11.6496C15.5339 11.6305 15.5269 11.5782 15.5269 11.5028C15.5269 11.3487 15.5554 11.0994 15.606 10.8455L15.4577 10.8158C15.3984 11.1139 15.3171 11.6326 15.4406 11.7565Z" fill="black"/>
<path d="M18.6115 9.23832C18.6115 9.65541 18.177 9.88297 17.969 10.0914C17.7611 10.2999 17.3266 10.2242 17.3266 10.2242C17.0998 10.6034 16.8354 10.2431 16.8354 10.2431C16.9298 10.5464 16.2496 11.0014 15.8152 10.9635C15.3807 10.9256 15.343 10.8877 14.9273 10.5084C14.5116 10.1291 15.135 10.0534 15.135 10.0534C14.9083 10.0155 14.8705 9.92067 14.8705 9.92067C14.0958 9.826 13.4158 9.27602 13.2835 8.53668C13.1512 7.79735 13.9637 7.20967 13.9637 7.20967L14.096 5.57918L16.7788 4.42276L18.2524 4.89666L19.0081 6.52715L18.9138 8.6126" fill="#E1BA9B"/>
<path d="M16.749 4.35321L14.0243 5.5277L13.8911 7.1699C13.7575 7.2737 13.1933 7.74914 13.1933 8.37073C13.1933 8.42943 13.1982 8.48934 13.2092 8.55027C13.3411 9.28806 14.0038 9.87384 14.8259 9.989C14.8396 10.0059 14.8607 10.0255 14.8911 10.0456C14.8153 10.0814 14.7441 10.1341 14.7187 10.2142C14.712 10.2348 14.7087 10.256 14.7087 10.2775C14.7087 10.3667 14.765 10.4629 14.8765 10.5646L14.8883 10.5753C15.3001 10.9509 15.3531 10.9991 15.8089 11.039C16.1594 11.0695 16.6071 10.8254 16.8052 10.5782C16.8524 10.5194 16.88 10.4617 16.8982 10.4052C16.9538 10.4441 17.0243 10.477 17.1041 10.4734C17.2015 10.4688 17.2875 10.4102 17.3616 10.3054C17.4863 10.3197 17.8299 10.3386 18.0227 10.1451L18.1915 9.99881C18.4123 9.81841 18.6873 9.59395 18.6873 9.23848C18.6873 9.21839 18.6794 9.19913 18.6652 9.18492C18.6511 9.17072 18.6319 9.16274 18.6118 9.16274C18.5918 9.16274 18.5726 9.17072 18.5585 9.18492C18.5443 9.19913 18.5364 9.21839 18.5364 9.23848C18.5364 9.52199 18.3025 9.71289 18.0963 9.88124L17.916 10.0381C17.7388 10.2161 17.3439 10.1503 17.34 10.1496L17.289 10.1408L17.2623 10.1852C17.2098 10.273 17.1544 10.319 17.0976 10.3217C17.0116 10.326 16.9233 10.234 16.8967 10.198L16.7639 10.2658C16.7879 10.3426 16.7265 10.435 16.6879 10.4832C16.5181 10.6951 16.1118 10.9134 15.8224 10.8881C15.4174 10.8526 15.3934 10.8308 14.9904 10.4632L14.9788 10.4526C14.9024 10.383 14.8607 10.3205 14.8607 10.2773C14.8607 10.2716 14.8616 10.2658 14.8633 10.2603C14.8849 10.1918 15.0443 10.1413 15.145 10.1288L15.1482 9.97867C14.9767 9.94993 14.9398 9.88865 14.9395 9.88813L14.9206 9.85525L14.8805 9.84561C14.1068 9.75094 13.481 9.20732 13.3586 8.52342C13.3498 8.47411 13.3454 8.42411 13.3454 8.374C13.3454 7.76016 14.0014 7.27645 14.0086 7.27112L14.0369 7.25063L14.1684 5.63082L16.7835 4.50348L18.1987 4.95879L18.9326 6.54229L18.839 8.61259C18.8385 8.6327 18.8461 8.65216 18.8599 8.66668C18.8738 8.68121 18.8929 8.68962 18.9129 8.69005C18.9329 8.69048 18.9523 8.68291 18.9668 8.669C18.9813 8.65508 18.9897 8.63597 18.9901 8.61586L19.0855 6.51182L18.308 4.83433L16.7759 4.34167L16.749 4.35321Z" fill="black"/>
<path d="M18.7439 8.70348L18.7062 9.42387C18.7057 9.43382 18.7071 9.44377 18.7104 9.45316C18.7137 9.46255 18.7189 9.47119 18.7255 9.47859C18.7321 9.48599 18.7402 9.49201 18.7491 9.49629C18.7581 9.50058 18.7678 9.50305 18.7777 9.50357C18.7876 9.50409 18.7976 9.50265 18.8069 9.49932C18.8163 9.496 18.8249 9.49086 18.8323 9.48419C18.8396 9.47752 18.8456 9.46947 18.8499 9.46048C18.8542 9.45149 18.8566 9.44174 18.8572 9.43179L18.8949 8.7114C18.8954 8.70145 18.894 8.6915 18.8907 8.68211C18.8873 8.67272 18.8822 8.66408 18.8756 8.65668C18.8689 8.64928 18.8609 8.64326 18.8519 8.63898C18.843 8.63469 18.8333 8.63222 18.8234 8.6317C18.8134 8.63118 18.8035 8.63262 18.7942 8.63595C18.7848 8.63927 18.7762 8.64441 18.7688 8.65108C18.7615 8.65775 18.7555 8.6658 18.7512 8.67479C18.7469 8.68378 18.7444 8.69353 18.7439 8.70348Z" fill="black"/>
<path d="M18.876 8.66955C18.876 8.66955 19.4617 7.83537 19.5372 7.75945C19.6127 7.68354 19.8206 6.33759 19.0081 6.52712C18.1958 6.71664 18.0257 7.74035 18.0257 7.74035" fill="#E1BA9B"/>
<path d="M18.9911 6.45347C18.1394 6.65229 17.9584 7.68426 17.9512 7.72815C17.9496 7.73797 17.9499 7.74802 17.9521 7.75772C17.9543 7.76742 17.9585 7.77659 17.9642 7.78469C17.97 7.7928 17.9773 7.79968 17.9857 7.80496C17.9941 7.81023 18.0035 7.81379 18.0133 7.81542C18.0231 7.81706 18.0331 7.81675 18.0428 7.81451C18.0524 7.81226 18.0616 7.80813 18.0696 7.80234C18.0777 7.79656 18.0846 7.78923 18.0898 7.78078C18.0951 7.77234 18.0986 7.76293 18.1003 7.75311C18.102 7.7433 18.2725 6.77692 19.0254 6.60116C19.2025 6.55985 19.3301 6.59652 19.4157 6.71323C19.5123 6.84508 19.5427 7.05492 19.5427 7.24892C19.5427 7.46839 19.5039 7.66773 19.4785 7.71197C19.3871 7.81112 18.8736 8.54133 18.8143 8.62585C18.8027 8.64229 18.7982 8.66265 18.8016 8.68245C18.805 8.70226 18.8162 8.71988 18.8325 8.73146C18.8489 8.74303 18.8692 8.7476 18.8889 8.74416C18.9087 8.74072 18.9262 8.72956 18.9378 8.71312C19.1629 8.39278 19.5391 7.865 19.5907 7.81301C19.6736 7.72987 19.777 7.04649 19.5775 6.6862C19.4948 6.53696 19.326 6.37532 18.9911 6.45347Z" fill="black"/>
<path d="M18.6492 7.6648L18.517 7.70267L18.857 7.98704L18.8947 7.51314L19.197 7.17197C19.197 7.17197 19.2915 6.92546 19.027 7.09622C18.7625 7.26699 18.7247 7.30468 18.7058 7.39953C18.687 7.49403 18.6492 7.6648 18.6492 7.6648Z" fill="black"/>
<path d="M10.2227 7.87326C10.2795 7.85433 10.9218 7.62676 11.1297 7.72161L11.1108 8.61259C11.1108 8.61259 11.1676 8.74531 11.262 8.72638C11.3565 8.70744 12.6978 8.19567 13.926 8.29035C15.1541 8.38503 14.2282 8.51774 14.0582 8.53685C13.8882 8.55579 12.3201 8.49898 10.922 9.06755C10.922 9.06755 10.2229 9.23814 10.2229 8.55562C10.2229 7.87309 10.2227 7.87326 10.2227 7.87326Z" fill="white"/>
<path d="M10.21 7.79752L10.1476 7.81887L10.1472 7.87326V8.55579C10.1472 8.77492 10.2142 8.93879 10.3459 9.04277C10.579 9.22661 10.9251 9.14484 10.9396 9.1414L10.945 9.14002L10.9501 9.13796C12.1338 8.65649 13.4659 8.62774 13.9035 8.61827L14.0663 8.61225C14.6304 8.54925 14.6288 8.45646 14.628 8.40672C14.6264 8.32065 14.5789 8.26488 13.9315 8.21478C13.2156 8.15953 12.3436 8.29689 11.3399 8.62292L11.2469 8.65201C11.2277 8.6558 11.2011 8.62 11.1867 8.59297L11.2062 7.67324L11.1608 7.65258C10.9746 7.56772 10.5411 7.68443 10.21 7.79752ZM11.0529 7.77859L11.0348 8.6274L11.0414 8.64237C11.0714 8.71278 11.1548 8.82518 11.2769 8.80057L11.3867 8.767C12.3716 8.447 13.224 8.31204 13.9203 8.36575C14.1308 8.3821 14.2619 8.39845 14.3471 8.41274C14.2489 8.43363 14.1498 8.44983 14.05 8.46128L13.9008 8.46645C13.457 8.47609 12.1084 8.50535 10.9007 8.99457C10.8799 8.99922 10.608 9.05688 10.4391 8.92296C10.3459 8.84911 10.2986 8.72552 10.2986 8.55562V7.92852C10.6972 7.7958 10.9414 7.76206 11.0529 7.77859Z" fill="black"/>
<path d="M15.5685 8.11974C15.5586 8.11987 15.5488 8.12197 15.5397 8.12591C15.5306 8.12984 15.5223 8.13554 15.5154 8.14268C15.5085 8.14981 15.503 8.15825 15.4994 8.1675C15.4957 8.17675 15.4939 8.18664 15.494 8.1966C15.4941 8.20656 15.4962 8.21639 15.5002 8.22554C15.5041 8.23468 15.5098 8.24297 15.5169 8.24991C15.524 8.25686 15.5324 8.26233 15.5416 8.26602C15.5508 8.2697 15.5607 8.27153 15.5706 8.27139C16.5222 8.25796 16.7577 8.48226 16.8159 8.58451C16.6812 8.63753 16.3779 8.78471 15.9906 9.14465C15.5351 9.56776 15.1754 9.32006 15.1603 9.30938C15.1579 9.30767 15.1554 9.30612 15.1529 9.30473L13.8304 8.5654C13.813 8.55645 13.7927 8.55464 13.774 8.56035C13.7552 8.56607 13.7394 8.57886 13.7299 8.59604C13.7203 8.61322 13.7178 8.63345 13.7228 8.65245C13.7279 8.67146 13.74 8.68777 13.7568 8.69795L15.0795 9.43711C15.0767 9.43573 15.0743 9.43401 15.0717 9.43229C15.0764 9.43573 15.544 9.76641 16.0933 9.25602C16.5802 8.80364 16.9271 8.70587 16.9305 8.70483C16.9465 8.70047 16.9607 8.69095 16.9708 8.67774C16.9809 8.66453 16.9865 8.64835 16.9866 8.63168C16.9866 8.62083 16.9835 8.52288 16.8761 8.4165C16.7329 8.27483 16.3896 8.1082 15.5685 8.11974Z" fill="black"/>
<path d="M15.173 7.62675L15.4564 7.91112C15.4564 7.91112 15.6264 8.38502 15.173 8.38502C14.7194 8.38502 14.2473 8.55561 14.2473 8.55561C14.2473 8.55561 13.3214 8.66939 13.9073 7.96793C13.9073 7.96793 14.2095 7.7784 14.4175 7.68356C14.6252 7.58871 14.9086 7.22842 14.9086 7.22842" fill="#E1BA9B"/>
<path d="M14.8491 7.18158C14.7734 7.27781 14.5424 7.54325 14.3859 7.61468C14.1759 7.71039 13.8795 7.89596 13.8671 7.9037L13.8568 7.91007L13.8491 7.91937C13.6541 8.15296 13.5942 8.33129 13.6664 8.46453C13.7843 8.68245 14.2085 8.63701 14.2564 8.63116L14.2648 8.63012L14.2727 8.6272C14.2773 8.62548 14.7384 8.46109 15.173 8.46109C15.3248 8.46109 15.4351 8.41357 15.5008 8.31976C15.62 8.14952 15.5313 7.8963 15.5274 7.88563L15.5217 7.86962L15.2263 7.5732C15.2193 7.56616 15.211 7.56057 15.2018 7.55677C15.1926 7.55296 15.1828 7.551 15.1728 7.55101C15.1528 7.55103 15.1335 7.55904 15.1194 7.57328C15.1052 7.58753 15.0972 7.60684 15.0973 7.62697C15.0973 7.64709 15.1053 7.66639 15.1195 7.68061L15.3888 7.95087C15.3992 7.98409 15.4119 8.03849 15.4119 8.09753C15.4119 8.14624 15.4032 8.19582 15.3769 8.233C15.3413 8.28378 15.2725 8.3096 15.173 8.3096C14.7333 8.3096 14.2902 8.46057 14.232 8.48123C14.1101 8.495 13.8529 8.49155 13.7992 8.3924C13.7918 8.37801 13.7881 8.36196 13.7886 8.34575C13.7886 8.27208 13.8483 8.15933 13.9584 8.02575C14.0102 7.99356 14.2677 7.83571 14.4485 7.75308C14.6705 7.65186 14.9558 7.29124 14.9678 7.27609C14.974 7.2683 14.9786 7.25936 14.9814 7.24977C14.9841 7.24018 14.985 7.23013 14.9838 7.22022C14.9827 7.21031 14.9796 7.20073 14.9747 7.19203C14.9698 7.18333 14.9633 7.17568 14.9554 7.16953C14.9477 7.16329 14.9388 7.15865 14.9292 7.15588C14.9197 7.1531 14.9097 7.15225 14.8998 7.15337C14.8899 7.15449 14.8803 7.15756 14.8716 7.1624C14.8629 7.16724 14.8553 7.17376 14.8491 7.18158Z" fill="black"/>
<path d="M14.7463 5.9193C14.7387 5.92569 14.7324 5.93353 14.7278 5.94238C14.7232 5.95122 14.7204 5.9609 14.7195 5.97084C14.7187 5.98079 14.7198 5.9908 14.7228 6.0003C14.7259 6.00981 14.7308 6.01861 14.7372 6.0262L15.0282 6.37289C15.045 6.43795 15.0699 6.56413 15.0699 6.68118C15.0699 6.7404 15.0633 6.79669 15.046 6.84024C14.976 7.01599 14.7772 7.25303 14.7751 7.25544C14.7687 7.26304 14.7638 7.27183 14.7608 7.28132C14.7578 7.29082 14.7567 7.30081 14.7575 7.31074C14.7583 7.32067 14.7611 7.33034 14.7656 7.3392C14.7702 7.34805 14.7765 7.35591 14.7841 7.36233C14.7916 7.36878 14.8004 7.37366 14.8099 7.3767C14.8193 7.37974 14.8293 7.38088 14.8392 7.38004C14.8491 7.37921 14.8587 7.37643 14.8675 7.37185C14.8764 7.36728 14.8842 7.361 14.8906 7.35338C14.8995 7.34288 15.1073 7.09518 15.1865 6.89653C15.2692 6.6891 15.1805 6.35481 15.1702 6.31728L15.1658 6.30145L14.8528 5.9286C14.8399 5.91324 14.8215 5.90364 14.8015 5.9019C14.7815 5.90016 14.7617 5.90641 14.7463 5.9193ZM15.9286 6.98225C15.9286 7.14303 16.3916 7.551 16.7788 7.551C17.1976 7.551 17.4221 7.13012 17.4314 7.11222L17.2976 7.04164C17.2957 7.04526 17.1053 7.39917 16.7788 7.39917C16.4575 7.39917 16.1057 7.06247 16.0801 6.97726C16.082 6.90083 16.1479 6.41523 16.1923 6.10177L16.0427 6.08042C16.031 6.16253 15.9286 6.88482 15.9286 6.98225Z" fill="black"/>
<path d="M17.6956 6.48668C17.6903 6.49081 17.1514 6.90497 16.0635 6.86848C16.0438 6.86851 16.025 6.87618 16.0109 6.88988C15.9968 6.90358 15.9886 6.92223 15.988 6.9419C15.9873 6.96157 15.9943 6.98072 16.0075 6.99532C16.0206 7.00991 16.0389 7.01881 16.0585 7.02013C17.2067 7.05852 17.7663 6.62422 17.7894 6.60563C17.8043 6.59285 17.8136 6.57482 17.8154 6.5553C17.8173 6.53578 17.8116 6.51629 17.7995 6.50091C17.7873 6.48554 17.7697 6.47547 17.7504 6.47281C17.731 6.47016 17.7114 6.47513 17.6956 6.48668ZM17.3966 5.88144C17.3928 5.87645 17.0905 5.53527 17.0905 5.53527C16.7742 5.17809 16.04 5.47468 16.0087 5.48742L15.3375 5.82412L15.3438 5.85304C15.3455 5.86027 15.385 6.03327 15.5569 6.30129C15.5979 6.36532 15.6552 6.40319 15.7274 6.41438C15.929 6.44537 16.192 6.25533 16.3309 6.13913C16.4249 6.06064 16.8166 5.99161 17.1995 6.14533C17.2808 6.17786 17.3949 6.21384 17.4477 6.15015C17.5115 6.0732 17.4161 5.91277 17.3966 5.88144Z" fill="black"/>
<path d="M13.9826 6.47032C13.9826 6.47032 13.8126 7.3045 13.8692 7.45615C13.926 7.60781 14.1526 7.85431 14.436 7.60781C14.7194 7.36131 14.795 6.75469 14.436 6.47032C14.0771 6.18595 13.9826 6.47032 13.9826 6.47032Z" fill="white"/>
<path d="M14.0936 6.31541C13.9845 6.34811 13.9483 6.45398 13.9467 6.45845L13.946 6.46069L13.9457 6.46293C13.928 6.54934 13.7752 7.31226 13.834 7.46976C13.8735 7.57545 13.9795 7.70542 14.1186 7.74088C14.1972 7.76102 14.3202 7.75895 14.461 7.63674C14.6214 7.49713 14.7213 7.24529 14.7154 6.99483C14.7101 6.76417 14.6194 6.56741 14.4595 6.44089C14.3166 6.32763 14.1936 6.28528 14.0936 6.31541ZM14.1161 6.38788C14.19 6.36619 14.2924 6.40509 14.4127 6.50011C14.5544 6.61234 14.635 6.78861 14.6398 6.99638C14.6449 7.22533 14.5554 7.4541 14.4113 7.57924C14.3181 7.66032 14.2258 7.68993 14.137 7.6672C14.0164 7.63639 13.932 7.51624 13.9045 7.44291C13.8978 7.42501 13.8949 7.39454 13.8949 7.3546C13.8949 7.16318 13.9632 6.75522 14.019 6.481C14.0214 6.4748 14.0466 6.40819 14.1161 6.38788Z" fill="black"/>
<path d="M14.6597 6.71389L14.6081 6.73971L14.5261 6.78085L14.5213 6.78618C14.5067 6.80254 14.1648 7.19054 14.3849 7.55185L14.4077 7.58921L14.5624 7.45993L14.682 7.13976L14.6597 6.71389ZM19.0143 6.00743C19.0143 5.89554 19.0253 5.70361 19.0646 5.37534C19.0718 5.31509 19.0752 5.25708 19.0752 5.20114C19.0752 4.36248 18.3139 4.0127 18.3056 4.00908L18.2955 4.00461L18.2847 4.00616C18.2355 4.01339 17.0773 4.18897 16.878 4.51465C16.8449 4.5687 16.8375 4.62499 16.8564 4.68128C16.9766 5.04346 17.4301 5.06928 17.5707 5.06859L17.5704 5.07823C17.5704 5.4726 17.9517 5.7716 18.0264 5.82634C18.0276 5.86318 18.0286 5.89985 18.0286 5.93599C18.0286 7.09741 17.4091 7.85757 17.2007 8.11354L17.1232 8.21648C17.1138 8.23462 17.1088 8.25473 17.1086 8.27518C17.1086 8.29101 17.1118 8.30651 17.1182 8.32148C17.1523 8.40049 17.2655 8.43664 17.2782 8.44043L17.2836 8.44198H17.289C17.7028 8.44198 18.1967 8.36658 18.2017 8.36572L18.2182 8.36331L18.2274 8.34937C18.2396 8.33095 18.3472 8.16621 18.3472 8.06293C18.3472 8.02351 18.3871 7.84552 18.4225 7.68836C18.4813 7.42602 18.5197 7.24941 18.5172 7.18916C18.4997 6.78498 19.0176 6.56447 19.0229 6.56223L19.0449 6.55311L19.0713 6.07629L19.0227 6.13309C19.0183 6.11123 19.0143 6.07457 19.0143 6.00743Z" fill="black"/>
<path d="M13.6547 5.51169C13.6547 5.51169 12.9015 6.093 12.7277 6.47101C12.7277 6.47101 12.2062 7.0234 13.0608 6.57275C13.9155 6.12209 15.9725 4.56682 15.9725 4.56682L18.131 3.70923C18.131 3.70923 18.1022 2.43008 17.682 1.93587C17.2619 1.44166 16.639 1.18001 16.639 1.18001C16.639 1.18001 16.0597 1.07828 15.7989 1.16555C15.5382 1.25283 14.162 1.99405 13.8433 2.11042C13.5247 2.22661 12.9598 2.88091 12.9452 3.18611C12.9306 3.49131 12.9308 3.98551 13.061 4.45063C13.1912 4.91575 13.6547 5.51169 13.6547 5.51169Z" fill="black"/>
<path d="M13.4002 4.97343L13.9955 5.89678L17.7843 3.83284C17.7843 3.83284 18.0008 2.58364 17.5678 2.09494C17.5678 2.09494 15.7816 2.69226 15.0781 3.18113C14.3744 3.67 13.6167 4.59318 13.4002 4.97343Z" fill="#A08470"/>
<path d="M19.1594 2.9243C19.1594 2.9243 19.5216 2.67728 19.7099 2.86629C19.8981 3.0553 19.623 3.41851 19.623 3.41851C19.623 3.41851 18.8551 3.89808 18.5943 4.01445C18.3336 4.13081 17.4645 4.40692 17.1892 4.4942C16.914 4.58147 16.4215 4.59593 15.6248 5.2356C14.828 5.87509 14.1183 6.50012 13.9589 6.63095C13.7995 6.76177 13.278 7.08143 13.1766 7.09606C13.0753 7.11052 12.9449 7.18316 12.7565 7.02342C12.5681 6.8635 12.4813 6.73285 12.7999 6.61649C13.1187 6.50012 13.9877 5.90418 14.6396 5.36642C15.2915 4.82866 16.1607 4.11635 17.5367 3.72388C18.9133 3.33123 19.1594 2.9243 19.1594 2.9243Z" fill="white"/>
<path d="M19.1169 2.86164L19.1042 2.87024L19.0953 2.88401C19.0927 2.88797 18.8307 3.27597 17.5162 3.65089C16.116 4.05008 15.2351 4.77701 14.5918 5.30771C13.927 5.85615 13.0777 6.43436 12.7742 6.54504C12.6731 6.58188 12.5361 6.64488 12.515 6.76417C12.494 6.88123 12.5953 6.98571 12.7078 7.08125C12.8926 7.23807 13.0404 7.20381 13.1384 7.18126L13.1874 7.17111C13.3159 7.15269 13.8551 6.81409 14.0069 6.68964L14.2457 6.48634C14.5614 6.21557 15.0898 5.76216 15.6722 5.29463C16.3102 4.78252 16.7456 4.68044 17.0336 4.61279L17.2122 4.56649C17.9701 4.32618 18.4456 4.16386 18.6252 4.08364C18.8877 3.96659 19.6314 3.50268 19.6629 3.48288L19.6748 3.47548L19.6832 3.46446C19.696 3.44742 19.9956 3.04565 19.7635 2.81258C19.5336 2.58191 19.1339 2.8501 19.1169 2.86164ZM19.6566 2.91982C19.6882 2.95149 19.7003 2.99246 19.7003 3.03687C19.7003 3.16511 19.5986 3.32107 19.5703 3.36204C19.4717 3.42349 18.7992 3.84007 18.5638 3.94507C18.4437 3.99861 18.1041 4.12461 17.1665 4.42172L16.9989 4.46493C16.6977 4.53568 16.2421 4.64257 15.5775 5.17603C14.9932 5.6451 14.4636 6.09938 14.1473 6.37084L13.911 6.5719C13.7489 6.70496 13.2475 7.00689 13.1658 7.02066L13.1044 7.03305C13.0159 7.05354 12.9324 7.07282 12.8054 6.96506C12.69 6.86694 12.6634 6.81874 12.6634 6.79533L12.6637 6.79051C12.6651 6.78259 12.6795 6.74059 12.8258 6.68723C13.1423 6.57172 14.0124 5.98163 14.6878 5.42442C15.3208 4.90216 16.1879 4.18693 17.5577 3.79634C18.8124 3.43847 19.1505 3.06269 19.2121 2.98024C19.2663 2.94702 19.531 2.79381 19.6566 2.91982Z" fill="black"/>
<path d="M14.6614 5.24918C14.6614 5.24918 14.5669 5.00526 14.5803 4.96446C14.5936 4.92366 14.6478 4.91024 14.9045 4.81522C15.1613 4.72037 15.2018 4.65255 15.0532 4.36783C14.9045 4.08311 14.8124 3.8762 14.5938 4.20516L14.4991 4.28675L14.4046 4.27315C14.4046 4.27315 14.337 3.60887 14.0128 4.01546C13.6885 4.42205 13.7019 4.368 13.7019 4.368C13.7019 4.368 13.3101 4.78819 13.9721 4.84241C13.9721 4.84241 13.3237 4.97806 13.5667 5.2898L13.8098 5.60171C13.8098 5.60171 13.9586 5.76438 14.1476 5.24918C14.1476 5.24918 14.2557 5.1273 14.2828 5.26277C14.3097 5.39842 14.3909 5.43904 14.3909 5.43904L14.6614 5.24918ZM15.5126 3.50043C15.5126 3.50043 14.8371 3.55465 15.1882 3.89359L15.5396 4.23253C15.5396 4.23253 15.7288 4.40863 15.918 4.02906C15.9856 3.89342 15.9856 3.87999 16.0532 3.97484L16.0667 4.16471L16.1613 4.1919L16.5666 4.00204L16.3774 3.71732L16.6612 3.62247C16.6612 3.62247 16.8252 3.58805 16.7963 3.28353C16.7694 2.99882 16.3369 2.7413 16.256 3.09367C16.256 3.09367 16.4129 2.51735 15.8777 2.7277C15.5668 2.84957 15.3238 3.03944 15.3238 3.03944C15.3238 3.03944 15.0937 3.29696 15.5126 3.50043ZM17.7553 3.29696C17.7553 3.29696 17.6472 3.44603 17.4175 3.41901C17.1878 3.39181 17.1878 3.22914 17.1878 3.12069C17.1878 3.01224 17.1473 2.91722 17.1067 2.8902C17.0662 2.86317 16.8905 2.65971 17.0662 2.55126C17.2418 2.44281 17.4849 2.55126 17.4849 2.55126C17.4849 2.55126 17.2957 2.26654 17.4173 2.1581C17.539 2.04965 17.7551 2.04965 17.8092 2.42921C17.8632 2.80895 17.9848 3.03927 17.9848 3.03927C17.9848 3.03927 17.9715 3.20194 17.9172 3.41901L17.8632 3.6359L17.7553 3.29696ZM17.1942 14.2131C17.1665 14.1124 16.9 14.0922 16.7366 14.0749C16.9188 13.9082 17.0986 13.7404 17.1036 13.475C17.1063 13.3323 16.9905 13.0673 16.8013 13.14C16.511 13.2512 16.3081 13.5347 16.1009 13.7549C15.8382 14.0337 15.5655 14.3031 15.2668 14.5429C15.249 14.5574 15.2455 14.5749 15.2498 14.5911C15.25 14.6 15.2527 14.6087 15.2578 14.616C15.2629 14.6233 15.27 14.629 15.2783 14.6322L15.6337 14.7944C15.6595 14.8061 15.4457 15.2173 15.415 15.2266C15.3889 15.2346 15.3759 15.2554 15.3735 15.2815C15.3498 15.5246 15.7789 15.599 15.9278 15.6453C15.9645 15.6566 15.9978 15.6262 15.9995 15.5905C16.0103 15.3709 16.0115 15.1178 16.2613 15.2853C16.3359 15.3354 16.4266 15.3921 16.5186 15.4C16.7462 15.4196 16.8766 15.2871 16.8485 15.066C16.8169 14.8169 17.0351 14.6379 17.1358 14.4136C17.1607 14.3582 17.2117 14.2771 17.1942 14.2131ZM18.9778 15.558C18.8994 15.4661 18.7475 15.4795 18.6427 15.4872C18.3405 15.5098 18.4303 15.1521 18.3444 14.9793C18.2929 14.8756 18.1926 14.8515 18.0818 14.8736C18.0051 14.8889 17.3784 15.0356 17.3494 14.9812C17.3317 14.9479 17.2861 14.9452 17.2604 14.9696C17.0209 15.1979 17.0808 15.3587 17.3343 15.5294C17.4282 15.5926 17.5115 15.6539 17.5115 15.7821C17.5115 15.7405 17.1991 15.8234 17.1756 15.8308C17.0681 15.8651 17.0012 15.9357 16.9928 16.0465C16.9833 16.172 17.1266 16.3097 17.1996 16.393C17.3057 16.5137 17.4216 16.6106 17.498 16.7552C17.5277 16.8113 17.5628 16.8917 17.6199 16.9275C17.984 17.1549 18.236 16.7027 18.2283 16.3886C18.2293 16.3901 18.2295 16.3917 18.2307 16.3932C18.4612 16.6803 18.2933 16.8962 18.1548 17.0966C18.1389 17.1198 18.1481 17.163 18.1753 17.1744C18.3218 17.2365 18.4818 17.2563 18.5901 17.1078C18.7367 16.9064 18.5026 16.4986 18.8124 16.4282C19.1764 16.3455 19.1876 15.8038 18.9778 15.558ZM16.8255 17.4952C16.6939 17.221 16.8375 17.0251 16.8517 16.7643C16.8571 16.6667 16.8126 16.5001 16.7183 16.4497C16.3954 16.2772 16.1921 16.6636 16.0323 16.9086C15.9597 16.6361 16.3697 16.2684 16.0777 16.0699C16.001 16.0178 15.8669 16.0684 15.7936 16.0947C15.5694 16.1755 15.4068 16.2564 15.1646 16.2271C14.9642 16.2028 14.8673 16.4194 14.9642 16.5788C15.0429 16.7086 15.146 16.8118 15.2454 16.9258C15.2937 16.9814 15.4992 17.1303 15.314 17.0386C15.2368 16.9989 15.1572 16.9641 15.0757 16.9344C14.9668 16.8965 14.6791 16.9397 14.6382 17.078C14.6053 17.1893 14.6257 17.299 14.6497 17.4105C14.6973 17.6312 14.7393 17.8374 14.7719 18.0609C14.7931 18.2069 14.9921 18.2793 15.0977 18.1845C15.1846 18.1063 15.2418 18.0053 15.3016 17.9061C15.4094 17.7275 15.4739 17.6686 15.6643 17.6622C15.7676 17.8698 15.7492 18.1173 15.5795 18.2893C15.5451 18.3243 15.4739 18.3897 15.4744 18.4458C15.4754 18.5665 15.5346 18.673 15.6653 18.6591C15.778 18.6468 15.8638 18.4938 15.9161 18.4074C16.0561 18.1764 16.0911 17.9387 16.0594 17.6858C16.2246 17.8149 16.4309 17.9512 16.6226 17.9514C16.8692 17.9512 16.9214 17.6953 16.8255 17.4952ZM18.9726 18.9553C18.9587 18.7718 19.0402 18.5071 18.941 18.3344C18.7477 17.9972 18.5077 18.2599 18.2981 18.4367C18.3957 18.2452 18.4446 18.0235 18.3936 17.8197C18.3276 17.5563 18.0166 17.6603 17.8747 17.7682C17.6676 17.9259 17.5319 17.9335 17.2954 17.9758C17.2165 17.99 17.0904 18.0464 17.0677 18.1366C17.0214 18.3198 17.1176 18.4764 17.2518 18.6102C17.0835 18.5506 16.9082 18.5251 16.7296 18.5754C16.4659 18.6498 16.8047 19.0619 16.8063 19.1796C16.8097 19.4385 16.6447 19.7766 17.0013 19.8666C17.2503 19.9294 17.4916 19.5471 17.6867 19.3927C17.727 19.6032 17.7081 19.7804 17.6194 19.989C17.6043 20.0248 17.6206 20.0782 17.6685 20.0747C18.0754 20.0441 18.0725 19.817 18.0384 19.4566C17.998 19.0286 18.4986 19.532 18.6451 19.6163C18.7556 19.6798 18.9119 19.6814 19.0062 19.5867C19.1473 19.4447 18.9839 19.1054 18.9726 18.9553ZM15.6646 19.8348C15.6138 19.6769 15.6109 19.5315 15.6334 19.3659C15.6391 19.3249 15.644 19.2745 15.625 19.2362C15.579 19.1441 15.4691 19.0486 15.3591 19.1244C15.2694 19.186 15.1982 19.2648 15.1095 19.3282C14.8179 19.5368 14.8494 19.2753 14.992 19.0977C15.0819 18.9856 15.0755 18.8625 15.0169 18.7415C14.9481 18.5998 14.7364 18.6291 14.6237 18.6694C14.4924 18.7164 14.3989 18.8073 14.2601 18.8488C14.1037 18.8956 13.9488 18.8746 13.7939 18.9341C13.4166 19.0793 13.7263 19.487 13.8747 19.7317C13.6882 19.6779 13.4324 19.6323 13.3233 19.7867C13.1873 19.979 13.3053 20.1229 13.4509 20.2696C13.592 20.4116 13.6021 20.5393 13.6654 20.7173C13.6817 20.7631 13.7232 20.8127 13.7719 20.8261C13.981 20.8838 14.2365 20.4417 14.3854 20.4846C14.4264 20.7104 14.3066 21.1508 14.5592 21.2623C14.8167 21.3761 14.906 21.0113 14.8837 20.845C14.8722 20.7595 14.8432 20.675 14.8213 20.5918C14.7758 20.4207 14.9113 20.2255 15.0793 20.3983C15.193 20.5154 15.2733 20.5918 15.4399 20.604C15.9286 20.6405 15.7459 20.0873 15.6646 19.8348ZM12.4091 18.0304C12.1144 17.9237 11.8267 18.233 11.556 18.3933C11.672 18.2366 11.8017 18.0931 11.8066 17.8844C11.8102 17.7361 11.6505 17.6875 11.5344 17.7101C11.2529 17.7648 11.0084 17.6252 10.7393 17.6724C10.5468 17.7061 10.4613 18.0888 10.3922 18.2261C10.3877 18.2351 10.3856 18.2452 10.3864 18.2552C10.3848 18.279 10.396 18.3026 10.426 18.3096C10.9755 18.4392 11.1781 18.9989 11.3486 19.4822C11.3682 19.5377 11.4375 19.5349 11.4579 19.4822C11.4948 19.3874 11.4759 19.3182 11.4532 19.2381C11.7022 19.3979 11.8301 19.686 12.2029 19.5908C12.529 19.5075 12.4078 18.7687 12.4554 18.5604C12.4843 18.4355 12.5978 18.0988 12.4091 18.0304ZM14.0052 15.8419C13.9169 15.6491 13.6415 15.6303 13.4158 15.6477C13.6029 15.5103 13.8278 15.3406 13.8429 15.1399C13.8596 14.9195 13.4539 14.9516 13.3388 14.985C13.0576 15.0667 12.8788 15.5552 12.6961 15.7472C12.5081 15.9444 12.2808 16.1038 12.0526 16.25C11.9742 16.3003 11.8166 16.3354 11.8166 16.4476C11.8166 16.4745 11.8343 16.4937 11.8583 16.5023C12.014 16.559 12.2238 16.4901 12.341 16.5936C12.3168 16.9458 12.1 17.8201 12.7387 17.5801C12.7702 17.5682 12.7951 17.529 12.7725 17.4964C12.638 17.3028 12.633 17.0446 12.6725 16.8196C12.7563 16.3433 12.8339 16.7628 12.9581 16.8864C13.1931 17.1203 13.4252 17.069 13.6081 16.8143C13.7994 16.548 14.1665 16.1935 14.0052 15.8419ZM14.6961 10.7626C14.6441 10.7486 14.5892 10.7593 14.5345 10.7831C14.5857 10.6868 14.6127 10.591 14.564 10.519C14.3708 10.2338 14.1823 10.4885 13.9344 10.5099C13.8699 10.5156 13.5192 10.3687 13.5474 10.5824C13.5549 10.6395 13.582 10.6862 13.6191 10.7273C13.6489 10.7789 13.6868 10.8233 13.7307 10.8617C13.6618 10.854 13.5949 10.8652 13.54 10.9201C13.3717 11.089 13.6469 11.2828 13.6266 11.4566C13.6153 11.5544 13.6062 11.7117 13.7484 11.7117C13.8954 11.7117 14.0123 11.5706 14.1071 11.4489C14.138 11.5733 14.1119 11.7025 14.0654 11.8264C14.0382 11.899 14.1236 11.9376 14.1775 11.9059C14.1878 11.9111 14.1992 11.9135 14.2108 11.9129C14.2223 11.9123 14.2335 11.9087 14.2432 11.9025C14.3816 11.8097 14.3861 11.713 14.3734 11.5966C14.4614 11.672 14.5676 11.7207 14.665 11.6572C14.839 11.5437 14.6937 11.2821 14.7899 11.1174C14.8652 10.9886 14.8613 10.8065 14.6961 10.7626ZM17.9673 10.943C17.8778 10.9249 17.7918 10.9509 17.7088 10.99C17.7505 10.9056 17.7778 10.8168 17.7625 10.7354C17.7287 10.5557 17.5474 10.5844 17.4067 10.5868C17.2829 10.5889 16.9957 10.5538 16.9174 10.6879C16.8565 10.7922 16.9461 10.8893 17.0386 10.9734C16.9449 10.9617 16.8512 10.9611 16.786 11.0263C16.6867 11.126 16.7432 11.2924 16.7821 11.4074C16.8866 11.7147 17.1717 11.6634 17.386 11.5229C17.3522 11.6138 17.2738 11.6754 17.1832 11.7334C17.1381 11.7624 17.1303 11.8374 17.1832 11.8644C17.2125 11.8794 17.2328 11.8887 17.2523 11.8951C17.2595 11.9374 17.3031 11.9762 17.3465 11.9583C17.4784 11.9039 17.5189 11.7875 17.5464 11.662C17.587 11.7474 17.6421 11.8217 17.7145 11.8441C17.9982 11.9317 17.903 11.4766 17.9646 11.3628C18.0119 11.2749 18.1766 10.9853 17.9673 10.943Z" fill="#50A263"/>
</g>
<defs>
<clipPath id="clip0_12_472">
<rect width="28" height="32" fill="white" transform="translate(2 1)"/>
</clipPath>
</defs>
</svg>
