<svg width="32" height="32" viewBox="0 0 32 32" fill="none" xmlns="http://www.w3.org/2000/svg">
<rect width="32" height="32" rx="16" fill="black"/>
<g clip-path="url(#clip0_13_634)">
<path d="M28.3897 8.52153V6.58377L27.9169 6.10474C21.8316 0.31619 8.79888 7.91579 4.37634 11.5781L2.19134 14.9776L4.90791 14.3039C0.73261 19.53 2.22533 22.9635 2.40149 23.319C2.84035 24.5552 3.84477 25.5441 5.47038 26.1931C6.70659 26.6876 8.1066 26.7463 9.30881 26.6907C14.4978 26.4497 20.6325 23.2139 24.5945 19.7618L24.6873 19.6814L25.4877 15.7132L23.9424 16.5693C20.795 17.9569 17.5751 19.1743 14.2969 20.2161C11.4815 21.0938 10.1896 21.2359 9.26864 21.0227L9.1481 20.998C9.06412 20.9705 8.99005 20.9189 8.93511 20.8497C8.88017 20.7804 8.84677 20.6966 8.83905 20.6086C8.79578 18.847 11.8245 15.0456 13.3512 13.4231C14.7729 11.8964 17.0073 10.2213 18.8987 9.42396C20.1658 8.89239 20.9817 8.67915 21.3711 8.71932C21.2303 9.14515 21.0546 9.55863 20.8457 9.95553C20.8457 9.95553 19.3746 12.8575 18.8863 13.8156C18.8773 13.8344 18.8745 13.8556 18.8783 13.8761C18.8821 13.8966 18.8922 13.9154 18.9073 13.9298C18.9224 13.9442 18.9416 13.9534 18.9623 13.9563C18.9829 13.9591 19.004 13.9553 19.0223 13.9454L28.3897 8.52153Z" fill="#B4975A"/>
<path d="M16.374 8.2371C14.6279 9.16426 12.6283 11.0186 12.0009 11.6769C6.89847 17.1131 3.32274 24.3758 14.4981 20.8959C17.8074 19.8452 21.0573 18.6154 24.2332 17.212C8.96913 30.1056 -5.43889 24.7065 8.74043 11.1576C7.44859 11.4512 6.14748 11.7325 4.87109 12.0848C9.41725 8.32673 21.8628 1.3236 27.4226 6.61458L21.4703 10.2552C24.02 5.25784 19.4275 6.43224 16.3617 8.2371" fill="#72253D"/>
</g>
<defs>
<clipPath id="clip0_13_634">
<rect width="26.39" height="22.7092" fill="white" transform="translate(2 4)"/>
</clipPath>
</defs>
</svg>
