<svg width="33" height="33" viewBox="0 0 33 33" fill="none" xmlns="http://www.w3.org/2000/svg">
<rect x="1" y="1" width="32" height="32" rx="16" fill="white"/>
<path d="M1.33564 22.2054C1.07719 21.8128 0.200012 20.3291 0.200012 17.9347C0.207844 16.8984 0.35665 15.8621 0.64643 14.8651C0.64643 14.8573 0.654263 14.8494 0.654263 14.8416L0.795237 14.292L0.826564 14.3234C0.85006 14.2606 0.873555 14.19 0.897051 14.1193C1.0067 13.7739 1.13201 13.4206 1.1555 13.3343C1.17117 13.2636 1.28081 12.8475 1.35913 12.5649C1.38263 12.4786 1.40612 12.4079 1.42962 12.3451L1.43745 12.3058C1.46095 12.0939 1.50011 11.8898 1.53927 11.6935C1.55493 11.5914 1.57059 11.4815 1.58626 11.3952L1.59409 11.3559L1.60975 11.3245C1.61759 11.301 1.62542 11.2853 1.63325 11.2696C1.88387 10.1077 2.43994 9.04002 3.23879 8.16076L3.25445 8.14506C3.43459 7.97235 3.63822 7.81534 3.84968 7.67403C3.97499 7.50917 4.38225 6.98318 4.75035 6.56711C4.87566 6.4258 5.00097 6.30019 5.11061 6.19813C5.23592 5.91551 5.40039 5.64859 5.59619 5.40523C6.0896 4.79289 6.74748 4.32971 7.48368 4.06279C8.18855 3.58391 8.94041 3.15998 9.70794 2.791C10.1857 2.31212 10.7183 1.88034 11.29 1.51922C12.5274 0.694912 13.9763 0.239582 15.4566 0.208179C15.5192 0.208179 15.5897 0.208179 15.6524 0.208179L16.2711 0.22388L15.5035 1.26015C15.9108 1.22875 16.3259 1.21305 16.7488 1.21305C18.8869 1.21305 21.0015 1.62127 22.983 2.42988H22.9987C23.1162 2.48483 23.2336 2.54764 23.3433 2.61829C23.4686 2.68895 23.5782 2.78315 23.68 2.88521C23.9307 2.91661 24.1735 2.98727 24.4084 3.08932H24.4162L24.4241 3.09717C26.4917 4.18055 28.293 5.6957 29.7263 7.54057L29.7419 7.55627L29.7498 7.57197C29.8124 7.68973 29.8516 7.82319 29.8751 7.95665C29.8986 7.97235 29.9299 7.9959 29.9691 8.01945C30.0552 8.07441 30.1414 8.13721 30.2119 8.21572L30.2275 8.23142L30.2432 8.25497C32.0367 10.8535 33 13.9466 33 17.1104C33 20.1093 32.1385 23.0454 30.5095 25.5654L30.4938 25.5811C30.4781 25.6046 30.4546 25.6282 30.4311 25.6439C30.4077 25.6674 30.3763 25.691 30.3528 25.7145C30.2902 25.7617 30.2275 25.8009 30.1649 25.8402C30.157 25.8716 30.1492 25.9108 30.1414 25.9579C30.1179 26.0757 30.0709 26.1934 30.0082 26.3033L29.9926 26.319C26.899 30.5348 21.9727 33.0234 16.741 32.9998C9.59046 32.9998 3.51291 28.4858 1.33564 22.2054Z" fill="white"/>
<path d="M29.9769 8.44305C29.8829 8.3567 29.7733 8.28604 29.6636 8.21539C29.6166 8.19969 29.5775 8.16044 29.5696 8.11333C29.554 7.98772 29.5226 7.86212 29.4678 7.74436C28.0659 5.93874 26.2959 4.45499 24.2753 3.39516C24.056 3.29311 23.821 3.23815 23.5861 3.2146C23.5391 3.2146 23.4999 3.19105 23.4764 3.15965C23.2963 2.97909 23.0927 2.83778 22.8577 2.74357C20.9154 1.95852 18.8399 1.55029 16.741 1.55029C16.0909 1.55029 15.4487 1.58954 14.7987 1.66805L15.6367 0.545423C12.2925 0.443366 9.8959 3.06544 9.8959 3.06544C9.09705 3.43442 8.32952 3.87405 7.60116 4.36863V4.36078C6.59867 4.6905 5.78416 5.42845 5.3534 6.39407C4.91482 6.76304 4.03764 7.92492 4.03764 7.92492C3.82618 8.05838 3.63038 8.20754 3.45025 8.3881C3.05082 8.80418 2.31463 9.74624 1.92303 11.3713C1.9152 11.3949 1.89954 11.4263 1.8917 11.4498C1.87604 11.544 1.86038 11.6461 1.84471 11.7403C1.80555 11.9365 1.77422 12.1328 1.7429 12.3448L1.75856 12.3212C1.75073 12.3683 1.75073 12.3919 1.75073 12.3919C1.71157 12.4233 1.46095 13.4203 1.46095 13.4203C1.42179 13.5459 0.967538 14.9197 0.967538 14.9197V14.9276C-0.230743 19.1198 1.35913 21.6633 1.63325 22.0559C3.74786 28.2264 9.71577 32.6776 16.7488 32.6776C21.8787 32.7012 26.711 30.2597 29.7419 26.1224C29.8046 25.9968 29.8438 25.8634 29.8673 25.7299C29.8673 25.6828 29.8908 25.6357 29.9377 25.6043C30.0552 25.5494 30.157 25.4787 30.2432 25.3923C31.8409 22.9273 32.6867 20.054 32.6789 17.1179C32.6789 14.0091 31.7391 10.9866 29.9769 8.44305Z" fill="black"/>
<path d="M10.05 5.42798C10.0892 5.38873 10.1284 5.34162 10.1597 5.31022C10.2145 5.25527 10.238 5.23957 10.238 5.24742C10.2458 5.24742 10.2458 5.23957 10.2458 5.23957C10.2537 4.75283 10.3163 4.27395 10.4416 3.80292C11.8905 1.76963 14.2793 1.2358 14.2793 1.2358C14.5769 1.14944 14.3811 1.2829 14.3811 1.2829C12.8774 2.97076 13.034 4.36816 13.034 4.36816L14.4672 9.62016C14.4672 9.62016 13.3003 9.21193 12.4074 7.36706C11.9924 11.049 15.4541 14.0322 15.4541 14.0322C15.6029 14.1578 15.3679 14.0243 15.3679 14.0243C14.4986 13.5925 13.5039 12.674 13.2298 12.415C13.3003 12.6976 14.992 21.1997 14.992 21.2232C14.9998 21.2625 15.0233 21.341 15.039 21.396L15.6264 19.9436L16.1119 24.2378C13.919 26.2868 11.5773 25.4782 11.4285 25.4233C11.4833 25.5175 11.5303 25.5803 11.5303 25.5803C11.5303 25.5803 13.4334 29.3171 21.1713 28.9246C21.1713 28.9246 21.3593 28.9246 21.328 28.9482C21.328 28.956 21.3202 28.9639 21.2888 28.9717C21.1635 29.011 21.0382 29.0424 20.9129 29.0581C11.5694 31.5624 6.72932 23.5784 6.51786 23.2251C6.21241 22.8012 5.95396 22.338 5.75033 21.8591C5.7425 21.8434 5.73467 21.7806 5.77383 21.8277C5.77383 21.8277 6.76848 22.864 9.5723 23.1231C9.58013 23.1231 9.59579 23.1231 9.60362 23.1152C7.43419 20.6894 6.51003 18.9387 6.37688 18.664C6.37688 18.664 6.11843 18.2714 5.80515 17.1567C5.80515 17.1567 5.81298 17.1017 5.83648 17.1567C5.9383 17.3765 6.65883 18.4363 7.536 18.6797C6.79197 17.4785 6.32989 15.5866 6.27507 15.3039C7.28538 16.717 9.07106 16.8269 9.07106 16.8269C9.07106 16.8191 9.06322 16.8191 9.06322 16.8112L9.07106 16.8191C6.12626 13.8751 6.76064 10.6721 7.95893 8.36408C8.53849 7.28856 9.23553 6.30724 10.05 5.42798Z" fill="white"/>
<path d="M18.8531 24.8973L16.9186 26.9306C16.9186 26.9306 16.9186 26.9306 16.9265 26.9227L19.3073 25.0936L18.0777 20.8307L18.6181 15.7043L17.6783 20.6031L18.8531 24.8973Z" fill="#BBC4CA"/>
<path d="M19.2839 12.3521C19.1116 13.2314 18.8374 14.1264 18.3675 14.5267C18.4067 14.511 18.4458 14.4875 18.4928 14.4561C18.6886 14.3383 18.8609 14.197 19.0176 14.04C19.5345 13.4826 19.8086 12.7368 19.7851 11.9753C19.7773 11.4336 19.6911 10.8919 19.5188 10.3738C19.4797 11.0333 19.4092 11.7006 19.2839 12.3521Z" fill="#BBC4CA"/>
<path d="M19.2682 5.81266C19.9417 4.79209 21.046 4.70573 21.5159 4.69788C21.1557 4.58797 20.7797 4.53302 20.396 4.53302C19.8947 4.53302 19.4013 4.62723 18.9392 4.82349C18.9079 4.83919 18.8844 4.84704 18.8609 4.86274C19.0332 5.16106 19.1664 5.48293 19.2682 5.81266Z" fill="#BBC4CA"/>
<path d="M18.4145 7.948C18.4302 7.948 18.4458 7.9637 18.4458 7.9794C18.4458 8.07361 18.4458 8.16781 18.4458 8.26202C18.4458 10.4523 17.8663 12.8546 17.6392 13.6946C18.344 12.0852 18.7043 10.3581 18.7043 8.59959C18.7043 7.95585 18.6573 7.30426 18.5477 6.66836C18.5085 6.425 18.4693 6.24443 18.438 6.11883C18.2265 7.76744 17.6 8.52109 17.5922 8.52109C17.5843 8.52894 17.5765 8.53679 17.5608 8.53679C17.553 8.53679 17.5373 8.52894 17.5373 8.52109C16.7541 7.10014 15.642 5.89116 14.2949 4.98835C14.1775 4.90985 14.0756 4.84704 14.013 4.80779C15.971 9.07847 16.5505 12.3757 16.6915 13.4591C16.6993 13.3335 16.6993 13.2079 16.6993 13.0822C16.6993 11.1353 16.1981 8.78016 15.9553 7.72818C15.8691 7.37491 15.8143 7.1708 15.8143 7.1708C15.8143 7.1551 15.8143 7.1394 15.83 7.13154C15.8456 7.12369 15.8613 7.12369 15.8691 7.13154C16.7463 7.81454 17.365 9.76932 17.4747 10.1304C17.7096 9.76147 17.8898 9.36109 18.0307 8.94502C18.2187 8.43473 18.3675 7.97155 18.3675 7.97155C18.3832 7.9637 18.3988 7.948 18.4145 7.948Z" fill="#BBC4CA"/>
<path d="M1.92053 16.8034C1.92053 18.8367 2.27296 20.9563 4.01165 23.6726C5.65635 27.1504 8.69512 29.0188 10.1049 29.7411C10.5748 29.9766 10.8646 30.0943 10.8646 30.0943C12.8147 31.0364 14.9528 31.5388 17.1222 31.5467C20.0592 31.5153 22.9257 30.6203 25.3536 28.9717C25.7765 28.6891 25.9958 28.5007 25.9958 28.4928C26.0819 28.4222 26.1446 28.3672 26.1916 28.328C26.1681 28.3437 26.1446 28.3594 26.1133 28.3751C26.0193 28.43 25.941 28.485 25.941 28.485C22.8709 30.3063 20.0279 30.8558 17.7096 30.8558C14.0756 30.8558 11.7261 29.4977 11.7182 29.4977C4.01165 25.4468 3.902 18.4285 3.902 18.4206C3.902 18.4049 3.90983 18.3892 3.9255 18.3892C3.94116 18.3892 3.95682 18.3892 3.96466 18.4049C4.95931 20.3361 6.16542 20.9956 6.69799 21.2075C6.77631 21.2389 6.83896 21.2546 6.88596 21.2703C4.64603 18.4442 4.00381 16.0576 4.00381 14.2598C4.00381 11.8811 5.12378 10.5308 5.13161 10.5308C5.13944 10.5151 5.15511 10.5151 5.17077 10.523C5.18643 10.5308 5.19426 10.5465 5.18643 10.5622C5.04546 11.2923 4.96714 12.0381 4.96714 12.7839C4.96714 14.354 5.33524 15.3275 5.51537 15.7122C5.5232 15.72 5.5232 15.7357 5.53104 15.7436C5.46838 15.194 5.42922 14.6445 5.42922 14.095C5.42139 10.6564 6.76848 7.35921 9.1807 4.90985C8.69512 5.11396 8.0999 5.63994 7.61432 6.14238C7.08175 6.69191 6.67449 7.2022 6.67449 7.2022C6.66666 7.21005 6.651 7.2179 6.63533 7.21005C6.61967 7.2022 6.61184 7.19435 6.61184 7.17865C6.651 6.75472 6.78414 6.34649 6.98777 5.96967C6.58051 6.38574 6.25157 6.86463 6.02445 7.39846C5.86781 7.72818 5.73467 8.06576 5.61719 8.41118L5.60935 8.42688C4.70869 9.46315 4.01165 10.6564 3.57306 11.9596C3.50257 12.1794 3.47125 12.305 3.47125 12.305C3.45558 12.3757 3.43992 12.4385 3.40859 12.5013C3.40076 12.5092 3.40076 12.5249 3.36943 12.5327C3.35377 12.5327 3.3381 12.5249 3.33027 12.5092C3.33027 12.5013 3.32244 12.4935 3.32244 12.4856C3.32244 12.4699 3.32244 12.4542 3.32244 12.4385C3.32244 12.3757 3.33027 12.2815 3.33027 12.2815C3.35377 11.2845 3.76886 10.154 3.93333 9.74577C2.75854 11.0097 2.46876 12.729 2.46876 14.1028C2.46876 14.6445 2.51575 15.194 2.59407 15.7279C2.65673 16.1361 2.71938 16.3795 2.71938 16.3795V16.3873C2.75071 17.2587 2.85253 18.1301 3.04049 18.9858C3.19713 19.7787 3.35377 20.3754 3.35377 20.3675C3.3851 20.4539 3.40859 20.5402 3.42425 20.6345C3.42425 20.6423 3.42425 20.6502 3.41642 20.658C3.40859 20.6737 3.39293 20.6816 3.3851 20.6816C3.36943 20.6816 3.35377 20.6737 3.34594 20.658C3.3381 20.6502 3.33027 20.6423 3.32244 20.6266C3.30678 20.6031 3.29111 20.5716 3.27545 20.5481C3.24412 20.4931 3.21279 20.4382 3.21279 20.4382C2.39044 19.1743 1.99102 17.1017 1.89703 16.5757C1.92053 16.6464 1.92053 16.7249 1.92053 16.8034Z" fill="#BBC4CA"/>
<path d="M19.9966 6.88818L19.9809 6.87248L19.9887 6.84893C20.3647 5.83621 22.1347 4.94125 22.4793 4.77639C21.7901 4.38386 21.0069 4.1719 20.208 4.1719C19.8008 4.1719 19.3935 4.22685 19.0019 4.32891C18.8453 4.36816 18.6886 4.42311 18.5398 4.48592L18.5163 4.49377L18.5007 4.47022C18.1874 4.09339 17.8506 3.74797 17.4747 3.4261C17.1692 3.15133 16.9343 2.97077 16.9108 2.95506C16.8638 2.92366 16.8403 2.90796 16.8325 2.86871C16.8325 2.84516 16.8481 2.82946 16.8638 2.82161C16.8795 2.81376 16.8951 2.8059 16.9108 2.8059C16.9421 2.79805 16.9813 2.79805 17.0126 2.79805C17.0518 2.79805 17.0909 2.79805 17.0988 2.79805C24.1553 2.79805 27.9146 7.85379 27.9146 7.86164C27.9616 7.90875 27.9851 7.9637 27.9851 8.0265C27.9773 8.17566 27.805 8.25417 27.6483 8.30127C27.5465 8.33268 27.4369 8.35623 27.335 8.36408C26.7085 8.45043 26.0741 8.49754 25.4397 8.49754C21.7744 8.51324 20.0044 6.89603 19.9966 6.88818Z" fill="#0064B1"/>
<path d="M17.5922 27.331C17.5843 27.3231 17.5687 27.3152 17.5687 27.3074C17.5687 27.2917 17.5687 27.2838 17.5843 27.276L19.9496 25.3605L18.7435 20.9014V20.8857L19.0724 17.8946C19.0724 17.8868 19.0802 17.8789 19.0881 17.8711C19.0959 17.8632 19.1037 17.8632 19.1194 17.8632C19.6598 18.0281 19.9104 18.766 20.0436 19.449C20.114 19.8416 20.1532 20.2419 20.1689 20.6423C20.7954 19.2763 21.0069 18.1851 21.0069 17.3294C21.0069 16.1283 20.5918 15.4139 20.3882 15.1391C20.3568 15.092 20.3177 15.0449 20.2785 15.0056C20.2628 14.9899 20.2628 14.9742 20.2785 14.9585C20.2942 14.9428 20.3098 14.9428 20.3255 14.9585C23.145 17.6356 23.7167 21.3881 23.7167 23.9709C23.7245 24.9679 23.6384 25.9571 23.4583 26.9384C23.3956 27.1111 23.2546 27.2367 23.0745 27.2838C22.0955 27.5037 21.0852 27.6214 20.0827 27.6214C19.2447 27.645 18.4067 27.5429 17.5922 27.331Z" fill="#0064B1"/>
<path d="M24.2258 27.0091C24.1788 26.962 24.1475 26.8992 24.1553 26.8364C24.1553 26.7893 24.1631 26.75 24.171 26.7029C24.171 26.7029 24.2649 26.3496 24.3511 25.7373C24.4764 24.913 24.5312 24.0808 24.5312 23.2487C24.5312 20.5559 23.889 16.7955 20.8972 13.8751C20.8659 13.8594 20.8424 13.8359 20.8189 13.8045C20.8032 13.7888 20.7954 13.7731 20.7954 13.7574C20.7954 13.7417 20.8032 13.726 20.8189 13.7181C20.8346 13.7103 20.8424 13.7103 20.8581 13.7103C20.9051 13.7103 20.952 13.7181 20.9912 13.7338C21.5081 13.9066 21.9702 14.2049 22.3461 14.6052C22.3383 14.566 22.3383 14.5189 22.3305 14.4561C22.2991 14.2363 22.2443 14.0243 22.1895 13.8123C22.0094 13.1608 21.6882 12.5484 21.2575 12.0303C21.2183 11.991 21.1792 11.9518 21.1478 11.9047C21.1322 11.889 21.1243 11.8733 21.1243 11.8497C21.1243 11.8419 21.1243 11.834 21.1322 11.8262C21.14 11.8183 21.1478 11.8183 21.1557 11.8183C21.1792 11.8183 21.1948 11.8262 21.2183 11.8419C21.2418 11.8576 21.2732 11.8811 21.3123 11.9047C21.4924 11.991 29.0111 15.6415 29.2774 23.0053C29.2774 23.0053 29.2774 23.0446 29.2774 23.1152C29.293 23.39 29.199 23.6569 29.0111 23.861C28.9406 23.9552 27.1549 26.1769 24.5312 27.0248C24.4764 27.0405 24.4216 27.0562 24.3668 27.0562C24.3198 27.0562 24.2649 27.0405 24.2258 27.0091Z" fill="#0064B1"/>
<path d="M29.8804 21.8277C29.8569 21.7571 29.8491 21.6786 29.8491 21.6001C29.6768 14.511 21.931 10.0519 19.9887 9.05492C19.7146 8.91361 19.558 8.84296 19.558 8.84296L19.4248 8.78016H19.5893C20.2863 8.78016 20.9521 9.08633 21.4141 9.60446C21.4141 9.4239 21.3828 9.24334 21.3436 9.07063C21.3045 8.92146 21.2653 8.81941 21.2653 8.81941L21.2418 8.74875L21.3123 8.7723C22.1268 9.07847 23.1685 9.18838 24.1945 9.18838C25.0951 9.18053 25.988 9.11773 26.8808 8.99997C27.6013 8.90577 28.0791 8.81156 28.0791 8.81156C28.1182 8.81156 28.1496 8.80371 28.1887 8.80371C28.4159 8.77231 28.6351 8.88221 28.7526 9.07848C29.7238 10.1618 30.9221 12.674 31.1257 15.6886C31.1492 16.0654 31.1649 16.4344 31.1649 16.7877C31.1649 19.4333 30.5305 21.3567 30.1624 21.8199C30.1232 21.8748 30.0684 21.9141 29.9979 21.9298C29.9352 21.9062 29.8961 21.8748 29.8804 21.8277Z" fill="#0064B1"/>
<path d="M13.3864 1.9659C13.3943 1.95805 13.3943 1.9502 13.4021 1.9502C13.3159 1.97375 11.7731 2.42908 11.3188 4.79209C11.3188 4.79209 11.3188 4.83134 11.3423 4.79209C11.4833 4.56442 11.961 3.83432 12.4074 4.04629C12.4074 4.04629 12.4074 4.03058 12.4153 3.99918C12.4231 3.79507 12.5641 2.97861 13.3864 1.9659Z" fill="black"/>
<path d="M12.196 23.2958C11.8592 22.6206 9.7211 17.9339 9.7211 17.9339C9.05539 18.1458 8.22521 17.6042 8.22521 17.6042C9.28252 20.4146 11.7652 22.864 12.1568 23.3115C12.1568 23.3115 12.1647 23.3115 12.1647 23.3193C12.2351 23.39 12.2351 23.3664 12.2351 23.3664C12.2273 23.3507 12.2116 23.3272 12.196 23.2958Z" fill="black"/>
<path d="M10.0735 8.01081C8.13906 12.4464 12.4936 14.2677 12.5484 14.2912L12.3213 13.2707L12.1882 12.6897C12.0863 12.6583 11.9767 12.6191 11.8749 12.572C11.8435 12.5563 11.8122 12.5406 11.7731 12.5249C11.7339 12.5013 11.6947 12.4856 11.6556 12.4621C9.75243 11.4493 9.9404 9.02352 10.0579 8.23062C10.0579 8.22277 10.0579 8.22277 10.0579 8.21492C10.0657 8.19137 10.0657 8.16782 10.0657 8.15211C10.0735 8.08146 10.0892 8.02651 10.097 8.00295C10.097 7.98725 10.097 7.9794 10.097 7.9794C10.1127 7.92445 10.0814 7.98725 10.0735 8.01081Z" fill="black"/>
<path d="M12.94 20.4931L12.6267 14.9271L14.4986 21.1369C14.4907 21.129 13.8798 19.661 12.94 20.4931Z" fill="#BBC4CA"/>
<path d="M13.0497 4.47806L13.4648 7.80669C13.4648 7.80669 13.6684 8.71735 12.4231 7.35136C13.3238 9.19623 14.4829 9.60446 14.4829 9.60446L13.0575 4.39956C13.0497 4.42311 13.0418 4.44666 13.0497 4.47806Z" fill="#BBC4CA"/>
<path d="M11.0682 10.5544C10.9664 10.3189 10.9116 10.0676 10.9037 9.80857C10.9116 9.32184 11.1308 8.85866 11.4989 8.54464L11.5146 8.52894C11.4989 8.08146 11.5068 7.62613 11.5303 7.17865C11.0525 7.88519 10.0422 9.55736 11.2483 10.8605C11.2327 10.837 11.2092 10.8056 11.1935 10.782C11.1543 10.7114 11.1074 10.6329 11.0682 10.5544Z" fill="#BBC4CA"/>
<path d="M12.3291 11.2295C11.8827 10.3974 11.6086 9.4867 11.5146 8.54464C11.5146 8.53679 11.5146 8.52894 11.5146 8.52109L11.4989 8.53679C11.123 8.85081 10.9115 9.31399 10.9037 9.80072C10.9037 10.0598 10.9664 10.311 11.0682 10.5465C11.1073 10.625 11.1543 10.7035 11.2092 10.7742C11.2248 10.7977 11.2405 10.8213 11.264 10.8527C11.2796 10.8762 11.311 10.9076 11.3423 10.9391C11.6321 11.2452 12.0315 11.4179 12.4544 11.4179C12.4466 11.4179 12.3996 11.3551 12.3291 11.2295Z" fill="black"/>
<path d="M14.0208 21.812C14.2166 21.812 14.3576 21.9926 14.4829 22.236C14.616 22.5264 14.71 22.8248 14.7727 23.1388C14.8667 23.547 14.9293 23.9474 14.9606 24.1986C14.9606 24.3085 14.9606 24.3949 14.9528 24.442V24.4498C14.992 24.1829 15.3836 21.5765 14.0678 21.2154C14.0678 21.2154 13.1515 20.9799 13.2063 22.8954C13.2141 22.8483 13.2141 22.8169 13.222 22.7776C13.5274 22.0868 13.778 21.812 14.0208 21.812Z" fill="#BBC4CA"/>
<path d="M14.9606 24.1907C14.9528 24.1122 14.8667 23.5392 14.7727 23.1309C14.71 22.8248 14.6082 22.5186 14.4829 22.2281C14.3654 21.9847 14.2166 21.8042 14.0208 21.8042C13.778 21.812 13.5274 22.0789 13.222 22.7619C13.2063 22.8012 13.2063 22.8405 13.2063 22.8797L13.6605 23.8846C13.6605 23.8846 13.919 21.1997 14.945 24.4263C14.945 24.4341 14.945 24.4341 14.945 24.442V24.4263C14.9685 24.3556 14.9685 24.2692 14.9606 24.1907Z" fill="black"/>
</svg>
