<svg width="32" height="32" viewBox="0 0 32 32" fill="none" xmlns="http://www.w3.org/2000/svg">
<g clip-path="url(#clip0_13_731)">
<path d="M16.0079 -4.56532e-06C20.2484 0.00728394 24.313 1.69559 27.3107 4.69482C30.3085 7.69405 31.9948 11.7595 31.9999 16C31.9999 24.824 24.8239 32 16.0079 32C12.8427 32.0021 9.74804 31.0651 7.11551 29.3078C4.48297 27.5504 2.43091 25.0517 1.219 22.1277C0.00708877 19.2037 -0.310196 15.9859 0.307297 12.8815C0.92479 9.77709 2.4493 6.92565 4.68792 4.688C6.17082 3.19656 7.93495 2.01423 9.87809 1.20951C11.8212 0.404789 13.9047 -0.00632251 16.0079 -4.56532e-06Z" fill="#FFC627"/>
<path d="M16.008 30.728C24.12 30.728 30.72 24.128 30.72 16C30.72 7.88801 24.12 1.28001 16.008 1.28001C7.88 1.27201 1.28 7.88001 1.28 15.992C1.28 24.12 7.88 30.728 16.008 30.728Z" fill="#8B2332"/>
<path d="M2.36801 15.992C2.36801 8.48 8.48801 2.368 16 2.368C19.6144 2.368 23.0807 3.8038 25.6365 6.35955C28.1922 8.91529 29.628 12.3816 29.628 15.996C29.628 19.6104 28.1922 23.0767 25.6365 25.6324C23.0807 28.1882 19.6144 29.624 16 29.624C8.48801 29.632 2.36801 23.512 2.36801 15.992Z" fill="#0D2240"/>
<path d="M26.736 10.288L27.04 10.12L26.064 8.6L25.792 8.8C24.128 6.696 21.168 4.352 18.352 4C20.472 4.968 22.856 7.44 24.312 9.344L22.784 10.456L22.968 10.736L16.056 15.224L9.14399 10.736L9.32799 10.456L7.79199 9.34401C9.25599 7.44001 11.632 4.96801 13.76 4C10.952 4.35201 7.99199 6.696 6.33598 8.792L6.04798 8.58401L5.07199 10.096L5.37599 10.272L5.36799 10.288C4.15199 12.68 3.25598 16.368 4.12799 19.072C4.10399 16.736 5.35998 13.528 6.48799 11.392L8.13599 12.32L8.30399 12.056L14.72 16.088L6.25599 21.592L6.23998 21.576L5.10399 21.88L5.11998 21.912C5.06398 22.12 5.16798 22.512 5.40799 22.888C5.64798 23.272 5.95199 23.52 6.18398 23.568L6.19998 23.6L6.95198 22.688L6.94398 22.672L23.8 12.072L23.968 12.336L25.624 11.408C26.752 13.544 28.008 16.76 27.992 19.088C28.856 16.376 27.952 12.68 26.736 10.288Z" fill="#FFC627"/>
<path d="M25.864 21.576L25.848 21.592L18.064 16.536L16.704 17.344L25.16 22.664L25.152 22.68L25.904 23.592L25.928 23.56C26.152 23.52 26.456 23.264 26.704 22.88C26.936 22.504 27.048 22.12 26.992 21.904L27.008 21.872L25.864 21.576Z" fill="#FFC627"/>
<path d="M17.384 5.36001L16.8 6.12805L15.992 4.19199V13.128L18.712 9.64001L21.4481 10.352L17.384 5.36001Z" fill="#FFC627"/>
<path d="M17.384 7.45595V5.36001L16.8 6.12804L17.384 7.45595Z" fill="white"/>
<path d="M15.992 4.19199L11.056 10.216L13.232 9.65603L15.992 13.128V4.19199Z" fill="white"/>
<path d="M13.096 26.72C13.7897 26.0515 14.6891 25.6371 15.648 25.544V24.208H11.96C12.0326 25.1526 12.4346 26.0417 13.096 26.72Z" fill="#FFC627"/>
<path d="M15.64 27.96V26.376C14.9244 26.4637 14.2536 26.7711 13.72 27.256C14.2916 27.6465 14.9515 27.8885 15.64 27.96Z" fill="#FFC627"/>
<path d="M16.464 19.76V21.336C17.1787 21.2534 17.8484 20.9452 18.376 20.456C17.8057 20.0702 17.1489 19.8311 16.464 19.76Z" fill="white"/>
<path d="M19.008 21C18.3166 21.666 17.4197 22.0778 16.464 22.168V23.384H20.144C20.0334 22.4873 19.6347 21.6507 19.008 21Z" fill="white"/>
<path d="M15.64 21.336V19.76C14.9533 19.8288 14.2954 20.0711 13.728 20.464C14.2592 20.9464 14.9275 21.2512 15.64 21.336Z" fill="white"/>
<path d="M16.464 24.208V25.544C17.4219 25.632 18.3204 26.0473 19.008 26.72C19.6747 26.0445 20.0801 25.1544 20.152 24.208L16.464 24.208Z" fill="#FFC627"/>
<path d="M11.96 23.384H15.64V22.168C14.6827 22.0746 13.7843 21.6635 13.088 21C12.4636 21.6514 12.0677 22.4881 11.96 23.384Z" fill="white"/>
<path d="M16.464 27.96C17.1507 27.8912 17.8086 27.6489 18.376 27.256C17.8475 26.7683 17.1782 26.4602 16.464 26.376V27.96Z" fill="#FFC627"/>
</g>
<defs>
<clipPath id="clip0_13_731">
<rect width="32" height="32" fill="white"/>
</clipPath>
</defs>
</svg>
