<svg width="32" height="32" viewBox="0 0 32 32" fill="none" xmlns="http://www.w3.org/2000/svg">
<g clip-path="url(#clip0_13_635)">
<path d="M31.5886 16C31.5886 24.5943 24.64 31.5429 16.0457 31.5429C7.45144 31.5429 0.502869 24.5943 0.502869 16C0.502869 7.40571 7.45144 0.457138 16.0457 0.457138C24.5943 0.457138 31.5886 7.40571 31.5886 16Z" fill="#B5B3B3"/>
<path d="M31.1314 16C31.1314 24.32 24.3657 31.0857 16.0457 31.0857C7.68002 31.0857 0.914307 24.32 0.914307 16C0.914307 7.67999 7.68002 0.914276 16 0.914276C24.3657 0.914276 31.1314 7.67999 31.1314 16Z" fill="#0F4C92"/>
<path d="M28.8914 16C28.8914 23.1314 23.1314 28.8914 16 28.8914C8.9143 28.8914 3.1543 23.1314 3.1543 16C3.1543 8.86857 8.9143 3.10857 16.0457 3.10857C23.1314 3.10857 28.8914 8.86857 28.8914 16Z" fill="#DE1E35"/>
<path d="M16.0457 3.10857C8.9143 3.10857 3.1543 8.91428 3.1543 16C3.1543 23.0857 8.9143 28.8914 16.0457 28.8914C23.1314 28.8914 28.9372 23.1314 28.9372 16C28.8914 8.91428 23.1314 3.10857 16.0457 3.10857ZM3.88573 16.3657H6.26287V15.5886H3.88573C3.88573 15.3143 3.93144 14.9943 3.93144 14.72C4.7543 10.5143 9.8743 7.22285 16 7.22285C22.1257 7.22285 27.2457 10.4686 28.0686 14.72C28.1143 14.9943 28.1143 15.2686 28.1143 15.5886H25.7372V16.3657H28.1143C28.1143 16.64 28.0686 16.96 28.0686 17.2343C27.2457 21.44 22.1257 24.7314 16 24.7314C9.8743 24.7314 4.7543 21.4857 3.93144 17.2343C3.93144 16.96 3.93144 16.6857 3.88573 16.3657ZM16.0457 3.88571C21.1657 3.88571 25.6 7.08571 27.3372 11.6114C25.1886 8.63999 20.9372 6.62857 16.0457 6.62857C11.1543 6.62857 6.90287 8.63999 4.7543 11.6114C6.49144 7.08571 10.88 3.88571 16.0457 3.88571ZM16.0457 28.1143C10.9257 28.1143 6.49144 24.9143 4.7543 20.3886C6.90287 23.36 11.1543 25.3714 16.0457 25.3714C20.9372 25.3714 25.1886 23.36 27.3372 20.3886C25.5543 24.9143 21.1657 28.1143 16.0457 28.1143Z" fill="white"/>
<path d="M16.5486 13.8057H16.6857C16.8228 13.8057 17.0971 13.8514 17.0971 14.1257C17.0971 14.2628 17.0971 14.6743 17.0971 14.8114V14.8571C17.0971 14.8571 17.0971 15.0857 17.0971 15.1314C17.1428 15.36 17.3257 15.4971 17.6457 15.5428H17.92V14.08C17.92 13.9428 17.8743 13.76 17.7371 13.6686V13.6228C17.8743 13.44 17.92 13.3028 17.92 13.0286V12.8914C17.92 11.7486 17.8743 11.52 17.3714 11.4743H15.5886V15.4514H16.5028V13.8057H16.5486ZM16.5486 12.16H16.6857H16.7314C16.96 12.16 17.0514 12.16 17.0514 12.5714C17.0514 12.8914 17.0514 12.9371 17.0514 13.0743V13.12C17.0514 13.1657 17.0514 13.2114 17.0057 13.2571C17.0057 13.2571 16.96 13.3028 16.9143 13.3028H16.5486V12.16Z" fill="white"/>
<path d="M22.1714 11.52H21.3029V15.4971H22.1714V11.52Z" fill="white"/>
<path d="M13.6686 15.4971H14.5829V12.1143C14.5829 12.1143 14.5829 12.1143 14.6286 12.1143C14.8114 12.1143 14.9029 12.0686 14.9943 11.9771C15.1771 11.7943 15.1314 11.52 15.1314 11.52V11.4743H13.0743V12.1143H13.6686V15.4971Z" fill="white"/>
<path d="M23.2686 15.4971H24.1829V12.1143C24.1829 12.1143 24.1829 12.1143 24.2286 12.1143C24.4115 12.1143 24.5029 12.0686 24.5943 11.9771C24.7772 11.7943 24.7315 11.52 24.7315 11.52V11.4743H22.6743V12.1143H23.2686V15.4971Z" fill="white"/>
<path d="M12.6171 14.8571H11.6571V13.8971H12.2971V13.0286H11.6571V12.1143H12.6171V11.52H10.7429V15.4971H12.6171V14.8571Z" fill="white"/>
<path d="M9.6 11.52H7.31428V11.5657C7.31428 11.5657 7.26857 11.7943 7.45143 11.9771C7.54285 12.0686 7.68 12.16 7.86286 12.16V15.5428H9.55428C9.92 15.5428 10.1943 15.2228 10.1943 14.72V12.8914C10.1943 11.7943 10.1943 11.52 9.6 11.52ZM9.28 14.8571H8.77714V12.1143C9.09714 12.1143 9.14285 12.1143 9.14285 12.1143C9.28 12.16 9.28 12.3886 9.28 12.3886C9.32571 12.7543 9.28 14.6286 9.28 14.8571Z" fill="white"/>
<path d="M11.52 16.32H10.6057V20.3886H11.52V16.32Z" fill="white"/>
<path d="M14.08 16.32C13.8057 16.32 12.8457 16.32 12.7086 16.32H12.6629C12.3886 16.32 12.2057 16.4571 12.16 16.6857C12.16 16.7314 12.16 16.7314 12.16 16.7314C12.16 16.7314 12.1143 17.5086 12.16 17.7371C12.2972 18.1028 12.5715 18.24 12.8457 18.2857C12.8457 18.2857 12.8457 18.2857 12.8915 18.2857H12.9372C12.9829 18.2857 12.9829 18.3314 12.9829 18.3314V19.7943H12.2515V20.3428H13.2572C13.6229 20.3428 13.8515 20.16 13.9429 19.9314C13.9886 19.7486 13.9886 18.3771 13.9429 18.0571C13.9429 17.9657 13.8972 17.8743 13.8057 17.7828C13.76 17.7371 13.7143 17.7371 13.6686 17.6914C13.6229 17.6457 13.5772 17.6457 13.4857 17.6C13.2572 17.5086 13.0286 17.3714 13.0286 17.0971V16.8686H13.76C13.8972 16.8686 14.0343 16.7771 14.08 16.64C14.1257 16.5486 14.1715 16.4114 14.1715 16.4114C14.08 16.4571 14.08 16.4114 14.08 16.32Z" fill="white"/>
<path d="M18.24 16.32C18.0572 16.32 17.8286 16.32 17.6457 16.3657C17.1886 16.4571 17.0057 16.7771 17.0057 17.28V19.7028C17.0057 20.3428 17.4629 20.4343 18.1029 20.4343C18.9257 20.4343 19.3829 20.16 19.3829 19.6571V17.1428C19.3829 16.32 18.8343 16.32 18.24 16.32ZM17.92 17.2343C17.92 17.1428 17.92 17.0514 17.9657 16.96C18.0115 16.96 18.0572 16.96 18.1029 16.96C18.4229 16.96 18.4229 17.0514 18.4229 17.6V19.2914C18.4229 19.3371 18.4229 19.3828 18.4229 19.4286C18.4229 19.4743 18.4229 19.52 18.4229 19.5657C18.3772 19.5657 18.3315 19.5657 18.24 19.5657C18.1486 19.5657 18.0572 19.52 18.0115 19.4743C17.92 19.3828 17.92 19.2914 17.92 19.1086V17.3714C17.92 17.5086 17.92 17.3257 17.92 17.2343Z" fill="white"/>
<path d="M21.4857 18.0571C21.0286 16.5028 20.3429 16.32 20.0686 16.32C19.9772 16.32 19.9315 16.32 19.9315 16.32V20.3886H20.8457V18.7428L21.4857 20.3886H22.4V16.32H21.4857V18.0571Z" fill="white"/>
<path d="M9.4629 16.32H7.17718H7.13147V16.3657C7.13147 16.3657 7.13147 16.8686 7.63433 16.96V20.4343H8.59433V18.6971H9.37147C9.7829 18.6971 10.0115 18.4228 10.0115 17.92V17.7828C10.0572 16.64 10.0115 16.4114 9.4629 16.32ZM9.09718 18.1486H8.59433V16.96C8.59433 16.96 8.86861 16.96 8.91433 16.96C9.00576 16.96 9.09718 17.0057 9.09718 17.1428C9.09718 17.1886 9.09718 18.1486 9.09718 18.1486Z" fill="white"/>
<path d="M16.6857 16.32H14.5372V16.96H15.1315V20.3886H16.0457V16.9143C16.0457 16.9143 16.0457 16.9143 16.0915 16.9143C16.2743 16.9143 16.4115 16.8686 16.5029 16.7771C16.7315 16.64 16.6857 16.3657 16.6857 16.32Z" fill="white"/>
<path d="M24.9143 16.32C24.64 16.32 23.68 16.32 23.5429 16.32H23.4972C23.2229 16.32 23.04 16.4571 22.9943 16.6857C22.9943 16.7314 22.9943 16.7314 22.9943 16.7314C22.9943 16.7314 22.9486 17.5086 22.9943 17.7371C23.1315 18.1028 23.4057 18.24 23.68 18.2857C23.68 18.2857 23.68 18.2857 23.7257 18.2857H23.7715C23.8172 18.2857 23.8172 18.3314 23.8172 18.3314V19.7943H23.0857V20.3428H24.0915C24.4572 20.3428 24.6857 20.16 24.7772 19.9314C24.8229 19.7486 24.8229 18.3771 24.7772 18.0571C24.7772 17.9657 24.7315 17.8743 24.64 17.7828C24.5943 17.7371 24.5486 17.7371 24.5029 17.6914C24.4572 17.6457 24.4115 17.6457 24.32 17.6C24.0915 17.5086 23.8629 17.3714 23.8629 17.0971V16.8686H24.5943C24.7315 16.8686 24.8686 16.7771 24.9143 16.64C24.96 16.5486 25.0057 16.4114 25.0057 16.4114C24.9143 16.4571 24.9143 16.4114 24.9143 16.32Z" fill="white"/>
<path d="M19.7029 11.52C19.52 11.52 19.2914 11.52 19.1086 11.5657C18.6514 11.6571 18.4686 11.9771 18.4686 12.4343V14.8114C18.4686 15.4057 18.9257 15.5428 19.5657 15.5428C20.3886 15.5428 20.8457 15.2686 20.8457 14.7657V12.2971C20.8 11.52 20.2971 11.52 19.7029 11.52ZM19.3829 12.4343C19.3829 12.3428 19.3829 12.2514 19.4286 12.2057C19.4743 12.2057 19.52 12.2057 19.5657 12.2057C19.8857 12.2057 19.8857 12.2971 19.8857 12.8457V14.5371C19.8857 14.5828 19.8857 14.6286 19.8857 14.6743C19.8857 14.72 19.8857 14.7657 19.8857 14.8114C19.84 14.8114 19.7943 14.8114 19.7029 14.8114C19.6114 14.8114 19.52 14.7657 19.4743 14.72C19.3829 14.6286 19.3829 14.5371 19.3829 14.4V12.7086C19.3829 12.6628 19.3829 12.48 19.3829 12.4343Z" fill="white"/>
</g>
<defs>
<clipPath id="clip0_13_635">
<rect width="32" height="32" fill="white"/>
</clipPath>
</defs>
</svg>
