<svg width="32" height="32" viewBox="0 0 32 32" fill="none" xmlns="http://www.w3.org/2000/svg">
<rect width="32" height="32" rx="16" fill="#FDB525"/>
<path d="M27.2649 8.17713C25.5757 6.13591 23.0848 4.97873 20.4364 5.0003H9.58512L4.54602 28H13.8225L15.1611 22.4298C16.3922 22.4298 19.692 22.4298 19.692 22.4298C22.7698 22.4585 25.318 21.4091 27.0287 19.3895C30.1352 15.9755 29.5984 11.0018 27.2649 8.17713Z" fill="#D4D4D4"/>
<path d="M14.6743 21.8404L13.3358 27.4106H5.29761L10.0647 5.6184H20.4292C22.8915 5.56809 25.225 6.66776 26.7782 8.57961C29.083 11.3755 29.2978 16.0042 26.5635 19.0157C24.8742 21.0066 22.4119 21.8691 19.649 21.8691L14.6743 21.8404Z" fill="#091F40"/>
<path d="M8.99817 10.434H13.5505C14.0874 10.434 14.6242 10.8652 14.3808 11.5337C14.2234 11.9649 14.116 12.4249 14.0587 12.8777C14.0086 13.2299 14.4095 13.4455 14.6242 13.4455H23.8936C24.0797 13.4455 24.1584 13.3952 24.1584 13.3089C24.1584 13.0933 24.1298 12.9065 24.1083 12.6908C24.0797 12.4752 24.0582 12.4465 23.8649 12.4465C22.7125 12.4465 22.233 11.9361 21.0233 11.1527C19.8208 10.3693 18.0528 9.91649 16.521 9.91649H9.0769L8.99817 10.434Z" fill="#FDB525"/>
<path d="M14.6242 16.4642C14.4668 16.0904 14.3308 15.7095 14.2234 15.3358C14.0874 14.768 13.5792 14.423 13.0209 14.4445H8.14642L8.28242 13.9055H24.0869C24.2443 13.9055 24.2229 13.9558 24.1942 14.1498C24.1942 14.3367 24.1441 14.6601 24.1155 14.847C24.0869 15.0339 23.9294 14.9836 23.7934 15.0051C23.3138 15.0051 22.8056 15.1417 22.3976 15.3789C21.7534 15.8604 20.3362 16.7517 19.556 16.9961C18.6684 17.2692 15.5333 18.2395 14.6242 16.4642Z" fill="#FDB525"/>
<path d="M7.25891 18.4551H15.5119C15.834 18.4264 16.1847 18.5342 16.4209 18.7498C17.1725 19.3392 18.0529 19.7704 18.9906 20.0148C19.42 20.1514 20.1716 19.986 20.8087 19.6123C22.4693 18.6708 23.5143 16.8955 23.865 15.7383C23.9438 15.4436 23.7863 15.4724 23.5429 15.4724C22.8486 15.5227 22.1257 16.148 21.1594 16.7661C20.1931 17.3842 18.239 17.9736 16.3923 17.952H7.36628L7.25891 18.4551Z" fill="#FDB525"/>
<path d="M19.3627 7.3721C19.6275 7.34335 19.8709 7.34335 20.1429 7.42241C21.6961 8.04053 23.1993 9.67926 23.8148 11.433C23.9222 11.7564 23.9723 11.972 23.8148 12.0008C23.0919 12.0799 22.7698 11.7349 21.9109 11.1383C21.0805 10.5705 20.1715 10.1177 19.2052 9.82301C18.1602 9.47082 16.2347 9.44926 15.9913 9.42051C15.748 9.42051 15.7766 9.3127 15.884 9.20489C16.8217 8.25615 18.0242 7.60928 19.3627 7.3721Z" fill="#FDB525"/>
<path d="M26.864 13.3377C26.864 13.4168 26.7853 13.4743 26.7066 13.4743H24.91C24.6666 13.4743 24.6666 13.3664 24.6666 13.2299C24.6666 13.0933 24.6165 12.8274 24.6165 12.6621C24.6165 12.5039 24.5664 12.3386 24.7525 12.2596C25.2607 12.0152 25.6902 11.6127 25.955 11.1312C26.0337 10.9946 26.1411 10.7574 26.2485 10.9443C26.6779 11.6486 26.8139 12.4824 26.864 13.3377Z" fill="#FDB525"/>
<path d="M26.2199 16.5936C26.1913 16.6439 26.0839 16.7014 26.0338 16.5936C25.769 15.9754 25.3109 15.4651 24.7239 15.1705C24.6166 15.1201 24.5665 15.0123 24.5879 14.8758C24.6094 14.7392 24.6667 14.3367 24.6667 14.1498C24.6667 14.0133 24.7168 13.9055 24.8242 13.9055H26.7067C26.7568 13.9055 26.8641 13.9558 26.8641 14.0133C26.8641 14.9261 26.6279 15.7886 26.2199 16.5936Z" fill="#FDB525"/>
<path d="M21.3167 20.1442C21.1807 20.1729 20.8873 20.1154 21.3454 19.8495C22.7125 19.0445 23.9436 17.183 24.2657 16.1121C24.4017 15.7096 24.4017 15.6808 24.5592 15.7383C24.8813 15.8964 25.1462 16.1408 25.3609 16.4355C25.6043 16.7877 25.7331 17.4561 25.5756 17.6717C24.5377 18.987 23.006 19.907 21.3167 20.1442Z" fill="#FDB525"/>
<path d="M24.8026 11.6487C24.4805 11.8068 24.4304 11.7852 24.3445 11.5409C23.7576 9.44214 21.9896 7.88247 21.2881 7.42248C21.1521 7.34342 21.1807 7.28592 21.2881 7.28592C23.006 7.53029 24.6881 8.44309 25.5184 9.73683C26.0337 10.5203 25.1247 11.4834 24.8026 11.6487Z" fill="#FDB525"/>
</svg>
