<svg width="32" height="32" viewBox="0 0 32 32" fill="none" xmlns="http://www.w3.org/2000/svg">
<g clip-path="url(#clip0_13_820)">
<path d="M16 32C24.8366 32 32 24.8366 32 16C32 7.16344 24.8366 0 16 0C7.16344 0 0 7.16344 0 16C0 24.8366 7.16344 32 16 32Z" fill="#C8102E"/>
<path d="M16 31.2017C24.3957 31.2017 31.2017 24.3956 31.2017 16C31.2017 7.60435 24.3957 0.798332 16 0.798332C7.60436 0.798332 0.79834 7.60435 0.79834 16C0.79834 24.3956 7.60436 31.2017 16 31.2017Z" fill="#12173F"/>
<path d="M16 27.0994C22.13 27.0994 27.0994 22.1301 27.0994 16C27.0994 9.86995 22.13 4.90056 16 4.90056C9.86993 4.90056 4.90054 9.86995 4.90054 16C4.90054 22.1301 9.86993 27.0994 16 27.0994Z" fill="#4891CE"/>
<path d="M26.6561 16C26.6561 21.885 21.885 26.6561 16 26.6561C10.115 26.6561 5.34388 21.885 5.34388 16C5.34388 10.115 10.115 5.34389 16 5.34389C21.885 5.34389 26.6561 10.115 26.6561 16ZM5.37888 25.3583C5.53721 25.5428 5.7311 25.6778 5.92165 25.725L6.18721 25.4972L6.17221 25.4794C5.93499 25.4533 5.76332 25.3622 5.63276 25.21C5.42554 24.9689 5.42721 24.6967 5.66387 24.4939L6.00832 24.1983C6.23387 24.005 6.50665 24.0583 6.7061 24.2911C6.83165 24.4372 6.90165 24.6239 6.88276 24.8344L6.89943 24.8539L7.16332 24.6278C7.14388 24.4483 7.03999 24.2383 6.8861 24.0583C6.50887 23.6189 5.94499 23.4956 5.45387 23.9167C4.96443 24.3367 4.9961 24.9106 5.37943 25.3578L5.37888 25.3583ZM8.19332 25.985L7.35499 27.1683L8.44554 27.9411L8.6861 27.7472L7.95943 27.2322L8.88554 25.9244L8.33387 25.5339L8.31888 25.555C8.31554 25.6889 8.30165 25.7739 8.26999 25.85C8.25276 25.8917 8.22943 25.9339 8.19276 25.9856L8.19332 25.985ZM10.7922 27.5456L10.2222 28.8789L10.7094 29.0872L11.4561 27.3406L10.835 27.075L10.825 27.0989C10.85 27.2306 10.8544 27.3167 10.8394 27.3972C10.8317 27.4417 10.8178 27.4878 10.7928 27.5461L10.7922 27.5456ZM12.9883 28.3239L12.7328 29.7511L13.2544 29.8444L13.3533 29.2939L13.76 29.3694C14.2317 29.4567 14.555 29.2622 14.63 28.8439C14.705 28.4256 14.4683 28.135 13.9967 28.0489L12.9244 27.8556L12.92 27.8811C12.9744 28.0039 12.9972 28.0867 13.0011 28.1689C13.0033 28.2139 13 28.2622 12.9889 28.3244L12.9883 28.3239ZM13.4033 29.01L13.5378 28.2594L13.8644 28.3178C14.04 28.3494 14.1289 28.4467 14.0961 28.6283L14.055 28.8583C14.0222 29.04 13.905 29.1033 13.7294 29.0706L13.4028 29.0094L13.4033 29.01ZM16.3122 28.6789L16.4344 30.1233L16.9622 30.0783L16.915 29.5211L17.3272 29.4889C17.805 29.4511 18.0672 29.18 18.0317 28.7561C17.9955 28.3328 17.6917 28.1133 17.2144 28.1522L16.1289 28.2428L16.1311 28.2683C16.215 28.3728 16.2589 28.4467 16.2839 28.525C16.2978 28.5678 16.3072 28.615 16.3122 28.6783V28.6789ZM16.8911 29.2344L16.8267 28.475L17.1578 28.4472C17.3355 28.4322 17.4467 28.5033 17.4622 28.6872L17.4822 28.92C17.4978 29.1039 17.4005 29.1956 17.2228 29.2089L16.8917 29.2344H16.8911ZM19.6155 28.1561L20.1033 29.5211L21.4222 29.05L21.405 28.7444L20.5033 29.0667L20.3167 28.545L20.9005 28.3367L20.8794 28.0394L20.22 28.275L20.06 27.8272L20.9189 27.5206L20.7422 27.2761L19.3261 27.7817L19.335 27.8061C19.4428 27.8856 19.5044 27.9461 19.5483 28.015C19.5728 28.0528 19.5939 28.0961 19.615 28.1556L19.6155 28.1561ZM22.5178 26.8856L23.3433 28.0778L23.7789 27.7761L23.3728 27.1894L23.4894 27.1083L24.2783 27.43L24.8089 27.0628L23.9467 26.7417C24.1544 26.5128 24.18 26.25 24.0155 26.0117C23.8089 25.7128 23.4622 25.6844 23.0867 25.9439L22.1417 26.5978L22.1561 26.6189C22.2811 26.6678 22.3561 26.71 22.4167 26.7656C22.45 26.7956 22.4817 26.8322 22.5178 26.8844V26.8856ZM23.2161 26.9633L22.8594 26.4478L23.1867 26.2211C23.3055 26.1389 23.4222 26.1433 23.5117 26.2728L23.6094 26.4139C23.6994 26.5433 23.6622 26.6539 23.5433 26.7361L23.2161 26.9628V26.9633ZM26.7194 25.2439C27.0489 24.8589 27.1255 24.4367 26.8217 24.1717C26.6011 23.98 26.3444 24.0117 26.0478 24.2017L25.675 24.4406C25.5622 24.5128 25.4644 24.5294 25.3939 24.4706C25.2928 24.3861 25.3417 24.2256 25.4794 24.0644C25.6189 23.9017 25.8278 23.7606 26.0355 23.7461L26.0522 23.7267L25.7928 23.505C25.61 23.5617 25.415 23.7061 25.2583 23.8894C24.9239 24.2806 24.9161 24.68 25.1783 24.9056C25.3778 25.0761 25.6167 25.0489 25.8978 24.8694L26.2672 24.6328C26.3955 24.5506 26.4883 24.5511 26.5667 24.6183C26.6894 24.7233 26.6394 24.8933 26.4817 25.0778C26.3222 25.2644 26.0978 25.4111 25.8444 25.4394L25.8283 25.4583L26.0967 25.6878C26.295 25.6367 26.5372 25.4572 26.7194 25.2439ZM3.10388 11.4544L4.44776 11.9978L4.94832 10.7589L4.70443 10.5694L4.37054 11.395L2.88499 10.7944L2.63165 11.4211L2.65554 11.4306C2.78665 11.4028 2.87276 11.3972 2.95387 11.41C2.99832 11.4167 3.04499 11.43 3.10332 11.4539L3.10388 11.4544ZM6.11165 8.91889C6.47332 8.415 6.39276 7.84944 5.90554 7.5C5.41832 7.15055 4.85665 7.25444 4.49499 7.75833C4.13332 8.26222 4.21388 8.82778 4.7011 9.17722C5.18832 9.52667 5.74999 9.42278 6.11165 8.91889ZM5.23388 8.85167L4.83943 8.56833C4.59999 8.39667 4.56665 8.15778 4.73165 7.92778C4.89665 7.69778 5.13387 7.65333 5.37332 7.825L5.76832 8.10833C6.00776 8.28 6.0411 8.51889 5.8761 8.74889C5.7111 8.97889 5.47388 9.02333 5.23443 8.85167H5.23388ZM8.09554 6.75667C8.48221 6.42944 8.62554 6.025 8.36832 5.715C8.18165 5.49055 7.92276 5.48055 7.59943 5.62111L7.19332 5.79722C7.07054 5.85055 6.97165 5.85111 6.9111 5.78222C6.82499 5.68222 6.89887 5.53167 7.06054 5.395C7.22443 5.25667 7.45332 5.15055 7.66054 5.17L7.68054 5.15333L7.45999 4.89278C7.27054 4.91944 7.05499 5.03055 6.87054 5.18667C6.47776 5.51889 6.4061 5.91167 6.62888 6.17722C6.79832 6.37722 7.03832 6.38889 7.34499 6.25667L7.74721 6.08222C7.88721 6.02167 7.97832 6.03722 8.04499 6.11611C8.14943 6.23944 8.07276 6.39889 7.88721 6.55611C7.69999 6.715 7.45499 6.82389 7.20054 6.81055L7.18165 6.82667L7.40943 7.09611C7.61387 7.07722 7.8811 6.93889 8.09499 6.75778L8.09554 6.75667ZM11.9205 3.04333L11.7183 4.51333L12.0433 4.42389L12.0978 4.01111L12.9961 3.76444L13.2533 4.09167L13.8067 3.94L12.5294 2.32111L11.8033 2.52055L11.81 2.54555C11.9505 2.69722 11.9605 2.76167 11.9211 3.04278L11.9205 3.04333ZM12.1389 3.70278L12.255 2.82167L12.8033 3.52055L12.1394 3.70278H12.1389ZM15.0917 2.35L15.085 3.8L15.4278 3.80167L15.4333 2.49778L16.4928 3.80667L16.9255 3.80833L16.9339 1.90833L16.5917 1.90667L16.5867 3.07611L15.6355 1.90222L14.9478 1.89889V1.925C15.0222 2.03667 15.0594 2.11444 15.0772 2.19444C15.0872 2.23833 15.0922 2.28611 15.0922 2.34944L15.0917 2.35ZM19.2355 4.27278C19.5217 4.34833 19.8033 4.34555 20.0644 4.24722L20.3055 3.33667L19.5333 3.13222L19.3833 3.38667L19.7144 3.47444L19.5694 4.02167C19.4961 4.03055 19.4117 4.02278 19.32 3.99833C19.0217 3.91944 18.875 3.71055 18.9589 3.39222L19.0705 2.97C19.1511 2.66667 19.3944 2.55333 19.7217 2.64C19.9105 2.69 20.1083 2.80111 20.2055 2.98333L20.2305 2.99L20.3189 2.655C20.1739 2.50055 19.9572 2.40555 19.7583 2.35333C19.0928 2.17722 18.6083 2.46722 18.4555 3.04444C18.3044 3.61667 18.5761 4.09889 19.2344 4.27278H19.2355ZM21.9433 3.68167L21.2478 4.95333L22.4767 5.62555L22.6933 5.41L21.8533 4.95055L22.1194 4.46444L22.6633 4.76222L22.8711 4.54889L22.2567 4.21278L22.485 3.79555L23.2855 4.23333L23.3505 3.93889L22.0311 3.21722L22.0189 3.24C22.0311 3.37333 22.0272 3.45944 22.0044 3.53833C21.9922 3.58167 21.9739 3.62611 21.9439 3.68167H21.9433ZM24.6022 5.37444L23.64 6.45944L24.6394 7.34611L24.8994 7.17944L24.2333 6.58833L25.2967 5.38944L24.7911 4.94111L24.7739 4.96055C24.7561 5.09333 24.7328 5.17611 24.6933 5.24833C24.6717 5.28833 24.6439 5.32722 24.6022 5.37444ZM26.7155 7.505L25.5367 8.34889L26.3517 9.48778L26.6405 9.38722L26.0833 8.60889L26.5339 8.28611L26.895 8.79055L27.175 8.68889L26.7672 8.11944L27.1539 7.84278L27.685 8.58444L27.8717 8.34778L26.9967 7.125L26.9755 7.14C26.9289 7.26555 26.8878 7.34111 26.8328 7.40278C26.8033 7.43667 26.7672 7.46889 26.7155 7.50555V7.505ZM27.225 11.3106C27.4178 11.7789 27.7589 12.0394 28.1328 11.8894C28.4039 11.7806 28.4922 11.5372 28.4578 11.1867L28.4144 10.7461C28.4017 10.6133 28.4311 10.5183 28.5155 10.4822C28.6367 10.4306 28.7578 10.5472 28.8383 10.7433C28.92 10.9417 28.9505 11.1917 28.8689 11.3833L28.8789 11.4072L29.1944 11.2772C29.2272 11.0889 29.1872 10.8494 29.0955 10.6261C28.8994 10.1506 28.5478 9.96167 28.2272 10.0922C27.9844 10.1922 27.9 10.4172 27.9322 10.7489L27.975 11.1856C27.99 11.3372 27.9472 11.4194 27.8511 11.4589C27.7017 11.5206 27.5733 11.3989 27.4805 11.1739C27.3872 10.9467 27.3583 10.6806 27.4489 10.4422L27.4394 10.4194L27.1133 10.5539C27.0689 10.7539 27.1183 11.0506 27.225 11.31V11.3106Z" fill="white"/>
<path d="M8.84278 15.3417L6.93944 15.6372C7.13 10.795 11.1156 6.92778 16.005 6.92778V6.97556V9.91889V10.7989V11.2789V11.775L16.05 11.79L16.1833 11.2789H18.5556L18.575 11.3383C18.5517 11.5117 18.5639 12.0294 19.4333 12.4017L19.4561 12.4706L16.0044 12.385L12.5528 12.4706L12.5756 12.4017C13.445 12.0294 13.4572 11.5122 13.4339 11.3383L13.4533 11.2789H15.8261L15.7039 10.8089L13.9767 10.8678L13.9917 10.8233C14.505 10.5328 14.5233 10.1233 14.5111 9.975L14.53 9.91834H15.4722L15.195 8.85334C11.82 9.23111 9.15055 11.9456 8.84222 15.3411L8.84278 15.3417ZM22.1311 12.2317L21.8533 13.0717L21.9133 13.1972H24.4233L24.5278 12.8828C23.2967 9.51778 20.1289 7.08556 16.3744 6.935L16.6722 8.83889C18.9817 9.05111 20.975 10.3556 22.1317 12.2311L22.1311 12.2317ZM21.9133 18.8033L21.8533 18.9289L22.1311 19.7689C20.9761 21.6422 18.9861 22.9461 16.68 23.1606L16.3828 25.065C20.1339 24.9111 23.2972 22.48 24.5278 19.1178L24.4233 18.8033H21.9133ZM19.6189 12.955L19.595 12.8833H12.4144L12.3906 12.955C12.385 13.17 12.285 13.8533 11.3456 14.7867L11.32 14.8644C11.8456 14.6378 12.3178 14.4472 12.7622 14.2833C13.3089 14.0817 13.8167 13.9189 14.3139 13.785C14.5856 13.7117 14.8567 13.6472 15.1189 13.5928C15.3961 13.535 15.6733 13.4872 15.9422 13.45L16.0006 13.4417L16.0589 13.4494C16.2883 13.4794 16.525 13.5183 16.7628 13.5661C16.9878 13.6111 17.2206 13.6644 17.455 13.725C17.8833 13.8361 18.325 13.9728 18.8039 14.1422C19.4506 14.3711 20.0828 14.6317 20.7 14.8956L20.6639 14.7872C19.725 13.8544 19.625 13.1711 19.6189 12.9556V12.955ZM18.0172 10.8233C17.5039 10.5328 17.4856 10.1233 17.4978 9.975L17.4789 9.91834H16.5372L16.305 10.8089L18.0317 10.8678L18.0167 10.8233H18.0172ZM17.6089 20.2478C17.6156 20.2578 17.6233 20.2678 17.6322 20.2778H17.6328L17.6333 20.2794C17.6522 20.3033 17.6828 20.3267 17.715 20.35C17.7483 20.3717 17.7894 20.3961 17.8378 20.4156H17.8383L17.8389 20.4161C17.9228 20.4539 18.0294 20.4883 18.1644 20.5211C18.4122 20.5811 18.6933 20.6133 18.9378 20.6389C19.0061 20.6456 19.075 20.6517 19.1444 20.6572C19.2556 20.3361 19.3939 20.0172 19.5506 19.7006C19.2594 19.8317 18.9489 19.9439 18.6217 20.0367C18.2106 20.1528 17.8522 20.215 17.6083 20.2478H17.6089ZM13.8444 20.5217C13.9794 20.4889 14.0861 20.4544 14.17 20.4167H14.1711C14.2194 20.3961 14.2606 20.3717 14.2939 20.3506C14.3267 20.3267 14.3572 20.3033 14.3756 20.28V20.2789L14.3772 20.2783C14.3861 20.2683 14.3939 20.2583 14.4006 20.2483C14.1572 20.2156 13.7983 20.1533 13.3872 20.0372C13.06 19.9444 12.7489 19.8322 12.4583 19.7011C12.6156 20.0178 12.7539 20.3367 12.8644 20.6578C12.9339 20.6522 13.0028 20.6461 13.0711 20.6394C13.315 20.6139 13.5967 20.5817 13.8439 20.5217H13.8444ZM25.0678 15.9994V16.3622L23.1667 16.6622L21.1767 16.9761C20.7506 17.6672 20.2939 18.3556 19.8994 19.0494C19.8522 19.0783 19.8044 19.1067 19.7561 19.1344C19.1256 19.4928 18.4161 19.7089 17.6472 19.7772C17.7167 19.6128 17.8206 19.4467 17.9233 19.29C17.9806 19.2033 18.045 19.1122 18.1261 19.0028C18.1928 18.9117 18.2633 18.8178 18.3422 18.7161C18.5406 18.4594 18.7506 18.1983 18.9539 17.9461C19.0533 17.8222 19.1567 17.6944 19.2572 17.5678L19.4861 17.2761C19.4956 17.2639 19.5056 17.2511 19.515 17.2389C19.5817 17.1517 19.6467 17.065 19.7083 16.98C19.7778 16.8844 19.8517 16.7822 19.9217 16.6767C19.9433 16.6444 19.9639 16.6111 19.9839 16.5783C19.9956 16.5589 20.0083 16.5394 20.0206 16.52C20.0206 16.52 20.0206 16.5183 20.0211 16.5183L19.6356 16.4094C19.6356 16.4094 19.6328 16.4139 19.6317 16.4161C19.6128 16.4467 19.5933 16.4778 19.5728 16.5083C19.515 16.5956 19.45 16.6878 19.3683 16.7983C19.2544 16.9467 19.1044 17.1394 18.9383 17.33C18.9294 17.34 18.9206 17.3506 18.9117 17.3606C18.7083 17.5967 18.4883 17.8306 18.2756 18.0572C18.1533 18.1872 18.0272 18.3217 17.9044 18.4561C17.7522 18.6228 17.575 18.8217 17.4133 19.0328C17.3339 19.135 17.2594 19.2411 17.1928 19.3489C17.1361 19.4406 17.0644 19.5633 17.0106 19.7017C16.9722 19.8006 16.9217 19.9517 16.9278 20.1261C16.9294 20.2939 17 20.47 17.1167 20.5978C17.18 20.6722 17.2567 20.7278 17.3233 20.7722H17.3239L17.3244 20.7733C17.4044 20.8228 17.4822 20.8617 17.5539 20.89C17.6922 20.9456 17.8394 20.9872 18.0156 21.0206C18.17 21.0506 18.3228 21.0644 18.4661 21.0761C18.6206 21.0894 18.775 21.0911 18.9078 21.0917C18.9139 21.0917 18.9206 21.0917 18.9267 21.0917C18.9556 21.0917 18.9844 21.0917 19.0133 21.0911C18.9906 21.1778 18.97 21.265 18.9522 21.3528C18.9511 21.3528 18.95 21.3533 18.9489 21.3539L17.62 21.8311L16.795 22.1383L16.2228 16.2194L16.1706 15.6811L16.0656 14.5956L16.005 14.6167V15.6806V15.9917V16.1333V22.6194V25.0272V25.075C10.9967 25.075 6.93611 21.0167 6.93222 16.0089H6.93333V16.0017H12.8022L12.8211 15.9456L11.9528 15.7061L11.135 15.4811L11.1644 15.3928C12.6567 14.7311 14.2856 14.0944 16.005 13.8567C17.6922 14.0772 19.3144 14.7517 20.8539 15.4172L20.875 15.4811L20.0556 15.7067L19.1889 15.9456L19.2078 16.0017H25.0678V15.9994ZM15.3411 23.1617L15.1772 22.1228L14.39 21.8294L13.0633 21.3528C13.0633 21.3528 13.0594 21.3517 13.0578 21.3511C13.04 21.2639 13.0194 21.1767 12.9967 21.0894C13.0256 21.0894 13.0544 21.09 13.0833 21.09C13.0894 21.09 13.0961 21.09 13.1022 21.09C13.235 21.0894 13.3894 21.0872 13.5439 21.0744C13.6872 21.0628 13.84 21.0489 13.9944 21.0189C14.1711 20.9856 14.3178 20.9439 14.4561 20.8883C14.5283 20.86 14.6056 20.8206 14.6861 20.7717H14.6867L14.6872 20.7706C14.7539 20.7261 14.8306 20.6706 14.8939 20.5961C15.0106 20.4683 15.0811 20.2922 15.0828 20.1244C15.0856 20.0406 15.08 19.9061 15 19.7C14.9461 19.5617 14.8744 19.4389 14.8178 19.3472C14.7511 19.2394 14.6767 19.1333 14.5972 19.0317C14.435 18.8206 14.2578 18.6217 14.1056 18.455C13.9828 18.3206 13.8561 18.1861 13.7344 18.0561C13.5217 17.8294 13.3022 17.5956 13.0983 17.36C13.09 17.35 13.0817 17.3406 13.0733 17.3311C12.9067 17.14 12.7561 16.9467 12.6417 16.7978C12.56 16.6872 12.495 16.595 12.4372 16.5078C12.4167 16.4772 12.3972 16.4461 12.3783 16.4156C12.3772 16.4133 12.3756 16.4111 12.3744 16.4089L11.9889 16.5178C11.9889 16.5178 11.9889 16.5183 11.9894 16.5189C12.0017 16.5389 12.0139 16.5589 12.0261 16.5778C12.0461 16.61 12.0672 16.6433 12.0883 16.6761C12.1583 16.7817 12.2317 16.8839 12.3017 16.9794C12.3639 17.065 12.4294 17.1528 12.4961 17.24C12.505 17.2517 12.5144 17.2639 12.5233 17.2756L12.7522 17.5672C12.8528 17.6939 12.9561 17.8217 13.0556 17.9456C13.2589 18.1978 13.4689 18.4589 13.6672 18.7156C13.7461 18.8172 13.8167 18.9111 13.8833 19.0028C13.9644 19.1122 14.0289 19.2039 14.0861 19.29C14.1894 19.4461 14.2933 19.6122 14.3622 19.7772C13.5939 19.7089 12.885 19.4928 12.255 19.1356C12.2061 19.1078 12.1578 19.0794 12.1094 19.05C11.7156 18.3567 11.2589 17.6689 10.8333 16.9783L8.84222 16.6644C9.15722 20.1067 11.8978 22.8472 15.34 23.1622L15.3411 23.1617Z" fill="#12173F"/>
</g>
<defs>
<clipPath id="clip0_13_820">
<rect width="32" height="32" fill="white"/>
</clipPath>
</defs>
</svg>
