<svg width="32" height="32" viewBox="0 0 32 32" fill="none" xmlns="http://www.w3.org/2000/svg">
<rect x="0.5" y="0.5" width="31" height="31" rx="15.5" fill="black"/>
<rect x="0.5" y="0.5" width="31" height="31" rx="15.5" stroke="black"/>
<path d="M27.768 11.424C26.824 10.384 24.736 9.536 22.048 9.024C22.064 8.712 22.248 8.584 22.584 8.352C22.752 8.232 22.952 8.088 23.16 7.904C24.032 7.08 23.008 5.824 22.968 5.76L22.408 5.072L22.544 5.944C22.632 6.536 22.416 6.752 21.76 7.208C21.68 7.264 21.6 7.328 21.544 7.392C21.576 6.992 21.592 6.544 21.456 5.984C21.32 5.424 21.048 5.192 21.048 5.192L20.976 6C20.976 6.008 20.92 6.632 20.08 7.392C20.152 7.312 20.224 7.232 20.28 7.136C20.688 6.544 20.568 5.856 20.44 5.072L20.408 4.912C20.264 4.096 20.488 3.584 20.632 3.488C20.776 3.32 21.04 3.04 21.04 3.04C21.04 3.04 20.896 2.976 20.488 3.024C19.968 3.096 19.08 3.408 19.104 4.128C19.112 4.44 19.216 4.744 19.304 5.008C19.4 5.288 19.488 5.56 19.408 5.696C19.344 5.808 19.144 5.888 18.84 5.952C17.608 6.176 16.664 6.752 16.176 7.584C16.016 7.856 15.912 8.152 15.856 8.456C12.792 8.464 9.88799 8.848 7.63999 9.544C5.11999 10.328 3.72799 11.392 3.62399 12.616C3.56799 13.264 3.85599 14.192 5.47999 15.096L5.47199 15.112L5.93599 15.336L6.18399 15.456C6.92799 15.792 7.80799 16.08 8.77599 16.312C8.42399 16.504 8.10399 16.736 7.82399 16.992C6.25599 18.28 5.35199 20.192 5.35199 22.224C5.35199 24.032 6.05599 25.736 7.33599 27.016C8.61599 28.296 10.32 29 12.128 29C15.336 29 18.12 26.728 18.76 23.6C19.312 21.96 19.24 20.208 19.224 19.544C19.168 18.04 19.912 17.208 20.376 16.832C22.52 16.568 24.408 16.096 25.824 15.464L26.056 15.352L26.544 15.12L26.528 15.104C27.664 14.472 28.296 13.728 28.368 12.936C28.4 12.424 28.2 11.912 27.768 11.424ZM25.56 12.744C25.752 12.96 25.736 13.096 25.736 13.136C25.712 13.384 25.408 13.672 24.896 13.944C23.816 14.512 21.968 14.944 19.76 15.16C19.856 15.104 19.96 15.04 20.08 15L20.12 14.984C20.752 14.72 21.472 14.432 21.504 13.384C21.512 13.224 21.52 12.704 21.608 12.52C21.728 12.28 22.032 11.928 22.296 11.832C22.304 11.832 21.848 11.744 21.848 11.744C21.824 11.744 21.8 11.744 21.784 11.736C21.936 11.624 22.048 11.496 22.12 11.36C23.912 11.736 25.12 12.248 25.56 12.744ZM6.21599 13C6.28799 12.136 9.40799 10.992 14.44 10.816C13.968 11.168 13.424 11.776 13.28 12.768L13.224 13.136C13.192 13.368 13.152 13.6 13.064 13.832C12.872 14.336 12.32 14.76 11.744 15.08C9.71199 14.824 8.02399 14.392 7.03199 13.864C6.49599 13.568 6.19199 13.256 6.21599 13Z" fill="black"/>
<path d="M5.59198 22.72C5.76798 23.616 6.27998 24.68 7.29598 25.392C7.59998 25.608 7.93598 25.776 8.29598 25.912C8.07998 25.544 7.81598 25.16 7.55998 24.784C7.07998 24.072 6.56798 23.328 6.25598 22.536C5.92798 21.712 5.83998 20.856 5.98398 19.992C5.71998 20.688 5.58398 21.448 5.58398 22.248C5.56798 22.4 5.57598 22.552 5.59198 22.72Z" fill="#961A31"/>
<path d="M6.68799 22.352C6.98399 23.104 7.47999 23.816 7.94399 24.52C8.31199 25.056 8.66399 25.584 8.93599 26.112C9.23199 26.176 9.54399 26.224 9.85599 26.248C9.52799 25.784 9.24799 25.256 9.00799 24.656C8.07199 22.32 8.20799 19.424 9.37599 17.752C9.97599 16.888 10.696 16.304 11.632 15.792C12.424 15.352 12.928 15.224 13.44 14.92C13.992 14.592 14.288 14.04 13.92 12.808C13.816 12.44 13.792 12.16 13.816 11.936C13.688 12.184 13.592 12.464 13.552 12.792C13.496 13.144 13.472 13.528 13.32 13.912C12.832 15.192 10.472 15.896 10.16 15.992C9.26399 16.256 8.54399 16.68 7.98399 17.176C6.34399 18.624 6.05599 20.784 6.68799 22.352Z" fill="#961A31"/>
<path d="M16.544 10.8C16.568 10.88 16.592 10.96 16.6 11.032C16.656 11.48 16.528 11.84 15.976 11.928C15.408 12.016 15.216 11.528 15.176 11.128C15.168 10.984 15.184 10.872 15.192 10.8C15.096 10.8 15.008 10.8 14.912 10.808C14.736 10.912 14.496 11.072 14.272 11.296C14.16 11.544 14.024 11.872 14.232 12.656C14.6 14.04 14.44 14.872 13.336 15.352C11.92 15.96 11.016 16.32 9.8 17.84C9.216 18.568 8.904 19.768 8.856 20.976C8.8 22.152 9.048 23.408 9.456 24.432C9.728 25.12 10.056 25.72 10.44 26.224C10.816 26.208 11.208 26.16 11.584 26.072C11.16 25.584 10.92 24.976 10.88 24.304C10.736 22.056 11.944 21.12 13.8 19.624L14.632 18.928C17.952 16.112 16.984 13.248 17.344 10.8C17.088 10.816 16.816 10.808 16.544 10.8Z" fill="#961A31"/>
<path d="M17.872 10.848C17.768 11.336 17.72 11.848 17.696 12.376C17.56 14.512 17.632 16.92 14.928 19.312L14.112 19.976C12.304 21.424 11.272 22.328 11.344 24.296C11.368 24.944 11.64 25.512 12.104 25.96C12.608 25.808 13.112 25.592 13.592 25.32C15.944 23.992 17.416 21.992 17.984 19.448C18.344 17.832 18.336 16.52 18.328 15.464C18.328 14.928 18.392 13.88 18.392 13.88C18.464 13.216 18.568 12.296 19.336 11.072C19.36 11.032 19.392 10.992 19.408 10.952C18.92 10.912 18.408 10.872 17.872 10.848Z" fill="#961A31"/>
<path d="M18.664 17.704C18.592 18.088 18.568 18.52 18.52 18.944C18.496 19.104 18.472 19.264 18.456 19.424C18.448 19.472 18.44 19.512 18.424 19.552C17.832 22.248 16.296 24.336 13.832 25.736C13.408 25.976 12.976 26.176 12.544 26.328C13.264 26.808 14.112 26.952 14.696 26.872C16.912 26.536 17.992 25.096 18.512 23.544C19.048 21.96 18.992 20.264 18.968 19.568C18.88 17.224 20.688 16.36 20.688 16.36C19.28 16.28 18.816 16.896 18.664 17.704Z" fill="#961A31"/>
<path d="M17.184 26.336C16.28 27.096 15.304 27.256 14.856 27.328C13.984 27.464 12.952 27.256 12.04 26.536C12.024 26.52 12.008 26.512 11.992 26.496C11.6 26.6 11.208 26.664 10.816 26.704C11.712 27.664 12.88 28.208 14.472 28.32H14.496C15.568 27.896 16.504 27.208 17.216 26.312C17.2053 26.3227 17.1946 26.3307 17.184 26.336Z" fill="#961A31"/>
<path d="M8.94399 27.944C8.95999 27.456 8.82399 26.96 8.59199 26.48C8.04799 26.32 7.51999 26.096 7.00799 25.784C6.71999 25.608 6.45599 25.344 6.23199 25.096C6.82399 26.304 7.77599 27.296 8.94399 27.944Z" fill="#961A31"/>
<path d="M13.456 28.624C12.568 28.424 11.816 28.104 11.16 27.608C10.816 27.344 10.512 27.056 10.232 26.728C9.87197 26.72 9.51997 26.688 9.16797 26.624C9.35997 27.128 9.46397 27.64 9.39997 28.176C10.224 28.552 11.144 28.76 12.112 28.76C12.584 28.76 13.032 28.704 13.472 28.616C13.4666 28.6213 13.4613 28.624 13.456 28.624Z" fill="#961A31"/>
<path d="M21.048 12.568C20.896 13.072 20.392 13.016 20.256 12.736C20.024 12.304 20.112 11.968 20.352 11.736C20.592 11.504 20.984 11.384 21.36 11.216H21.368C20.928 11.144 20.464 11.072 19.96 11.016L19.936 11.04C19.888 11.096 19.848 11.136 19.8 11.192C19.008 12.376 18.912 13.256 18.832 13.928L18.808 14.136C18.76 14.496 18.76 14.936 18.768 15.456V15.672C18.76 15.848 18.752 16.032 18.744 16.208H18.752C18.76 16.136 18.76 16.112 18.76 16.152C18.984 15.448 19.392 15.008 19.976 14.776C20.6 14.52 21.216 14.296 21.248 13.384C21.264 13.008 21.288 12.624 21.376 12.432C21.536 12.08 21.816 11.984 21.816 11.984C21.528 11.96 21.2 12.088 21.048 12.568Z" fill="#961A31"/>
<path d="M21.808 8.976C21.856 8.368 22.424 8.256 22.984 7.728C23.696 7.048 22.768 5.92 22.768 5.92C22.888 6.68 22.528 6.968 21.888 7.424C21.688 7.568 21.536 7.768 21.52 8.016C21.496 8.296 21.472 8.6 21.416 8.912C21.544 8.936 21.672 8.96 21.808 8.976Z" fill="#F9A11E"/>
<path d="M19.84 7.92001C19.672 8.04801 19.504 8.18401 19.36 8.31201C19.256 8.41601 19.152 8.51201 19.056 8.61601C19.68 8.67201 20.288 8.74401 20.88 8.82401C21.248 8.13601 21.44 7.36801 21.216 6.04001C21.208 6.04801 21.152 6.94401 19.84 7.92001Z" fill="#F9A11E"/>
<path d="M16.336 8.488C17.048 8.496 17.76 8.528 18.44 8.568C18.464 8.544 18.488 8.52 18.504 8.504C18.968 8.016 19.68 7.592 20.056 7.04C20.432 6.48 20.288 5.808 20.144 4.984C19.896 3.568 20.504 3.304 20.504 3.304C20.504 3.304 19.304 3.464 19.328 4.16C19.36 5.088 20.32 5.96 18.88 6.224C17.296 6.512 16.312 7.368 16.096 8.488C16.176 8.488 16.248 8.488 16.336 8.488Z" fill="#F9A11E"/>
<path d="M16.328 8.864C9.70397 8.8 4.17597 10.504 3.98397 12.688C3.91197 13.56 4.68797 14.36 6.07197 15.032C6.92797 15.44 8.02397 15.8 9.27997 16.072C9.53597 15.96 9.79197 15.856 10.072 15.776C10.288 15.712 10.696 15.576 11.144 15.384C9.28797 15.12 7.79197 14.696 6.85597 14.192C6.16797 13.824 5.80797 13.408 5.84797 12.976C5.97597 11.52 10.616 10.376 16.208 10.432C21.8 10.488 26.232 11.72 26.104 13.176C26.064 13.568 25.704 13.952 25.064 14.28C23.896 14.896 21.832 15.368 19.32 15.592C19.232 15.712 19.16 15.848 19.096 15.992C20.232 15.56 21.552 16.2 21.552 16.2C21.552 16.2 21.64 16.24 21.704 16.272C23.368 15.976 24.8 15.552 25.872 15.048C27.136 14.448 27.912 13.72 27.976 12.928C28.176 10.744 22.952 8.928 16.328 8.864Z" fill="white"/>
</svg>
