<svg width="32" height="32" viewBox="0 0 32 32" fill="none" xmlns="http://www.w3.org/2000/svg">
<g clip-path="url(#clip0_13_948)">
<rect width="32" height="32" rx="16" fill="#0F1840"/>
<path d="M39 12.6186L38.6028 12.3733C32.5053 8.82224 23.6511 7.05841 19.5861 7H19.5277C18.8619 7 18.3946 7.23362 18.1493 7.68918C17.9391 8.07466 17.9624 8.46013 18.0675 8.79888C17.9975 8.71711 17.8923 8.63535 17.7872 8.55358C17.4601 8.30828 17.0747 8.1097 17.0747 8.1097C17.0747 8.1097 17.1214 8.42509 17.0046 8.39005C16.9462 8.36668 16.8761 8.34332 16.806 8.30828C16.4789 8.15642 16 7.8644 16 7.8644C16 7.8644 15.5094 8.15642 15.1823 8.30828C15.1122 8.34332 15.0422 8.36668 14.9837 8.39005C14.8669 8.42509 14.9137 8.1097 14.9137 8.1097C14.9137 8.1097 14.5282 8.30828 14.2011 8.55358C14.096 8.63535 13.9909 8.71711 13.9208 8.79888C14.0259 8.47181 14.0493 8.08634 13.839 7.68918C13.5937 7.23362 13.1381 7 12.4606 7H12.4022C8.34891 7.07009 -0.505332 8.82224 -6.60284 12.3733L-7 12.6186C-7 12.6186 -6.40427 14.1488 -4.92077 14.581L-5.11935 14.6745C-5.11935 14.6745 -4.27831 16.0295 -2.98172 16.3098L-3.22702 16.4149C-3.22702 16.4149 -2.3159 17.8984 -0.540375 18.2021L-0.797359 18.3306C-0.797359 18.3306 0.464195 19.6973 2.41493 19.8258L2.13459 20.0361C2.13459 20.0361 3.4195 20.8888 5.32351 21.1107L5.01981 21.3794C5.01981 21.3794 8.38395 22.6059 11.1991 21.5896C11.9817 23.5404 13.8857 24.872 16.0234 24.872C18.161 24.872 20.0767 23.5521 20.8476 21.5896C23.6628 22.6176 27.0269 21.3794 27.0269 21.3794L26.7232 21.1107C28.6155 20.9005 29.9121 20.0361 29.9121 20.0361L29.6318 19.8258C31.5709 19.709 32.8441 18.3306 32.8441 18.3306L32.5871 18.2021C34.3626 17.8867 35.2737 16.4149 35.2737 16.4149L35.0284 16.3098C36.325 16.0295 37.1661 14.6745 37.1661 14.6745L36.9675 14.581C38.4043 14.1488 39 12.6186 39 12.6186Z" fill="#B4975A"/>
<path d="M38.3575 12.8055C32.3884 9.32454 23.6277 7.5607 19.5743 7.49061C19.0837 7.47893 18.7567 7.59574 18.5814 7.92281C18.3011 8.44846 18.6982 9.04419 18.8618 9.30117C19.2239 9.85018 19.7145 10.7029 19.7145 11.7308C19.7145 13.7283 18.1025 15.2001 16.1167 15.2001C16.07 15.2001 16.035 15.2001 15.9882 15.2001C15.9415 15.2001 15.9065 15.2001 15.8598 15.2001C13.874 15.2001 12.262 13.7283 12.262 11.7308C12.262 10.7029 12.7526 9.85018 13.1147 9.30117C13.2899 9.04419 13.6871 8.46014 13.3951 7.92281C13.2198 7.60742 12.8928 7.49061 12.4022 7.49061C8.34883 7.5607 -0.411961 9.32454 -6.38098 12.8055C-6.38098 12.8172 -5.42313 14.4525 -3.5308 14.3123C-3.82283 14.4525 -4.11486 14.6044 -4.40688 14.7562C-4.40688 14.7796 -3.5308 16.193 -1.43989 15.9944C-1.79033 16.158 -2.12908 16.3215 -2.47951 16.4967C-2.47951 16.5201 -1.47494 17.9218 0.732783 17.8751C0.230497 18.1321 -0.0848913 18.2956 -0.0848913 18.2956C-0.0848913 18.3073 1.37524 19.709 3.72313 19.3235C3.46615 19.5104 3.20917 19.709 2.90546 19.9193C2.90546 19.9193 4.63426 20.8654 6.66676 20.5734C6.40978 20.772 6.14111 20.9705 5.88413 21.1808C5.88413 21.1574 8.99129 22.0335 11.2107 21.0523C13.1147 20.2113 14.1777 18.1554 14.423 17.6414C14.7968 17.7232 15.1238 17.7699 15.3808 17.805C15.3808 17.8283 15.7897 17.8634 15.9882 17.8634C16.1868 17.8751 16.5957 17.84 16.5957 17.805C16.841 17.7699 17.1797 17.7232 17.5535 17.6414C17.7988 18.1554 18.8501 20.223 20.7658 21.0523C22.9852 22.0335 26.0924 21.1458 26.0924 21.1808C25.8354 20.9822 25.5667 20.772 25.3097 20.5734C27.3422 20.8654 29.071 19.9193 29.071 19.9193C28.7673 19.709 28.5103 19.5104 28.2534 19.3235C30.6012 19.709 32.0614 18.3073 32.0614 18.2956C32.0614 18.2956 31.7577 18.1321 31.2437 17.8751C33.4514 17.9101 34.4443 16.5084 34.456 16.4967C34.1056 16.3215 33.7668 16.158 33.4164 15.9944C35.5073 16.2047 36.3717 14.7796 36.3834 14.7562C36.0913 14.6044 35.7993 14.4642 35.5073 14.3123C37.4113 14.4408 38.3575 12.8172 38.3575 12.8055Z" fill="#0A2240"/>
<path d="M14.2828 16.5785C14.2828 16.5785 8.95621 14.7913 11.2691 9.11427C11.2691 9.11427 5.62711 9.34789 -2.09407 12.4667C-2.09407 12.4667 -2.6314 12.6887 -2.94679 12.8055C-3.26217 12.9223 -3.77614 13.1209 -4.50037 12.7704C-4.50037 12.7704 2.56667 9.07922 11.6429 8.21482C12.8343 8.09801 12.9979 8.28491 12.6825 8.72879C12.4255 9.11427 9.17815 13.2377 14.2828 16.5785Z" fill="white"/>
<path d="M9.55194 10.7263C4.98465 11.322 0.510803 12.9106 0.510803 12.9106C1.27007 14.2656 3.33762 13.6932 3.33762 13.6932C7.20405 12.5952 8.93285 12.2214 9.49354 12.1163C9.47017 11.6841 9.48185 11.2285 9.55194 10.7263Z" fill="#B4975A"/>
<path d="M9.57551 12.9457C8.81624 13.0975 5.61563 13.7517 2.39166 14.9548C2.39166 14.9548 3.40791 16.1112 5.42874 15.5389C7.12249 15.0599 9.30685 14.3591 9.94931 14.1605C9.78577 13.7984 9.65728 13.3895 9.57551 12.9457Z" fill="#B4975A"/>
<path d="M10.2879 14.8029C9.59873 15.0249 6.15282 16.1463 4.69269 16.707C4.69269 16.707 5.52204 17.8283 7.94002 16.8822C9.62209 16.2164 10.5449 15.8309 10.9537 15.6557C10.7084 15.3987 10.4865 15.1183 10.2879 14.8029Z" fill="#B4975A"/>
<path d="M11.491 16.1346C10.8836 16.3916 8.65249 17.3728 7.3559 17.9919C7.3559 17.9919 8.97956 18.7862 11.0354 17.5246L12.3087 16.6836C12.0283 16.5318 11.748 16.3565 11.491 16.1346Z" fill="#B4975A"/>
<path d="M12.9277 17.0223C12.5189 17.2793 10.8251 18.3423 9.99579 18.9614C9.99579 18.9614 11.3975 19.5454 12.846 18.1788C13.3132 17.7349 13.5702 17.4896 13.7104 17.3377C13.4534 17.256 13.1964 17.1508 12.9277 17.0223Z" fill="#B4975A"/>
<path d="M17.7172 16.5785C17.7172 16.5785 23.0437 14.7913 20.7309 9.11427C20.7309 9.11427 26.3728 9.34789 34.094 12.4667C34.094 12.4667 34.6313 12.6887 34.9467 12.8055C35.2621 12.9223 35.7761 13.1209 36.5003 12.7704C36.5003 12.7704 29.4333 9.07922 20.3571 8.21482C19.1539 8.09801 19.0021 8.28491 19.3175 8.72879C19.5861 9.11427 22.8218 13.2377 17.7172 16.5785Z" fill="white"/>
<path d="M22.4479 10.7263C27.0152 11.322 31.4891 12.9106 31.4891 12.9106C30.7298 14.2656 28.6623 13.6933 28.6623 13.6933C24.7958 12.5953 23.067 12.2215 22.5063 12.1163C22.5414 11.6841 22.518 11.2286 22.4479 10.7263Z" fill="#B4975A"/>
<path d="M22.4246 12.9457C23.1839 13.0975 26.3845 13.7517 29.6085 14.9548C29.6085 14.9548 28.5922 16.1112 26.5714 15.5389C24.8777 15.0599 22.6933 14.3591 22.0508 14.1605C22.2144 13.7984 22.3429 13.3895 22.4246 12.9457Z" fill="#B4975A"/>
<path d="M21.712 14.8029C22.4012 15.0249 25.8471 16.1463 27.3072 16.707C27.3072 16.707 26.4779 17.8283 24.0599 16.8822C22.3778 16.2164 21.455 15.8309 21.0462 15.6557C21.2915 15.3987 21.5134 15.1183 21.712 14.8029Z" fill="#B4975A"/>
<path d="M20.509 16.1346C21.1164 16.3916 23.3475 17.3728 24.6441 17.9919C24.6441 17.9919 23.0204 18.7862 20.9646 17.5246L19.6913 16.6836C19.9717 16.5318 20.252 16.3565 20.509 16.1346Z" fill="#B4975A"/>
<path d="M19.072 17.0224C19.4808 17.2794 21.1746 18.3423 22.0039 18.9614C22.0039 18.9614 20.6022 19.5455 19.1538 18.1788C18.6865 17.7349 18.4295 17.4896 18.2894 17.3378C18.5464 17.256 18.8033 17.1509 19.072 17.0224Z" fill="#B4975A"/>
<path d="M20.3685 19.6739C20.3685 22.0919 18.4178 24.0426 15.9998 24.0426C13.5818 24.0426 11.6311 22.0919 11.6311 19.6739C11.6311 17.2676 13.5818 15.3052 15.9998 15.3052C18.4061 15.3169 20.3685 17.2676 20.3685 19.6739Z" fill="white"/>
<path d="M19.4573 20.5851C19.4573 22.5008 17.9037 24.0543 15.9997 24.0543C14.084 24.0543 12.5421 22.5008 12.5421 20.5851C12.5421 18.6694 14.0957 17.1275 15.9997 17.1275C17.9154 17.1158 19.4573 18.6694 19.4573 20.5851Z" fill="#B4975A"/>
<path d="M15.9998 14.9665C13.4066 14.9665 11.2924 17.0808 11.2924 19.674C11.2924 22.2671 13.4066 24.3814 15.9998 24.3814C18.593 24.3814 20.7073 22.2671 20.7073 19.674C20.7073 17.0808 18.593 14.9665 15.9998 14.9665ZM19.948 18.9147C19.656 20.0828 18.8617 21.029 17.8221 21.5546C17.9038 20.9822 18.1608 20.4099 18.4178 19.8141C18.7916 18.9614 19.2121 18.0152 19.0252 17.0224C19.4925 17.5597 19.8195 18.2021 19.948 18.9147ZM13.9323 16.228C14.4579 15.9127 15.0653 15.7141 15.7078 15.6673V21.9985C15.3807 21.9751 15.077 21.9167 14.7733 21.8233C14.7383 21.0406 14.4229 20.3047 14.1075 19.5922C13.5818 18.4124 13.138 17.3728 13.9323 16.228ZM14.7383 22.419C15.0537 22.5008 15.369 22.5592 15.7078 22.5825V23.7039C15.1822 23.6689 14.6799 23.5287 14.2243 23.3068C14.4462 23.0848 14.6799 22.7928 14.7383 22.419ZM16.2919 22.5709C16.6306 22.5475 16.946 22.5008 17.2614 22.4073C17.3315 22.7811 17.5534 23.0848 17.7753 23.2834C17.3198 23.5053 16.8175 23.6455 16.2919 23.6806V22.5709ZM17.2263 21.8116C16.9226 21.905 16.6189 21.9751 16.2919 21.9985V15.6673C16.9343 15.7141 17.5417 15.9127 18.0674 16.228C18.8617 17.3845 18.4178 18.4124 17.8922 19.5922C17.5768 20.3047 17.2614 21.029 17.2263 21.8116ZM12.9627 17.034C12.7875 18.0269 13.1964 18.9614 13.5702 19.8258C13.8271 20.4215 14.0841 20.9939 14.1659 21.578C13.1263 21.064 12.332 20.1062 12.0399 18.9147C12.1801 18.2021 12.5072 17.5597 12.9627 17.034ZM12.0399 20.3865C12.5422 21.2159 13.3015 21.8583 14.1893 22.2204C14.1893 22.2438 14.1893 22.2788 14.1776 22.3022C14.1309 22.6059 13.8856 22.8512 13.7103 22.9797C12.8459 22.384 12.2268 21.4495 12.0399 20.3865ZM18.301 22.9797C18.1258 22.8395 17.8805 22.5942 17.8338 22.3022C17.8338 22.2788 17.8221 22.2438 17.8221 22.2204C18.7098 21.8466 19.4574 21.2042 19.9714 20.3865C19.7728 21.4612 19.1537 22.384 18.301 22.9797Z" fill="#0A2240"/>
<path d="M17.4018 8.85729C17.4018 8.85729 17.3667 9.00915 17.2733 9.00915C17.1798 9.00915 16.6191 8.74048 16.3505 8.58863C16.2336 8.53022 16.0701 8.43677 16.0117 8.40173C16.0117 8.40173 15.7664 8.53022 15.6496 8.58863C15.3809 8.74048 14.8086 9.00915 14.7268 9.00915C14.6333 9.00915 14.5983 8.85729 14.5983 8.85729C14.5983 8.85729 13.1148 9.75673 13.1148 12.2214C13.1148 14.067 14.0727 14.8964 14.0727 14.8964L14.2011 15.422H15.8365H16.1636H17.7989L17.9274 14.8964C17.9274 14.8964 18.8852 14.067 18.8852 12.2214C18.8852 9.75673 17.4018 8.85729 17.4018 8.85729Z" fill="#0A2240"/>
<path d="M18.1025 11.6023C18.1025 10.8431 17.7871 10.2123 17.4601 9.85019C17.4601 9.85019 17.4484 10.0721 17.0863 9.82683C16.7709 9.61657 16.3971 9.48808 15.9999 9.48808C15.6028 9.48808 15.229 9.61657 14.9136 9.82683C14.5632 10.0721 14.5398 9.85019 14.5398 9.85019C14.201 10.224 13.8973 10.8431 13.8973 11.6023C13.8973 12.2331 14.0492 12.5485 14.1076 12.642C14.423 13.448 15.1472 14.0203 15.9999 14.0203C16.841 14.0203 17.5652 13.4596 17.8806 12.6653C17.9039 12.642 18.1025 12.3383 18.1025 11.6023Z" fill="white"/>
<path d="M16.7943 13.3311C16.7943 13.3311 16.7943 13.3195 16.7827 13.3195C16.7827 13.3195 16.5724 12.9223 16.9228 12.6536C16.9228 12.6536 17.6938 12.8172 17.7171 11.7892C17.7171 11.7892 17.6938 11.6841 17.8106 11.4622C17.8106 11.4622 17.612 11.2753 17.1798 11.6023C16.7476 11.9294 16.514 12.8522 16.2804 12.6303C16.0468 12.42 16.1285 11.2169 16.0117 11.1701C15.8949 11.2169 15.9767 12.42 15.7431 12.6303C15.5094 12.8522 15.2758 11.9294 14.8436 11.6023C14.4114 11.2753 14.2128 11.4622 14.2128 11.4622C14.318 11.6841 14.3063 11.7892 14.3063 11.7892C14.3296 12.8172 15.1006 12.6536 15.1006 12.6536C15.4393 12.9223 15.2408 13.3195 15.2408 13.3195C15.2408 13.3195 15.2408 13.3311 15.2291 13.3311C14.3063 12.3382 13.769 12.4667 14.0259 13.5881C14.2829 14.6861 15.2875 19.3819 15.451 20.4683C15.4277 21.4495 15.3109 21.7999 15.2875 21.87L15.1824 22.0686L15.2992 22.2905C15.4744 22.5475 15.6029 22.8395 15.6379 22.9446L16.0234 23.9142L16.3972 22.9446C16.4439 22.8278 16.5607 22.5475 16.7359 22.2905L16.8528 22.0802L16.7476 21.87C16.7126 21.7999 16.6074 21.4611 16.5841 20.515C16.7126 19.5338 17.7405 14.6978 18.0092 13.5764C18.2545 12.4667 17.7171 12.3382 16.7943 13.3311Z" fill="#0A2240"/>
<path d="M15.3692 18.2255C15.0421 16.4733 14.7734 15.1767 14.5632 14.2423C14.3996 13.5297 14.8318 13.8101 15.0655 14.2656L15.3692 18.2255Z" fill="#CE0E2D"/>
<path d="M16.6307 18.2255C16.9694 16.4733 17.2264 15.1767 17.4367 14.2423C17.6002 13.5297 17.168 13.8101 16.9344 14.2656L16.6307 18.2255Z" fill="#CE0E2D"/>
<path d="M14.8436 12.3032C14.7735 12.2798 14.7384 12.2214 14.7618 12.1514C14.7735 12.128 14.7852 12.1046 14.8085 12.0929C14.7618 12.0462 14.7151 11.9995 14.6567 11.9528C14.6567 11.9528 14.5515 12.4551 14.9954 12.4083C14.9954 12.4083 14.9837 12.3616 14.9487 12.3032C14.9137 12.3149 14.8786 12.3149 14.8436 12.3032Z" fill="#CE0E2D"/>
<path d="M17.355 11.9528C17.2966 11.9995 17.2382 12.0462 17.2031 12.093C17.2265 12.1046 17.2382 12.128 17.2498 12.1514C17.2732 12.2214 17.2265 12.2798 17.1681 12.3032C17.133 12.3149 17.098 12.3032 17.0746 12.2915C17.0396 12.3499 17.0279 12.3967 17.0279 12.3967C17.4601 12.4551 17.355 11.9528 17.355 11.9528Z" fill="#CE0E2D"/>
<path d="M16.2103 18.8796C16.3504 16.1813 16.5724 14.2656 16.5724 14.0203C16.5724 13.9385 16.5607 13.8217 16.5257 13.7049L16.3738 14.2189L16.3271 13.3078C16.2453 13.2026 16.1402 13.1092 16 13.0041H15.9883C15.8482 13.0975 15.7547 13.2026 15.6729 13.3078L15.6262 14.2189L15.4627 13.7049C15.4276 13.8217 15.416 13.9385 15.416 14.0203C15.416 14.2539 15.6262 16.1696 15.7781 18.8796C15.9182 21.578 15.5912 22.0802 15.5912 22.0802C15.7897 22.3606 16 22.8629 16 22.8629C16 22.8629 16.2103 22.3606 16.4088 22.0802C16.4088 22.0802 16.0701 21.578 16.2103 18.8796Z" fill="#CE0E2D"/>
<path d="M38.3575 12.8055C32.3884 9.32454 23.6277 7.5607 19.5743 7.49061C19.0837 7.47893 18.7567 7.59574 18.5814 7.92281C18.3011 8.44846 18.6982 9.04419 18.8618 9.30117C19.2239 9.85018 19.7145 10.7029 19.7145 11.7308C19.7145 13.7283 18.1025 15.2001 16.1167 15.2001C16.07 15.2001 16.035 15.2001 15.9882 15.2001C15.9415 15.2001 15.9065 15.2001 15.8598 15.2001C13.874 15.2001 12.262 13.7283 12.262 11.7308C12.262 10.7029 12.7526 9.85018 13.1147 9.30117C13.2899 9.04419 13.6871 8.46014 13.3951 7.92281C13.2198 7.60742 12.8928 7.49061 12.4022 7.49061C8.34883 7.5607 -0.411961 9.32454 -6.38098 12.8055C-6.38098 12.8172 -5.42313 14.4525 -3.5308 14.3123C-3.82283 14.4525 -4.11486 14.6044 -4.40688 14.7562C-4.40688 14.7796 -3.5308 16.193 -1.43989 15.9944C-1.79033 16.158 -2.12908 16.3215 -2.47951 16.4967C-2.47951 16.5201 -1.47494 17.9218 0.732783 17.8751C0.230497 18.1321 -0.0848913 18.2956 -0.0848913 18.2956C-0.0848913 18.3073 1.37524 19.709 3.72313 19.3235C3.46615 19.5104 3.20917 19.709 2.90546 19.9193C2.90546 19.9193 4.63426 20.8654 6.66676 20.5734C6.40978 20.772 6.14111 20.9705 5.88413 21.1808C5.88413 21.1574 8.99129 22.0335 11.2107 21.0523C13.1147 20.2113 14.1777 18.1554 14.423 17.6414C14.7968 17.7232 15.1238 17.7699 15.3808 17.805C15.3808 17.8283 15.7897 17.8634 15.9882 17.8634C16.1868 17.8751 16.5957 17.84 16.5957 17.805C16.841 17.7699 17.1797 17.7232 17.5535 17.6414C17.7988 18.1554 18.8501 20.223 20.7658 21.0523C22.9852 22.0335 26.0924 21.1458 26.0924 21.1808C25.8354 20.9822 25.5667 20.772 25.3097 20.5734C27.3422 20.8654 29.071 19.9193 29.071 19.9193C28.7673 19.709 28.5103 19.5104 28.2534 19.3235C30.6012 19.709 32.0614 18.3073 32.0614 18.2956C32.0614 18.2956 31.7577 18.1321 31.2437 17.8751C33.4514 17.9101 34.4443 16.5084 34.456 16.4967C34.1056 16.3215 33.7668 16.158 33.4164 15.9944C35.5073 16.2047 36.3717 14.7796 36.3834 14.7562C36.0913 14.6044 35.7993 14.4642 35.5073 14.3123C37.4113 14.4408 38.3575 12.8172 38.3575 12.8055Z" fill="#0A2240"/>
<path d="M14.2828 16.5785C14.2828 16.5785 8.95621 14.7913 11.2691 9.11427C11.2691 9.11427 5.62711 9.34789 -2.09407 12.4667C-2.09407 12.4667 -2.6314 12.6887 -2.94679 12.8055C-3.26217 12.9223 -3.77614 13.1209 -4.50037 12.7704C-4.50037 12.7704 2.56667 9.07922 11.6429 8.21482C12.8343 8.09801 12.9979 8.28491 12.6825 8.72879C12.4255 9.11427 9.17815 13.2377 14.2828 16.5785Z" fill="white"/>
<path d="M9.55194 10.7263C4.98465 11.322 0.510803 12.9106 0.510803 12.9106C1.27007 14.2656 3.33762 13.6932 3.33762 13.6932C7.20405 12.5952 8.93285 12.2214 9.49354 12.1163C9.47017 11.6841 9.48185 11.2285 9.55194 10.7263Z" fill="#B4975A"/>
<path d="M9.57551 12.9457C8.81624 13.0975 5.61563 13.7517 2.39166 14.9548C2.39166 14.9548 3.40791 16.1112 5.42874 15.5389C7.12249 15.0599 9.30685 14.3591 9.94931 14.1605C9.78577 13.7984 9.65728 13.3895 9.57551 12.9457Z" fill="#B4975A"/>
<path d="M10.2879 14.8029C9.59873 15.0249 6.15282 16.1463 4.69269 16.707C4.69269 16.707 5.52204 17.8283 7.94002 16.8822C9.62209 16.2164 10.5449 15.8309 10.9537 15.6557C10.7084 15.3987 10.4865 15.1183 10.2879 14.8029Z" fill="#B4975A"/>
<path d="M11.491 16.1346C10.8836 16.3916 8.65249 17.3728 7.3559 17.9919C7.3559 17.9919 8.97956 18.7862 11.0354 17.5246L12.3087 16.6836C12.0283 16.5318 11.748 16.3565 11.491 16.1346Z" fill="#B4975A"/>
<path d="M12.9277 17.0223C12.5189 17.2793 10.8251 18.3423 9.99579 18.9614C9.99579 18.9614 11.3975 19.5454 12.846 18.1788C13.3132 17.7349 13.5702 17.4896 13.7104 17.3377C13.4534 17.256 13.1964 17.1508 12.9277 17.0223Z" fill="#B4975A"/>
<path d="M17.7172 16.5785C17.7172 16.5785 23.0437 14.7913 20.7309 9.11427C20.7309 9.11427 26.3728 9.34789 34.094 12.4667C34.094 12.4667 34.6313 12.6887 34.9467 12.8055C35.2621 12.9223 35.7761 13.1209 36.5003 12.7704C36.5003 12.7704 29.4333 9.07922 20.3571 8.21482C19.1539 8.09801 19.0021 8.28491 19.3175 8.72879C19.5861 9.11427 22.8218 13.2377 17.7172 16.5785Z" fill="white"/>
<path d="M22.4479 10.7263C27.0152 11.322 31.4891 12.9106 31.4891 12.9106C30.7298 14.2656 28.6623 13.6933 28.6623 13.6933C24.7958 12.5953 23.067 12.2215 22.5063 12.1163C22.5414 11.6841 22.518 11.2286 22.4479 10.7263Z" fill="#B4975A"/>
<path d="M22.4246 12.9457C23.1839 13.0975 26.3845 13.7517 29.6085 14.9548C29.6085 14.9548 28.5922 16.1112 26.5714 15.5389C24.8777 15.0599 22.6933 14.3591 22.0508 14.1605C22.2144 13.7984 22.3429 13.3895 22.4246 12.9457Z" fill="#B4975A"/>
<path d="M21.712 14.8029C22.4012 15.0249 25.8471 16.1463 27.3072 16.707C27.3072 16.707 26.4779 17.8283 24.0599 16.8822C22.3778 16.2164 21.455 15.8309 21.0462 15.6557C21.2915 15.3987 21.5134 15.1183 21.712 14.8029Z" fill="#B4975A"/>
<path d="M20.509 16.1346C21.1164 16.3916 23.3475 17.3728 24.6441 17.9919C24.6441 17.9919 23.0204 18.7862 20.9646 17.5246L19.6913 16.6836C19.9717 16.5318 20.252 16.3565 20.509 16.1346Z" fill="#B4975A"/>
<path d="M19.072 17.0224C19.4808 17.2794 21.1746 18.3423 22.0039 18.9614C22.0039 18.9614 20.6022 19.5455 19.1538 18.1788C18.6865 17.7349 18.4295 17.4896 18.2894 17.3378C18.5464 17.256 18.8033 17.1509 19.072 17.0224Z" fill="#B4975A"/>
<path d="M20.3685 19.6739C20.3685 22.0919 18.4178 24.0426 15.9998 24.0426C13.5818 24.0426 11.6311 22.0919 11.6311 19.6739C11.6311 17.2676 13.5818 15.3052 15.9998 15.3052C18.4061 15.3169 20.3685 17.2676 20.3685 19.6739Z" fill="white"/>
<path d="M19.4573 20.5851C19.4573 22.5008 17.9037 24.0543 15.9997 24.0543C14.084 24.0543 12.5421 22.5008 12.5421 20.5851C12.5421 18.6694 14.0957 17.1275 15.9997 17.1275C17.9154 17.1158 19.4573 18.6694 19.4573 20.5851Z" fill="#B4975A"/>
<path d="M15.9998 14.9665C13.4066 14.9665 11.2924 17.0808 11.2924 19.674C11.2924 22.2671 13.4066 24.3814 15.9998 24.3814C18.593 24.3814 20.7073 22.2671 20.7073 19.674C20.7073 17.0808 18.593 14.9665 15.9998 14.9665ZM19.948 18.9147C19.656 20.0828 18.8617 21.029 17.8221 21.5546C17.9038 20.9822 18.1608 20.4099 18.4178 19.8141C18.7916 18.9614 19.2121 18.0152 19.0252 17.0224C19.4925 17.5597 19.8195 18.2021 19.948 18.9147ZM13.9323 16.228C14.4579 15.9127 15.0653 15.7141 15.7078 15.6673V21.9985C15.3807 21.9751 15.077 21.9167 14.7733 21.8233C14.7383 21.0406 14.4229 20.3047 14.1075 19.5922C13.5818 18.4124 13.138 17.3728 13.9323 16.228ZM14.7383 22.419C15.0537 22.5008 15.369 22.5592 15.7078 22.5825V23.7039C15.1822 23.6689 14.6799 23.5287 14.2243 23.3068C14.4462 23.0848 14.6799 22.7928 14.7383 22.419ZM16.2919 22.5709C16.6306 22.5475 16.946 22.5008 17.2614 22.4073C17.3315 22.7811 17.5534 23.0848 17.7753 23.2834C17.3198 23.5053 16.8175 23.6455 16.2919 23.6806V22.5709ZM17.2263 21.8116C16.9226 21.905 16.6189 21.9751 16.2919 21.9985V15.6673C16.9343 15.7141 17.5417 15.9127 18.0674 16.228C18.8617 17.3845 18.4178 18.4124 17.8922 19.5922C17.5768 20.3047 17.2614 21.029 17.2263 21.8116ZM12.9627 17.034C12.7875 18.0269 13.1964 18.9614 13.5702 19.8258C13.8271 20.4215 14.0841 20.9939 14.1659 21.578C13.1263 21.064 12.332 20.1062 12.0399 18.9147C12.1801 18.2021 12.5072 17.5597 12.9627 17.034ZM12.0399 20.3865C12.5422 21.2159 13.3015 21.8583 14.1893 22.2204C14.1893 22.2438 14.1893 22.2788 14.1776 22.3022C14.1309 22.6059 13.8856 22.8512 13.7103 22.9797C12.8459 22.384 12.2268 21.4495 12.0399 20.3865ZM18.301 22.9797C18.1258 22.8395 17.8805 22.5942 17.8338 22.3022C17.8338 22.2788 17.8221 22.2438 17.8221 22.2204C18.7098 21.8466 19.4574 21.2042 19.9714 20.3865C19.7728 21.4612 19.1537 22.384 18.301 22.9797Z" fill="#0A2240"/>
<path d="M17.4018 8.85729C17.4018 8.85729 17.3667 9.00915 17.2733 9.00915C17.1798 9.00915 16.6191 8.74048 16.3505 8.58863C16.2336 8.53022 16.0701 8.43677 16.0117 8.40173C16.0117 8.40173 15.7664 8.53022 15.6496 8.58863C15.3809 8.74048 14.8086 9.00915 14.7268 9.00915C14.6333 9.00915 14.5983 8.85729 14.5983 8.85729C14.5983 8.85729 13.1148 9.75673 13.1148 12.2214C13.1148 14.067 14.0727 14.8964 14.0727 14.8964L14.2011 15.422H15.8365H16.1636H17.7989L17.9274 14.8964C17.9274 14.8964 18.8852 14.067 18.8852 12.2214C18.8852 9.75673 17.4018 8.85729 17.4018 8.85729Z" fill="#0A2240"/>
<path d="M18.1025 11.6023C18.1025 10.8431 17.7871 10.2123 17.4601 9.85019C17.4601 9.85019 17.4484 10.0721 17.0863 9.82683C16.7709 9.61657 16.3971 9.48808 15.9999 9.48808C15.6028 9.48808 15.229 9.61657 14.9136 9.82683C14.5632 10.0721 14.5398 9.85019 14.5398 9.85019C14.201 10.224 13.8973 10.8431 13.8973 11.6023C13.8973 12.2331 14.0492 12.5485 14.1076 12.642C14.423 13.448 15.1472 14.0203 15.9999 14.0203C16.841 14.0203 17.5652 13.4596 17.8806 12.6653C17.9039 12.642 18.1025 12.3383 18.1025 11.6023Z" fill="white"/>
<path d="M16.7943 13.3311C16.7943 13.3311 16.7943 13.3195 16.7827 13.3195C16.7827 13.3195 16.5724 12.9223 16.9228 12.6536C16.9228 12.6536 17.6938 12.8172 17.7171 11.7892C17.7171 11.7892 17.6938 11.6841 17.8106 11.4622C17.8106 11.4622 17.612 11.2753 17.1798 11.6023C16.7476 11.9294 16.514 12.8522 16.2804 12.6303C16.0468 12.42 16.1285 11.2169 16.0117 11.1701C15.8949 11.2169 15.9767 12.42 15.7431 12.6303C15.5094 12.8522 15.2758 11.9294 14.8436 11.6023C14.4114 11.2753 14.2128 11.4622 14.2128 11.4622C14.318 11.6841 14.3063 11.7892 14.3063 11.7892C14.3296 12.8172 15.1006 12.6536 15.1006 12.6536C15.4393 12.9223 15.2408 13.3195 15.2408 13.3195C15.2408 13.3195 15.2408 13.3311 15.2291 13.3311C14.3063 12.3382 13.769 12.4667 14.0259 13.5881C14.2829 14.6861 15.2875 19.3819 15.451 20.4683C15.4277 21.4495 15.3109 21.7999 15.2875 21.87L15.1824 22.0686L15.2992 22.2905C15.4744 22.5475 15.6029 22.8395 15.6379 22.9446L16.0234 23.9142L16.3972 22.9446C16.4439 22.8278 16.5607 22.5475 16.7359 22.2905L16.8528 22.0802L16.7476 21.87C16.7126 21.7999 16.6074 21.4611 16.5841 20.515C16.7126 19.5338 17.7405 14.6978 18.0092 13.5764C18.2545 12.4667 17.7171 12.3382 16.7943 13.3311Z" fill="#0A2240"/>
<path d="M15.3692 18.2255C15.0421 16.4733 14.7734 15.1767 14.5632 14.2423C14.3996 13.5297 14.8318 13.8101 15.0655 14.2656L15.3692 18.2255Z" fill="#CE0E2D"/>
<path d="M16.6307 18.2255C16.9694 16.4733 17.2264 15.1767 17.4367 14.2423C17.6002 13.5297 17.168 13.8101 16.9344 14.2656L16.6307 18.2255Z" fill="#CE0E2D"/>
<path d="M14.8436 12.3032C14.7735 12.2798 14.7384 12.2214 14.7618 12.1514C14.7735 12.128 14.7852 12.1046 14.8085 12.0929C14.7618 12.0462 14.7151 11.9995 14.6567 11.9528C14.6567 11.9528 14.5515 12.4551 14.9954 12.4083C14.9954 12.4083 14.9837 12.3616 14.9487 12.3032C14.9137 12.3149 14.8786 12.3149 14.8436 12.3032Z" fill="#CE0E2D"/>
<path d="M17.355 11.9528C17.2966 11.9995 17.2382 12.0462 17.2031 12.093C17.2265 12.1046 17.2382 12.128 17.2498 12.1514C17.2732 12.2214 17.2265 12.2798 17.1681 12.3032C17.133 12.3149 17.098 12.3032 17.0746 12.2915C17.0396 12.3499 17.0279 12.3967 17.0279 12.3967C17.4601 12.4551 17.355 11.9528 17.355 11.9528Z" fill="#CE0E2D"/>
<path d="M16.2103 18.8796C16.3504 16.1813 16.5724 14.2656 16.5724 14.0203C16.5724 13.9385 16.5607 13.8217 16.5257 13.7049L16.3738 14.2189L16.3271 13.3078C16.2453 13.2026 16.1402 13.1092 16 13.0041H15.9883C15.8482 13.0975 15.7547 13.2026 15.6729 13.3078L15.6262 14.2189L15.4627 13.7049C15.4276 13.8217 15.416 13.9385 15.416 14.0203C15.416 14.2539 15.6262 16.1696 15.7781 18.8796C15.9182 21.578 15.5912 22.0802 15.5912 22.0802C15.7897 22.3606 16 22.8629 16 22.8629C16 22.8629 16.2103 22.3606 16.4088 22.0802C16.4088 22.0802 16.0701 21.578 16.2103 18.8796Z" fill="#CE0E2D"/>
</g>
<defs>
<clipPath id="clip0_13_948">
<rect width="32" height="32" rx="16" fill="white"/>
</clipPath>
</defs>
</svg>
