<svg width="32" height="32" viewBox="0 0 32 32" fill="none" xmlns="http://www.w3.org/2000/svg">
<g clip-path="url(#clip0_12_481)">
<rect width="32" height="32" rx="16" fill="#00438C"/>
<g clip-path="url(#clip1_12_481)">
<path d="M15.9551 30.9998L13.6975 28.0236C12.2963 27.5562 11.0656 26.6724 10.1646 25.4866C9.26365 24.3009 8.73384 22.8678 8.6438 21.3729L7.23835 19.5356C6.31301 19.9635 5.42302 20.4662 4.57696 21.0388L0.390501 16.772L2.15479 12.8241L-1 8.64837H4.02375L4.9956 6.49219L7.49253 5.47483L7.76165 4.71561L9.78012 5.64186L10.2586 3.94121L10.5875 3.83492C12.3064 3.26939 14.1035 2.98744 15.9103 2.99978H16.5831C16.6429 2.99978 16.927 3.03015 16.927 3.03015C18.4406 3.0872 19.9395 3.35282 21.3826 3.81973L21.7115 3.92603L22.1451 5.55075L22.8778 5.00412L26.9745 6.46182L27.9464 8.64837H33L29.8153 12.8241L31.5497 16.7113L27.2885 21.1603C27.2885 21.1603 25.7335 20.0063 24.657 19.5811L23.3712 21.2514C23.295 22.7898 22.757 24.2676 21.8295 25.4864C20.9021 26.7051 19.6296 27.6064 18.1829 28.0692L15.9551 30.9998Z" fill="white"/>
<path d="M15.9552 28.9349L30.4882 9.90891H1.5119L15.9552 28.9349Z" fill="#919798"/>
<path d="M30.4881 9.9089L15.9551 28.9349L1.51187 9.9089H30.4881ZM0.330688 9.31671L15.9551 29.9219L31.6843 9.31671H0.330688Z" fill="#00428B"/>
<path d="M28.3949 11.2299L28.365 11.2148L27.438 10.577L27.7819 9.9089L27.7968 9.87854L27.7819 9.86335L26.496 7.00869V6.9935L26.4811 6.97832L23.0422 5.7332H23.0123L22.9973 5.74838L22.0853 6.46205H22.0703V6.47723L21.9208 6.87203C20.7517 6.60985 19.5685 6.41719 18.3773 6.29502C18.168 6.27984 17.5998 6.23428 16.6878 6.15836L16.5981 6.14318H16.4784L15.7757 6.84166V6.14318C15.7757 6.14318 13.847 6.23428 12.5761 6.4165C11.3201 6.59871 10.0791 6.91758 10.0791 6.91758L9.83992 6.4165L9.82496 6.40131L9.81001 6.38613L8.18028 5.62691L8.13543 5.61172L8.12048 5.65728L7.94106 6.18873L7.8962 6.08244L7.88125 6.03689L7.8364 6.06726L5.50394 7.00869L5.48899 7.02387H5.47404L1.18292 16.6204L4.69656 20.2039L4.87597 20.1128C4.96568 20.0521 5.1152 19.961 5.29462 19.8547C5.72822 19.5965 6.31133 19.2473 6.59541 19.1106L6.64027 19.0803C6.99911 18.8981 7.19348 18.8221 8.89796 18.0629L9.04748 18.0022C9.04748 18.0022 9.24185 17.9263 9.58574 17.8048C10.5277 17.5011 12.9798 16.7571 15.3571 16.7571H15.6561C17.2858 16.8026 19.1548 17.1519 20.4556 17.4252C21.6966 17.6985 22.6385 17.9566 22.9076 18.0325L23.0871 18.0933C24.4624 18.6692 25.7836 19.3706 27.0343 20.1887L27.2137 20.2798L30.7871 16.5597L28.3949 11.2299Z" fill="#00428B"/>
<path d="M27.9912 11.564L24.5673 9.24077L23.9842 7.54012L25.0308 7.93491L25.4644 8.99782L27.0792 9.51408L26.1372 7.40346L23.0871 6.31018L22.5189 6.75053L23.5356 10.1063L26.7951 12.4447L27.6174 14.5553L26.2568 13.9327L25.7933 12.6117L24.1337 12.1106L25.0308 15.1019C25.2999 15.193 25.5691 15.2993 25.8382 15.4056C26.5708 15.7093 27.3034 16.0586 28.0211 16.4078C28.5145 16.6659 28.993 16.9392 29.4714 17.2277L30.1742 16.4837L27.9912 11.564Z" fill="#F48326"/>
<path d="M4.86104 13.1432L5.99736 12.1106L6.26649 12.4295L5.14512 15.7245C5.77309 15.4512 6.3861 15.1931 7.02902 14.9653L7.83641 12.2473L7.13368 11.0629L8.58399 9.65077L9.45119 6.75055L8.40457 6.26465L7.46262 8.99784L5.93755 10.3189L7.3131 6.7961L5.83289 7.40348L1.7511 16.4989L2.39402 17.1519C2.78276 16.9241 3.15655 16.7115 3.54529 16.5141L4.86104 13.1432Z" fill="#F48326"/>
<path d="M15.2076 6.64426L13.9666 6.72018L13.3685 13.5531C13.9068 13.5076 14.445 13.462 14.9833 13.4469L15.2076 6.64426Z" fill="#F48326"/>
<path d="M18.9305 12.1258L17.4652 12.0347L17.226 7.85901L18.467 7.90456L18.3175 6.75055L16.6579 6.64426L15.9252 7.38829V12.6117L16.7027 13.4317C17.4979 13.4459 18.2917 13.5068 19.08 13.6139L18.9305 12.1258Z" fill="#F48326"/>
<path d="M10.6772 9.34706L11.2005 11.9436L10.8716 13.9024C11.3799 13.8113 11.8883 13.7202 12.3966 13.6594L13.204 6.79608L12.0378 6.97829L11.649 9.2104L11.2304 7.13014L9.85485 7.46419L7.97095 14.6464C8.50921 14.4642 9.07737 14.3123 9.63058 14.1757L10.6772 9.34706Z" fill="#F48326"/>
<path d="M20.7995 11.7614L21.2032 11.1996L21.8012 11.7007L22.3544 14.2365C22.9226 14.3883 23.5057 14.5553 24.0589 14.7375L23.0422 11.0174L21.9806 10.1367L22.5787 9.31672L22.0704 7.41867L20.7995 7.13016L21.3078 9.0434L20.5154 10.1063L19.9173 6.97832L18.7361 6.82648C18.7361 6.82648 19.3193 11.4273 19.6183 13.6898C20.1416 13.7657 20.6799 13.8568 21.2181 13.9631L20.7995 11.7614Z" fill="#F48326"/>
<path d="M13.548 14.8438C13.548 14.8438 14.0414 14.5401 15.0282 14.4338L14.9983 13.6443C14.46 13.6594 13.9217 13.6898 13.3835 13.7505C13.4283 14.0542 13.5031 14.525 13.548 14.8438Z" fill="#919798"/>
<path d="M16.6878 14.3883C17.0963 14.456 17.5006 14.5472 17.8989 14.6616C18.2433 14.7511 18.5787 14.8731 18.9006 15.026L19.0801 13.8113C18.2727 13.7202 17.5251 13.6594 16.7177 13.6291C16.7028 13.8872 16.7028 14.2212 16.6878 14.3883Z" fill="#919798"/>
<path d="M11.4995 16.3167C11.9481 15.9675 12.2322 15.603 12.7106 15.2994C12.6209 14.859 12.5013 14.282 12.4116 13.8568C11.8883 13.9176 11.365 14.0087 10.8566 14.115C11.051 14.7831 11.3052 15.6486 11.4995 16.3167Z" fill="#919798"/>
<path d="M19.3043 15.2994C19.7426 15.5636 20.1448 15.8852 20.5005 16.256L20.5752 16.3167L21.2181 14.1909C20.6649 14.0694 20.1416 13.9631 19.5884 13.8872L19.3043 15.2994Z" fill="#919798"/>
<path d="M21.2929 17.1367L22.803 17.4859L24.059 14.9501C23.4908 14.7527 22.9077 14.6009 22.3246 14.449L21.2929 17.1367Z" fill="#919798"/>
<path d="M9.19698 17.4859C9.58572 17.3341 10.1389 17.1518 10.6473 17L9.67543 14.3731C9.07737 14.525 8.55406 14.6616 7.9859 14.859C8.35969 15.7397 8.76338 16.6508 9.19698 17.4859Z" fill="#919798"/>
<path d="M6.93934 18.4425C7.0141 18.3666 7.8813 17.987 8.46441 17.7288C8.01586 16.9241 7.4776 16.013 7.044 15.1931C6.38613 15.4208 5.81797 15.6638 5.19 15.9371L6.93934 18.4425Z" fill="#919798"/>
<path d="M4.80122 19.5814C5.07035 19.3991 5.36938 19.2473 5.68336 19.0499L3.6948 16.666C3.30605 16.8634 2.93226 17.0759 2.55847 17.3037L4.80122 19.5814Z" fill="#919798"/>
<path d="M23.5805 17.8048C24.8124 18.3227 25.9979 18.9476 27.124 19.6725C27.438 19.3839 29.0977 17.6074 29.3369 17.3644C27.9495 16.5384 26.4937 15.8372 24.986 15.269L23.5805 17.8048Z" fill="#919798"/>
<path d="M16.4635 14.3427L15.8804 14.3276L15.8654 12.9154L16.4635 13.5531V14.3427Z" fill="#919798"/>
<path d="M16.015 14.0694C14.6843 14.0694 13.3834 14.4702 12.277 15.221C11.1705 15.9718 10.3081 17.039 9.7989 18.2875C9.28966 19.5361 9.15642 20.91 9.41603 22.2354C9.67564 23.5609 10.3164 24.7784 11.2574 25.734C12.1984 26.6896 13.3972 27.3404 14.7024 27.6041C16.0075 27.8677 17.3603 27.7324 18.5898 27.2152C19.8192 26.6981 20.87 25.8223 21.6093 24.6986C22.3486 23.5749 22.7432 22.2538 22.7432 20.9024C22.7431 19.0902 22.0342 17.3523 20.7724 16.0709C19.5106 14.7895 17.7994 14.0696 16.015 14.0694Z" fill="#00428B"/>
<path d="M16.4336 14.5857C15.9171 14.7823 15.4128 15.0104 14.9235 15.269C14.5945 15.0564 14.4002 15.0109 14.1609 14.859C14.8637 14.5857 15.6412 14.5553 16.4336 14.5857Z" fill="#F48326"/>
<path d="M21.248 17.4859C19.6632 15.8612 17.2859 15.9826 15.2674 15.4056C15.2674 15.4056 16.4635 14.8438 17.0616 14.6768C18.7212 14.9653 20.321 15.9523 21.248 17.4859Z" fill="#F48326"/>
<path d="M12.3368 17.7288C11.5834 18.8779 11.1399 20.2075 11.0507 21.5851C10.9615 22.9626 11.2297 24.3398 11.8285 25.5792C10.2586 24.2581 9.33156 21.6464 10.0343 19.141C10.6024 18.321 11.35 17.6074 12.3368 17.7288Z" fill="#F48326"/>
<path d="M13.9666 19.4295C14.7889 21.9046 14.9683 24.6378 17.1064 27.1432C15.4318 27.4772 13.8021 26.961 12.5013 26.1258C10.8716 23.7267 11.0211 20.1432 12.6508 17.8048C13.4283 18.0477 13.8619 19.0955 13.9666 19.4295Z" fill="#F48326"/>
<path d="M12.8303 17.5466C13.0761 17.19 13.3566 16.8593 13.6676 16.5597C17.1064 17.5466 20.3958 21.1757 20.9639 24.744C20.7995 25.0022 20.4107 25.3818 20.1416 25.6551C19.3676 26.3447 18.4381 26.8298 17.4354 27.0673C15.8206 25.3666 15.2973 23.1649 14.7291 20.9935C14.2955 19.3232 13.9965 18.0629 12.8303 17.5466Z" fill="#F48326"/>
<path d="M20.8743 17.5315C19.2146 16.0434 16.8971 16.2408 14.9534 15.5423C14.5799 15.7771 14.225 16.0411 13.8918 16.3319C17.3457 17.4252 20.4706 20.8568 21.2181 24.3948C21.7538 23.5905 22.0968 22.6701 22.2199 21.7072C22.2947 20.2039 22.2947 18.8373 20.8743 17.5315Z" fill="#F48326"/>
<path d="M13.3834 16.4382C13.0755 16.7517 12.7953 17.0921 12.5462 17.4555H12.5312C11.6192 17.243 10.9015 17.7289 10.3333 18.3362C10.6625 17.5359 11.163 16.8201 11.7986 16.2408C12.3518 16.256 12.7704 16.256 13.3834 16.4382Z" fill="#F48326"/>
<path d="M13.6227 16.2256C13.9443 15.9337 14.2894 15.6696 14.6543 15.436L13.7722 14.9957C13.1741 15.2386 12.5461 15.5575 12.1125 15.9523C12.6235 15.993 13.1293 16.0846 13.6227 16.2256Z" fill="#F48326"/>
<path d="M15.058 5.68763L14.7889 5.96094L14.3254 5.99131L14.146 5.83947L13.9217 6.02168L13.4134 6.06724L13.1891 5.85465L13.4881 3.83513L13.8769 3.78958L13.6675 5.58134L13.9367 5.55097L14.1609 3.75921L14.5347 3.72884L14.3852 5.50541L14.6543 5.47504L14.7889 3.71366C14.9221 3.68953 15.0574 3.67935 15.1926 3.68329L15.058 5.68763Z" fill="#00428B"/>
<path d="M16.314 3.65294V4.92843H16.5532L16.5382 3.65294C16.5382 3.65294 16.7924 3.66813 16.912 3.68331L16.9569 5.09546L16.7177 5.33841H16.6429L16.6579 5.94578L16.2392 5.9306V5.32322H16.1495L15.8953 5.0499L15.9103 3.63776C16.0598 3.65294 16.314 3.65294 16.314 3.65294Z" fill="#00428B"/>
<path d="M13.204 3.88071L13.1442 4.30587L12.6658 4.39698L12.591 4.86769C12.7705 4.85251 12.8602 4.82214 13.0695 4.79177C13.0396 4.97398 13.0246 5.0499 12.9947 5.21693L12.5312 5.27767L12.4415 5.74839L12.92 5.68765C12.92 5.68765 12.8751 5.99134 12.8602 6.14318C12.5281 6.17034 12.1984 6.22108 11.8734 6.29502C11.8734 6.29502 12.2172 4.59437 12.3219 4.06292L13.204 3.88071Z" fill="#00428B"/>
<path d="M11.4547 6.37093L10.9763 6.46204L11.2005 5.53579L11.051 5.20173L10.6473 6.52278L10.1838 6.62907C10.3782 5.9154 10.5726 5.18655 10.767 4.47288C10.9314 4.41215 11.051 4.38178 11.2005 4.32104C11.254 4.44565 11.3139 4.56729 11.38 4.68547L11.4996 4.22993C11.4996 4.22993 11.7986 4.15401 11.9481 4.10846L11.4547 6.37093Z" fill="#00428B"/>
<path d="M17.6447 4.13882L17.7792 5.53578L18.0184 5.55096L17.8839 4.16918L17.6447 4.13882ZM18.2726 4.04771C18.3175 4.62472 18.4221 5.18654 18.482 5.71799L18.2577 6.03686L17.5849 5.99131L17.3307 5.71799C17.3008 5.1258 17.2559 4.53361 17.226 3.94142C17.2858 3.8655 17.3905 3.78958 17.4652 3.71365L18.0334 3.75921L18.2726 4.04771Z" fill="#00428B"/>
<path d="M20.4855 4.24512C20.5752 4.57917 20.7397 5.26247 20.7397 5.26247L20.9041 5.29284L20.9789 5.18655L20.7696 4.33622C20.7696 4.33622 20.9789 4.39696 21.1882 4.4577L21.4125 5.27765L21.3228 5.4295L21.5022 5.62689L21.7863 6.62906L21.3228 6.52277L21.1284 5.82429L20.8443 5.76355L20.9938 6.46203L20.5154 6.37093C20.3509 5.61171 20.0519 4.13882 20.0519 4.13882C20.1984 4.16542 20.3432 4.20092 20.4855 4.24512Z" fill="#00428B"/>
<path d="M19.095 4.36659L19.1697 4.92842L19.4239 4.95878L19.3192 4.39696L19.095 4.36659ZM19.7528 4.33622L19.9024 5.15618L19.8276 5.29284L19.9771 5.49024L20.1266 6.31019L19.6631 6.23427L19.5286 5.55098L19.2594 5.52061L19.3491 6.18872L18.9006 6.12798L18.6016 3.86551L19.4688 4.01735L19.7528 4.33622Z" fill="#00428B"/>
</g>
</g>
<defs>
<clipPath id="clip0_12_481">
<rect width="32" height="32" rx="16" fill="white"/>
</clipPath>
<clipPath id="clip1_12_481">
<rect width="34" height="28" fill="white" transform="translate(-1 3)"/>
</clipPath>
</defs>
</svg>
