<svg width="32" height="32" viewBox="0 0 32 32" fill="none" xmlns="http://www.w3.org/2000/svg">
<rect width="32" height="32" rx="16" fill="#003DA6"/>
<path d="M5.44202 11.2904V17.6573C9.0089 18.1805 13.2654 17.8357 16.2734 13.4365C16.3983 13.2522 16.4756 13.383 16.3923 13.5435C15.5541 15.2556 13.5626 16.8369 11.8446 18.1864C10.1919 19.4764 5.76304 24.1253 5.82248 28.2093C5.82843 28.5244 5.83437 28.4352 6.11378 28.2331C7.4573 27.2344 10.0908 27.2047 11.7078 27.9775C11.9337 28.0845 11.9516 28.0488 11.9218 27.7575C11.6127 24.5889 12.3261 21.1291 13.6815 19.1197C14.6148 17.7286 17.1354 14.1439 17.5694 11.332C17.617 11.0408 17.4624 11.0883 17.0998 11.4688C14.2463 14.4828 9.09212 14.4055 5.76304 11.2132C5.55497 11.0229 5.45985 11.1121 5.44202 11.2904Z" fill="#DB0032"/>
<path d="M11.6246 1.58258L11.4106 2.23056H10.721L11.2798 2.63481L11.0777 3.27685L11.6246 2.88449L12.1596 3.27685L11.9575 2.64075L12.5163 2.23056H11.8267L11.6246 1.58258Z" fill="white"/>
<path d="M15.6849 3.95456L15.893 4.5966H16.5826L16.0237 5.00679L16.2318 5.64288L15.6849 5.25053L15.1439 5.64288L15.352 5.00679L14.7872 4.5966H15.4768L15.6849 3.95456Z" fill="white"/>
<path d="M13.9431 2.12357L14.1511 2.77155H14.8407L14.2819 3.18174L14.4841 3.82378L13.9431 3.42548L13.4021 3.82378L13.6042 3.17579L13.0454 2.77155H13.735L13.9431 2.12357Z" fill="white"/>
<path d="M16.3507 6.18979L16.5588 6.83777H17.2484L16.6896 7.24202L16.8917 7.88406L16.3507 7.48575L15.8098 7.88406L16.0178 7.24202L15.4531 6.83777H16.1367L16.3507 6.18979Z" fill="white"/>
<path d="M16.0594 8.55582L16.2675 9.2038H16.9571L16.3983 9.61399L16.6004 10.2501L16.0594 9.85773L15.5184 10.2501L15.7206 9.60805L15.1617 9.2038H15.8513L16.0594 8.55582Z" fill="white"/>
<path d="M14.7515 10.4463L14.9537 11.0943H15.6492L15.0904 11.4985L15.2925 12.1406L14.7575 11.7423L14.2106 12.1406L14.4186 11.4985L13.8539 11.0943H14.5435L14.7515 10.4463Z" fill="white"/>
<path d="M12.7006 11.4985L12.9087 12.1465H13.5924L13.0336 12.5567L13.2416 13.1987L12.7006 12.8064L12.1597 13.1987L12.3618 12.5567L11.803 12.1465H12.4926L12.7006 11.4985Z" fill="white"/>
<path d="M7.48702 3.74054L7.27301 4.38852H6.58936L7.14222 4.79871L6.9401 5.43481L7.48108 5.04245L8.028 5.43481L7.81993 4.79871L8.38468 4.38852H7.68914L7.48702 3.74054Z" fill="white"/>
<path d="M9.18722 2.12357L8.97915 2.77155H8.28955L8.84836 3.18174L8.64029 3.82378L9.18722 3.42548L9.72819 3.82378L9.52607 3.17579L10.0849 2.77155H9.39528L9.18722 2.12357Z" fill="white"/>
<path d="M6.69043 5.8985L6.4883 6.54648H5.79871L6.35752 6.95073L6.15539 7.59277L6.69043 7.20041L7.2314 7.59277L7.02928 6.95073L7.59404 6.54648H6.90444L6.69043 5.8985Z" fill="white"/>
<path d="M6.90444 8.26453L6.69637 8.91251H6.00677L6.56559 9.3227L6.36346 9.95879L6.90444 9.56644L7.44542 9.95879L7.23735 9.3227L7.79616 8.91251H7.10656L6.90444 8.26453Z" fill="white"/>
<path d="M8.20636 10.1966L8.00423 10.8446H7.31464L7.87345 11.2488L7.66538 11.8909L8.20636 11.4926L8.75328 11.8909L8.54521 11.2488L9.10997 10.8446H8.42037L8.20636 10.1966Z" fill="white"/>
<path d="M10.2633 11.4212L10.0552 12.0692H9.3656L9.92441 12.4794L9.72229 13.1155L10.2573 12.7231L10.8102 13.1155L10.5962 12.4735L11.1609 12.0692H10.4713L10.2633 11.4212Z" fill="white"/>
<path d="M21.5108 26.7112C20.2327 26.7112 20.2862 25.0764 20.2862 23.1919C20.2862 21.3074 20.4645 19.6726 21.5108 19.6726C22.789 19.6726 22.8603 21.3015 22.8603 23.1919C22.8603 25.0764 22.5928 26.7112 21.5108 26.7112ZM23.0921 17.4611C21.9507 17.4611 20.7796 17.9189 20.1673 18.876H20.1435L20.2565 17.2234C20.3219 16.1057 20.5775 13.062 22.1291 13.062C22.8722 13.062 22.7057 14.0488 22.789 14.5006C22.997 15.5529 23.4548 16.7597 24.8934 16.7597C25.8743 16.7597 26.9028 16.1117 26.9028 14.78C26.9028 12.7291 25.1907 11.3856 23.104 11.3856C17.7597 11.3856 15.6136 15.4637 15.6136 20.4038C15.6136 24.69 17.2781 28.3936 21.8675 28.3936C24.8459 28.3936 27.2654 26.2713 27.2654 22.7104C27.2773 19.6904 25.6841 17.4611 23.0921 17.4611Z" fill="white"/>
</svg>
