<svg width="32" height="32" viewBox="0 0 32 32" fill="none" xmlns="http://www.w3.org/2000/svg">
<rect width="32" height="32" rx="16" fill="black"/>
<g clip-path="url(#clip0_13_1046)">
<path d="M7.03703 24.7736L4.19518 28.9778L8.86851 27.4619L10.7704 32L12.1978 27.1281L17.4493 28.4725L14.0418 24.5597L18.14 21.2034L14.4874 21.4242L16.8918 18.7314H21.6044L26.99 9.2523V3.01141H23.1715L21.3352 6.24079L20.9863 8.68554L18.2396 13.5408H15.7118L18.1933 9.18569V3.01141H14.2367L12.4733 6.22239L12.1459 8.68812L7.82851 16.3286L8.50111 18.0101L7.66852 17.1154L8.01518 21.7326L2.98962 21.9424L7.03703 24.7736ZM9.1737 18.7329H10.963L10.4281 20.0791L9.1737 18.7329Z" fill="white"/>
<path d="M12.7178 8.87692L8.48368 16.375L9.19219 18.14H11.8285L10.6285 21.1629L8.38219 18.7472L8.64516 22.292L4.75256 22.4547L7.84812 24.6194L5.64405 27.8837L9.20479 26.7266L10.6703 30.2346L11.7881 26.4123L15.7592 27.4285L13.1959 24.4861L16.35 21.8967L13.094 22.098L16.6178 18.14H21.2533L26.3881 9.10031V3.5995H23.5077L21.844 6.53263L21.554 8.87692L18.5829 14.1326H14.6937L17.5966 9.0348V3.5995H14.5818L12.9874 6.50466L12.7178 8.87692Z" fill="#060000"/>
<path d="M25.27 4.38781H23.9141L22.8845 6.21687H24.2911L25.27 4.38781Z" fill="#BBC3CA"/>
<path d="M16.5211 4.38781L15.0607 4.38965L14.0407 6.21687L15.5555 6.21503L16.5211 4.38781Z" fill="#BBC3CA"/>
<path d="M13.7722 15.9753L10.7559 22.8138L9.39595 21.3517L9.53299 23.1944L7.50891 23.2783L9.11928 24.4055L7.9715 26.1028L9.82373 25.5019L10.5859 27.3265L11.1667 25.3381L13.2319 25.8662L11.8997 24.3345L13.5408 22.9883L11.2382 23.1314H11.0789L15.8456 15.9753H19.9748L23.6282 9.45912H22.2026L19.123 14.8422H11.7352L14.8137 9.45912H13.3663L9.64928 15.9753H13.7722Z" fill="#BBC3CA"/>
<path d="M15.1737 6.95364H13.8515L13.6811 8.51736L15.047 8.52251L15.1737 6.95364Z" fill="#BBC3CA"/>
<path d="M23.9881 6.95364H22.6652L22.4959 8.51736L23.8607 8.52251L23.9881 6.95364Z" fill="#BBC3CA"/>
<path d="M10.1174 24.856C10.1969 24.8569 10.2758 24.842 10.3494 24.8122C10.423 24.7824 10.4899 24.7383 10.5461 24.6825C10.6024 24.6267 10.6469 24.5604 10.677 24.4873C10.7071 24.4142 10.7222 24.3358 10.7215 24.2568C10.7221 24.1376 10.687 24.0208 10.6207 23.9214C10.5544 23.8219 10.4598 23.7443 10.3491 23.6983C10.2383 23.6524 10.1163 23.6401 9.9985 23.6632C9.88071 23.6862 9.77247 23.7435 9.68751 23.8278C9.60255 23.912 9.54469 24.0195 9.52128 24.1365C9.49787 24.2535 9.50996 24.3748 9.55601 24.4849C9.60207 24.5951 9.68002 24.6891 9.77997 24.7552C9.87992 24.8213 9.99737 24.8563 10.1174 24.856Z" fill="#060000"/>
</g>
<defs>
<clipPath id="clip0_13_1046">
<rect width="24" height="29" fill="white" transform="translate(3 3)"/>
</clipPath>
</defs>
</svg>
