<svg width="32" height="32" viewBox="0 0 32 32" fill="none" xmlns="http://www.w3.org/2000/svg">
<g clip-path="url(#clip0_17_11)">
<rect width="32" height="32" rx="16" fill="black"/>
<g clip-path="url(#clip1_17_11)">
<path d="M21.3636 30.8449C21.3904 30.872 21.4083 30.9174 21.4173 30.9083C21.4978 30.9083 21.659 30.8812 21.659 30.8812L21.8201 30.8085L22.2767 30.6273C22.2767 30.6273 23.4315 30.0743 23.4315 30.0653C23.4406 30.0653 23.6374 29.9566 23.6374 29.9566L23.7448 29.9112L23.8702 29.8206L24.076 29.6936L24.3179 29.5577L24.6311 29.3492L25.1772 28.9594L25.4367 28.7509L25.8217 28.4699L26.171 28.207L26.341 28.0802L26.5738 27.8625L26.8155 27.6178L27.2003 27.2008L27.648 26.7657L28.1673 26.1585L28.4537 25.7778L28.5521 25.6418L28.8565 25.2611L29.4473 24.4L29.6175 24.1189L30.0114 23.3213L30.2351 22.8862L30.6201 22.0975L30.8261 21.6172L31.0408 20.9101C31.0408 20.9101 31.3095 19.9403 31.4527 19.4325C31.4706 19.3781 31.4795 19.3238 31.4436 19.2694C31.3631 19.1515 31.3005 19.0065 31.22 18.8705C31.1841 18.807 31.1214 18.7345 31.0856 18.6802C31.0497 18.6258 30.9424 18.4898 30.9066 18.4446C30.8618 18.3902 30.8171 18.3538 30.7634 18.3086C30.638 18.1907 30.5306 18.0728 30.4232 18.0003C30.3695 17.9732 30.3246 17.937 30.28 17.9006C29.9577 17.6469 29.6265 17.4474 29.2594 17.2843C29.1072 17.2207 28.946 17.1574 28.7849 17.103C28.6775 17.0668 28.4896 17.0214 28.3731 17.0033C28.3015 16.9941 28.2479 16.9941 28.1941 17.0214C28.1403 17.0576 28.1403 17.1393 28.1314 17.2118C28.1135 17.4111 28.1046 17.6377 28.0867 17.8372C28.0687 18.0457 28.0508 18.2542 28.0419 18.4717C28.024 18.6621 28.0151 18.8524 27.9971 19.0428C27.9703 19.2967 27.9345 19.5414 27.8897 19.7951C27.8002 20.2575 27.7018 20.7197 27.6123 21.1821C27.5853 21.3089 27.5674 21.4449 27.5226 21.5628C27.442 21.7621 27.3795 21.9616 27.3436 22.1701C27.2541 22.6051 27.1019 23.0221 26.9497 23.439C26.8334 23.7745 26.708 24.128 26.52 24.4271C26.5022 24.4452 26.4932 24.4725 26.4932 24.4906C26.4037 24.7081 26.3141 24.9166 26.2246 25.1342C26.162 25.2701 26.0724 25.3971 26.0188 25.5331C25.9471 25.7052 25.8487 25.8684 25.7501 26.0225C25.5889 26.2763 25.4189 26.521 25.2847 26.7839C25.1861 26.9652 25.0787 27.1375 24.9624 27.3097C24.9265 27.355 24.8997 27.4003 24.8728 27.4366C24.7743 27.5816 24.6938 27.7267 24.5864 27.8625C24.3894 28.1164 24.1746 28.3793 23.9686 28.624C23.8343 28.7781 23.6912 28.9231 23.5479 29.0772C23.4225 29.2132 23.2973 29.3492 23.163 29.4851C23.1362 29.5123 23.1003 29.5396 23.0735 29.5667C23.0018 29.6302 22.9123 29.6936 22.8496 29.7662C22.6885 29.9293 22.5095 30.0924 22.3215 30.2284C22.2319 30.2828 22.1513 30.3372 22.0798 30.4098C21.856 30.5729 21.6232 30.7089 21.3636 30.8449Z" fill="#BD1B21"/>
<path d="M31.6406 18.3811C31.6495 18.3811 31.6495 18.363 31.6495 18.3448C31.6586 18.3086 31.6586 18.2359 31.6586 18.2359L31.766 17.2207L31.8376 16.2689V15.3262V15.1812L31.7301 14.1117C31.7301 14.1117 31.6048 13.1507 31.5064 12.6522C31.4705 12.48 31.3631 12.3894 31.2198 12.3168C31.1752 12.2896 31.1214 12.2715 31.0676 12.2534C30.9692 12.2171 30.8529 12.1718 30.7454 12.1446C30.5037 12.0812 30.2798 12.0086 30.0381 11.9633C29.7517 11.918 29.4652 11.8817 29.1788 11.8545C28.9371 11.8364 28.7044 11.8274 28.4716 11.8183C28.2835 11.8183 28.1672 11.8183 27.9792 11.8183C27.8806 11.8183 27.7733 11.8183 27.7286 11.8817C27.6838 11.9452 27.7106 12.063 27.7375 12.1718C27.7733 12.4075 27.8092 12.5253 27.8449 12.752C27.9612 13.4408 28.0777 14.1207 28.1045 14.8186C28.1134 15.1358 28.1314 15.4441 28.1493 15.7613C28.1493 15.8521 28.1493 15.9065 28.1493 15.9971C28.1493 16.0514 28.1672 16.1058 28.185 16.1512C28.212 16.1964 28.2567 16.1964 28.3015 16.2145C28.364 16.2327 28.4178 16.2418 28.4716 16.2508C28.5343 16.2689 28.6417 16.2872 28.7222 16.3143C28.9997 16.4049 29.2862 16.5047 29.5547 16.6134C29.7428 16.6859 29.9218 16.8038 30.1008 16.8944C30.1187 16.9035 30.1367 16.9216 30.1635 16.9306C30.2709 17.0123 30.3784 17.0939 30.4858 17.1664C30.7364 17.3476 30.9871 17.529 31.1841 17.7827C31.2198 17.8281 31.2647 17.8735 31.3093 17.9187C31.381 17.9822 31.5064 18.227 31.5959 18.3357C31.6138 18.3719 31.6316 18.3811 31.6406 18.3811Z" fill="#BD1B21"/>
<path d="M24.586 6.99597C24.6846 6.98691 24.7652 6.98691 24.8367 6.97785C24.8905 6.96878 24.9442 6.96878 24.9621 6.91438C24.9889 6.86 24.9442 6.79656 24.9264 6.76936C24.9173 6.72403 24.7293 6.40678 24.7293 6.40678L24.5503 6.12578L23.8073 5.04709L23.6551 4.8658L23.5208 4.65732L23.2791 4.38537L22.6794 3.72367L22.4196 3.46986L21.4887 2.59966L20.7277 2.00141L20.4503 1.85638L19.5551 1.30343L18.9284 0.958972L18.8119 0.904589L18.3017 0.714237L17.5407 0.424164L17.4871 0.406042L17.2364 0.342597L17.1737 0.333519L16.9588 0.279136L16.5113 0.197552L16.2964 0.188491L15.8936 0.115968L15.4102 0.0797231L15.2401 0.0615845H14.9357L14.4344 0.0797231L13.933 0.134107L13.5482 0.143168L13.2079 0.179429L12.8588 0.251935L12.5902 0.333519L12.1605 0.415103H12.062L11.6592 0.560131L11.4264 0.623592L11.2832 0.714237L10.9341 0.813944L10.764 0.91365L10.5491 0.995233L10.0299 1.21278L9.36745 1.47566L9.15259 1.58443L8.68708 1.83824L8.28424 2.10111L7.90825 2.30054L7.77396 2.38211L7.36217 2.59966L7.2995 2.64498L6.82504 3.01664L6.4401 3.27951L6.36848 3.33389L5.92087 3.68741L5.76868 3.81432C5.76868 3.81432 5.52698 4.02279 5.52698 4.04999L5.69706 3.99561L6.00144 3.88683C6.01039 3.88683 6.06411 3.89589 6.06411 3.89589L6.4938 3.7146H6.55647L7.03093 3.52425L7.2816 3.44266C7.2816 3.45172 7.53226 3.35202 7.53226 3.35202L7.89035 3.22511L8.74975 2.88973H8.83032L9.26896 2.73562L9.6181 2.5906L9.67182 2.62686C9.67182 2.62686 10.3343 2.64498 10.3432 2.64498L10.7729 2.68124L10.7819 2.6903L11.6413 2.76283L11.6502 2.75376L12.8409 2.81721L12.8498 2.84441L13.2706 3.21605H13.3065L13.7361 3.64209L13.7718 3.62395L14.3628 3.64209L14.3896 3.62395L15.8846 3.7146L15.8936 3.75086L16.556 4.14064H16.5828L17.7556 4.72077L17.7645 4.78421L18.4269 4.52136L19.4029 4.85674L19.564 5.12867L19.9399 5.11961L20.2802 5.50939H20.3159L20.5934 5.82665L20.6025 5.84477H20.6382L21.4081 6.02606L21.6945 6.47022L22.4107 6.73309C22.4107 6.73309 23.1717 6.93252 23.5656 6.97785C23.9058 7.03223 24.3175 7.01411 24.586 6.99597Z" fill="#BD1B21"/>
<path d="M31.2287 11.5736C31.2019 11.4558 31.1214 11.2292 31.1214 11.2292L31.0765 11.1023L31.0408 10.9482L30.9154 10.5675L30.7991 10.2321L30.432 9.40722L30.2709 8.9993L30.056 8.53702L29.8053 8.12005L29.7515 8.00221L29.5815 7.66683L29.4293 7.40395L29.3578 7.31331L28.2924 5.85391C28.2924 5.85391 28.185 5.72701 28.1402 5.67262C28.1134 5.63636 28.1044 5.61823 28.0776 5.61823H28.0685C28.0685 5.61823 27.7373 6.16211 27.6032 6.3162C27.4688 6.47031 27.1914 6.7241 27.1914 6.7241C27.1914 6.7241 26.9586 6.91447 26.9227 6.95071C26.887 6.97791 26.7078 7.09576 26.7078 7.09576L26.4661 7.24079C26.4661 7.24079 26.2782 7.32237 26.2514 7.34049C26.2244 7.34956 26.1887 7.36769 26.1708 7.38582C26.1529 7.41302 26.1438 7.43114 26.1529 7.4674C26.1619 7.50366 26.1708 7.53085 26.1887 7.55805C26.2871 7.76653 26.3766 7.98409 26.4841 8.1835C26.6453 8.48263 26.7437 8.80895 26.887 9.12621C26.9316 9.22593 26.9765 9.3347 27.0122 9.44348C27.1017 9.72448 27.1914 10.0055 27.2809 10.2774C27.3166 10.4043 27.3615 10.5222 27.3972 10.6491C27.4331 10.776 27.4599 10.8938 27.4956 11.0207C27.5137 11.1023 27.5673 11.1386 27.6568 11.1386C27.7373 11.1386 27.8179 11.1386 27.8985 11.1295C28.185 11.1204 28.4714 11.1114 28.7579 11.1023C28.8385 11.1023 29.4114 11.1567 29.4114 11.1567C29.4114 11.1567 29.6174 11.1748 29.7158 11.1929C29.9307 11.2292 30.1455 11.2836 30.3604 11.3289C30.5394 11.3652 30.7275 11.4286 30.8975 11.5102C30.9781 11.5465 31.0676 11.5736 31.1571 11.6008C31.1839 11.6099 31.2287 11.619 31.2377 11.6099C31.2198 11.619 31.2287 11.5918 31.2287 11.5736Z" fill="#BD1B21"/>
<path d="M27.4956 5.11956C27.4867 5.07422 27.415 4.96545 27.415 4.96545L27.3614 4.86575L27.2092 4.68446L27.1017 4.53941L26.9048 4.34906C26.9048 4.34906 26.86 4.3128 26.8421 4.29468C26.502 4.01368 25.8215 3.46074 25.8215 3.45167L25.6336 3.29758L25.2845 2.98031L23.521 1.91069L22.1154 1.23992C22.1154 1.23992 21.3813 0.949862 21.3724 0.949862L21.1037 0.859217L20.1907 0.54196L19.5461 0.378793L18.9195 0.242826L18.821 0.233765L18.7762 0.279087L18.8031 0.306271C18.8031 0.306271 18.8658 0.333471 18.9016 0.351593C19.0895 0.433177 19.2866 0.496638 19.4834 0.578205C19.6088 0.632605 19.7251 0.69605 19.8595 0.732311C19.949 0.759495 20.0295 0.795756 20.1101 0.841079C20.4056 1.01331 20.7009 1.18554 20.9964 1.36683C21.1754 1.47561 21.3365 1.59344 21.4887 1.73847C21.6052 1.84725 21.7215 1.94696 21.8648 2.02854C21.9275 2.0648 21.9721 2.11918 22.0348 2.16451C22.0616 2.19171 22.0975 2.21889 22.1243 2.24609C22.2944 2.39112 22.4825 2.51803 22.6436 2.68119C22.8048 2.86248 22.9838 3.03471 23.1538 3.19786C23.315 3.36103 23.4851 3.5242 23.6194 3.70549C23.7357 3.85958 23.8522 4.00461 23.9863 4.14057C24.2461 4.39438 24.4429 4.70258 24.6757 4.97452C24.7025 5.01078 24.7205 5.04704 24.7474 5.09236C24.8996 5.32803 25.0337 5.58185 25.2129 5.7994C25.3381 5.95349 25.4546 6.11665 25.5352 6.29794C25.5888 6.40671 25.6604 6.50643 25.732 6.60614C25.7679 6.66958 25.8396 6.69678 25.8753 6.68772C25.911 6.68772 25.9737 6.65146 25.9737 6.65146L26.0991 6.59708C26.0991 6.59708 26.2603 6.52456 26.323 6.49736C26.3766 6.47017 26.4931 6.40671 26.5288 6.37047C26.5647 6.33421 26.7348 6.21636 26.8332 6.12572C26.9227 6.03507 27.1106 5.81752 27.1106 5.81752L27.245 5.63623L27.4777 5.23739C27.4599 5.25553 27.5045 5.16488 27.4956 5.11956Z" fill="#BD1B21"/>
<path d="M26.7616 11.0841C26.6631 10.785 26.5915 10.504 26.4841 10.2139C26.3946 9.97821 26.3319 9.72442 26.2156 9.4978C26.1529 9.36184 26.117 9.20773 26.0634 9.0627C26.0364 8.99018 26.0007 8.91767 25.9739 8.84515C25.8396 8.47351 25.6695 8.16531 25.4905 7.81179C25.4814 7.79366 25.4725 7.77553 25.4546 7.73927C25.4367 7.70301 25.4278 7.67583 25.383 7.64863C25.3383 7.62143 25.3024 7.63957 25.2218 7.64863C25.0696 7.66675 24.8817 7.68489 24.8011 7.68489C24.7295 7.68489 24.434 7.71207 24.1923 7.73021L24.1476 7.71207H23.9954H23.8611L23.1002 7.61237C22.8226 7.57611 22.187 7.41295 22.187 7.41295L21.7216 7.24979L21.1486 7.05038L21.1039 7.07756L20.1998 7.00505L20.1728 7.02317L19.6626 6.6334H19.6088L19.2955 6.34334L19.2865 6.27988L18.9196 6.22549L18.8837 6.24362L18.5973 6.14391L18.5614 6.11673L17.899 6.16205L17.2991 5.9173L15.2224 6.02608L15.1865 6.00794L14.7926 6.03514L14.7479 6.06233L13.7273 6.14391L13.7005 6.11673L12.2412 6.96879L12.2233 7.03224L12.1607 7.0957L12.1517 7.0685L11.4176 6.99598L11.3729 7.01411L10.0838 7.02317L10.0569 7.00505L9.68988 6.99598L9.57349 6.93253L8.22173 7.99309L8.21278 8.02027L7.7383 8.40099L7.21014 8.14717L7.17432 8.15624L6.97738 8.10185C6.97738 8.10185 6.00159 8.35566 6.01054 8.36473C6.01949 8.37379 5.09742 8.2197 5.09742 8.2197L5.03475 8.15624L4.86467 8.33753L4.49763 8.51883L4.48868 8.54602L3.76356 9.10802L2.7251 9.86038L1.56132 10.7396L1.03315 11.1294L1.0063 11.356L0.78249 11.8727L0.692972 12.3169L0.549735 13.2142L0.460216 13.6041L0.424399 14.0754L0.299079 15.0452L0.245361 17.1845L0.299079 17.3115L0.33488 17.9006C0.33488 17.9006 0.34383 18.0003 0.370681 18.0095L2.94891 15.3083L3.79936 14.9638L4.50658 14.9275L4.93629 14.4289L4.98105 14.3383L5.03475 14.3654L6.19853 14.2296L6.25225 14.1933H6.68196L6.74463 14.2204L6.88785 14.03L7.40708 13.6947L7.9621 13.305L9.52874 13.3231L9.53769 13.3594L10.1464 13.4137L10.6298 13.314L11.5072 12.4075H11.5251L12.2233 11.7367L13.2707 11.6008L13.3155 11.5736L13.3602 11.6189L13.9063 11.8818L13.9422 11.8455L14.4256 11.7821L14.4524 11.7549L14.8999 11.6824L14.9358 11.6552L15.4282 12.0812L15.455 12.0449L16.4577 12.0268L16.5472 11.9634L17.3529 11.9996L17.3977 12.0177L17.523 11.9906L17.5408 11.9543L17.8631 11.8093H17.899L18.2751 11.637L18.3108 11.6008L18.7047 11.4467L18.7315 11.4013L19.8327 10.9753L19.8416 10.9572L20.0386 10.8937L20.0833 10.8484L20.1371 10.9119L20.4593 11.066H20.5578L20.916 11.2654L20.9428 11.2291L21.0501 11.1747H21.0591L21.2382 11.0932L21.2472 11.0841L21.5067 11.0206L22.1691 11.1929L22.3124 11.1566L22.4287 11.2382L22.9121 11.3107L23.3866 11.492L23.6642 11.4739L23.7537 11.5373L23.8254 11.492C23.8254 11.492 24.7563 11.3742 25.2308 11.3379C25.5352 11.3107 25.8396 11.2835 26.144 11.2473C26.314 11.2291 26.4841 11.211 26.6542 11.1929C26.7437 11.2291 26.7975 11.1929 26.7616 11.0841Z" fill="#BD1B21"/>
<path d="M27.442 15.9336C27.442 15.8702 27.4331 15.8248 27.4242 15.7613C27.4151 15.5801 27.4061 15.3987 27.3972 15.2175C27.3972 15.154 27.3883 15.0996 27.3793 15.0362C27.3615 14.8096 27.3615 14.583 27.3345 14.3564C27.2988 14.0663 27.263 13.7853 27.2182 13.4952C27.1825 13.2777 27.1466 13.0511 27.1019 12.8335C27.0571 12.6069 27.0213 12.3893 26.9765 12.1627C26.9317 11.9271 26.8781 11.8999 26.6453 11.9271C26.6274 11.9271 26.6094 11.9361 26.5915 11.9361C26.502 11.9542 26.3857 11.9633 26.2962 11.9814C25.8396 12.0449 25.4098 12.063 24.9444 12.1174L23.6284 12.5797L21.7306 12.5253L21.5246 12.4528V12.489L20.9696 12.906L20.889 12.9151L20.4505 13.3321L20.4235 13.3954L19.2866 13.5495L18.2481 14.3654H18.1408L17.5857 14.6918L17.3619 14.7189L17.147 14.9092L17.0934 14.864L16.0371 14.7915L15.8489 15V15.0362L14.9359 16.0514L14.927 16.1058L14.8911 16.1149L13.7274 17.4655L13.4051 17.4746L13.3781 17.5109L12.4203 17.6831H12.3487C12.3487 17.6831 12.3308 17.7283 12.3218 17.7283C12.3129 17.7283 10.7463 18.6167 10.7463 18.6167L10.039 18.5352L9.88685 18.5895L9.17963 18.5442L8.48136 19.2784L8.06062 19.36L7.8189 19.3509L7.57719 19.4598L7.43396 19.4416L7.44292 19.4687L6.57455 20.1486L6.49399 20.1667L5.13325 21.2364L5.14222 21.2998L4.30072 23.3574L4.33652 23.4482L2.94894 23.575L2.48343 23.9739L2.43866 24.1189L3.05636 24.9891L3.51292 25.6962L3.90683 26.2038L4.55137 26.9107C4.55137 26.9107 4.55137 26.9561 4.56927 26.9651C4.57823 26.9742 4.65879 26.9742 4.65879 26.9742C4.65879 26.9742 5.04374 27.1011 5.04374 27.1102L5.5182 27.2643L5.52716 27.2914L5.57191 27.2824L6.3597 27.5905H6.42237L6.46713 27.6451H6.53875C6.5477 27.6451 6.72674 27.7719 6.72674 27.7719L7.05798 27.5905H7.07588L7.21912 27.4909L8.40975 27.79L9.27812 27.3368L11.2118 27.1464L11.9996 25.8501C12.1249 25.7233 12.3487 25.4877 12.3487 25.4877H12.3756C12.3756 25.4877 12.6441 25.2338 12.6531 25.2248C12.6531 25.2157 12.6531 25.1884 12.6531 25.1884L13.1545 24.7262L13.3872 24.4815C13.3872 24.4815 13.4408 24.4542 13.4408 24.4452C13.4498 24.4452 13.7095 24.1642 13.7095 24.1642L13.9242 23.9376L13.978 23.9285L13.9242 23.7291L14.1481 22.8952L14.5867 22.7683L14.6047 22.7502L14.7299 22.7229V22.6504L15.3119 21.6986L15.3655 21.6715L15.6072 21.2002L16.0012 20.9735L16.0549 20.91L16.1355 20.919C16.1355 20.919 16.3683 20.7832 16.3772 20.7832H16.404L16.8336 20.5928L16.8695 20.5384L18.293 19.8767L18.3825 19.8676L18.4003 19.786L18.4541 19.7407L18.5972 19.2421L19.0449 19.0428L19.5642 18.9793L20.0385 18.6439L20.71 18.671L20.7727 18.7254L20.8085 18.6802L21.7485 18.254L21.7395 18.1272L21.9632 17.6921L22.4288 17.5652L22.4557 17.538L23.0913 17.402L23.3331 17.112L23.3688 17.1029C23.3688 17.1029 23.5121 16.9579 23.521 16.9579L23.9596 17.0214L23.9776 17.0395L24.2193 17.0758L24.3624 17.0939C24.3624 17.0939 24.998 16.7948 25.2667 16.6859C25.383 16.6407 25.4904 16.6134 25.5979 16.5771C25.7501 16.5228 25.8932 16.4684 26.0454 16.423C26.126 16.3959 26.1887 16.3778 26.2693 16.3597L26.5647 16.3053L26.9138 16.2508L27.1019 16.2418C27.1019 16.2418 27.2093 16.2327 27.245 16.2237C27.2809 16.2145 27.3436 16.2145 27.3883 16.1783C27.4331 16.1331 27.4331 16.0968 27.4331 16.0514C27.442 16.0152 27.442 15.9879 27.442 15.9336Z" fill="#BD1B21"/>
<path d="M27.424 17.1936C27.424 17.1391 27.433 17.0576 27.3883 17.0123C27.3524 16.967 27.2988 16.9579 27.2629 16.9579C27.2271 16.9579 27.066 16.976 27.066 16.976L26.7884 17.0214C26.7527 17.0214 26.7257 17.0304 26.6989 17.0395C26.5378 17.0758 26.3677 17.112 26.2066 17.1574C26.0276 17.2118 25.8395 17.257 25.6694 17.3386C25.4904 17.4203 25.2844 17.4836 25.1054 17.5742C25.0427 17.6106 24.4341 17.9097 24.1564 18.0457L23.7984 18.4263L23.7895 18.5079L23.7447 18.4898L23.5208 18.5079L23.503 18.526L22.7778 18.7708L22.7868 18.8524L22.7151 18.9249V18.9703L22.375 19.5775H22.3303L22.3212 19.641C22.3212 19.641 22.2498 19.7589 22.1781 19.8857L20.6473 20.8828H20.6114L20.3787 21.0823L20.2086 21.7259L20.0564 21.8709L19.4567 24.1007L19.5372 24.3546L18.651 24.7806H18.5077L18.3376 25.5602L18.3107 25.5873L18.0959 26.2944L18.1049 26.3306L18.0154 26.938L17.9795 26.9834L18.0064 27.0377L17.1559 28.3974L17.0932 28.4155L16.8874 28.7419L16.8785 28.8052L16.1534 29.8387L15.3834 30.3009L15.4281 30.3644C15.4281 30.3734 15.3834 30.6816 15.3834 30.6816L15.455 30.7995L15.3475 30.8358L14.7926 31.1711L14.7389 31.153L13.9242 31.6425L13.8258 31.7966C13.8258 31.8056 14.1481 31.842 14.1481 31.842L14.6762 31.8872L15.0343 31.9053L15.464 31.9234L15.6519 31.9326L15.9653 31.9416L16.2786 31.9326L17.4244 31.7874L18.0959 31.6697L18.6062 31.5246L19.1612 31.3615L19.8684 31.0805L19.9222 31.0532L20.1191 30.9355C20.1191 30.9355 20.692 30.6273 20.9516 30.4369C21.3903 30.1016 21.8289 29.766 22.2317 29.3855C22.375 29.2495 22.5004 29.1225 22.6437 28.9866C22.7689 28.8596 22.9032 28.7238 23.0285 28.5967C23.0465 28.5696 23.0823 28.5515 23.0912 28.5243C23.136 28.4155 23.2166 28.343 23.2882 28.2705C23.3418 28.216 23.3956 28.1616 23.4403 28.0983C23.5299 27.9623 23.6552 27.8536 23.7716 27.7447C23.8611 27.6541 23.9506 27.5543 24.0223 27.4456C24.1564 27.2552 24.2818 27.0558 24.4072 26.8563C24.5773 26.5935 24.7653 26.3398 24.9085 26.0678C25.0697 25.7776 25.2219 25.4785 25.383 25.1886C25.5172 24.9438 25.6604 24.69 25.7678 24.4361C25.947 24.001 26.126 23.575 26.2961 23.1399C26.4751 22.6776 26.6094 22.1972 26.7348 21.7167C26.8243 21.3633 26.8868 20.9917 27.0122 20.6472C27.0301 20.6018 27.039 20.5566 27.048 20.5022C27.0928 20.2121 27.1466 19.913 27.1912 19.6229C27.2361 19.3419 27.2718 19.0699 27.3077 18.7889C27.3345 18.5985 27.3703 18.4082 27.3794 18.2178C27.4062 17.9549 27.4151 17.6921 27.424 17.4292C27.424 17.4021 27.424 17.3386 27.424 17.3386C27.424 17.3386 27.424 17.2389 27.424 17.1936Z" fill="#BD1B21"/>
</g>
</g>
<defs>
<clipPath id="clip0_17_11">
<rect width="32" height="32" rx="16" fill="white"/>
</clipPath>
<clipPath id="clip1_17_11">
<rect width="32" height="32" fill="white"/>
</clipPath>
</defs>
</svg>
