<svg width="32" height="32" viewBox="0 0 32 32" fill="none" xmlns="http://www.w3.org/2000/svg">
<g clip-path="url(#clip0_12_373)">
<rect width="32" height="32" rx="16" fill="white"/>
<path d="M-0.788204 21.4785C-1.06399 21.0595 -2 19.4758 -2 16.9202C-1.99164 15.8141 -1.83286 14.7081 -1.52364 13.6439C-1.52364 13.6355 -1.51528 13.6272 -1.51528 13.6188L-1.36485 13.0322L-1.33142 13.0658C-1.30635 12.9987 -1.28128 12.9233 -1.25621 12.8479C-1.13921 12.4792 -1.00549 12.1022 -0.98042 12.01C-0.963706 11.9346 -0.846705 11.4905 -0.763132 11.1888C-0.738061 11.0967 -0.71299 11.0212 -0.687918 10.9542L-0.67956 10.9123C-0.654489 10.6861 -0.612702 10.4682 -0.570916 10.2587C-0.554202 10.1498 -0.537488 10.0325 -0.520774 9.94033L-0.512416 9.89843L-0.495702 9.86491C-0.487345 9.83978 -0.478987 9.82302 -0.47063 9.80626C-0.203199 8.56614 0.390163 7.42657 1.2426 6.48811L1.25931 6.47135C1.45153 6.287 1.66882 6.11942 1.89446 5.9686C2.02818 5.79263 2.46275 5.23123 2.85554 4.78713C2.98926 4.63631 3.12297 4.50224 3.23997 4.39331C3.37369 4.09166 3.54919 3.80677 3.75812 3.54701C4.28462 2.89344 4.98663 2.39907 5.77221 2.11417C6.52436 1.60304 7.32665 1.15057 8.14565 0.756748C8.65544 0.245618 9.22374 -0.215236 9.83381 -0.600678C11.1543 -1.48049 12.7003 -1.96648 14.2798 -2C14.3467 -2 14.4219 -2 14.4888 -2L15.149 -1.98324L14.33 -0.877191C14.7646 -0.910708 15.2075 -0.927466 15.6588 -0.927466C17.9403 -0.927466 20.1968 -0.491749 22.3111 0.371306H22.3278C22.4532 0.429961 22.5786 0.496994 22.6956 0.572407C22.8293 0.647819 22.9463 0.74837 23.0549 0.857299C23.3224 0.890816 23.5814 0.966228 23.8321 1.07516H23.8405L23.8489 1.08354C26.0552 2.23986 27.9773 3.85704 29.5067 5.82615L29.5234 5.84291L29.5318 5.85967C29.5986 5.98536 29.6404 6.1278 29.6655 6.27025C29.6905 6.287 29.724 6.31214 29.7658 6.33728C29.8577 6.39593 29.9496 6.46297 30.0248 6.54676L30.0415 6.56352L30.0583 6.58866C31.9721 9.36216 33 12.6636 33 16.0404C33 19.2412 32.0807 22.375 30.3424 25.0647L30.3257 25.0815C30.309 25.1066 30.2839 25.1318 30.2588 25.1485C30.2338 25.1737 30.2003 25.1988 30.1753 25.2239C30.1084 25.2742 30.0415 25.3161 29.9747 25.358C29.9663 25.3915 29.958 25.4334 29.9496 25.4837C29.9245 25.6094 29.8744 25.7351 29.8075 25.8524L29.7908 25.8691C26.4897 30.3688 21.233 33.025 15.6504 32.9998C8.0203 32.9998 1.5351 28.1818 -0.788204 21.4785Z" fill="white"/>
<path d="M29.7741 6.78941C29.6738 6.69723 29.5568 6.62182 29.4398 6.54641C29.3897 6.52965 29.3479 6.48775 29.3395 6.43748C29.3228 6.30341 29.2894 6.16935 29.2309 6.04366C27.735 4.11645 25.8462 2.53278 23.6901 1.40159C23.4561 1.29266 23.2054 1.23401 22.9546 1.20887C22.9045 1.20887 22.8627 1.18374 22.8376 1.15022C22.6454 0.957497 22.4281 0.806673 22.1774 0.706123C20.1048 -0.131795 17.8902 -0.567512 15.6504 -0.567512C14.9568 -0.567512 14.2715 -0.525616 13.5778 -0.441824L14.4721 -1.64005C10.9035 -1.74898 8.34623 1.04967 8.34623 1.04967C7.49379 1.44349 6.67479 1.91272 5.89756 2.44061V2.43223C4.82784 2.78416 3.95869 3.5718 3.49904 4.60244C3.03104 4.99626 2.09503 6.23638 2.09503 6.23638C1.86939 6.37883 1.66046 6.53803 1.46824 6.73075C1.04202 7.17485 0.256447 8.18035 -0.161414 9.91484C-0.169771 9.93998 -0.186485 9.97349 -0.194842 9.99863C-0.211556 10.0992 -0.228271 10.2081 -0.244986 10.3087C-0.286772 10.5181 -0.320201 10.7276 -0.35363 10.9539L-0.336916 10.9287C-0.345273 10.979 -0.345272 11.0041 -0.345272 11.0041C-0.387058 11.0376 -0.654489 12.1018 -0.654489 12.1018C-0.696275 12.2359 -1.18099 13.7022 -1.18099 13.7022V13.7106C-2.45965 18.1851 -0.763133 20.8999 -0.47063 21.3189C1.78582 27.9049 8.15401 32.6559 15.6588 32.6559C21.1328 32.6811 26.2892 30.0751 29.5234 25.6593C29.5903 25.5252 29.632 25.3828 29.6571 25.2404C29.6571 25.1901 29.6822 25.1398 29.7323 25.1063C29.8577 25.0476 29.9663 24.9722 30.0583 24.88C31.7631 22.249 32.6657 19.1822 32.6574 16.0484C32.6574 12.7302 31.6545 9.50426 29.7741 6.78941Z" fill="black"/>
<path d="M8.5107 3.5713C8.55249 3.5294 8.59428 3.47913 8.62771 3.44561C8.68621 3.38696 8.71128 3.3702 8.71128 3.37858C8.71963 3.37858 8.71963 3.3702 8.71963 3.3702C8.72799 2.85069 8.79485 2.33956 8.92857 1.83681C10.4746 -0.333399 13.0236 -0.903182 13.0236 -0.903182C13.3412 -0.995353 13.1322 -0.852907 13.1322 -0.852907C11.5277 0.948616 11.6948 2.44011 11.6948 2.44011L13.2242 8.04578C13.2242 8.04578 11.9789 7.61006 11.0262 5.64095C10.5833 9.57079 14.2772 12.7549 14.2772 12.7549C14.436 12.8889 14.1853 12.7465 14.1853 12.7465C13.2576 12.2856 12.1962 11.3053 11.9037 11.0288C11.9789 11.3304 13.7841 20.4051 13.7841 20.4302C13.7925 20.4721 13.8175 20.5559 13.8342 20.6145L14.461 19.0644L14.9792 23.6478C12.6392 25.8348 10.1404 24.9717 9.98157 24.9131C10.0401 25.0136 10.0902 25.0806 10.0902 25.0806C10.0902 25.0806 12.121 29.0691 20.3779 28.6502C20.3779 28.6502 20.5785 28.6502 20.5451 28.6753C20.5451 28.6837 20.5367 28.6921 20.5033 28.7004C20.3696 28.7423 20.2359 28.7759 20.1022 28.7926C10.132 31.4656 4.96725 22.944 4.7416 22.5669C4.41567 22.1144 4.13988 21.62 3.92259 21.1089C3.91424 21.0922 3.90588 21.0251 3.94767 21.0754C3.94767 21.0754 5.00903 22.1814 8.00091 22.458C8.00927 22.458 8.02599 22.458 8.03434 22.4496C5.71939 19.8604 4.73325 17.9919 4.59117 17.6986C4.59117 17.6986 4.31538 17.2796 3.9811 16.0898C3.9811 16.0898 3.98945 16.0311 4.01452 16.0898C4.12317 16.3244 4.89203 17.4556 5.82804 17.7153C5.0341 16.4333 4.54103 14.414 4.48253 14.1123C5.56061 15.6206 7.46605 15.7379 7.46605 15.7379C7.46605 15.7295 7.4577 15.7295 7.4577 15.7211L7.46605 15.7295C4.32374 12.5873 5.00067 9.16859 6.27933 6.70511C6.89776 5.55716 7.64155 4.50977 8.5107 3.5713Z" fill="white"/>
<path d="M17.9042 24.3517L15.84 26.5219C15.84 26.5219 15.84 26.5219 15.8483 26.5135L18.3889 24.5611L17.0768 20.0112L17.6535 14.5396L16.6506 19.7682L17.9042 24.3517Z" fill="#BBC4CA"/>
<path d="M18.3639 10.9617C18.18 11.9002 17.8875 12.8554 17.3861 13.2828C17.4278 13.266 17.4696 13.2409 17.5198 13.2074C17.7287 13.0817 17.9126 12.9308 18.0797 12.7633C18.6313 12.1683 18.9238 11.3723 18.8987 10.5595C18.8904 9.98137 18.7984 9.40321 18.6146 8.85018C18.5728 9.55403 18.4976 10.2663 18.3639 10.9617Z" fill="#BBC4CA"/>
<path d="M18.3471 3.98188C19.0659 2.89259 20.2442 2.80041 20.7457 2.79204C20.3612 2.67473 19.9601 2.61607 19.5506 2.61607C19.0157 2.61607 18.4892 2.71662 17.9961 2.9261C17.9627 2.94286 17.9376 2.95124 17.9126 2.968C18.0964 3.28641 18.2385 3.62995 18.3471 3.98188Z" fill="#BBC4CA"/>
<path d="M17.4362 6.26101C17.4529 6.26101 17.4696 6.27777 17.4696 6.29453C17.4696 6.39508 17.4696 6.49563 17.4696 6.59618C17.4696 8.93397 16.8512 11.498 16.6088 12.3946C17.361 10.6768 17.7454 8.83342 17.7454 6.95649C17.7454 6.26939 17.6953 5.57392 17.5783 4.89521C17.5365 4.63545 17.4947 4.44273 17.4613 4.30867C17.2356 6.06829 16.5671 6.87269 16.5587 6.87269C16.5503 6.88107 16.542 6.88945 16.5253 6.88945C16.5169 6.88945 16.5002 6.88107 16.5002 6.87269C15.6645 5.35606 14.4777 4.06567 13.0403 3.10206C12.915 3.01827 12.8063 2.95124 12.7395 2.90934C14.8288 7.46762 15.4472 10.9869 15.5976 12.1432C15.606 12.0091 15.606 11.8751 15.606 11.741C15.606 9.66296 15.0711 7.14921 14.812 6.0264C14.7201 5.64933 14.6616 5.43148 14.6616 5.43148C14.6616 5.41472 14.6616 5.39796 14.6783 5.38958C14.695 5.3812 14.7118 5.3812 14.7201 5.38958C15.6561 6.11857 16.3163 8.20498 16.4333 8.59042C16.6841 8.1966 16.8763 7.76927 17.0267 7.32517C17.2273 6.78052 17.3861 6.28615 17.3861 6.28615C17.4028 6.27777 17.4195 6.26101 17.4362 6.26101Z" fill="#BBC4CA"/>
<path d="M-0.164082 15.7127C-0.164082 17.8829 0.211992 20.1453 2.06729 23.0445C3.82231 26.7565 7.06491 28.7507 8.5692 29.5216C9.07064 29.773 9.37986 29.8987 9.37986 29.8987C11.4608 30.9042 13.7423 31.4404 16.0573 31.4488C19.1912 31.4153 22.25 30.4601 24.8407 28.7004C25.292 28.3988 25.526 28.1977 25.526 28.1893C25.6179 28.1139 25.6848 28.0553 25.7349 28.0134C25.7099 28.0301 25.6848 28.0469 25.6513 28.0636C25.5511 28.1223 25.4675 28.1809 25.4675 28.1809C22.1915 30.1249 19.1578 30.7115 16.6841 30.7115C12.8063 30.7115 10.2991 29.2619 10.2908 29.2619C2.06729 24.9382 1.95029 17.4472 1.95029 17.4388C1.95029 17.4221 1.95865 17.4053 1.97536 17.4053C1.99208 17.4053 2.00879 17.4053 2.01715 17.4221C3.07852 19.4834 4.36553 20.1872 4.93382 20.4134C5.01739 20.447 5.08425 20.4637 5.13439 20.4805C2.74423 17.464 2.05894 14.9167 2.05894 12.9979C2.05894 10.459 3.25402 9.01776 3.26238 9.01776C3.27073 9.00101 3.28745 9.00101 3.30416 9.00938C3.32088 9.01776 3.32923 9.03452 3.32088 9.05128C3.17045 9.83054 3.08687 10.6266 3.08687 11.4226C3.08687 13.0984 3.47966 14.1374 3.67188 14.548C3.68024 14.5564 3.68024 14.5732 3.68859 14.5815C3.62173 13.995 3.57995 13.4085 3.57995 12.8219C3.57159 9.15183 5.00903 5.63258 7.58305 3.01827C7.06491 3.23613 6.42976 3.79754 5.91161 4.3338C5.34332 4.92035 4.90875 5.46499 4.90875 5.46499C4.90039 5.47337 4.88367 5.48175 4.86696 5.47337C4.85025 5.46499 4.84189 5.45661 4.84189 5.43985C4.88368 4.98738 5.02575 4.55166 5.24303 4.14946C4.80846 4.59356 4.45746 5.10469 4.2151 5.67447C4.04795 6.0264 3.90588 6.3867 3.78052 6.75539L3.77216 6.77214C2.81108 7.8782 2.06729 9.15183 1.59929 10.5428C1.52407 10.7774 1.49065 10.9115 1.49065 10.9115C1.47393 10.9869 1.45722 11.0539 1.42379 11.1209C1.41543 11.1293 1.41543 11.1461 1.382 11.1545C1.36529 11.1545 1.34857 11.1461 1.34022 11.1293C1.34022 11.1209 1.33186 11.1126 1.33186 11.1042C1.33186 11.0874 1.33186 11.0707 1.33186 11.0539C1.33186 10.9869 1.34022 10.8863 1.34022 10.8863C1.36529 9.82216 1.80822 8.61556 1.98372 8.17985C0.73014 9.52889 0.420923 11.3639 0.420923 12.8303C0.420923 13.4085 0.471066 13.995 0.554638 14.5648C0.621495 15.0005 0.688354 15.2602 0.688354 15.2602V15.2686C0.721782 16.1987 0.830427 17.1288 1.031 18.0421C1.19814 18.8884 1.36529 19.5252 1.36529 19.5169C1.39872 19.609 1.42379 19.7012 1.4405 19.8018C1.4405 19.8101 1.4405 19.8185 1.43215 19.8269C1.42379 19.8437 1.40707 19.852 1.39872 19.852C1.382 19.852 1.36529 19.8437 1.35693 19.8269C1.34857 19.8185 1.34022 19.8101 1.33186 19.7934C1.31514 19.7682 1.29843 19.7347 1.28172 19.7096C1.24829 19.6509 1.21486 19.5923 1.21486 19.5923C0.337351 18.2432 -0.0888673 16.0311 -0.189154 15.4697C-0.164082 15.5451 -0.164082 15.6289 -0.164082 15.7127Z" fill="#BBC4CA"/>
<path d="M19.1244 5.12983L19.1076 5.11307L19.116 5.08793C19.5172 4.00702 21.4059 3.05179 21.7736 2.87583C21.0382 2.45687 20.2024 2.23063 19.35 2.23063C18.9154 2.23063 18.4809 2.28929 18.063 2.39821C17.8959 2.44011 17.7287 2.49876 17.5699 2.5658L17.5449 2.57418L17.5281 2.54904C17.1938 2.14684 16.8345 1.77815 16.4333 1.43461C16.1074 1.14134 15.8567 0.948616 15.8316 0.931858C15.7815 0.898341 15.7564 0.881583 15.7481 0.839687C15.7481 0.81455 15.7648 0.797791 15.7815 0.789412C15.7982 0.781033 15.8149 0.772654 15.8316 0.772654C15.865 0.764274 15.9068 0.764275 15.9403 0.764275C15.9821 0.764275 16.0238 0.764275 16.0322 0.764275C23.562 0.764275 27.5735 6.16046 27.5735 6.16884C27.6236 6.21912 27.6487 6.27777 27.6487 6.34481C27.6404 6.50401 27.4565 6.5878 27.2894 6.63808C27.1807 6.67159 27.0637 6.69673 26.9551 6.70511C26.2865 6.79728 25.6096 6.84756 24.9326 6.84756C21.0214 6.86432 19.1327 5.1382 19.1244 5.12983Z" fill="#0064B1"/>
<path d="M16.5587 26.9492C16.5503 26.9408 16.5336 26.9324 16.5336 26.9241C16.5336 26.9073 16.5336 26.8989 16.5503 26.8905L19.0742 24.846L17.7872 20.0867V20.0699L18.1382 16.8774C18.1382 16.8691 18.1466 16.8607 18.1549 16.8523C18.1633 16.8439 18.1716 16.8439 18.1884 16.8439C18.765 17.0199 19.0324 17.8075 19.1745 18.5365C19.2497 18.9555 19.2915 19.3828 19.3082 19.8101C19.9768 18.3522 20.2024 17.1875 20.2024 16.2741C20.2024 14.9921 19.7595 14.2296 19.5422 13.9363C19.5088 13.8861 19.467 13.8358 19.4252 13.7939C19.4085 13.7771 19.4085 13.7604 19.4252 13.7436C19.4419 13.7269 19.4587 13.7269 19.4754 13.7436C22.484 16.6009 23.094 20.6062 23.094 23.3629C23.1024 24.4271 23.0105 25.4828 22.8183 26.5302C22.7514 26.7146 22.601 26.8486 22.4088 26.8989C21.3641 27.1335 20.286 27.2592 19.2163 27.2592C18.3221 27.2844 17.4279 27.1754 16.5587 26.9492Z" fill="#0064B1"/>
<path d="M23.6373 26.6057C23.5871 26.5554 23.5537 26.4883 23.562 26.4213C23.562 26.371 23.5704 26.3291 23.5788 26.2789C23.5788 26.2789 23.679 25.9018 23.771 25.2482C23.9047 24.3684 23.9632 23.4802 23.9632 22.592C23.9632 19.718 23.2779 15.7043 20.0854 12.5873C20.052 12.5705 20.0269 12.5454 20.0019 12.5119C19.9852 12.4951 19.9768 12.4784 19.9768 12.4616C19.9768 12.4448 19.9852 12.4281 20.0019 12.4197C20.0186 12.4113 20.0269 12.4113 20.0437 12.4113C20.0938 12.4113 20.1439 12.4197 20.1857 12.4365C20.7373 12.6208 21.2304 12.9392 21.6315 13.3666C21.6232 13.3247 21.6232 13.2744 21.6148 13.2074C21.5814 12.9727 21.5229 12.7465 21.4644 12.5203C21.2722 11.8248 20.9295 11.1712 20.4699 10.6182C20.4281 10.5763 20.3863 10.5344 20.3529 10.4841C20.3362 10.4674 20.3278 10.4506 20.3278 10.4255C20.3278 10.4171 20.3278 10.4087 20.3362 10.4003C20.3445 10.3919 20.3529 10.3919 20.3612 10.3919C20.3863 10.3919 20.403 10.4003 20.4281 10.4171C20.4532 10.4338 20.4866 10.459 20.5284 10.4841C20.7206 10.5763 28.7435 14.4726 29.0277 22.3323C29.0277 22.3323 29.0277 22.3742 29.0277 22.4496C29.0444 22.7429 28.9441 23.0277 28.7435 23.2456C28.6683 23.3462 26.7629 25.7175 23.9632 26.6224C23.9047 26.6392 23.8462 26.6559 23.7877 26.6559C23.7375 26.6559 23.679 26.6392 23.6373 26.6057Z" fill="#0064B1"/>
<path d="M29.6712 21.0754C29.6461 21 29.6377 20.9162 29.6377 20.8324C29.4539 13.266 21.1886 8.50663 19.116 7.44248C18.8235 7.29165 18.6564 7.21624 18.6564 7.21624L18.5143 7.14921H18.6898C19.4336 7.14921 20.1439 7.476 20.637 8.02902C20.637 7.8363 20.6036 7.64358 20.5618 7.45924C20.52 7.30003 20.4782 7.1911 20.4782 7.1911L20.4532 7.11569L20.5284 7.14083C21.3975 7.46762 22.509 7.58492 23.6038 7.58492C24.5649 7.57655 25.5176 7.50951 26.4704 7.38383C27.2392 7.28327 27.749 7.18272 27.749 7.18272C27.7908 7.18272 27.8242 7.17434 27.866 7.17434C28.1084 7.14083 28.3424 7.25814 28.4677 7.46762C29.504 8.62394 30.7827 11.3053 31 14.5229C31.025 14.9251 31.0418 15.3189 31.0418 15.696C31.0418 18.5197 30.3648 20.5726 29.972 21.067C29.9302 21.1257 29.8717 21.1676 29.7965 21.1843C29.7297 21.1592 29.6879 21.1257 29.6712 21.0754Z" fill="#0064B1"/>
<path d="M12.0709 -0.123919C12.0792 -0.132298 12.0792 -0.140677 12.0876 -0.140677C11.9957 -0.11554 10.3493 0.370452 9.86457 2.89258C9.86457 2.89258 9.86458 2.93448 9.88965 2.89258C10.0401 2.64959 10.5499 1.87032 11.0262 2.09656C11.0262 2.09656 11.0262 2.0798 11.0346 2.04629C11.0429 1.82843 11.1934 0.956995 12.0709 -0.123919Z" fill="black"/>
<path d="M10.8006 22.6423C10.4412 21.9217 8.1597 16.9193 8.1597 16.9193C7.44934 17.1456 6.56347 16.5674 6.56347 16.5674C7.6917 19.5672 10.3409 22.1815 10.7588 22.6591C10.7588 22.6591 10.7672 22.6591 10.7672 22.6674C10.8424 22.7429 10.8424 22.7177 10.8424 22.7177C10.834 22.701 10.8173 22.6758 10.8006 22.6423Z" fill="black"/>
<path d="M8.53578 6.32805C6.47154 11.0623 11.1182 13.0063 11.1767 13.0314L10.9343 11.9421L10.7922 11.322C10.6836 11.2885 10.5666 11.2466 10.4579 11.1964C10.4245 11.1796 10.3911 11.1628 10.3493 11.1461C10.3075 11.1209 10.2657 11.1042 10.2239 11.079C8.19313 9.99813 8.3937 7.40896 8.51906 6.56267C8.51906 6.55429 8.51906 6.55429 8.51906 6.54591C8.52742 6.52077 8.52742 6.49563 8.52742 6.47887C8.53578 6.40346 8.55249 6.34481 8.56085 6.31967C8.56085 6.30291 8.56085 6.29453 8.56085 6.29453C8.57756 6.23588 8.54413 6.30291 8.53578 6.32805Z" fill="black"/>
<path d="M11.5945 19.6509L11.2602 13.7101L13.2576 20.338C13.2492 20.3297 12.5974 18.7627 11.5945 19.6509Z" fill="#BBC4CA"/>
<path d="M11.7115 2.55742L12.1545 6.11019C12.1545 6.11019 12.3717 7.08217 11.0429 5.62419C12.004 7.5933 13.2409 8.02902 13.2409 8.02902L11.7199 2.47362C11.7115 2.49876 11.7032 2.5239 11.7115 2.55742Z" fill="#BBC4CA"/>
<path d="M9.59714 9.0429C9.4885 8.79152 9.43 8.52339 9.42164 8.24688C9.43 7.72737 9.664 7.233 10.0568 6.89783L10.0735 6.88107C10.0568 6.40346 10.0651 5.91747 10.0902 5.43985C9.58043 6.19398 8.50235 7.97875 9.78936 9.36969C9.77264 9.34455 9.74757 9.31103 9.73086 9.2859C9.68907 9.21048 9.63893 9.12669 9.59714 9.0429Z" fill="#BBC4CA"/>
<path d="M10.9427 9.76351C10.4663 8.87532 10.1738 7.90333 10.0735 6.89783C10.0735 6.88945 10.0735 6.88107 10.0735 6.87269L10.0568 6.88945C9.65564 7.22462 9.43 7.71899 9.42164 8.2385C9.42164 8.51501 9.4885 8.78315 9.59714 9.03452C9.63893 9.11832 9.68907 9.20211 9.74757 9.27752C9.76428 9.30266 9.781 9.32779 9.80607 9.36131C9.82278 9.38645 9.85621 9.41996 9.88964 9.45348C10.1989 9.78027 10.6251 9.96461 11.0764 9.96461C11.068 9.96461 11.0179 9.89758 10.9427 9.76351Z" fill="black"/>
<path d="M12.7478 21.0586C12.9567 21.0586 13.1072 21.2514 13.2409 21.5111C13.383 21.8211 13.4832 22.1396 13.5501 22.4747C13.6504 22.9104 13.7172 23.3378 13.7507 23.6059C13.7507 23.7232 13.7507 23.8154 13.7423 23.8657V23.874C13.7841 23.5892 14.202 20.8073 12.7979 20.4218C12.7979 20.4218 11.8202 20.1704 11.8787 22.215C11.887 22.1647 11.887 22.1312 11.8954 22.0893C12.2213 21.3519 12.4887 21.0586 12.7478 21.0586Z" fill="#BBC4CA"/>
<path d="M13.7507 23.5975C13.7423 23.5137 13.6504 22.9021 13.5501 22.4663C13.4832 22.1396 13.3746 21.8128 13.2409 21.5027C13.1155 21.243 12.9567 21.0503 12.7478 21.0503C12.4887 21.0586 12.2213 21.3435 11.8954 22.0725C11.8787 22.1144 11.8787 22.1563 11.8787 22.1982L12.3634 23.2707C12.3634 23.2707 12.6392 20.4051 13.734 23.8489C13.734 23.8573 13.734 23.8573 13.734 23.8657V23.8489C13.759 23.7735 13.759 23.6813 13.7507 23.5975Z" fill="black"/>
</g>
<defs>
<clipPath id="clip0_12_373">
<rect width="32" height="32" rx="16" fill="white"/>
</clipPath>
</defs>
</svg>
