<svg width="32" height="32" viewBox="0 0 32 32" fill="none" xmlns="http://www.w3.org/2000/svg">
<g clip-path="url(#clip0_13_810)">
<mask id="mask0_13_810" style="mask-type:luminance" maskUnits="userSpaceOnUse" x="0" y="0" width="32" height="32">
<path d="M0 0H32V31.9967H0V0Z" fill="white"/>
</mask>
<g mask="url(#mask0_13_810)">
<path fill-rule="evenodd" clip-rule="evenodd" d="M32 16C32 24.8366 24.8366 32 16 32C7.16344 32 0 24.8366 0 16C0 7.16344 7.16344 0 16 0C24.8366 0 32 7.16344 32 16Z" fill="#1D428A"/>
</g>
<path fill-rule="evenodd" clip-rule="evenodd" d="M16 30C14.2548 30 12.5585 29.6827 10.9767 29.0756C10.9119 28.1179 10.849 26.9734 10.7888 25.7219L9.51157 25.2871L9.51212 28.4127C9.30834 28.3059 9.10723 28.1939 8.90868 28.0768L8.90935 25.1093L9.51157 25.1308V25.1504L10.1645 25.1539L11.3435 25.1957L26.0771 25.7176C26.0183 25.7784 25.9595 25.8394 25.8995 25.8996C23.2552 28.5438 19.7396 30 16 30ZM5.25935 24.9801L7.45901 25.058C7.41512 25.7374 7.36701 26.3828 7.31435 26.9812C6.89257 26.6463 6.48701 26.286 6.10046 25.8996C5.80479 25.6039 5.5249 25.2967 5.25935 24.9801ZM7.75312 18.117C7.70679 19.8933 7.64123 21.7273 7.55279 23.4346L6.34779 23.4751L7.75312 18.117ZM7.84268 12.0008C7.84035 13.2373 7.82512 14.726 7.79401 16.3193L5.91346 23.4897L4.61479 23.5334L7.84268 12.0008ZM2.97101 21.1412C2.64857 20.3236 2.40412 19.4746 2.24123 18.6034C2.75857 18.1917 3.48668 17.5219 4.35423 16.4782L2.97101 21.1412ZM3.22601 21.746L5.05023 15.5969C5.78823 14.615 6.60157 13.3811 7.45568 11.8387L4.18601 23.5201C3.82223 22.9511 3.5019 22.3583 3.22601 21.746ZM9.50912 12.5513L9.50935 13.4126H8.85712V14.2126H9.50946L9.50957 15.0738H8.85712V15.8738H9.50979L9.51012 17.4891H8.85712V18.2892H9.51023L9.51057 19.9506H8.85712V20.7506H9.51068L9.51123 23.3687L8.90968 23.389L8.91246 11.2103H9.5089L9.50901 11.7513H8.85712V12.5513H9.50912ZM26.8287 22.7863L26.4546 21.9501C27.0717 22.1991 27.6929 22.4374 28.3177 22.6661C28.3046 22.69 28.2915 22.7138 28.2783 22.7377L26.8287 22.7863ZM27.3061 24.2606C27.2115 24.3896 27.1146 24.5171 27.0152 24.6432L10.7406 24.3244L10.7337 24.1676L27.3061 24.2606ZM11.782 23.2923L10.6817 23.3293C10.6142 21.7184 10.5517 20.0258 10.4956 18.387L11.782 23.2923ZM13.4795 23.2352L12.2088 23.278L10.4329 16.5069C10.3767 14.7611 10.3289 13.1464 10.2923 11.8479L13.4795 23.2352ZM15.3746 23.1716L13.908 23.2209L10.6805 11.6891C10.9635 12.0011 11.2533 12.306 11.5512 12.6027C11.8639 12.9146 12.1842 13.2186 12.5103 13.516L15.3746 23.1716ZM17.133 23.1124L15.8048 23.1571L13.1007 14.042C13.292 14.2083 13.4849 14.3727 13.6796 14.5349C14.0212 14.8192 14.3681 15.097 14.7196 15.369L17.133 23.1124ZM18.9442 23.0516L17.5648 23.0979L15.2911 15.8034C15.8169 16.1957 16.3521 16.5749 16.8959 16.9417L18.9442 23.0516ZM20.6963 22.9927L19.3786 23.0369L17.4607 17.3162C17.7538 17.5072 18.049 17.695 18.3466 17.8791L18.9589 18.2544L19.0415 18.3029L20.6963 22.9927ZM22.605 22.9283L21.1328 22.978L19.5981 18.6285C19.6951 18.6849 19.7912 18.7429 19.8893 18.7972L20.203 18.9718C20.4125 19.0877 20.6207 19.2059 20.8312 19.3197L21.3172 19.5766L22.605 22.9283ZM24.1398 20.9579C24.7209 21.2222 25.3067 21.4767 25.8961 21.7217L26.3792 22.8016L24.9329 22.8501L24.1398 20.9579ZM24.4877 22.8651L23.0455 22.9137L21.8755 19.8682L22.1048 19.9832L22.747 20.3048C22.9622 20.4093 23.1792 20.5104 23.3953 20.6134C23.4566 20.6422 23.5183 20.6702 23.5797 20.699L24.4877 22.8651ZM6.10046 6.10044C8.74479 3.45622 12.2605 2 16 2C19.7396 2 23.2552 3.45622 25.8995 6.10044C28.5438 8.74477 30 12.2606 30 16C30 18.0114 29.578 19.9578 28.7771 21.7389C27.0801 21.1666 25.4078 20.5204 23.771 19.7934C23.5562 19.6971 23.3405 19.6028 23.1263 19.505L22.4877 19.2036L22.1683 19.0529L21.852 18.8958L21.2199 18.5804C21.0103 18.4734 20.8031 18.3619 20.5945 18.2528L20.2818 18.0884C20.1776 18.0338 20.0757 17.9749 19.9723 17.9186L19.3545 17.5762L18.744 17.2212C17.1201 16.268 15.5555 15.2117 14.0806 14.0422C13.3439 13.4567 12.6289 12.8436 11.9481 12.1956C11.6076 11.8719 11.2767 11.5384 10.956 11.1966C10.8761 11.1109 10.7961 11.0252 10.7185 10.9377C10.6397 10.8511 10.5625 10.7634 10.4862 10.675C10.4092 10.5871 10.335 10.4976 10.261 10.408C10.2581 10.4044 10.2551 10.4008 10.2523 10.3972C10.2246 9.36889 10.2095 8.75455 10.2095 8.75455L9.50835 8.58944L9.50857 9.52877H8.91279L8.91301 8.54255L8.16135 8.72133L8.16712 9.07955L7.81579 9.27077C7.82546 9.56489 7.83268 9.94889 7.83723 10.4064C7.55301 10.9026 4.44979 16.2621 2.12957 17.9109C2.04435 17.2828 2.00001 16.6449 2.00001 16C2.00001 12.2606 3.45623 8.74477 6.10046 6.10044ZM26.4652 5.53477C23.6698 2.73944 19.9532 1.2 16 1.2C12.0468 1.2 8.33023 2.73944 5.53479 5.53477C2.73946 8.33022 1.20001 12.0468 1.20001 16C1.20001 19.9532 2.73946 23.6698 5.53479 26.4652C8.33023 29.2606 12.0468 30.8 16 30.8C19.9532 30.8 23.6698 29.2606 26.4652 26.4652C29.2605 23.6698 30.8 19.9532 30.8 16C30.8 12.0468 29.2605 8.33022 26.4652 5.53477Z" fill="#FDB927"/>
</g>
<defs>
<clipPath id="clip0_13_810">
<rect width="32" height="32" fill="white"/>
</clipPath>
</defs>
</svg>
