<svg width="32" height="32" viewBox="0 0 32 32" fill="none" xmlns="http://www.w3.org/2000/svg">
<rect x="0.5" y="0.5" width="31" height="31" rx="15.5" fill="white"/>
<rect x="0.5" y="0.5" width="31" height="31" rx="15.5" stroke="#CE1141"/>
<path d="M19.984 15.152L20.016 12.488C20.016 11.24 18.712 11.032 17.752 11.04C18.392 10.824 19.168 10.464 19.728 9.856C20.32 9.312 20.736 8.544 20.664 7.472C20.544 5.664 18.28 4.768 14.536 5.128C14.472 5.136 14.416 5.144 14.352 5.144C14.176 3.808 13.904 2.512 13.488 1.32L13.304 1.504C12.808 3.048 12.512 4.28 12.336 5.424C10.104 5.808 8.53601 6.32 8.53601 6.32L8.35201 6.504C8.35201 6.504 10.16 6.344 12.216 6.368C11.984 8.712 12.224 10.936 12.216 15.136C8.88801 15.04 5.96801 15.592 5.25601 16.488C5.02401 16.68 4.89601 16.896 4.90401 17.12C4.94401 18.136 7.96801 19.072 12.216 19.432L12.4 25.208L12.584 25.024L12.88 21.104C12.88 21.04 12.888 20.984 12.904 20.936C12.992 20.952 13.08 21.064 13.08 21.264L13.208 26.424L13.392 26.24L13.712 22.04C13.712 21.944 13.72 21.872 13.736 21.808C13.824 21.824 13.912 21.952 13.904 22.192L14.048 27.568L14.232 27.384L14.488 19.56C14.976 19.576 15.472 19.584 15.984 19.584C16.52 19.584 17.048 19.576 17.568 19.56L17.824 27.72L18.008 27.536L18.224 23.264C18.224 23.176 18.232 23.104 18.248 23.048C18.328 23.064 18.408 23.192 18.408 23.416L18.632 29.408L18.816 29.224L19.04 24.048C19.04 23.976 19.056 23.912 19.072 23.864C19.176 23.864 19.288 23.992 19.288 24.24L19.472 31.096L19.656 30.912L19.928 19.424C23.56 19.104 26.32 18.376 27.008 17.528C27.232 17.336 27.36 17.136 27.36 16.936C27.312 15.832 23.944 14.968 19.984 15.152ZM12.184 18.232C9.27201 17.952 7.30401 17.36 7.30401 16.616C7.30401 16.56 7.32001 16.512 7.35201 16.456C8.03201 15.976 10.128 15.672 12.224 15.36C12.224 16.184 12.208 17.08 12.184 18.064V18.232ZM18.12 8.2C18.232 9.024 17.992 9.648 17.568 10.12C16.808 10.808 15.616 11.12 14.648 11.264C14.664 9.712 14.64 8.096 14.504 6.512C16.376 6.712 17.984 7.184 18.12 8.2ZM17.568 18.392C17.112 18.408 16.648 18.416 16.168 18.416C15.608 18.416 15.056 18.408 14.528 18.384L14.552 17.72C14.504 16.04 14.608 13.928 14.64 11.672C16.008 11.832 17.648 12.216 17.624 13.176L17.568 18.392ZM24.816 17.096C24.136 17.632 22.336 18.048 19.952 18.256L19.984 15.392C22.712 15.744 24.928 16.144 24.928 16.8C24.928 16.896 24.888 17 24.816 17.096Z" fill="#061922"/>
<path d="M27.36 16.952C27.312 15.832 23.944 14.968 19.984 15.16L20.016 12.496C20.008 10.848 17.752 11.008 16.992 11.112C17.88 10.952 20.848 10.208 20.664 7.488C20.544 5.68 18.28 4.784 14.536 5.144C14.472 5.152 14.416 5.16 14.352 5.16C14.176 3.824 13.904 2.528 13.488 1.336C12.968 2.952 12.664 4.224 12.496 5.408C10.176 5.792 8.53602 6.336 8.53602 6.336C8.53602 6.336 10.344 6.176 12.4 6.2C12.168 8.576 12.408 10.832 12.4 15.16C8.46402 15.024 5.04802 15.784 5.08802 16.952C5.12002 17.968 8.15202 18.904 12.4 19.264L12.584 25.04L12.88 21.12C12.888 20.632 13.256 20.68 13.256 21.096L13.392 26.256L13.712 22.056C13.704 21.488 14.104 21.52 14.088 22.024L14.232 27.4L14.488 19.384C15.032 19.4 15.592 19.416 16.16 19.416C16.696 19.416 17.224 19.408 17.744 19.392L18 27.552L18.216 23.28C18.216 22.736 18.584 22.76 18.584 23.248L18.808 29.24L19.032 24.064C19.048 23.552 19.456 23.576 19.464 24.064L19.648 30.92L19.92 19.272V19.264C24.24 18.904 27.36 17.968 27.36 16.952ZM18.304 8.016C18.608 10.272 16.304 11.016 14.648 11.264C14.664 9.64 14.64 7.952 14.488 6.304C16.44 6.496 18.16 6.96 18.304 8.016ZM7.30402 16.616C7.30402 15.928 9.85603 15.56 12.408 15.176C12.408 16 12.392 16.896 12.368 17.88L12.376 18.256C9.35202 17.976 7.30402 17.376 7.30402 16.616ZM14.528 18.384L14.552 17.72C14.504 15.984 14.616 13.8 14.64 11.472C16.032 11.616 17.832 11.992 17.8 13L17.752 18.392C17.24 18.408 16.712 18.416 16.168 18.416C15.608 18.408 15.064 18.4 14.528 18.384ZM19.952 18.256L19.992 15.184C22.8 15.544 25.112 15.952 25.112 16.616C25.112 17.376 23 17.984 19.952 18.256Z" fill="#CE1141"/>
</svg>
