<svg width="32" height="32" viewBox="0 0 32 32" fill="none" xmlns="http://www.w3.org/2000/svg">
<g clip-path="url(#clip0_13_826)">
<rect width="32" height="32" rx="16" fill="white"/>
<path d="M4.83172 10.0113C4.83172 10.0113 7.89675 5 14.1725 5C20.4483 5 23.3676 9.86555 23.3676 9.86555H31.8811L31.5428 11.9575C31.5428 11.9575 31.2982 12.7849 30.9079 12.8838H31.4908C31.4908 12.8838 31.6833 13.6123 30.5177 16.1413H32.9999C32.9999 16.1413 33.0987 20.5698 27.744 22.6617C27.744 22.6617 24.9704 23.5359 23.5602 22.0268C23.5602 22.0268 20.7397 27.2827 14.1673 27.2827C7.60013 27.2827 4.62877 21.8811 4.62877 21.8811H-3L-1.78231 19.6903H-2.61492L-1.64181 17.8898H0.0129988L0.304412 17.2081H-0.470954L1.42843 13.706H2.50041L2.93753 12.634H2.01126L3.42149 10.0061H4.83172V10.0113Z" fill="white"/>
<path d="M14.2662 26.1118C19.6365 26.1118 23.9921 21.6938 23.9921 16.2402C23.9921 10.7866 19.6365 6.3686 14.2662 6.3686C8.89591 6.3686 4.54553 10.7866 4.54553 16.2402C4.54553 21.6938 8.89591 26.1118 14.2662 26.1118Z" fill="#FCB724"/>
<path d="M11.3365 18.6808C11.2064 18.6756 11.1231 18.5871 11.0919 18.4986C11.0503 18.3737 11.0555 18.1552 11.1023 18.0563L13.3503 14.065C13.3868 13.9921 13.4804 13.836 13.5897 13.836C13.7875 13.836 13.8759 13.5758 13.5377 13.5758H11.7372C11.3989 13.5758 11.3989 13.8308 11.7215 13.8308C11.8516 13.8308 11.9037 13.9609 11.8673 14.039L11.3677 14.9392C11.3052 15.0381 11.1699 15.0485 11.0242 15.0485H10.5975C10.5663 15.0485 10.5455 15.0745 10.5455 15.1006C10.5455 15.1318 10.5715 15.1526 10.5975 15.1526H11.0242C11.1387 15.1526 11.2324 15.189 11.1647 15.3191L9.50473 18.3425C9.38504 18.509 9.14567 18.5455 9.16128 18.228L9.74931 13.7996C9.77013 13.6591 9.7337 13.5654 9.58799 13.5654H8.69814C8.59407 13.5654 8.52642 13.6175 8.47438 13.6851L8.15695 14.0858C8.11532 14.1274 8.02685 14.1274 7.92798 14.1274H7.17863C7.14741 14.1274 7.1266 14.1535 7.1266 14.1795C7.1266 14.2107 7.15262 14.2315 7.17863 14.2315H7.78748C7.89676 14.2315 8.02165 14.2575 7.97481 14.3096L7.11619 15.3868C7.09017 15.418 7.00691 15.4232 6.95487 15.4232H6.7155C6.68427 15.4232 6.66346 15.4492 6.66346 15.4752C6.66346 15.5064 6.68948 15.5273 6.7155 15.5273H6.91844C6.98089 15.5273 6.98089 15.5585 6.95487 15.5845L6.14828 16.594C6.10665 16.6357 6.02859 16.6409 5.94533 16.6409H5.23241C5.20119 16.6409 5.18038 16.6669 5.18038 16.6929C5.18038 16.7241 5.20639 16.745 5.23241 16.745H5.84126C5.93493 16.745 6.00778 16.7606 5.95574 16.823L4.81091 18.2593C4.59755 18.5351 3.56199 18.6704 3.35905 18.6704L7.23067 11.4267C7.2671 11.3434 7.4128 11.2185 7.55851 11.2185H8.38071C8.76579 11.2185 8.75538 10.9583 8.42234 10.9583H4.29053C3.95228 10.9583 3.94187 11.2185 4.32695 11.2185H5.09191C5.31047 11.2185 5.37812 11.3486 5.32088 11.4579L5.2116 11.6556C5.17517 11.7181 5.12313 11.7441 4.91498 11.7441H3.56199C3.53077 11.7441 3.50996 11.7701 3.50996 11.7961C3.50996 11.8274 3.53598 11.8482 3.56199 11.8482H4.90978C4.98263 11.8482 5.09191 11.869 5.02426 11.9991L4.83693 12.3529C4.8057 12.405 4.72244 12.431 4.62877 12.431H4.01473C3.9835 12.431 3.96269 12.457 3.96269 12.483C3.96269 12.5143 3.98871 12.5351 4.01473 12.5351H4.62357C4.71203 12.5351 4.71203 12.5923 4.66 12.6756L4.22288 13.4822C4.18645 13.5498 4.1136 13.5602 3.9783 13.5602H3.73372C3.7025 13.5602 3.68168 13.5862 3.68168 13.6123C3.68168 13.6435 3.7077 13.6643 3.73372 13.6643H3.97309C4.06676 13.6643 4.08758 13.7163 4.04595 13.8048L3.68689 14.4709C3.63485 14.5646 3.55679 14.601 3.31742 14.601H1.96443C1.93321 14.601 1.91239 14.627 1.91239 14.653C1.91239 14.679 1.93841 14.7051 1.96443 14.7051H3.31221C3.46312 14.7051 3.52036 14.7727 3.46312 14.882L2.76581 16.1933C2.72418 16.2506 2.6097 16.261 2.41716 16.261H1.06417C1.03295 16.261 1.01213 16.287 1.01213 16.313C1.01213 16.3443 1.03815 16.3651 1.06417 16.3651H2.41196C2.57327 16.3651 2.67215 16.3703 2.62531 16.4587L2.22462 17.2133C2.15177 17.3278 1.94361 17.3278 1.86035 17.3278H1.43364C1.40242 17.3278 1.3816 17.3538 1.3816 17.3798C1.3816 17.411 1.40762 17.4319 1.43364 17.4319H1.86035C2.01126 17.4319 2.08932 17.4579 2.05289 17.5411L1.5169 18.5507C1.48048 18.686 1.27232 18.6912 1.11101 18.6912H-0.980921C-1.01214 18.6912 -1.03296 18.7172 -1.03296 18.7432C-1.03296 18.7744 -1.00694 18.7952 -0.980921 18.7952H1.1058C1.2463 18.7952 1.41803 18.8109 1.35558 18.9253L1.01213 19.5706C0.980911 19.6227 0.861223 19.6279 0.694702 19.6279H0.267991C0.236768 19.6279 0.215952 19.6539 0.215952 19.6799C0.215952 19.7111 0.241972 19.7319 0.267991 19.7319H0.694702C0.798778 19.7319 0.923669 19.7423 0.882039 19.8204L0.668683 20.2315C0.601034 20.3356 0.52818 20.424 0.366863 20.424H-0.689508C-1.07459 20.424 -1.06418 20.6842 -0.725935 20.6842L5.43016 20.6894C5.61229 20.6894 5.6175 20.6634 5.70076 20.5333L6.61142 18.941H11.2792C11.6175 18.9462 11.5342 18.6912 11.3365 18.6808ZM7.67299 18.2072C7.62616 18.4726 7.36077 18.6443 7.03293 18.7328L6.68948 18.8213L6.97048 18.3165C7.04334 18.176 6.88202 18.0979 6.70509 18.3009C5.51342 19.6903 5.13354 20.3564 3.2966 20.3564H2.80224C2.65133 20.3564 2.49001 20.2991 2.58888 20.1534L3.23936 18.941H5.71116C6.04941 18.941 5.96095 18.686 5.7632 18.6808C5.63311 18.6756 5.4874 18.6027 5.38853 18.4414C5.36251 18.3946 5.30006 18.2228 5.39373 18.0875L6.34082 16.8282H7.91237L7.67299 18.2072ZM8.02685 16.6201H6.49173L8.43275 14.0598L8.02685 16.6201Z" fill="#552C81"/>
<path d="M18.6947 17.2497C17.7841 18.3529 17.2741 18.7276 16.3478 18.7276C16.0356 18.7276 15.8691 18.66 15.9575 18.5038L17.0503 16.3026H17.4666C17.935 16.3026 17.8673 16.6929 17.7424 17.2289C17.7216 17.3018 17.7737 17.307 17.8309 17.2445L18.8717 15.418C18.9237 15.3035 18.7936 15.2775 18.726 15.366C18.2056 16.0737 17.6592 16.0216 17.425 16.0216H17.2377L18.4085 13.7892H18.8821C19.4753 13.8256 19.7511 14.3304 19.5794 15.5429H19.824L20.6826 13.8464C20.7502 13.7059 20.6045 13.5706 20.4432 13.5706H14.6097C14.2715 13.5706 14.2559 13.8308 14.5785 13.8308C14.8387 13.8308 14.8283 14.2055 14.5941 14.3876L12.1171 16.3547L12.6167 18.6756C12.6531 18.8525 12.7676 18.9358 12.9601 18.9358H17.7841C17.9818 18.9358 18.0651 18.8525 18.1275 18.7692L19.0018 17.2601C19.1266 17.052 18.8508 17.0676 18.6947 17.2497ZM15.3383 16.1934L14.9116 16.1882C14.8803 16.1882 14.8595 16.2142 14.8595 16.2402C14.8595 16.2662 14.8855 16.2922 14.9116 16.2922L15.3435 16.287C15.4892 16.287 15.6245 16.3078 15.5881 16.3703L14.4744 18.4986C14.3339 18.7536 14.0425 18.686 13.9957 18.483L13.4441 15.6314L15.3851 14.1275C15.5777 13.9609 15.9471 13.6903 16.1397 13.6955H16.5612C16.8214 13.6955 16.9098 13.8152 16.8474 13.9713L16.7745 14.117C16.7277 14.2003 16.5716 14.2055 16.4467 14.2055H16.2021C16.1709 14.2055 16.1501 14.2315 16.1501 14.2575C16.1501 14.2888 16.1761 14.3096 16.2021 14.3096H16.4415C16.5456 14.3096 16.6757 14.3096 16.6288 14.3876L15.7286 16.1049C15.6817 16.1778 15.4944 16.1934 15.3383 16.1934Z" fill="#552C81"/>
<path d="M31.3762 17.4111C31.3502 17.2862 31.3034 17.3642 31.2201 17.5203C31.1941 17.5672 31.116 17.5724 31.0328 17.5724H30.7882C30.757 17.5724 30.7362 17.5984 30.7362 17.6244C30.7362 17.6556 30.7622 17.6764 30.7882 17.6764H31.0328C31.1265 17.6764 31.1265 17.7389 31.0848 17.8326C30.9131 18.1968 30.7414 18.4362 30.5072 18.7276C30.4708 18.7744 30.3771 18.8109 30.3043 18.8109H30.0545C30.0232 18.8109 30.0024 18.8369 30.0024 18.8629C30.0024 18.8941 30.0285 18.915 30.0545 18.915H30.299C30.4187 18.915 30.2991 18.9878 30.2782 19.019C29.8463 19.5914 29.5497 19.8516 29.2323 20.1066C29.1958 20.1378 29.0189 20.1274 28.894 20.1274H28.6494C28.6182 20.1274 28.5974 20.1535 28.5974 20.1795C28.5974 20.2107 28.6234 20.2315 28.6494 20.2315H28.8888C29.071 20.2315 28.9357 20.3356 28.9096 20.3616C28.2383 20.9184 27.2392 21.1005 26.7813 21.0433C25.2982 20.856 24.9912 19.7319 24.8819 19.2792C24.8611 19.1856 24.7882 18.993 24.7622 18.8733C24.7154 18.6392 25.3867 18.5715 25.5688 18.6964C25.8498 18.8837 26.5055 19.0763 27.0207 19.0763C27.4942 19.0763 28.4725 18.7328 28.7535 17.9158C29.0397 17.078 28.3164 16.1517 27.9938 15.8291C27.5827 15.418 27.1976 14.7675 27.3641 14.294C27.489 13.9349 27.6919 13.7684 28.1343 13.7684C28.7015 13.7684 29.1178 14.1327 29.1178 14.653C29.1178 14.6999 29.0866 14.7519 29.0501 14.7519H28.8472C28.816 14.7519 28.7952 14.7779 28.7952 14.804C28.7952 14.8352 28.8212 14.856 28.8472 14.856H29.0345C29.0866 14.856 29.123 14.8976 29.1074 14.9601C29.071 15.1318 29.0605 15.2567 29.0189 15.4284C28.9981 15.5273 29.1438 15.6001 29.1958 15.5273L30.0909 13.9349C30.1533 13.8152 30.0128 13.784 29.9036 13.8204C29.659 13.9037 29.2635 13.9661 29.123 13.8621C28.7899 13.6227 28.4829 13.4666 28.0198 13.4666C27.2288 13.4666 26.672 13.6643 26.3129 14.3148C26.2869 14.3668 26.2089 14.3668 26.1412 14.3668H25.9903C25.9591 14.3668 25.9383 14.3929 25.9383 14.4189C25.9383 14.4501 25.9643 14.4709 25.9903 14.4709H26.1204C26.1776 14.4709 26.2141 14.4865 26.188 14.549C26.162 14.6062 26.1412 14.6687 26.1204 14.7363C26.0319 15.0173 26.058 15.418 26.1985 15.7667C26.2089 15.7875 26.1776 15.8031 26.1256 15.8031H25.881C25.8498 15.8031 25.829 15.8291 25.829 15.8551C25.829 15.8811 25.855 15.9072 25.881 15.9072H26.1256C26.2349 15.9072 26.2609 15.9176 26.3077 15.9852C26.4326 16.1621 26.5627 16.2922 26.724 16.4952C26.7761 16.5576 26.5575 16.5784 26.443 16.5784H25.4803C25.4491 16.5784 25.4283 16.6045 25.4283 16.6305C25.4283 16.6617 25.4543 16.6825 25.4803 16.6825H26.4534C26.6096 16.6825 26.8802 16.6825 26.9062 16.7137C27.1403 16.9843 27.4266 17.4059 27.4734 17.7597C27.489 17.8586 27.4474 17.9054 27.3225 17.9054H27.1924C27.1612 17.9054 27.1403 17.9314 27.1403 17.9575C27.1403 17.9887 27.1664 18.0095 27.1924 18.0095H27.3069C27.4057 18.0095 27.4578 18.0251 27.437 18.098C27.3121 18.5039 27.1195 18.7953 26.3494 18.7901C25.5428 18.7849 25.3763 17.9939 25.6156 17.1665C25.6625 17 25.6156 16.9323 25.5376 17.0624L24.9756 17.947C24.96 17.9679 24.9079 18.0199 24.8195 18.0199H24.7414C24.7102 18.0199 24.6894 18.0459 24.6894 18.0719C24.6894 18.1032 24.7154 18.124 24.7466 18.124C24.8195 18.124 24.8455 18.1604 24.8195 18.202L24.6113 18.5247C24.2731 17.7493 23.7006 16.7918 23.3988 16.4431L23.404 16.4275C24.1534 16.3807 25.2618 15.6782 25.4387 15.0537C25.7509 13.9661 24.6946 13.5602 24.1169 13.5602H21.5827C21.2444 13.5602 21.2236 13.8152 21.5463 13.8152C21.7232 13.8152 21.8741 13.9661 21.796 14.1223L21.234 15.1318C21.1872 15.2151 21.0155 15.2098 20.7865 15.2098H20.5419C20.5107 15.2098 20.4899 15.2359 20.4899 15.2619C20.4899 15.2931 20.5159 15.3139 20.5419 15.3139H20.7813C20.9426 15.3139 21.1195 15.3243 21.0623 15.4388L20.3962 16.6357C20.365 16.6929 20.2765 16.6981 20.0528 16.6981H19.8082C19.777 16.6981 19.7562 16.7242 19.7562 16.7502C19.7562 16.7814 19.7822 16.8022 19.8082 16.8022H20.0476C20.2245 16.8022 20.2921 16.8282 20.2401 16.9167L19.3555 18.5195C19.2514 18.6339 19.1213 18.6548 18.9079 18.6548C18.5853 18.6548 18.5905 18.9097 18.9235 18.9097H21.0935C21.4318 18.9097 21.3433 18.6496 21.1456 18.6496C21.0311 18.6496 20.9062 18.4362 20.9843 18.3061L22.0927 16.209H22.2071C22.7015 16.209 22.8212 17.0156 22.9097 17.9002C22.9149 17.9627 22.7952 17.9679 22.5506 17.9679H21.9365C21.9053 17.9679 21.8845 17.9939 21.8845 18.0199C21.8845 18.0511 21.9105 18.0719 21.9365 18.0719H22.5454C22.7067 18.0719 22.9305 18.0719 22.9409 18.124C22.9825 18.5091 23.0137 18.8525 23.0866 19.1647C23.1074 19.2636 22.9357 19.248 22.7535 19.248H21.9678C21.9365 19.248 21.9157 19.274 21.9157 19.3C21.9157 19.3313 21.9418 19.3521 21.9678 19.3521H22.7535C22.9981 19.3521 23.1282 19.3521 23.1386 19.4041C23.4769 20.6426 24.9235 21.6157 26.3338 21.5637C27.541 21.5169 28.561 20.8612 29.0866 20.4397C29.7787 19.8829 30.8038 18.7172 31.2149 17.8638C31.2774 17.7493 31.4023 17.5516 31.3762 17.4111ZM23.2531 15.7615C23.0814 15.902 22.816 16.0581 22.7639 16.0112C22.6911 15.9384 22.4673 15.7875 22.3476 15.7302L23.352 13.8933C23.3936 13.8308 23.4404 13.7944 23.5497 13.7944C23.94 13.7944 24.0701 14.2211 23.888 14.7467C23.7631 15.1162 23.5549 15.5169 23.2531 15.7615Z" fill="#552C81"/>
<path d="M11.0347 11.9471C10.8318 12.2124 10.5612 12.2749 10.2594 12.2749H10.1761L10.7121 11.2185C10.7381 11.1717 10.7954 11.1301 10.863 11.1301C10.9307 11.1301 10.9203 10.9948 10.8318 10.9948H9.98877C9.91592 10.9948 9.8899 11.1301 9.95755 11.1301C10.0304 11.1301 10.0408 11.2081 10.0096 11.2758L9.53084 12.2177C9.49961 12.2697 9.44757 12.2801 9.38513 12.2957C9.31748 12.3165 9.26544 12.4466 9.3487 12.4466H10.6913C10.7954 12.4466 10.8214 12.4102 10.8474 12.3686L11.118 11.9523C11.1544 11.9002 11.0764 11.895 11.0347 11.9471Z" fill="#552583"/>
<path d="M15.0832 11.0364C15.0415 11.0572 14.9479 11.0728 14.9062 11.0364C14.7969 10.9479 14.5888 10.8803 14.4795 10.8803C14.1621 10.8803 13.9331 10.9427 13.7978 11.2393C13.6781 11.4943 13.803 11.7077 14.0788 11.8378C14.1985 11.895 14.3598 11.9679 14.2974 12.1136C14.2505 12.2177 14.1309 12.2333 14.0164 12.2281C13.8655 12.2281 13.6417 12.1136 13.6053 11.9002C13.5949 11.8326 13.5116 11.8482 13.4908 11.8846L13.2982 12.2645C13.267 12.3165 13.3451 12.3738 13.3763 12.3373C13.4388 12.2697 13.5793 12.2541 13.6521 12.2957C13.7458 12.3582 13.9904 12.4726 14.1361 12.4674C14.4587 12.4674 14.6668 12.3842 14.8438 12.1084C15.0051 11.8586 14.9062 11.6088 14.6148 11.4683C14.4587 11.3955 14.3286 11.2654 14.3963 11.1249C14.4431 11.0312 14.5784 11.052 14.646 11.0624C14.7761 11.0832 14.9427 11.2081 14.9635 11.3174C14.9739 11.3642 15.0311 11.3746 15.0571 11.333L15.156 11.0988C15.182 11.0572 15.1092 11.0208 15.0832 11.0364Z" fill="#552583"/>
<path d="M24.4032 11.4163L24.5177 11.2029C24.5697 11.1093 24.4864 11 24.3511 11H22.7848C22.6703 11 22.7067 11.1197 22.7536 11.1197C22.8525 11.1197 22.8837 11.2446 22.8212 11.3434L22.3477 12.2125C22.28 12.2957 22.2332 12.3322 22.1291 12.3322C22.0459 12.3322 22.0198 12.4518 22.1343 12.4518H23.7215C23.7839 12.4518 23.8152 12.431 23.836 12.3946L24.0545 12.1084C24.1066 12.0407 23.9921 12.0407 23.9609 12.072C23.6851 12.3478 23.3937 12.3374 23.1803 12.3374H22.9982L23.2167 11.8534H23.2636C23.4041 11.8534 23.5654 11.8534 23.607 11.9575C23.6174 11.9835 23.6851 12.0043 23.7163 11.9575L23.9036 11.588C23.9348 11.5308 23.8516 11.5204 23.8256 11.562C23.7527 11.6921 23.4301 11.6557 23.3468 11.6557H23.3L23.5706 11.1197H23.8724C24.0597 11.1197 24.2211 11.255 24.2731 11.3955C24.2835 11.4319 24.3824 11.4579 24.4032 11.4163Z" fill="#552583"/>
<path d="M20.3911 10.9948H19.8343C19.7198 10.9948 19.7563 11.1144 19.8031 11.1144C19.9228 11.1144 20.0321 11.2549 19.9644 11.385L19.7354 11.8065L19.2255 11.0624C19.1891 11.0156 19.111 10.9948 19.0433 10.9948H18.4917C18.3773 10.9948 18.4033 11.1092 18.4501 11.1092C18.5646 11.1092 18.5386 11.1977 18.5074 11.2601L18.0702 12.1032C18.0442 12.1708 17.9245 12.1812 17.8881 12.0928L17.5499 10.9896C17.5342 10.9479 17.3365 10.9479 17.2897 10.9896L16.4414 11.6869H16.0043C15.9159 11.6869 15.8846 11.7233 15.8846 11.7701C15.8846 11.817 15.9159 11.8586 16.0095 11.8586H16.2385L16.0095 12.0459C15.8794 12.1396 15.7493 12.2697 15.6661 12.2697H15.614C15.5308 12.2697 15.4839 12.2853 15.4839 12.3477C15.4839 12.4154 15.5204 12.4362 15.5984 12.4362H16.2853C16.4154 12.4362 16.3894 12.2697 16.327 12.2697C16.2541 12.2697 16.1396 12.1812 16.2489 12.0511L16.4571 11.8534H16.8682C17.1127 11.8534 17.2845 12.1344 17.1388 12.2229L17.0243 12.2853C16.9722 12.3113 16.9462 12.4362 17.0243 12.4362H18.3616C18.4605 12.4362 18.4397 12.3061 18.3929 12.3061C18.2576 12.3061 18.32 12.1084 18.346 12.0563L18.6999 11.3902L19.1943 12.3477C19.2255 12.405 19.2567 12.4362 19.3139 12.4362H19.5013C19.5637 12.4362 19.5793 12.3998 19.6106 12.3529L20.1726 11.3382C20.261 11.1561 20.3339 11.104 20.4484 11.104C20.4692 11.1144 20.5056 10.9948 20.3911 10.9948ZM16.6496 11.6921L17.17 11.2654V11.6921H16.6496Z" fill="#552583"/>
<path d="M12.4656 10.9323C11.9973 10.9323 11.5081 11.1665 11.4145 11.6556C11.3312 12.0876 11.6278 12.5299 12.1534 12.5299C12.653 12.5299 13.1161 12.202 13.2098 11.7285C13.2982 11.2549 12.9444 10.9323 12.4656 10.9323ZM12.6009 11.8378C12.45 12.1344 12.2002 12.3113 12.0441 12.2333C11.8828 12.1552 11.8776 11.8482 12.0285 11.5516C12.1794 11.2549 12.4292 11.078 12.5853 11.1561C12.7414 11.2341 12.7466 11.5412 12.6009 11.8378Z" fill="#552583"/>
<path d="M21.9834 11.6556H21.3798C21.2653 11.6556 21.3017 11.7753 21.3486 11.7753C21.3954 11.7753 21.4422 11.8013 21.4422 11.8742C21.4422 12.1188 21.3381 12.2124 21.13 12.2124C20.901 12.2124 20.8178 11.9314 20.9739 11.5932C21.0728 11.3746 21.3329 11.1717 21.6452 11.1717C21.8377 11.1717 21.9938 11.2133 22.0198 11.3902C22.025 11.4319 22.0927 11.4319 22.1135 11.3902L22.2592 11.1353C22.2748 11.1092 22.2488 11.0728 22.2072 11.0728C22.1708 11.0728 22.0875 11.1196 22.0355 11.078C21.9158 10.9895 21.6504 10.9011 21.4526 10.9011C21.13 10.9011 20.6773 10.9739 20.3702 11.5047C20.0944 11.9835 20.4951 12.4934 20.8698 12.4934C21.078 12.4934 21.3173 12.3425 21.4578 12.2801L21.614 12.3842C21.6348 12.4102 21.6868 12.4466 21.7336 12.4466H21.7909C21.8429 12.4466 21.8637 12.3738 21.8845 12.3269L22.1239 11.7545C22.1291 11.6973 22.1135 11.6556 21.9834 11.6556Z" fill="#552583"/>
<path d="M30.2627 11.0364C30.221 11.0572 30.1274 11.0728 30.0857 11.0364C29.9764 10.9479 29.7683 10.8803 29.659 10.8803C29.3416 10.8803 29.1126 10.9427 28.9773 11.2393C28.8576 11.4943 28.9825 11.7077 29.2583 11.8378C29.378 11.895 29.5393 11.9679 29.4769 12.1136C29.4301 12.2177 29.3052 12.2333 29.1959 12.2281C29.045 12.2281 28.8212 12.1136 28.7848 11.9002C28.7744 11.8326 28.6911 11.8482 28.6703 11.8846L28.4778 12.2645C28.4465 12.3165 28.5246 12.3738 28.5558 12.3373C28.6183 12.2697 28.7588 12.2541 28.8316 12.2957C28.9253 12.3582 29.1699 12.4726 29.3156 12.4674C29.6382 12.4674 29.8464 12.3842 30.0233 12.1084C30.1846 11.8586 30.0857 11.6088 29.7943 11.4683C29.6382 11.3955 29.5081 11.2654 29.5758 11.1249C29.6226 11.0312 29.7579 11.052 29.8255 11.0624C29.9556 11.0832 30.1222 11.2081 30.143 11.3174C30.1534 11.3642 30.2106 11.3746 30.2366 11.333L30.3355 11.0988C30.3615 11.0572 30.2887 11.0208 30.2627 11.0364Z" fill="#552583"/>
<path d="M26.058 11.9471C25.855 12.2124 25.5844 12.2749 25.2826 12.2749H25.1994L25.7354 11.2185C25.7614 11.1717 25.8186 11.1301 25.8863 11.1301C25.9539 11.1301 25.9435 10.9948 25.855 10.9948H25.012C24.9392 10.9948 24.9132 11.1301 24.9808 11.1301C25.0537 11.1301 25.0641 11.2081 25.0328 11.2758L24.5541 12.2177C24.5229 12.2697 24.4708 12.2801 24.4084 12.2957C24.3407 12.3165 24.2887 12.4466 24.372 12.4466H25.7145C25.8186 12.4466 25.8446 12.4102 25.8707 12.3686L26.1412 11.9523C26.1777 11.9002 26.0996 11.895 26.058 11.9471Z" fill="#552583"/>
<path d="M28.0875 11.1197C28.2748 11.1197 28.4361 11.255 28.4882 11.3955C28.4986 11.4319 28.6027 11.4579 28.6235 11.4163L28.738 11.2029C28.79 11.1093 28.7067 11 28.5714 11H26.9999C26.8854 11 26.9218 11.1197 26.9687 11.1197C27.0675 11.1197 27.0988 11.2446 27.0363 11.3434L26.5628 12.2125C26.4899 12.2957 26.4483 12.3322 26.3442 12.3322C26.2662 12.3322 26.2349 12.4518 26.3494 12.4518H27.9366C27.999 12.4518 28.0302 12.431 28.0511 12.3946L28.2696 12.1084C28.3217 12.0407 28.2072 12.0407 28.176 12.072C27.9002 12.3478 27.6087 12.3374 27.3954 12.3374H27.2133L27.4318 11.8534H27.4786C27.6191 11.8534 27.7805 11.8534 27.8221 11.9575C27.8325 11.9835 27.9002 12.0043 27.9314 11.9575L28.1187 11.588C28.1499 11.5308 28.0667 11.5256 28.0407 11.562C27.9678 11.6921 27.6452 11.6557 27.5619 11.6557H27.5151L27.7857 11.1197H28.0875Z" fill="#552583"/>
<path d="M11.0347 11.9471C10.8318 12.2124 10.5612 12.2749 10.2594 12.2749H10.1761L10.7121 11.2185C10.7381 11.1717 10.7954 11.1301 10.863 11.1301C10.9307 11.1301 10.9203 10.9948 10.8318 10.9948H9.98877C9.91592 10.9948 9.8899 11.1301 9.95755 11.1301C10.0304 11.1301 10.0408 11.2081 10.0096 11.2758L9.53084 12.2177C9.49961 12.2697 9.44757 12.2801 9.38513 12.2957C9.31748 12.3165 9.26544 12.4466 9.3487 12.4466H10.6913C10.7954 12.4466 10.8214 12.4102 10.8474 12.3686L11.118 11.9523C11.1544 11.9002 11.0764 11.895 11.0347 11.9471Z" fill="#552C81"/>
<path d="M15.0832 11.0364C15.0415 11.0572 14.9479 11.0728 14.9062 11.0364C14.7969 10.9479 14.5888 10.8803 14.4795 10.8803C14.1621 10.8803 13.9331 10.9427 13.7978 11.2393C13.6781 11.4943 13.803 11.7077 14.0788 11.8378C14.1985 11.895 14.3598 11.9679 14.2974 12.1136C14.2505 12.2177 14.1309 12.2333 14.0164 12.2281C13.8655 12.2281 13.6417 12.1136 13.6053 11.9002C13.5949 11.8326 13.5116 11.8482 13.4908 11.8846L13.2982 12.2645C13.267 12.3165 13.3451 12.3738 13.3763 12.3373C13.4388 12.2697 13.5793 12.2541 13.6521 12.2957C13.7458 12.3582 13.9904 12.4726 14.1361 12.4674C14.4587 12.4674 14.6668 12.3842 14.8438 12.1084C15.0051 11.8586 14.9062 11.6088 14.6148 11.4683C14.4587 11.3955 14.3286 11.2654 14.3963 11.1249C14.4431 11.0312 14.5784 11.052 14.646 11.0624C14.7761 11.0832 14.9427 11.2081 14.9635 11.3174C14.9739 11.3642 15.0311 11.3746 15.0571 11.333L15.156 11.0988C15.182 11.0572 15.1092 11.0208 15.0832 11.0364Z" fill="#552C81"/>
<path d="M24.4032 11.4163L24.5177 11.2029C24.5697 11.1093 24.4864 11 24.3511 11H22.7848C22.6703 11 22.7067 11.1197 22.7536 11.1197C22.8525 11.1197 22.8837 11.2446 22.8212 11.3434L22.3477 12.2125C22.28 12.2957 22.2332 12.3322 22.1291 12.3322C22.0459 12.3322 22.0198 12.4518 22.1343 12.4518H23.7215C23.7839 12.4518 23.8152 12.431 23.836 12.3946L24.0545 12.1084C24.1066 12.0407 23.9921 12.0407 23.9609 12.072C23.6851 12.3478 23.3937 12.3374 23.1803 12.3374H22.9982L23.2167 11.8534H23.2636C23.4041 11.8534 23.5654 11.8534 23.607 11.9575C23.6174 11.9835 23.6851 12.0043 23.7163 11.9575L23.9036 11.588C23.9348 11.5308 23.8516 11.5204 23.8256 11.562C23.7527 11.6921 23.4301 11.6557 23.3468 11.6557H23.3L23.5706 11.1197H23.8724C24.0597 11.1197 24.2211 11.255 24.2731 11.3955C24.2835 11.4319 24.3824 11.4579 24.4032 11.4163Z" fill="#552C81"/>
<path d="M20.3911 10.9948H19.8343C19.7198 10.9948 19.7563 11.1144 19.8031 11.1144C19.9228 11.1144 20.0321 11.2549 19.9644 11.385L19.7354 11.8065L19.2255 11.0624C19.1891 11.0156 19.111 10.9948 19.0433 10.9948H18.4917C18.3773 10.9948 18.4033 11.1092 18.4501 11.1092C18.5646 11.1092 18.5386 11.1977 18.5074 11.2601L18.0702 12.1032C18.0442 12.1708 17.9245 12.1812 17.8881 12.0928L17.5499 10.9896C17.5342 10.9479 17.3365 10.9479 17.2897 10.9896L16.4414 11.6869H16.0043C15.9159 11.6869 15.8846 11.7233 15.8846 11.7701C15.8846 11.817 15.9159 11.8586 16.0095 11.8586H16.2385L16.0095 12.0459C15.8794 12.1396 15.7493 12.2697 15.6661 12.2697H15.614C15.5308 12.2697 15.4839 12.2853 15.4839 12.3477C15.4839 12.4154 15.5204 12.4362 15.5984 12.4362H16.2853C16.4154 12.4362 16.3894 12.2697 16.327 12.2697C16.2541 12.2697 16.1396 12.1812 16.2489 12.0511L16.4571 11.8534H16.8682C17.1127 11.8534 17.2845 12.1344 17.1388 12.2229L17.0243 12.2853C16.9722 12.3113 16.9462 12.4362 17.0243 12.4362H18.3616C18.4605 12.4362 18.4397 12.3061 18.3929 12.3061C18.2576 12.3061 18.32 12.1084 18.346 12.0563L18.6999 11.3902L19.1943 12.3477C19.2255 12.405 19.2567 12.4362 19.3139 12.4362H19.5013C19.5637 12.4362 19.5793 12.3998 19.6106 12.3529L20.1726 11.3382C20.261 11.1561 20.3339 11.104 20.4484 11.104C20.4692 11.1144 20.5056 10.9948 20.3911 10.9948ZM16.6496 11.6921L17.17 11.2654V11.6921H16.6496Z" fill="#552C81"/>
<path d="M12.4656 10.9323C11.9973 10.9323 11.5081 11.1665 11.4145 11.6556C11.3312 12.0876 11.6278 12.5299 12.1534 12.5299C12.653 12.5299 13.1161 12.202 13.2098 11.7285C13.2982 11.2549 12.9444 10.9323 12.4656 10.9323ZM12.6009 11.8378C12.45 12.1344 12.2002 12.3113 12.0441 12.2333C11.8828 12.1552 11.8776 11.8482 12.0285 11.5516C12.1794 11.2549 12.4292 11.078 12.5853 11.1561C12.7414 11.2341 12.7466 11.5412 12.6009 11.8378Z" fill="#552C81"/>
<path d="M21.9834 11.6556H21.3798C21.2653 11.6556 21.3017 11.7753 21.3486 11.7753C21.3954 11.7753 21.4422 11.8013 21.4422 11.8742C21.4422 12.1188 21.3381 12.2124 21.13 12.2124C20.901 12.2124 20.8178 11.9314 20.9739 11.5932C21.0728 11.3746 21.3329 11.1717 21.6452 11.1717C21.8377 11.1717 21.9938 11.2133 22.0198 11.3902C22.025 11.4319 22.0927 11.4319 22.1135 11.3902L22.2592 11.1353C22.2748 11.1092 22.2488 11.0728 22.2072 11.0728C22.1708 11.0728 22.0875 11.1196 22.0355 11.078C21.9158 10.9895 21.6504 10.9011 21.4526 10.9011C21.13 10.9011 20.6773 10.9739 20.3702 11.5047C20.0944 11.9835 20.4951 12.4934 20.8698 12.4934C21.078 12.4934 21.3173 12.3425 21.4578 12.2801L21.614 12.3842C21.6348 12.4102 21.6868 12.4466 21.7336 12.4466H21.7909C21.8429 12.4466 21.8637 12.3738 21.8845 12.3269L22.1239 11.7545C22.1291 11.6973 22.1135 11.6556 21.9834 11.6556Z" fill="#552C81"/>
<path d="M30.2627 11.0364C30.221 11.0572 30.1274 11.0728 30.0857 11.0364C29.9764 10.9479 29.7683 10.8803 29.659 10.8803C29.3416 10.8803 29.1126 10.9427 28.9773 11.2393C28.8576 11.4943 28.9825 11.7077 29.2583 11.8378C29.378 11.895 29.5393 11.9679 29.4769 12.1136C29.4301 12.2177 29.3052 12.2333 29.1959 12.2281C29.045 12.2281 28.8212 12.1136 28.7848 11.9002C28.7744 11.8326 28.6911 11.8482 28.6703 11.8846L28.4778 12.2645C28.4465 12.3165 28.5246 12.3738 28.5558 12.3373C28.6183 12.2697 28.7588 12.2541 28.8316 12.2957C28.9253 12.3582 29.1699 12.4726 29.3156 12.4674C29.6382 12.4674 29.8464 12.3842 30.0233 12.1084C30.1846 11.8586 30.0857 11.6088 29.7943 11.4683C29.6382 11.3955 29.5081 11.2654 29.5758 11.1249C29.6226 11.0312 29.7579 11.052 29.8255 11.0624C29.9556 11.0832 30.1222 11.2081 30.143 11.3174C30.1534 11.3642 30.2106 11.3746 30.2366 11.333L30.3355 11.0988C30.3615 11.0572 30.2887 11.0208 30.2627 11.0364Z" fill="#552C81"/>
<path d="M26.058 11.9471C25.855 12.2124 25.5844 12.2749 25.2826 12.2749H25.1994L25.7354 11.2185C25.7614 11.1717 25.8186 11.1301 25.8863 11.1301C25.9539 11.1301 25.9435 10.9948 25.855 10.9948H25.012C24.9392 10.9948 24.9132 11.1301 24.9808 11.1301C25.0537 11.1301 25.0641 11.2081 25.0328 11.2758L24.5541 12.2177C24.5229 12.2697 24.4708 12.2801 24.4084 12.2957C24.3407 12.3165 24.2887 12.4466 24.372 12.4466H25.7145C25.8186 12.4466 25.8446 12.4102 25.8707 12.3686L26.1412 11.9523C26.1777 11.9002 26.0996 11.895 26.058 11.9471Z" fill="#552C81"/>
<path d="M28.0875 11.1197C28.2748 11.1197 28.4361 11.255 28.4882 11.3955C28.4986 11.4319 28.6027 11.4579 28.6235 11.4163L28.738 11.2029C28.79 11.1093 28.7067 11 28.5714 11H26.9999C26.8854 11 26.9218 11.1197 26.9687 11.1197C27.0675 11.1197 27.0988 11.2446 27.0363 11.3434L26.5628 12.2125C26.4899 12.2957 26.4483 12.3322 26.3442 12.3322C26.2662 12.3322 26.2349 12.4518 26.3494 12.4518H27.9366C27.999 12.4518 28.0302 12.431 28.0511 12.3946L28.2696 12.1084C28.3217 12.0407 28.2072 12.0407 28.176 12.072C27.9002 12.3478 27.6087 12.3374 27.3954 12.3374H27.2133L27.4318 11.8534H27.4786C27.6191 11.8534 27.7805 11.8534 27.8221 11.9575C27.8325 11.9835 27.9002 12.0043 27.9314 11.9575L28.1187 11.588C28.1499 11.5308 28.0667 11.5256 28.0407 11.562C27.9678 11.6921 27.6452 11.6557 27.5619 11.6557H27.5151L27.7857 11.1197H28.0875Z" fill="#552C81"/>
<path d="M21.9054 9.84996C21.7857 9.70946 21.6192 9.41805 20.4223 8.37209C18.6634 6.83696 16.3321 6.13966 14.1413 6.13966C12.5282 6.13966 11.1127 6.50392 9.55158 7.36255C7.55852 8.46055 6.73112 9.71987 6.52817 9.98006C6.37726 10.1674 6.35645 10.2767 6.45532 10.3339C6.52297 10.3755 6.65827 10.2298 6.78316 10.0633C7.37639 9.27755 8.15696 8.50218 8.97396 8.04945C9.22894 8.08588 9.58801 8.43973 9.7233 8.63228C9.19772 8.91848 8.32869 9.57937 7.99564 9.83435C7.70943 10.0529 7.61056 10.1778 7.68862 10.2663C7.75106 10.3391 7.96962 10.1934 8.15176 10.0425C8.46919 9.78231 9.40587 9.12143 9.86901 8.87165C10.1864 9.24112 10.0824 9.92282 9.97309 10.0737C9.91584 10.1518 9.90544 10.2402 9.97309 10.2767C10.0407 10.3131 10.1084 10.2194 10.2021 10.0893C10.4154 9.77711 10.3321 9.02776 10.1448 8.75717C10.712 8.40851 11.5238 8.16914 12.013 8.05986C12.0546 8.13791 12.653 9.88119 12.7623 10.1986C12.8248 10.3703 12.8872 10.5785 13.0121 10.5421C13.0954 10.516 13.0381 10.3287 12.9705 10.1362C12.882 9.902 12.4345 8.43973 12.294 8.00262C12.4553 7.91415 13.4336 7.71641 13.6782 7.72681C13.5585 8.36168 14.006 8.62707 14.516 8.96011C14.7866 9.13704 16.5091 10.1258 16.8681 10.3495C17.0711 10.4744 17.2324 10.5577 17.274 10.4952C17.3261 10.4276 17.1856 10.2819 16.9982 10.1726C16.8473 10.0841 15.2445 9.15786 14.5784 8.73115C14.0997 8.42933 13.8447 8.10669 13.9592 7.67998C14.1153 7.63315 14.5993 7.62794 15.0988 7.63315C18.5125 7.65917 21.2497 9.61579 21.5515 9.93322C21.7077 10.0945 21.921 10.2298 22.0043 10.1622C22.0719 10.1102 21.9782 9.93322 21.9054 9.84996ZM10.0095 8.50218C9.91585 8.34607 9.48393 7.95058 9.24976 7.87252C9.79616 7.46662 11.0659 6.8838 11.5498 6.78493C11.6331 6.92543 11.8569 7.51346 11.9297 7.76324C11.503 7.85691 10.3686 8.26281 10.0095 8.50218ZM13.7354 7.40418C13.2879 7.4302 12.4813 7.60713 12.1951 7.69039C12.1223 7.49785 11.9193 6.89421 11.8517 6.70167C12.6739 6.46749 13.6209 6.38944 14.3547 6.45188C14.1569 6.608 13.8135 7.22725 13.7354 7.40418ZM15.9522 7.37816C15.2133 7.32612 14.6097 7.30531 14.0789 7.35734C14.2298 6.97226 14.5368 6.6132 14.7762 6.45188C15.281 6.4727 15.8013 6.54555 16.2124 6.62881C17.5342 6.889 19.5845 7.69559 20.4691 8.88206C19.2931 8.09108 17.3313 7.47183 15.9522 7.37816Z" fill="black"/>
<path d="M22.6443 21.5325C22.7692 21.2983 22.8733 21.1682 22.764 21.1058C22.6651 21.0486 22.5714 21.2671 22.4466 21.4753C22.0459 22.1674 21.6139 22.7398 20.6304 23.6348C19.5428 24.6288 18.2887 25.2064 17.8516 25.3521C17.4821 24.3113 16.0667 19.8673 16.0303 19.7424C15.973 19.5551 15.9262 19.4978 15.8637 19.5186C15.7909 19.5447 15.8377 19.6487 15.8742 19.8153C15.9106 19.9818 17.5966 25.2376 17.6487 25.4197C17.3156 25.5863 15.9574 25.9661 15.0103 25.9974C14.1673 26.0234 13.1734 25.9974 12.6738 25.8829C12.0858 25.4093 10.7536 23.5256 10.2436 22.5212C9.64521 21.34 9.24972 20.2524 9.15085 19.7892C9.10401 19.5707 9.04157 19.4094 8.92708 19.4302C8.8074 19.451 8.87505 19.6279 8.9479 19.8621C9.13003 20.4709 9.42145 21.3348 10.0407 22.5629C10.7016 23.8638 11.8776 25.3885 12.2211 25.8048C11.1439 25.5811 9.83775 25.0763 8.59925 24.15C7.52726 23.3538 6.61139 22.3391 6.14826 21.595C6.0702 21.4701 5.97653 21.2879 5.86205 21.366C5.81001 21.4024 5.87246 21.5429 5.95572 21.6886C6.62701 22.8959 8.2662 24.6027 10.3633 25.5394C12.8091 26.6322 15.4735 26.575 17.8568 25.6487C19.9383 24.8421 21.7492 23.1821 22.6443 21.5325Z" fill="black"/>
<path d="M21.9054 9.84996C21.7857 9.70946 21.6192 9.41805 20.4223 8.37209C18.6634 6.83696 16.3321 6.13966 14.1413 6.13966C12.5282 6.13966 11.1127 6.50392 9.55158 7.36255C7.55852 8.46055 6.73112 9.71987 6.52817 9.98006C6.37726 10.1674 6.35645 10.2767 6.45532 10.3339C6.52297 10.3755 6.65827 10.2298 6.78316 10.0633C7.37639 9.27755 8.15696 8.50218 8.97396 8.04945C9.22894 8.08588 9.58801 8.43973 9.7233 8.63228C9.19772 8.91848 8.32869 9.57937 7.99564 9.83435C7.70943 10.0529 7.61056 10.1778 7.68862 10.2663C7.75106 10.3391 7.96962 10.1934 8.15176 10.0425C8.46919 9.78231 9.40587 9.12143 9.86901 8.87165C10.1864 9.24112 10.0824 9.92282 9.97309 10.0737C9.91584 10.1518 9.90544 10.2402 9.97309 10.2767C10.0407 10.3131 10.1084 10.2194 10.2021 10.0893C10.4154 9.77711 10.3321 9.02776 10.1448 8.75717C10.712 8.40851 11.5238 8.16914 12.013 8.05986C12.0546 8.13791 12.653 9.88119 12.7623 10.1986C12.8248 10.3703 12.8872 10.5785 13.0121 10.5421C13.0954 10.516 13.0381 10.3287 12.9705 10.1362C12.882 9.902 12.4345 8.43973 12.294 8.00262C12.4553 7.91415 13.4336 7.71641 13.6782 7.72681C13.5585 8.36168 14.006 8.62707 14.516 8.96011C14.7866 9.13704 16.5091 10.1258 16.8681 10.3495C17.0711 10.4744 17.2324 10.5577 17.274 10.4952C17.3261 10.4276 17.1856 10.2819 16.9982 10.1726C16.8473 10.0841 15.2445 9.15786 14.5784 8.73115C14.0997 8.42933 13.8447 8.10669 13.9592 7.67998C14.1153 7.63315 14.5993 7.62794 15.0988 7.63315C18.5125 7.65917 21.2497 9.61579 21.5515 9.93322C21.7077 10.0945 21.921 10.2298 22.0043 10.1622C22.0719 10.1102 21.9782 9.93322 21.9054 9.84996ZM10.0095 8.50218C9.91585 8.34607 9.48393 7.95058 9.24976 7.87252C9.79616 7.46662 11.0659 6.8838 11.5498 6.78493C11.6331 6.92543 11.8569 7.51346 11.9297 7.76324C11.503 7.85691 10.3686 8.26281 10.0095 8.50218ZM13.7354 7.40418C13.2879 7.4302 12.4813 7.60713 12.1951 7.69039C12.1223 7.49785 11.9193 6.89421 11.8517 6.70167C12.6739 6.46749 13.6209 6.38944 14.3547 6.45188C14.1569 6.608 13.8135 7.22725 13.7354 7.40418ZM15.9522 7.37816C15.2133 7.32612 14.6097 7.30531 14.0789 7.35734C14.2298 6.97226 14.5368 6.6132 14.7762 6.45188C15.281 6.4727 15.8013 6.54555 16.2124 6.62881C17.5342 6.889 19.5845 7.69559 20.4691 8.88206C19.2931 8.09108 17.3313 7.47183 15.9522 7.37816Z" fill="black"/>
<path d="M22.6443 21.5325C22.7692 21.2983 22.8733 21.1682 22.764 21.1058C22.6651 21.0486 22.5714 21.2671 22.4466 21.4753C22.0459 22.1674 21.6139 22.7398 20.6304 23.6348C19.5428 24.6288 18.2887 25.2064 17.8516 25.3521C17.4821 24.3113 16.0667 19.8673 16.0303 19.7424C15.973 19.5551 15.9262 19.4978 15.8637 19.5186C15.7909 19.5447 15.8377 19.6487 15.8742 19.8153C15.9106 19.9818 17.5966 25.2376 17.6487 25.4197C17.3156 25.5863 15.9574 25.9661 15.0103 25.9974C14.1673 26.0234 13.1734 25.9974 12.6738 25.8829C12.0858 25.4093 10.7536 23.5256 10.2436 22.5212C9.64521 21.34 9.24972 20.2524 9.15085 19.7892C9.10401 19.5707 9.04157 19.4094 8.92708 19.4302C8.8074 19.451 8.87505 19.6279 8.9479 19.8621C9.13003 20.4709 9.42145 21.3348 10.0407 22.5629C10.7016 23.8638 11.8776 25.3885 12.2211 25.8048C11.1439 25.5811 9.83775 25.0763 8.59925 24.15C7.52726 23.3538 6.61139 22.3391 6.14826 21.595C6.0702 21.4701 5.97653 21.2879 5.86205 21.366C5.81001 21.4024 5.87246 21.5429 5.95572 21.6886C6.62701 22.8959 8.2662 24.6027 10.3633 25.5394C12.8091 26.6322 15.4735 26.575 17.8568 25.6487C19.9383 24.8421 21.7492 23.1821 22.6443 21.5325Z" fill="black"/>
</g>
<rect x="0.5" y="0.5" width="31" height="31" rx="15.5" stroke="#552C81"/>
<defs>
<clipPath id="clip0_13_826">
<rect width="32" height="32" rx="16" fill="white"/>
</clipPath>
</defs>
</svg>
