<svg width="32" height="32" viewBox="0 0 32 32" fill="none" xmlns="http://www.w3.org/2000/svg">
<rect width="32" height="32" rx="16" fill="#0D2340"/>
<g clip-path="url(#clip0_13_945)">
<path d="M27.9291 10.5877C30.1793 6.3198 24.2961 2.18515 21.1078 6.01893C18.74 5.69337 16.7548 6.34851 16 6.66029C15.2452 6.34851 13.2594 5.69337 10.8922 6.01893C7.70049 2.18113 1.82529 6.32841 4.07088 10.5877C2.84674 12.3636 2 14.4702 2 16.6165C2 19.2003 3.09682 20.5307 3.51077 21.1026L3.84135 20.7701C5.00326 23.7438 6.99307 25.344 9.39454 26.8024L9.49503 26.2455C12.0809 28.4991 13.3125 27.945 16 31.0014C18.6772 27.9582 19.9396 28.4796 22.505 26.2455L22.6055 26.8024C23.6743 26.1536 26.6907 24.527 28.1581 20.7701L28.4892 21.1026C28.7427 20.7529 30 19.3416 30 16.6165C30 14.4708 29.1533 12.3642 27.9291 10.5877ZM28.4127 20.123L27.8737 19.581C27.8737 19.581 27.1075 23.3212 23.0622 25.7781L22.9161 24.9714C20.425 27.6476 18.1485 27.5867 16.0006 30.031C13.8526 27.5867 11.5762 27.6476 9.0845 24.9714L8.93891 25.7781C4.89193 23.3212 4.12569 19.581 4.12569 19.581L3.5867 20.123C2.28377 18.323 2.00057 14.4961 4.81085 10.6164C2.34315 6.80957 7.93573 2.84545 10.6461 6.67981C13.3833 6.19233 15.69 7.19657 15.9989 7.34011C16.3078 7.19542 18.6144 6.19176 21.3516 6.67981C24.0614 2.84488 29.6546 6.809 27.1886 10.6158C30.0011 14.5001 29.7191 18.3178 28.4127 20.123Z" fill="white"/>
<path d="M18.1211 25.1066C18.1211 25.1066 17.2955 24.8506 16.0239 24.8506C16.0239 24.8506 14.0827 24.8804 13.7932 25.0607C13.7932 25.0607 13.4592 25.6424 16.0239 25.6314C18.4631 25.6205 18.1034 25.1733 18.1211 25.1066Z" fill="white"/>
<path d="M22.3948 8.46642C22.3948 8.46642 23.2255 6.37813 25.7703 6.88226C25.7703 6.88226 23.4339 5.33658 21.8084 8.13167C21.8084 8.13167 19.476 7.03097 15.9988 8.54336C15.9988 8.54336 12.7306 7.38811 10.2464 8.0421C10.2464 8.0421 8.79786 5.51572 6.75781 6.55555C4.71776 7.59539 5.78203 10.0041 6.13717 10.6288C6.13717 10.6288 2.75707 14.0916 4.02804 18.3738L4.70805 17.5206C4.70805 17.5206 5.67869 22.1847 8.18464 23.654L8.33481 22.5056C8.33481 22.5056 10.9504 25.6797 14.0262 27.0273C14.3191 27.1656 15.9486 27.9798 15.9988 28.3818V26.1626C15.9988 26.1626 13.8651 26.3411 13.3022 25.3507C12.9196 24.6772 10.4662 20.2761 11.6789 15.6672C11.6789 15.6672 10.4982 15.4898 10.2761 13.4853C9.65531 13.2125 8.97799 13.0953 8.30226 13.1437C8.30226 13.1437 10.2584 12.5258 12.0917 13.2401C13.9251 13.9544 14.4161 15.7705 15.658 14.9678L16.0006 9.84903L16.3751 14.9678C17.6169 15.7717 18.1085 13.9538 19.9413 13.2401C21.7741 12.5264 23.732 13.1437 23.732 13.1437C23.732 13.1437 22.948 12.5936 21.6919 12.3387C20.6419 12.1268 19.0997 12.8055 19.0997 12.8055C19.0997 12.8055 19.3127 11.3534 20.0133 10.5794C20.6122 9.91334 21.974 9.76635 22.3948 8.46642ZM6.5791 10.2297C6.50544 9.53324 7.37844 8.84193 7.37844 8.84193C7.0176 8.46699 6.38782 8.79197 6.38782 8.79197C6.95879 7.66774 8.2406 8.2178 8.2406 8.2178C7.75528 7.6195 6.72698 7.6574 6.72698 7.6574C7.99908 6.38904 9.53497 8.32747 9.53497 8.32747C8.16694 8.63867 6.57624 10.2297 6.57624 10.2297H6.5791Z" fill="white"/>
<path d="M16.0068 20.4438C16.386 20.4656 19.247 20.4811 17.6695 22.5808C19.9311 20.2732 16.2409 20.4076 16.0068 20.4438Z" fill="white"/>
<path d="M13.5592 24.6261C15.022 24.2747 15.2047 24.3028 15.9869 24.2615V23.2107C15.9869 23.1263 15.4028 22.3397 14.9535 21.9521C14.6303 21.6731 14.3254 22.5562 14.3254 22.5562C12.4315 20.1446 15.9852 20.4196 15.9852 20.4196V16.0151C15.9098 16.0284 15.8333 16.0343 15.7568 16.0329C14.6486 16.0329 13.8184 15.213 13.4159 14.8978C13.2194 14.8363 12.8951 15.0402 12.7141 15.3944C12.1066 15.2182 11.8988 14.5584 11.9245 13.9263C11.6242 13.7816 11.3461 13.6966 11.1548 13.7339C11.1548 13.7339 11.4443 15.8957 13.2354 15.5053C12.7541 16.7202 11.7521 20.1257 13.5592 24.6261Z" fill="white"/>
<path d="M20.1971 13.905C20.2228 14.5366 20.0156 15.1969 19.408 15.3732C19.2271 15.0189 18.9027 14.8151 18.7063 14.8765C18.6687 14.9064 18.6275 14.9403 18.583 14.977L18.5208 15.0281L18.5031 15.043C18.4528 15.0867 18.3917 15.1372 18.3192 15.1946C18.1148 15.3545 17.9019 15.5031 17.6815 15.6396C17.9453 15.6513 18.2096 15.6463 18.4728 15.6247C19.1745 16.9275 20.204 20.4357 18.6013 24.6542C18.6161 24.6347 21.1969 21.088 19.1614 15.5753C19.445 15.5755 19.7241 15.5042 19.9733 15.368C20.1335 15.2784 20.2774 15.1619 20.3987 15.0235C20.4107 15.0103 20.4215 14.9971 20.4329 14.9839C20.6504 14.7005 20.8085 14.3756 20.8977 14.029C20.8977 14.0256 20.8977 14.0216 20.9005 14.0176C20.9287 13.9174 20.9508 13.8155 20.9668 13.7127C20.7784 13.6731 20.4974 13.7603 20.1971 13.905Z" fill="white"/>
</g>
<defs>
<clipPath id="clip0_13_945">
<rect width="28" height="26.5" fill="white" transform="translate(2 4.5)"/>
</clipPath>
</defs>
</svg>
