<svg width="32" height="32" viewBox="0 0 32 32" fill="none" xmlns="http://www.w3.org/2000/svg">
<rect width="32" height="32" rx="16" fill="#235933"/>
<path d="M11.12 25.848C11 25.744 10.944 25.584 10.992 25.424L12.424 20.256C12.432 20.232 12.448 20.192 12.456 20.168L11.792 19.112C11.728 19.016 11.712 18.896 11.752 18.784L11.848 18.472L10.936 18.408C10.072 18.344 9.77601 18.232 9.56801 18.12C8.70401 17.648 8.47201 16.288 8.42401 15.88L8.36001 15.424C8.33601 15.232 8.38401 15.056 8.48801 14.928C8.57601 14.824 8.69601 14.768 8.82401 14.744C6.83201 12.96 5.03201 10.736 5.64801 7.584C6.32801 4.104 9.13601 3.048 9.24801 3C9.28801 2.984 9.33601 2.976 9.38401 2.976C9.52801 2.976 9.67201 3.056 9.73601 3.184C9.78401 3.28 9.80001 3.392 9.76801 3.48C10.696 2.688 11.576 2.344 11.952 2.224C11.992 2.208 12.032 2.2 12.072 2.2C12.224 2.2 12.368 2.288 12.44 2.432C12.528 2.624 12.456 2.84 12.288 2.936C11.448 3.456 10.712 4.16 10.16 4.96C10.832 4.808 11.288 4.776 11.448 4.776C11.512 4.776 11.528 4.776 11.528 4.776C11.728 4.792 11.888 4.936 11.904 5.136C11.928 5.336 11.792 5.512 11.6 5.568C11.592 5.568 10.488 5.856 9.27201 6.728C9.04001 7.424 8.93601 8.16 8.93601 8.904C8.94401 10.312 9.40001 11.76 10.184 12.872C10.376 13.136 10.56 13.368 10.752 13.576C10.672 12.128 11.08 9.864 13.696 8.808C13.744 8.784 13.8 8.784 13.848 8.784C13.992 8.784 14.144 8.864 14.208 9C14.304 9.192 14.232 9.416 14.056 9.52L14.032 9.536C13.624 9.792 13.28 10.144 13.032 10.536C13.32 10.448 13.56 10.424 13.728 10.4L13.752 10.392C13.768 10.392 13.776 10.392 13.8 10.392C13.96 10.392 14.12 10.496 14.176 10.656C14.248 10.832 14.168 11.032 14.024 11.128L14.008 11.136C14 11.136 13.992 11.144 13.992 11.144C13.16 11.624 12.696 12.192 12.616 12.824C12.528 13.512 12.912 14.16 13.184 14.52C13.88 13.704 14.336 12.32 14.464 11.784C14.504 11.6 14.672 11.48 14.848 11.48C14.864 11.48 14.872 11.48 14.896 11.48C15.104 11.504 15.248 11.68 15.248 11.88C15.264 13.584 14.808 14.752 14.336 15.512C15.04 15.864 15.728 15.888 15.888 15.888C15.904 15.888 15.928 15.888 15.928 15.888C15.936 15.888 15.952 15.888 15.976 15.888C16.128 15.888 16.808 15.864 17.528 15.504C17.056 14.752 16.6 13.592 16.6 11.88C16.6 11.672 16.752 11.504 16.952 11.48C16.968 11.48 16.976 11.48 17 11.48C17.184 11.48 17.344 11.6 17.384 11.784C17.512 12.312 17.976 13.704 18.68 14.512C18.944 14.152 19.328 13.496 19.24 12.816C19.152 12.184 18.688 11.624 17.856 11.144C17.848 11.144 17.832 11.128 17.832 11.128C17.68 11.024 17.6 10.832 17.672 10.656C17.736 10.504 17.88 10.392 18.048 10.392C18.064 10.392 18.072 10.392 18.096 10.392H18.12C18.28 10.416 18.536 10.44 18.816 10.528C18.56 10.144 18.216 9.8 17.808 9.536L17.784 9.52C17.6 9.408 17.536 9.184 17.632 9C17.704 8.864 17.84 8.776 17.992 8.776C18.04 8.776 18.096 8.784 18.144 8.8C20.76 9.84 21.192 12.104 21.112 13.552C21.312 13.344 21.488 13.112 21.68 12.848C22.464 11.736 22.912 10.28 22.912 8.872C22.912 8.12 22.792 7.4 22.56 6.696C21.328 5.816 20.232 5.552 20.224 5.544C20.024 5.504 19.904 5.32 19.92 5.112C19.936 4.912 20.096 4.76 20.296 4.744C20.296 4.744 20.32 4.744 20.376 4.744C20.528 4.744 20.984 4.76 21.664 4.92C21.104 4.12 20.376 3.424 19.52 2.912C19.344 2.808 19.272 2.584 19.368 2.408C19.44 2.264 19.576 2.168 19.728 2.168C19.768 2.168 19.808 2.176 19.848 2.192C20.216 2.304 21.104 2.648 22.04 3.432C22.016 3.336 22.024 3.224 22.064 3.136C22.136 3 22.272 2.928 22.416 2.928C22.456 2.928 22.512 2.936 22.552 2.952C22.664 2.992 25.48 4.032 26.184 7.496C26.824 10.64 25.032 12.88 23.048 14.68C23.176 14.696 23.296 14.76 23.384 14.864C23.496 14.992 23.536 15.176 23.52 15.36L23.472 15.816C23.424 16.224 23.208 17.592 22.344 18.064C22.136 18.176 21.84 18.288 20.976 18.36L20.056 18.432L20.152 18.744C20.184 18.856 20.168 18.976 20.112 19.072L19.448 20.136C19.464 20.16 19.472 20.2 19.48 20.224L20.952 25.384C20.992 25.536 20.944 25.704 20.824 25.808L15.968 29.76L11.12 25.848Z" fill="#EDE0C5"/>
<path d="M6.04802 7.656C6.69602 4.368 9.40002 3.384 9.40002 3.384C8.40802 4.128 7.40002 5.496 6.99202 7.432C7.40002 6.928 7.77602 6.552 8.21602 6.24C9.31202 3.872 11.176 2.92 12.088 2.616C10.896 3.336 9.90402 4.416 9.30402 5.656C10.68 5.16 11.504 5.2 11.504 5.2C11.504 5.2 10.272 5.504 8.92802 6.496C8.67202 7.256 8.52002 8.072 8.52802 8.92C8.53602 10.416 9.01602 11.952 9.85602 13.12C10.328 13.776 10.776 14.232 11.336 14.656C11.144 14.184 10.432 10.584 13.84 9.208L13.816 9.224C13.016 9.752 12.424 10.56 12.184 11.52C12.8 10.92 13.464 10.856 13.808 10.816C13.8 10.816 13.792 10.824 13.792 10.824C10.632 12.656 13.152 15.128 13.152 15.128C14.152 14.296 14.728 12.408 14.848 11.896C14.872 13.88 14.208 15.064 13.76 15.648C14.784 16.344 15.928 16.304 15.928 16.304C15.928 16.304 17.072 16.344 18.088 15.648C17.64 15.072 16.976 13.88 16.976 11.904C17.104 12.424 17.688 14.288 18.688 15.12C18.688 15.12 21.192 12.64 18.024 10.816C18.016 10.816 18.008 10.808 18.008 10.808C18.352 10.848 19.016 10.912 19.632 11.504C19.384 10.552 18.8 9.736 17.976 9.224L17.952 9.208C21.368 10.568 20.672 14.176 20.488 14.648C21.056 14.224 21.504 13.768 21.96 13.104C22.784 11.928 23.256 10.392 23.256 8.896C23.256 8.04 23.104 7.232 22.832 6.48C21.52 5.504 20.28 5.2 20.28 5.2C20.28 5.2 21.112 5.152 22.496 5.64C21.888 4.408 20.896 3.344 19.696 2.624C20.616 2.92 22.488 3.864 23.592 6.224C24.032 6.528 24.416 6.904 24.824 7.4C24.408 5.456 23.4 4.08 22.4 3.36C22.4 3.36 25.104 4.328 25.776 7.616C26.552 11.44 23.496 13.84 21.04 15.904L22.92 15.128C23.048 15.064 23.136 15.2 23.12 15.344L23.072 15.808C23.048 16.056 22.864 17.368 22.144 17.752C21.992 17.84 21.72 17.936 20.944 18L19.536 18.096L19.776 18.888L18.392 21.12L19.096 20.368L20.568 25.528L16.6 28.816L17.824 23.176L15.968 25.44L14.112 23.16L15.368 28.792L11.376 25.528L12.808 20.36L13.52 21.112L12.136 18.888L12.368 18.096L10.944 18.008C10.16 17.944 9.89602 17.856 9.74402 17.768C9.03202 17.384 8.84002 16.08 8.81602 15.824L8.75202 15.36C8.72802 15.216 8.82402 15.096 8.95202 15.144L10.84 15.904C8.36802 13.88 5.29602 11.48 6.04802 7.656ZM23.912 11.72C23.912 11.72 25.472 9.248 24.392 7.872C24.28 7.736 24.16 7.608 24.048 7.472C24.496 9.048 23.912 11.72 23.912 11.72ZM7.96002 11.768C7.96002 11.768 7.36802 9.104 7.80002 7.536C7.68802 7.656 7.56802 7.784 7.46402 7.936C6.40002 9.304 7.96002 11.768 7.96002 11.768Z" fill="#00471A"/>
<path d="M20.024 17.432C20.72 17.368 21.52 17.392 21.848 17.208C22.328 16.944 22.456 15.784 22.456 15.784C21.928 16.304 20.792 17.128 20.024 17.432ZM16.776 22.712H15.968H15.16L15.544 23.24H15.968H16.392L16.776 22.712ZM17.216 18.2C17.416 18.392 17.768 18.568 18.192 18.24C18.416 18.064 18.416 17.808 18.4 17.648C18.384 17.568 18.296 17.52 18.224 17.552C17.848 17.728 17.464 17.904 17.256 17.992C17.176 18.032 17.152 18.128 17.216 18.2ZM14.504 20.488L14.28 21.496L14.848 22.248H15.44L14.888 21.44L14.976 20.944C15.224 21.208 15.584 21.376 15.976 21.376C16.368 21.376 16.728 21.2 16.976 20.936L17.064 21.432L16.512 22.24H17.104L17.664 21.48L17.432 20.472C16.896 20.136 16.776 19.648 16.776 19.648L16.4 18.424L15.968 18.632L15.536 18.424L15.168 19.648C15.16 19.664 15.04 20.152 14.504 20.488ZM13.728 18.248C14.16 18.576 14.512 18.392 14.704 18.208C14.776 18.136 14.744 18.048 14.672 18C14.464 17.904 14.088 17.736 13.704 17.56C13.624 17.528 13.544 17.576 13.528 17.656C13.496 17.824 13.504 18.08 13.728 18.248ZM9.43201 15.824C9.43201 15.824 9.56801 16.976 10.064 17.248C10.392 17.432 11.192 17.4 11.896 17.456C11.112 17.16 9.97601 16.336 9.43201 15.824Z" fill="white"/>
</svg>
