<svg width="32" height="32" viewBox="0 0 32 32" fill="none" xmlns="http://www.w3.org/2000/svg">
<g clip-path="url(#clip0_13_748)">
<path d="M31.2747 11.232L31.1147 10.752C30.0244 7.61178 27.9831 4.88912 25.2744 2.96226C22.5657 1.0354 19.3241 3.6752e-05 16 0C14.2136 0.000858211 12.4399 0.300086 10.752 0.885333C2.42134 3.78667 -2.00532 12.9173 0.885344 21.248C2.27724 25.2566 5.20453 28.5482 9.02325 30.3985C12.842 32.2489 17.2394 32.5065 21.248 31.1147C29.4187 28.2773 33.8347 19.4347 31.2747 11.232Z" fill="#A0A1A2"/>
<path d="M16 31.4453C12.7932 31.4418 9.66683 30.4409 7.05422 28.5813C4.44161 26.7217 2.47212 24.0955 1.41867 21.0667C-1.376 13.0347 2.90134 4.21333 10.944 1.42933C12.8588 0.764131 14.8859 0.482886 16.9094 0.601672C18.933 0.720457 20.9133 1.23694 22.7371 2.1216C24.5609 3.00625 26.1924 4.24173 27.5384 5.75737C28.8844 7.27302 29.9184 9.03911 30.5813 10.9547L30.656 11.168C33.3013 19.1467 29.0347 27.84 21.0667 30.6027C19.4352 31.1584 17.7236 31.4431 16 31.4453Z" fill="#0D2240"/>
<path d="M17.6 9.07734L17.312 9.056C16.4478 9.01271 15.5936 8.85121 14.7733 8.576C14.5736 8.797 14.395 9.03628 14.24 9.29067C14.5173 9.57867 15.04 10.1227 15.3067 10.4213C15.7547 10.688 16.2133 10.9867 16.6613 11.3067C17.376 10.5067 18.016 9.84534 18.6347 9.19467L17.6853 9.088L17.6 9.07734Z" fill="#276092"/>
<path d="M10.9013 11.7333C9.70664 13.408 8.86397 15.5947 8.78931 18.208C10.0586 16.8107 11.104 15.5093 11.8186 14.8267C12.2457 14.4116 12.7352 14.0661 13.2693 13.8027C12.7893 12.704 12.1706 11.8187 11.3173 11.392C11.1698 11.4945 11.0307 11.6087 10.9013 11.7333Z" fill="#276092"/>
<path d="M14.2826 7.65867C14.9866 7.37067 15.7546 7.072 16.5013 6.83733C17.2838 6.55383 18.0908 6.34316 18.912 6.208L18.8586 6.18667C18.4035 6.05664 17.9403 5.95686 17.472 5.888C16.2332 5.70353 14.9709 5.75055 13.7493 6.02667C13.6312 6.36817 13.6274 6.73885 13.7386 7.08267C13.8545 7.32737 14.045 7.52903 14.2826 7.65867Z" fill="#276092"/>
<path d="M12.8107 10.5387C12.5334 10.6667 12.224 10.8267 11.9254 10.9973C12.7574 11.5413 13.376 12.4693 13.8454 13.5467C14.2061 13.4174 14.583 13.3384 14.9654 13.312C15.4134 12.7467 15.8187 12.2453 16.2027 11.7973C15.7547 11.488 15.3067 11.1893 14.8587 10.9333C14.4107 10.6773 13.216 10.5813 12.8107 10.5387Z" fill="#276092"/>
<path d="M15.3387 8.07466C15.9956 8.26259 16.6721 8.37356 17.3547 8.40533L17.664 8.42667H17.7387C18.0587 8.45867 18.5174 8.50133 19.04 8.59733C19.4347 8.10667 19.904 7.808 20.2347 7.744C20.3936 7.79849 20.5388 7.88678 20.6604 8.00279C20.7819 8.1188 20.8769 8.25977 20.9387 8.416C21.4237 8.62419 21.8149 9.00399 22.0374 9.48267C23.2534 10.0053 24.4587 10.784 25.3974 11.9467C24.4128 9.63685 22.6025 7.77707 20.32 6.73067C20.288 6.73067 18.144 6.67733 15.4774 7.968C15.4275 7.9901 15.3809 8.0188 15.3387 8.05333" fill="#276092"/>
<path d="M26.1973 15.1573C25.9413 13.9413 25.0773 11.712 22.3253 10.2933C22.6347 11.68 22.2827 13.2693 22.2827 13.2693C22.2827 13.2693 23.04 13.7067 23.232 14.5387C23.3064 14.5786 23.3689 14.6375 23.4133 14.7093C23.6267 14.9653 23.8933 15.5627 23.4667 16.736C23.4667 16.736 23.2107 16.192 22.6667 16.7787L22.528 16.9813C23.5627 18.4 24.352 19.8933 24.7573 21.344C25.228 20.5696 25.5972 19.7379 25.856 18.8693C26.1791 17.6603 26.2946 16.4051 26.1973 15.1573Z" fill="#276092"/>
<path d="M8.10668 18.9227C8.06784 17.4884 8.26606 16.0576 8.69335 14.688C9.01678 13.6676 9.47601 12.6953 10.0587 11.7973C10.1333 11.6373 10.272 11.4027 10.4213 11.1253C8.44801 10.912 6.66668 13.0133 5.97335 13.9627C5.53041 16.1033 5.79236 18.3299 6.72001 20.3093C7.21068 19.8613 7.66935 19.392 8.10668 18.9227Z" fill="#276092"/>
<path d="M21.0773 21.4613C21.056 22.4427 21.536 23.1893 21.8987 24.3627C22.7938 23.7308 23.5823 22.9602 24.2347 22.08C23.936 20.6187 23.168 19.072 22.112 17.5787C21.44 18.656 21.1093 19.6693 21.0773 21.4613Z" fill="#276092"/>
<path d="M12.3946 8.46933C12.7253 8.32 13.1306 8.13867 13.5786 7.95733C13.3806 7.7849 13.23 7.56455 13.1413 7.31733C13.0121 6.96619 12.9789 6.5869 13.0453 6.21867C11.5839 6.66519 10.2396 7.43022 9.10931 8.45867H9.26931C10.2293 8.39467 11.6053 8.43733 12.3946 8.46933Z" fill="#276092"/>
<path d="M10.7627 10.528L11.168 9.824C10.624 9.46134 10.2827 9.20534 9.34401 9.13067C9.03097 9.11983 8.71757 9.12695 8.40534 9.152C7.53759 10.1103 6.8606 11.2254 6.41068 12.4373C7.46668 11.328 9.03468 10.176 10.7627 10.528Z" fill="#276092"/>
<path d="M14.0053 8.33067L13.3013 9.35467C13.6581 9.60712 13.9839 9.90069 14.272 10.2293C13.504 10.0693 12.6613 9.93067 12.6613 9.93067L11.3173 10.656L11.9466 9.61067C11.66 9.36635 11.3571 9.14183 11.04 8.93867C11.5733 8.96 12.5866 9.03467 12.5866 9.03467L14.0053 8.33067Z" fill="#77BC1F"/>
<path d="M14.5707 14.464C14.4552 14.7836 14.3835 15.1172 14.3573 15.456C14.3573 15.456 13.1947 15.6267 12.6293 16.0107C12.64 16 13.8027 14.8373 14.5707 14.464Z" fill="#77BC1F"/>
<path d="M22.4213 14.4C22.518 14.3708 22.6193 14.36 22.72 14.368C22.6898 14.2836 22.6466 14.2044 22.592 14.1333C22.5222 14.0465 22.4394 13.971 22.3467 13.9093C22.4157 14.0631 22.4415 14.2327 22.4213 14.4Z" fill="white"/>
<path d="M21.376 14.944L21.7813 14.688L21.6747 14.464C21.5801 14.3251 21.4563 14.2086 21.312 14.1227C21.3925 14.3886 21.4144 14.6688 21.376 14.944Z" fill="white"/>
<path d="M8.87466 22.8053C7.88266 23.2107 5.54666 22.656 5.54666 22.656C7.91466 22.5173 10.2293 20.832 10.2293 20.832H10.2187C9.7806 21.4915 9.2192 22.0602 8.56533 22.5067C8.66241 22.6089 8.76572 22.7051 8.87466 22.7947" fill="#A0A1A2"/>
<path d="M20.6826 8.68266C20.6826 8.68266 20.096 8.224 19.4453 8.928C20.1493 7.63733 20.5546 8.384 20.6826 8.68266Z" fill="#77BC1F"/>
<path d="M22.9866 14.9227L22.912 14.8693C22.5493 14.6667 21.8773 15.2427 21.4506 15.488C21.024 15.7333 20.384 16.2347 20.0853 15.5413C19.7866 14.848 20.48 13.7493 20.736 13.0667C21.2693 11.5413 21.2906 10.656 21.184 10.176C21.6853 10.7413 21.8453 11.8187 21.8453 11.8187C21.8453 11.8187 22.0373 9.792 21.0453 9.26933C21.0577 9.44381 21.0505 9.61912 21.024 9.792C20.5653 9.86667 19.5413 9.76 19.2106 9.57867C17.9626 10.9227 16.5973 12.7893 15.5733 14.496C15.1253 15.4027 14.688 16.4693 14.5813 17.3333C14.4842 17.036 14.4233 16.728 14.4 16.416C13.8346 16.64 11.904 17.5787 11.488 20.4907C11.488 20.4907 12.7146 19.232 14.0693 18.7307C14.0693 18.7307 13.216 20.9813 14.8586 24.96C14.8586 24.96 15.52 22.5173 16.9066 21.8987C17.7493 26.0693 20.2133 26.144 20.928 28.9813C20.928 28.9813 21.6853 27.5093 20.7786 25.0027C21.003 25.0793 21.2022 25.2158 21.3546 25.3973C21.3546 25.3973 21.312 24.6613 20.6293 23.0933C20.1813 22.2507 20.0426 21.1093 20.0426 21.1093C19.648 21.472 19.5306 22.6987 19.5306 22.6987C18.304 19.3813 21.7813 16.0853 22.4106 15.6053C22.72 15.3707 22.912 15.3707 23.0293 15.4133C23.136 15.1893 23.136 15.0293 22.9866 14.9227Z" fill="#A0A1A2"/>
<path d="M25.1733 9.04533C24.0997 7.62348 22.7101 6.47084 21.1143 5.6785C19.5185 4.88616 17.7603 4.47585 15.9787 4.48C10.2613 4.48 5.36534 8.75733 4.57601 14.432C4.2471 16.7558 4.64188 19.1245 5.70668 21.216L6.10134 20.8747C5.12997 18.9024 4.77323 16.684 5.07734 14.5067C5.82401 9.07733 10.5173 4.992 15.9787 4.992C16.4888 4.99569 16.9983 5.03131 17.504 5.09866C19.7214 5.40162 21.7937 6.37323 23.4448 7.88398C25.0959 9.39473 26.2473 11.3728 26.7456 13.5546C27.2438 15.7364 27.0652 18.0183 26.2335 20.096C25.4019 22.1737 23.9567 23.9486 22.0907 25.184C22.1303 25.3598 22.1588 25.5379 22.176 25.7173C23.5819 24.8197 24.777 23.6285 25.6792 22.2255C26.5814 20.8225 27.1693 19.241 27.4027 17.5893C27.6208 16.0885 27.5359 14.5591 27.153 13.0916C26.7701 11.6241 26.097 10.2483 25.1733 9.04533Z" fill="#A0A1A2"/>
<path d="M8.71464 3.69067C8.51633 3.69067 8.32248 3.74947 8.15759 3.85965C7.9927 3.96982 7.86419 4.12642 7.7883 4.30963C7.71241 4.49284 7.69255 4.69445 7.73124 4.88894C7.76993 5.08344 7.86542 5.2621 8.00565 5.40233C8.14588 5.54255 8.32453 5.63805 8.51903 5.67673C8.71353 5.71542 8.91513 5.69557 9.09835 5.61968C9.28156 5.54379 9.43815 5.41527 9.54833 5.25038C9.6585 5.0855 9.71731 4.89164 9.71731 4.69333C9.71731 4.42741 9.61167 4.17238 9.42363 3.98434C9.2356 3.7963 8.98057 3.69067 8.71464 3.69067ZM8.71464 5.248C8.60705 5.248 8.50187 5.21609 8.41241 5.15632C8.32295 5.09654 8.25323 5.01158 8.21205 4.91218C8.17088 4.81278 8.1601 4.7034 8.1811 4.59787C8.20209 4.49234 8.2539 4.39541 8.32998 4.31933C8.40606 4.24325 8.50299 4.19144 8.60851 4.17045C8.71404 4.14946 8.82342 4.16024 8.92282 4.20141C9.02222 4.24258 9.10719 4.31231 9.16696 4.40177C9.22674 4.49123 9.25864 4.59641 9.25864 4.704C9.25864 4.84828 9.20133 4.98665 9.09931 5.08867C8.99729 5.19069 8.85892 5.248 8.71464 5.248Z" fill="white"/>
<path d="M6.46401 6.19733L6.22935 6.32533C6.14401 6.37866 6.09068 6.37866 6.03735 6.336C5.98401 6.29333 5.98401 6.208 6.06935 6.12266C6.14723 6.03796 6.25352 5.98481 6.36801 5.97333H6.41068L6.37868 5.52533H6.33601C6.21633 5.53282 6.09952 5.56513 5.993 5.62022C5.88649 5.67532 5.79261 5.75198 5.71735 5.84533C5.60505 5.96294 5.53072 6.1116 5.50401 6.272C5.49441 6.35846 5.507 6.44595 5.5406 6.5262C5.57419 6.60645 5.62768 6.67682 5.69601 6.73066C5.90935 6.93333 6.16535 6.944 6.46401 6.77333L6.67735 6.656C6.78401 6.592 6.85868 6.57066 6.91201 6.624C6.96535 6.67733 6.96535 6.77333 6.85868 6.89066C6.80914 6.94527 6.74794 6.98801 6.67961 7.01571C6.61128 7.04341 6.53759 7.05536 6.46401 7.05066H6.42135L6.36801 7.54133H6.41068C6.57068 7.552 6.89068 7.50933 7.20001 7.17866H7.21068C7.34711 7.04002 7.43344 6.85986 7.45601 6.66666C7.45851 6.5789 7.44054 6.49175 7.40351 6.41214C7.36648 6.33252 7.31141 6.26263 7.24268 6.208C7.04001 6.02666 6.79468 6.02666 6.46401 6.208" fill="white"/>
<path d="M3.50856 16.0992L1.54648 16.1471L1.55716 16.5844L3.51924 16.5364L3.50856 16.0992Z" fill="white"/>
<path d="M5.29068 9.55733L6.03734 8.43733L5.66401 8.20267L5.17334 8.93867L4.89601 8.75733L5.33334 8.11733L4.96001 7.88267L4.53334 8.52267L4.26668 8.34133L4.75734 7.59467L4.40534 7.36L3.66934 8.45867L5.29068 9.55733Z" fill="white"/>
<path d="M11.712 4.26667L11.1467 2.848L11.648 2.64534L11.4773 2.25067L10.0693 2.82667L10.2293 3.22134L10.7307 3.008L11.3067 4.43734L11.712 4.26667Z" fill="white"/>
<path d="M3.66932 10.6773L2.28266 11.3067L2.26132 11.3707L4.09599 12.1173L4.25599 11.7227L3.30666 11.328L4.69332 10.6987L4.72532 10.624L2.89066 9.87733L2.71999 10.2827L3.66932 10.6773Z" fill="white"/>
<path d="M2.77334 13.6107L1.56801 14.528L1.55734 14.6133L3.50934 14.912L3.58401 14.4853L2.56001 14.3253L3.76534 13.3867L3.77601 13.3227L1.82401 13.0133L1.76001 13.4507L2.77334 13.6107Z" fill="white"/>
<path d="M19.8794 2.1024L19.3299 3.98656L19.7497 4.10901L20.2993 2.22485L19.8794 2.1024Z" fill="white"/>
<path d="M30.144 18.9867L30.2507 18.56L28.3413 18.112L28.0533 19.3813L28.48 19.4773L28.6827 18.6453L30.144 18.9867Z" fill="white"/>
<path d="M29.4613 15.072C29.263 15.072 29.0692 15.1308 28.9043 15.241C28.7394 15.3512 28.6109 15.5077 28.535 15.691C28.4591 15.8742 28.4393 16.0758 28.4779 16.2703C28.5166 16.4648 28.6121 16.6434 28.7524 16.7837C28.8926 16.9239 29.0712 17.0194 29.2657 17.0581C29.4602 17.0968 29.6618 17.0769 29.845 17.001C30.0283 16.9251 30.1849 16.7966 30.295 16.6317C30.4052 16.4668 30.464 16.273 30.464 16.0747C30.464 15.8087 30.3584 15.5537 30.1703 15.3657C29.9823 15.1776 29.7273 15.072 29.4613 15.072ZM29.4613 16.6293C29.3538 16.6293 29.2486 16.5974 29.1591 16.5377C29.0697 16.4779 28.9999 16.3929 28.9588 16.2935C28.9176 16.1941 28.9068 16.0847 28.9278 15.9792C28.9488 15.8737 29.0006 15.7767 29.0767 15.7007C29.1528 15.6246 29.2497 15.5728 29.3552 15.5518C29.4607 15.5308 29.5701 15.5416 29.6695 15.5827C29.7689 15.6239 29.8539 15.6936 29.9137 15.7831C29.9734 15.8726 30.0053 15.9777 30.0053 16.0853C30.0053 16.2296 29.948 16.368 29.846 16.47C29.744 16.572 29.6056 16.6293 29.4613 16.6293Z" fill="white"/>
<path d="M25.4933 7.91467L26.3253 8.96L26.6667 8.68267L26.112 7.97867L26.368 7.78667L26.848 8.39467L27.1893 8.10667L26.7093 7.52L26.9653 7.31734L27.5093 8.01067L27.8507 7.744L27.0293 6.69867L25.4933 7.91467Z" fill="white"/>
<path d="M26.848 22.2187L26.144 23.3387L26.5066 23.5627L26.9866 22.8267L27.264 22.9867L26.848 23.648L27.2213 23.872L27.6373 23.232L27.904 23.4027L27.424 24.1493L27.7973 24.384L28.512 23.264L26.848 22.2187Z" fill="white"/>
<path d="M17.9306 3.69067L18.1333 2.176L18.6666 2.25067L18.7306 1.824L17.216 1.62134L17.152 2.048L17.696 2.112L17.4933 3.62667L17.9306 3.69067Z" fill="white"/>
<path d="M28.5227 21.0667L29.5787 21.0133L29.76 20.5653L27.5947 20.6507L27.5734 20.7147L29.0774 22.2827L29.2587 21.8347L28.5227 21.0667Z" fill="white"/>
<path d="M22.272 4.13866L21.9307 2.82666V2.816L21.8667 2.784L20.9493 4.53333L21.344 4.74666L21.76 3.92533L21.9627 4.68266L22.0053 4.704L22.7413 4.448L22.3147 5.248L22.6987 5.45066L23.616 3.70133L23.5733 3.66933L22.272 4.13866Z" fill="white"/>
<path d="M2.848 18.8907L2.048 19.9893L2.03734 20L2.048 20.064L3.98934 19.648L3.89334 19.2213L2.99734 19.4133L3.44534 18.784L3.43467 18.7307L2.77334 18.336L3.66934 18.1547L3.584 17.728L1.64267 18.1333L1.664 18.1867L2.848 18.8907Z" fill="white"/>
<path d="M29.2587 13.4293L30.08 12.7467L30.0587 12.672L29.0027 12.4267L29.8453 11.872L29.7387 11.424L27.9893 12.5867L28.0107 12.64L29.184 12.9173L28.256 13.696L28.2773 13.7707L30.368 14.0053L30.2613 13.5467L29.2587 13.4293Z" fill="white"/>
<path d="M28 10.5493C28.0889 10.6366 28.2045 10.6915 28.3284 10.705C28.4522 10.7186 28.577 10.69 28.6827 10.624C29.0453 10.4427 29.1627 10.08 28.96 9.67467L28.6293 9.01334L26.8693 9.87734L27.072 10.272L27.8827 9.87734L27.328 10.8053L27.552 11.2747C27.5733 11.2747 27.968 10.592 28 10.5493ZM28.0853 10.1013L27.968 9.856L28.4587 9.62134L28.576 9.86667C28.6613 10.048 28.6293 10.176 28.4693 10.2507C28.3093 10.3253 28.1707 10.2827 28.0853 10.1013Z" fill="white"/>
<path d="M25.312 6.21866C25.4274 6.19004 25.5292 6.12216 25.6 6.02666C25.6579 5.96018 25.7003 5.8817 25.7243 5.79687C25.7483 5.71204 25.7532 5.62295 25.7386 5.536C25.7083 5.38984 25.6293 5.25826 25.5146 5.16266L25.2693 4.94933L24.9386 4.66133L24.6506 4.992L24.448 5.216L24.4266 5.23733L24.16 5.54666L24.1386 5.568L23.9146 5.81333L23.6266 6.144L23.9573 6.432L24.2453 6.67733C24.362 6.78422 24.5137 6.8449 24.672 6.848C24.763 6.85137 24.8535 6.8339 24.9367 6.79692C25.0199 6.75995 25.0935 6.70445 25.152 6.63466C25.2089 6.58236 25.253 6.51759 25.2808 6.44542C25.3085 6.37326 25.3192 6.29565 25.312 6.21866ZM24.9813 5.29066L25.2266 5.504C25.3226 5.58933 25.344 5.67466 25.28 5.76C25.2616 5.77714 25.2398 5.79027 25.216 5.79854C25.1923 5.80681 25.167 5.81005 25.142 5.80804C25.1169 5.80604 25.0925 5.79883 25.0703 5.78689C25.0482 5.77494 25.0288 5.75852 25.0133 5.73866L24.7893 5.536L24.9813 5.29066ZM24.5546 6.35733L24.2666 6.112L24.4906 5.84533L24.7573 6.08C24.864 6.176 24.896 6.29333 24.832 6.368C24.8133 6.38604 24.7913 6.40012 24.767 6.40939C24.7428 6.41866 24.717 6.42293 24.691 6.42193C24.6651 6.42093 24.6397 6.41469 24.6162 6.40359C24.5928 6.39249 24.5718 6.37675 24.5546 6.35733Z" fill="white"/>
<path d="M25.0133 24.608C25.1008 24.526 25.1974 24.4545 25.3013 24.3947C25.4824 24.3274 25.6735 24.2913 25.8666 24.288V24.736C25.743 24.7366 25.6204 24.7582 25.504 24.8C25.4455 24.8248 25.3926 24.8612 25.3486 24.9071C25.3046 24.9529 25.2704 25.0072 25.248 25.0667C25.2394 25.093 25.2388 25.1213 25.2464 25.1479C25.254 25.1745 25.2694 25.1982 25.2906 25.216C25.3049 25.2323 25.3243 25.2432 25.3456 25.2471C25.3669 25.251 25.3889 25.2475 25.408 25.2373L25.5893 25.1627C25.7449 25.0742 25.9145 25.0129 26.0906 24.9813C26.1701 24.9702 26.2511 24.9779 26.3271 25.0039C26.4031 25.0298 26.4719 25.0732 26.528 25.1307C26.5883 25.1882 26.6357 25.2579 26.6669 25.3351C26.6982 25.4124 26.7126 25.4954 26.7093 25.5787C26.6986 25.7173 26.6346 25.9627 26.3146 26.1653C26.1608 26.2449 25.9951 26.2989 25.824 26.3253L25.76 25.888L26.0693 25.8027C26.2933 25.696 26.304 25.44 26.1226 25.44C25.9995 25.4699 25.8811 25.5166 25.7706 25.5787C25.6947 25.619 25.6163 25.6547 25.536 25.6853C25.4402 25.7208 25.3364 25.7286 25.2365 25.7079C25.1365 25.6871 25.0444 25.6386 24.9706 25.568C24.8919 25.4949 24.8352 25.4012 24.8069 25.2975C24.7786 25.1938 24.7799 25.0843 24.8106 24.9813C24.8302 24.8363 24.9023 24.7034 25.0133 24.608Z" fill="white"/>
<path d="M13.6 2.79467L14.1973 3.66934L14.6667 3.58401L13.4613 1.79201L13.3973 1.81334L12.8533 3.90401L13.3333 3.81867L13.6 2.79467Z" fill="white"/>
</g>
<defs>
<clipPath id="clip0_13_748">
<rect width="32" height="32" fill="white"/>
</clipPath>
</defs>
</svg>
