<svg width="32" height="32" viewBox="0 0 32 32" fill="none" xmlns="http://www.w3.org/2000/svg">
<g clip-path="url(#clip0_12_371)">
<rect width="32" height="32" rx="16" fill="#007AC1"/>
<path d="M-1.9462 29.6C0.521122 27.4081 3.16419 25.4254 5.956 23.672C6.50367 23.3963 7.05135 23.1205 7.59903 22.8448C7.81419 22.7464 8.26406 22.5297 8.81174 22.254C9.20294 22.6873 9.57458 23.1009 9.98533 23.4947C5.81907 25.4445 1.82886 27.4927 -1.9462 29.6ZM27.7653 14.652C30.4779 14.0404 33.2294 13.6192 36 13.3915C33.0465 14.2975 30.0342 15.3019 27.0024 16.4244C27.2763 15.8533 27.511 15.2625 27.7653 14.652Z" fill="#007AC1"/>
<path d="M-4 21.3087C-1.1273 19.4938 1.88854 17.9196 5.01711 16.6017C5.11491 16.8183 5.23227 17.035 5.34963 17.2516C5.17359 17.6061 4.99755 17.9803 4.82152 18.3348C1.78973 19.2801 -1.16381 20.2649 -4 21.3087ZM28.9193 11.166C31.273 11.0696 33.6303 11.1025 35.9804 11.2645C33.5354 11.619 31.0513 12.0129 28.5281 12.4856C28.665 12.0523 28.802 11.619 28.9193 11.166Z" fill="#F05133"/>
<path d="M15.9902 7.24686C20.5868 7.24686 24.1858 8.33005 28.2738 10.3783C26.2787 17.9212 22.621 23.0221 15.9902 27.1382C13.5061 25.5823 11.3741 23.8492 9.61369 21.8798C10.3961 21.5056 11.2763 21.0723 12.0587 20.7178C12.3912 20.7375 12.6846 20.7572 12.978 20.7572C12.9797 21.1242 12.8393 21.4774 12.5868 21.7419C12.7237 21.8995 12.8411 22.0374 12.978 22.1752C13.3301 21.8601 13.5452 21.4071 13.5648 20.7572C14.3411 20.7565 15.115 20.6706 15.8729 20.5012C15.8533 21.7025 15.6773 22.5691 15.3447 22.9236C15.3422 22.9235 15.3396 22.924 15.3372 22.925C15.3348 22.9259 15.3326 22.9274 15.3308 22.9292C15.329 22.9311 15.3275 22.9333 15.3266 22.9357C15.3256 22.9381 15.3251 22.9407 15.3252 22.9433C15.2524 23.0213 15.1739 23.0937 15.0905 23.1599C15.423 23.1008 15.7555 23.0221 16.0489 22.9433C16.4597 22.0964 16.4597 20.6193 16.4597 20.3633C17.2225 20.1664 17.8875 19.9694 18.4939 19.7725C18.5134 20.4618 18.8068 21.1117 19.335 21.3677C19.5697 21.1905 19.7848 21.0132 20.0196 20.836C19.8826 20.8557 19.0611 20.9148 19.0807 19.5755C20.8411 18.8862 21.9951 18.0985 23.0122 16.8774C23.282 16.2626 23.4916 15.6228 23.6381 14.9671C22.4254 16.8971 21.3301 18.0197 19.1394 18.9059C19.2197 18.4312 19.3374 17.9636 19.4914 17.5076C20.1369 17.2319 20.802 16.9168 21.1932 16.7396L22.1516 15.7352C22.4059 14.8095 22.621 13.8839 22.8557 12.9386L22.1125 13.1749L22.9927 12.2492C23.1883 11.5206 23.3643 10.7919 23.5403 10.0632C23.11 10.1223 22.6601 10.201 22.2298 10.2601C22.3081 9.88592 22.3472 9.53142 22.3863 9.17692C22.1711 9.13752 21.956 9.05876 21.7408 9.03906C21.6924 9.49024 21.6139 9.93765 21.5061 10.3783L21.4474 10.398C21.0129 10.4635 20.6022 10.6398 20.2543 10.91L20.3716 10.5555C19.6675 10.6737 18.9633 10.8116 18.2592 10.9494L17.555 11.6978L17.5746 11.619L17.8093 11.0282C17.1247 11.1857 16.4205 11.3236 15.7164 11.4812C15.5795 10.5358 15.423 9.68896 15.3056 8.99966L14.7188 9.05874C14.8362 9.76774 14.9927 10.6343 15.1491 11.5993L14.6601 11.7175L14.0342 12.3871C13.6039 11.9144 12.7042 12.2098 12.1369 12.3477C11.5306 12.5053 10.9242 12.6825 10.3178 12.8401C10.1385 12.8808 9.96212 12.9334 9.78973 12.9976C9.32004 12.3419 8.90151 11.6505 8.5379 10.9297L8.47922 10.7919C8.30318 10.8706 8.12714 10.9297 7.93154 11.0282L8.00978 11.1857C8.35779 11.8966 8.75655 12.5812 9.20293 13.234C8.52693 13.5301 7.92045 13.9663 7.42298 14.5141C7.42298 14.5141 6.56235 15.4003 6.46455 15.5185C6.25169 15.7699 6.06183 16.0402 5.89731 16.326C4.97004 14.427 4.24868 12.4329 3.74572 10.3783C7.79462 8.33005 11.3936 7.24686 15.9902 7.24686ZM16.4401 18.6893C16.8704 18.512 17.2812 18.3151 17.7115 18.1379L17.9071 17.9212C18.004 17.9376 18.1023 17.9442 18.2005 17.9409C18.401 17.9089 18.5976 17.8561 18.7873 17.7834C18.6604 18.2283 18.5689 18.6827 18.5134 19.1423C17.9267 19.3589 17.2421 19.5756 16.4792 19.7725C16.4597 19.3983 16.4597 19.0635 16.4401 18.6893ZM13.5061 20.0285L13.9169 19.8316L14.934 19.0044L15.1687 18.3939C15.3056 18.6893 15.3839 18.8075 15.5403 19.1029L15.8729 18.9453V19.8907C15.104 20.0754 14.3161 20.168 13.5257 20.1664L13.5061 20.0285Z" fill="white"/>
<path d="M18.4743 8.80272C19.4351 8.7952 20.3954 8.84782 21.3496 8.96027C22.0698 9.10462 22.7816 9.28871 23.4817 9.51171C23.7589 10.4849 23.8972 11.4928 23.8924 12.5053C23.8916 13.34 23.7998 14.1722 23.6186 14.9868C22.4059 16.9168 21.291 18.0197 19.1198 18.9059C19.2002 18.4312 19.3179 17.9636 19.4719 17.5076C20.1174 17.2319 20.7628 16.9168 21.1736 16.7593L22.132 15.7548C22.3668 14.8095 22.6015 13.8839 22.8362 12.9582L22.0929 13.1946L22.9731 12.2689C23.1491 11.5402 23.3447 10.8116 23.5208 10.0829C23.0905 10.1419 22.6406 10.2207 22.2103 10.2798C22.269 9.90561 22.3276 9.55111 22.3668 9.19661C22.1516 9.13753 21.9364 9.07845 21.7213 9.03906C21.6729 9.49675 21.5945 9.95072 21.4866 10.398L21.4279 10.4177C20.9826 10.4652 20.5609 10.6432 20.2152 10.9297L20.3521 10.5752C19.6284 10.6934 18.9438 10.8313 18.2201 10.9691L17.5355 11.6978L17.555 11.6387L17.7897 11.0479C17.0856 11.2054 16.401 11.3433 15.6968 11.5009C15.5599 10.5358 15.4034 9.68897 15.2861 8.99967C16.3433 8.86299 17.4084 8.7972 18.4743 8.80272ZM22.9927 16.8971C22.3142 18.4275 21.2972 19.7815 20.0196 20.8557C19.8826 20.8754 19.0416 20.9345 19.0611 19.5952C20.8215 18.9059 21.9756 18.0985 22.9927 16.8971ZM19.3154 21.3874C18.3255 22.0992 17.2202 22.6323 16.0489 22.963C16.4401 22.1161 16.4597 20.639 16.4597 20.383C17.2029 20.1861 17.868 19.9891 18.4939 19.7922C18.5135 20.4815 18.7873 21.1511 19.3154 21.3874ZM15.0905 23.1796C14.7579 23.2387 14.4059 23.2781 14.0734 23.3175C13.7017 22.9433 13.3301 22.5494 12.978 22.1752C13.3301 21.8601 13.5452 21.4071 13.5648 20.7572C14.3411 20.7565 15.115 20.6706 15.8729 20.5012C15.8533 21.7025 15.6773 22.5691 15.3447 22.9236C15.3422 22.9235 15.3396 22.924 15.3372 22.925C15.3348 22.9259 15.3326 22.9274 15.3308 22.9292C15.329 22.9311 15.3275 22.9333 15.3266 22.9357C15.3256 22.9381 15.3251 22.9407 15.3252 22.9433C15.2274 23.0418 15.1491 23.1205 15.0905 23.1796ZM12.5868 21.7419C12.3325 21.4465 12.0782 21.1314 11.8435 20.8163L12.0587 20.7178C12.3912 20.7375 12.6846 20.7572 12.978 20.7572C12.9706 21.1224 12.8316 21.4724 12.5868 21.7419ZM7.93155 13.9823C7.59433 13.1381 7.30054 12.277 7.05135 11.4024C7.32519 11.2645 7.59903 11.1463 7.89243 11.0282L7.95111 11.1857C8.30583 11.897 8.71113 12.5815 9.16382 13.234C8.71889 13.4213 8.3037 13.6735 7.93155 13.9823ZM8.42054 10.7918C10.4272 9.95411 12.5298 9.37191 14.6797 9.05874C14.7971 9.76774 14.9536 10.6343 15.0905 11.5993L14.6015 11.7175L13.9951 12.3871C13.5452 11.9144 12.6455 12.2098 12.0978 12.3477C11.4914 12.5053 10.8851 12.6825 10.2787 12.8401C10.0994 12.8808 9.92301 12.9334 9.75062 12.9976C9.28726 12.3415 8.87526 11.6501 8.51834 10.9297L8.42054 10.7918ZM16.4401 18.6893C16.8704 18.512 17.2812 18.3151 17.7115 18.1379L17.9071 17.9212C18.004 17.9376 18.1023 17.9442 18.2005 17.9409C18.4004 17.9065 18.5969 17.8538 18.7873 17.7834C18.6511 18.226 18.5593 18.6812 18.5134 19.1423C17.9071 19.3589 17.2421 19.5756 16.4597 19.7725C16.4597 19.3983 16.4597 19.0635 16.4401 18.6893ZM13.5061 20.0285L13.9169 19.8316L14.934 19.0044L15.1687 18.3939C15.3056 18.6893 15.3839 18.8075 15.5403 19.1029L15.8729 18.965V19.9104C15.1023 20.0855 14.3155 20.1779 13.5257 20.1861L13.5061 20.0285Z" fill="#F05133"/>
<path d="M16.2054 25.8778C14.2679 24.5679 12.5174 22.9975 11.0024 21.2102L11.8435 20.8163C12.0978 21.1314 12.3521 21.4465 12.6064 21.7419C12.7264 21.8955 12.8571 22.0403 12.9976 22.1752C14.1156 23.4188 15.354 24.5469 16.6944 25.543C16.5375 25.6634 16.3743 25.7752 16.2054 25.8778ZM6.97311 14.908C6.40125 13.6391 5.92397 12.329 5.54524 10.9888C8.88694 9.38412 12.5243 8.49872 16.2249 8.38913C17.947 8.40387 19.6634 8.58856 21.3496 8.94058C20.3945 8.83847 19.4348 8.78588 18.4743 8.78302C17.4019 8.77812 16.3304 8.84391 15.2665 8.97996C15.0709 8.99966 14.8753 9.03905 14.6797 9.05874C12.5306 9.36512 10.4279 9.94072 8.42054 10.7722C8.2445 10.8509 8.0489 10.9297 7.87286 11.0085C7.59903 11.1267 7.32519 11.2645 7.05135 11.4024C7.28814 12.2785 7.5755 13.1399 7.91198 13.9823C7.73595 14.1399 7.54035 14.3171 7.36431 14.4944L6.97311 14.908Z" fill="#FDBB30"/>
<path d="M2.74817 9.9253C7.14915 7.66044 11.0024 6.4 16.0098 6.4C20.9976 6.4 24.8704 7.66043 29.2714 9.9253C27.2176 18.2166 23.3056 23.7311 15.9902 28.1426C13.2323 26.4686 10.8264 24.5188 8.8313 22.254C8.28362 22.5297 7.83375 22.7464 7.59903 22.8645C6.91443 23.219 6.22983 23.5538 5.54524 23.9083C4.76284 24.3022 3.90221 24.9127 3.00245 24.6764C2.02446 24.2431 2.66993 23.0418 2.96333 22.3722C3.72617 20.6588 4.52812 18.9453 5.34963 17.2516C4.32305 15.3179 3.54736 13.2594 3.04157 11.1267L2.74817 9.9253ZM15.9902 7.24686C11.3936 7.24686 7.79463 8.33005 3.70661 10.3783C4.19749 12.4275 4.91254 14.4157 5.83864 16.3063C6.01007 16.0201 6.20645 15.7499 6.42543 15.4988C6.52323 15.4003 7.36431 14.4944 7.36431 14.4944C7.87043 13.9477 8.48301 13.512 9.16382 13.2143C8.70692 12.5646 8.30143 11.8797 7.95111 11.166L7.89243 11.0085C8.06847 10.9297 8.2445 10.8509 8.4401 10.7722L8.49878 10.91C8.85561 11.6368 9.26759 12.3347 9.73106 12.9976C9.9071 12.9385 10.0831 12.8795 10.2787 12.8204C10.8851 12.6628 11.4719 12.5053 12.0978 12.3477C12.6455 12.1902 13.5452 11.8947 13.9756 12.3674L14.6015 11.6978L15.0905 11.5993C14.934 10.6146 14.7971 9.74805 14.6602 9.05875C14.8557 9.03905 15.0513 8.99966 15.2469 8.97997C15.3643 9.66927 15.5208 10.5358 15.6577 11.4615C16.3619 11.3236 17.0465 11.166 17.7506 11.0282L17.5159 11.619L17.4963 11.6781L18.2005 10.9297C18.9046 10.8115 19.5892 10.6737 20.313 10.5358L20.1956 10.91C20.5396 10.6297 20.9513 10.4462 21.3888 10.3783H21.4474C21.5611 9.93127 21.646 9.47736 21.7017 9.01936C21.9169 9.05875 22.132 9.11783 22.3276 9.15722C22.3057 9.52206 22.2533 9.88439 22.1712 10.2404C22.621 10.1813 23.0513 10.1222 23.5012 10.0435C23.3056 10.7722 23.1296 11.5205 22.9535 12.2492L22.0734 13.1749L22.8166 12.9385C22.5623 13.8642 22.3276 14.7898 22.1125 15.7351L21.154 16.7396C20.7433 16.9168 20.0782 17.2319 19.4523 17.4879C19.3006 17.9446 19.1829 18.412 19.1002 18.8862C21.2714 18 22.3863 16.8774 23.599 14.9671C23.4429 15.6225 23.2268 16.262 22.9535 16.8774C21.9364 18.0788 20.802 18.8862 19.022 19.5558C19.0024 20.9148 19.8631 20.8557 19.9804 20.8163C19.7627 21.0152 19.5269 21.1932 19.2763 21.348C18.7482 21.1117 18.4743 20.4421 18.4548 19.7528C17.8484 19.9694 17.1834 20.1467 16.4205 20.3436C16.401 20.5997 16.401 22.0767 16.0098 22.9236C15.6942 23.0124 15.3743 23.0847 15.0513 23.1402C15.1279 23.0731 15.1998 23.0007 15.2665 22.9236L15.2861 22.9039C15.6381 22.5494 15.7946 21.6829 15.8337 20.4815C15.0746 20.6458 14.3019 20.7381 13.5257 20.7572C13.5061 21.4071 13.291 21.8601 12.9389 22.1555C12.802 22.0176 12.6846 21.8798 12.5477 21.7419C12.7829 21.468 12.9145 21.1193 12.9193 20.7572C12.6455 20.7375 12.3325 20.7178 12.0196 20.6981C11.2372 21.0723 10.3374 21.5056 9.55502 21.8601C11.4257 23.9125 13.5798 25.6835 15.9511 27.1185C22.5819 23.0024 26.2201 17.9212 28.2152 10.3586C24.1858 8.33005 20.5868 7.24686 15.9902 7.24686ZM16.4401 18.6893C16.4597 19.0635 16.4597 19.3983 16.4597 19.7528C17.2421 19.5559 17.9071 19.3589 18.5134 19.1423C18.561 18.675 18.6527 18.2134 18.7873 17.7637C18.5969 17.8341 18.4004 17.8868 18.2005 17.9212C18.1037 17.9411 18.0039 17.9411 17.9071 17.9212L17.7115 18.1182C17.2812 18.3151 16.8704 18.512 16.4401 18.6893ZM13.5061 20.0285L13.5257 20.1664C14.3161 20.168 15.104 20.0754 15.8729 19.8907V18.9453L15.5403 19.1029C15.3839 18.8075 15.3252 18.6893 15.1687 18.3939L14.934 19.0044L13.9169 19.8316L13.5061 20.0285Z" fill="#002D62"/>
<path d="M10.3374 13.1749C9.30073 13.4703 8.38142 13.9036 7.63814 14.7307C7.2339 15.2245 6.89224 15.767 6.62103 16.3457C5.79951 18.0591 4.99756 19.7725 4.23472 21.4859C4.03912 21.9389 3.43276 23.0221 4.07824 23.3175C4.80196 23.4947 5.70171 22.8842 6.32763 22.5691C7.01223 22.2146 7.71638 21.8601 8.40098 21.5253C9.57457 20.9345 10.6308 20.2255 11.3545 19.0832C11.617 18.5845 11.852 18.0717 12.0587 17.547C12.5086 16.4245 12.9584 15.3216 13.4279 14.2187C13.6039 13.7854 13.9169 13.2734 13.8191 12.8204C13.6235 12.2099 12.5868 12.5841 12.1565 12.7022C11.5501 12.8598 10.9438 13.0173 10.3374 13.1749ZM9.0269 19.5362C8.47922 19.7922 7.9511 20.0285 7.40342 20.2845C8.18582 18.453 9.00734 16.6214 9.86797 14.7898C10.3374 14.652 10.8264 14.4747 11.3154 14.3368C10.5134 16.07 9.75061 17.8031 9.0269 19.5362ZM18.3961 11.2645C17.6333 12.2689 16.89 13.2734 16.1467 14.2778C16.4988 13.3718 16.8509 12.4462 17.2029 11.5205C16.4205 11.6781 15.6186 11.8553 14.8557 12.0326C14.6406 12.5053 14.445 12.9779 14.2494 13.4703C14.4097 13.4152 14.573 13.3692 14.7384 13.3324C14.132 14.8292 13.5257 16.326 12.9389 17.8424C12.6846 18.453 12.4499 19.0832 12.2152 19.6937C12.9976 19.3195 13.7995 18.9453 14.5819 18.5908C14.934 17.5864 15.2861 16.6017 15.6577 15.5973C15.9902 16.2866 16.3227 16.9562 16.6553 17.6258C17.1638 17.4092 17.6724 17.1728 18.1809 16.9562C17.868 16.2472 17.555 15.5382 17.2421 14.8292C17.8093 13.9627 18.3765 13.0961 18.9438 12.2492C19.1002 12.2098 19.2763 12.1902 19.4328 12.1508C19.5697 11.7766 19.687 11.4024 19.8044 11.0282C19.335 11.107 18.8655 11.1857 18.3961 11.2645ZM21.4474 10.7525C21.0244 10.8096 20.6287 10.9951 20.313 11.2842C20.0758 11.5649 19.9023 11.8942 19.8044 12.2492C19.4719 13.3127 19.1394 14.3762 18.7873 15.4397C18.6504 15.8533 18.4352 16.6214 19.1002 16.582C19.3313 16.5329 19.5549 16.4535 19.7653 16.3457C20.4499 16.0503 21.1345 15.7745 21.8191 15.4988C21.9755 14.8292 22.1516 14.1596 22.3276 13.49C21.9756 13.5885 21.6235 13.7066 21.2518 13.8248C21.154 14.1399 21.0758 14.4353 20.9976 14.7504C20.7433 14.8292 20.489 14.9277 20.2543 15.0064C20.5672 13.9233 20.8606 12.8598 21.1932 11.7766C21.4083 11.7175 21.6235 11.6781 21.8386 11.619C21.7981 11.8124 21.7459 12.0032 21.6821 12.1902C22.0147 12.1114 22.3276 12.0326 22.6601 11.9538C22.7775 11.4812 22.8949 10.9888 23.0122 10.4964C22.5037 10.5752 21.9756 10.6737 21.4474 10.7525Z" fill="white"/>
<path d="M24.3032 9.74805C24.6161 9.86621 24.9291 9.96468 25.2421 10.0829C25.9853 10.3783 26.6504 10.654 27.2176 10.9297C25.5656 16.739 21.9905 21.8049 17.0856 25.2869L16.6944 25.5626C15.8889 24.9574 15.1183 24.3064 14.3863 23.6129L15.0709 23.5144C17.9485 23.0231 20.5161 21.4051 22.213 19.014C23.9098 16.6228 24.5979 13.6528 24.1271 10.7525C24.1076 10.6737 24.088 10.5949 24.0685 10.5161L24.0489 10.4374L24.0293 10.4177L23.9511 10.1419L23.9315 10.1025L23.912 10.0238L23.8924 10.0041V9.96468C23.8716 9.84994 23.8388 9.73772 23.7946 9.62988C23.966 9.66051 24.1358 9.69995 24.3032 9.74805Z" fill="#007AC1"/>
</g>
<defs>
<clipPath id="clip0_12_371">
<rect width="32" height="32" rx="16" fill="white"/>
</clipPath>
</defs>
</svg>
