<svg width="32" height="32" viewBox="0 0 32 32" fill="none" xmlns="http://www.w3.org/2000/svg">
<g clip-path="url(#clip0_13_714)">
<rect width="32" height="32" rx="16" fill="#0077C0"/>
<g clip-path="url(#clip1_13_714)">
<path d="M20.83 6.83001C34.75 12.33 29 28.53 18.76 28.7C17.4004 28.6709 16.0603 28.3696 14.8191 27.814C13.5778 27.2584 12.4604 26.4597 11.5329 25.4651C10.6054 24.4705 9.88665 23.3002 9.41897 22.0231C8.9513 20.7461 8.74423 19.3884 8.81001 18.03C6.3 16.03 3.14001 15.03 0.0800056 14.18C3.21746 13.9468 6.36517 14.4679 9.26 15.7L10.2 13.7C5.53 11.98 -1.88 11.7 -6.43 13.88L-5.18 10.97C-10.4874 12.3057 -15.3695 14.9652 -19.37 18.7C-16.58 13.36 -10.26 7.94001 -4.49 6.14001L-4.92 7.40001C-1.21047 6.06971 2.67431 5.29141 6.61 5.09001C10.1128 4.82101 13.636 5.03637 17.08 5.73001C16.56 5.05001 15.72 3.85001 15.72 3.85001L18.4 4.53001L19.09 3.43001L19.79 2.29001L20.19 5.05001L22.75 5.89001L20.83 6.83001Z" fill="#130C0E"/>
<path fill-rule="evenodd" clip-rule="evenodd" d="M22 14.25C22.8824 13.5974 23.621 12.7703 24.17 11.82C22.61 10.3 19.65 8.42 12.1 7.91C14.8786 8.41542 17.5462 9.40731 19.98 10.84C19.2557 10.5479 18.5058 10.3236 17.74 10.17C17.33 10.22 16.74 10.28 16.33 10.37C18.5177 11.1631 20.4685 12.498 22 14.25ZM21.46 14.63C16.46 9.15 6.53001 8.07001 -0.359985 9.94001C4.42001 9.81001 13.9 10.07 17.29 14.09C16.19 13.49 13.98 12.47 12.67 12.54C12.2053 13.0602 11.7901 13.6226 11.43 14.22C14.75 15.44 18.16 16.68 21.43 14.63M23.34 17.47C22.89 16.6722 22.3749 15.913 21.8 15.2C18.22 17.49 14.63 16.2 11 14.83C10.0938 16.6945 9.8708 18.8179 10.37 20.83C14.927 20.9353 19.4249 19.7831 23.37 17.5M24.28 19.79C24.11 19.24 23.91 18.7 23.69 18.17C19.7377 20.4442 15.2497 21.6214 10.69 21.58C11.288 23.263 12.3884 24.7218 13.8425 25.7591C15.2965 26.7965 17.034 27.3622 18.82 27.38C20 24.46 21.32 21.26 24.33 19.79M24.55 20.52C21.79 21.81 20.67 24.71 19.55 27.36C21.3434 27.1975 23.0468 26.5009 24.44 25.36C24.8264 23.7795 24.8538 22.1325 24.52 20.54M25.11 20.22C25.4107 21.5849 25.5185 22.9852 25.43 24.38C26.4975 23.0464 27.1881 21.451 27.43 19.76C26.6375 19.8175 25.855 19.972 25.1 20.22M24.27 17.83C24.5204 18.3866 24.7374 18.9576 24.92 19.54C25.7595 19.2708 26.6298 19.1095 27.51 19.06C27.5374 17.8877 27.344 16.7208 26.94 15.62C26.1318 16.4502 25.2366 17.1911 24.27 17.83ZM22.43 14.83C22.9871 15.5565 23.4917 16.3218 23.94 17.12C24.9274 16.4743 25.8223 15.6971 26.6 14.81C26.0748 13.858 25.3995 12.9969 24.6 12.26C24.0387 13.2472 23.2956 14.1192 22.41 14.83" fill="#BBC4CA"/>
<path d="M17.3 7.58001L18.85 7.04001L20.02 8.37001L19.89 6.63001L21.39 5.97001L19.75 5.44001L19.5 3.70001L18.63 5.11001L16.98 4.69001L18.07 6.10001L17.3 7.58001Z" fill="#BBC4CA"/>
<path fill-rule="evenodd" clip-rule="evenodd" d="M20.51 26.58C21.5333 26.2482 22.491 25.7406 23.34 25.08C23.6447 24.0561 23.7633 22.9858 23.69 21.92L22.69 23.67L23.02 21.97C21.8538 23.2968 21.0087 24.8742 20.55 26.58M11.94 22.58C15.1041 22.4686 18.2018 21.6412 21 20.16C19.36 21.82 17.62 22.72 15 24.1C17.91 23.61 19.34 22.47 21.25 21.1C19.9768 22.7329 18.8523 24.4765 17.89 26.31C17.89 26.31 14.5 26.74 11.89 22.66M11.43 16.2C13.5376 17.1047 15.8174 17.5381 18.11 17.47L14.21 18.63C16.2824 18.704 18.3564 18.5362 20.39 18.13C17.4664 19.4415 14.2942 20.1066 11.09 20.08C10.7291 18.7882 10.8499 17.4093 11.43 16.2Z" fill="#0077C0"/>
<path d="M9.03996 8.83L10.12 8.3L11.02 9.1L10.84 7.91L11.88 7.31L10.69 7.11L10.44 5.94L9.87996 7L8.68996 6.88L9.52996 7.74L9.03996 8.83ZM-3.06004 11.21L-2.35004 10.86L-1.76004 11.39L-1.88004 10.61L-1.20004 10.21L-1.97004 10.08L-2.14004 9.31L-2.51004 10L-3.29004 9.93L-2.74004 10.49L-3.06004 11.21Z" fill="white"/>
<path fill-rule="evenodd" clip-rule="evenodd" d="M26 14.57C25.76 14.83 25.53 15.06 25.29 15.28C25.0117 14.7291 24.6907 14.2009 24.33 13.7C24.51 13.47 24.69 13.24 24.86 12.99C25.3083 13.4639 25.6916 13.9952 26 14.57ZM27 18.15C26.71 18.15 26.45 18.23 26.19 18.29C26.1318 17.8687 26.0483 17.4513 25.94 17.04C26.22 16.8 26.49 16.56 26.77 16.3C26.924 16.9046 27.0012 17.5261 27 18.15ZM26 21.99V21.84C26.1165 21.2601 26.1834 20.6713 26.2 20.08L26.67 19.98C26.5175 20.6671 26.2964 21.3371 26.01 21.98M19.31 9.76L18.9 9.56C20.5085 9.99354 22.0237 10.7189 23.37 11.7C23.2479 11.8906 23.1108 12.0712 22.96 12.24C21.9312 11.1684 20.6873 10.3267 19.31 9.77" fill="white"/>
</g>
</g>
<defs>
<clipPath id="clip0_13_714">
<rect width="32" height="32" rx="16" fill="white"/>
</clipPath>
<clipPath id="clip1_13_714">
<rect width="50" height="27" fill="white" transform="translate(-20 2)"/>
</clipPath>
</defs>
</svg>
