<svg width="32" height="32" viewBox="0 0 32 32" fill="none" xmlns="http://www.w3.org/2000/svg">
<g clip-path="url(#clip0_13_886)">
<rect width="32" height="32" rx="16" fill="#3C286E"/>
<mask id="mask0_13_886" style="mask-type:luminance" maskUnits="userSpaceOnUse" x="-1" y="3" width="32" height="27">
<path d="M31 3H-1V29.3529H31V3Z" fill="white"/>
</mask>
<g mask="url(#mask0_13_886)">
<path d="M22.2308 3L19.2959 5.94775L14.0135 3.5642L13.2864 8.30756L8.57887 9.33326L11.3645 11.021L8.56227 12.4351L10.9426 12.6427L1.14889 20.3033L11.0003 15.0407L0.43174 23.1307L11.6814 17.2343L-0.335195 26.3189L12.9092 19.2227L-1 29.3526L14.4092 20.8675L3.95971 29.3526L16.6392 22.0264L16.4301 23.5033L18.5446 22.3223L23.3211 26.8632L25.8635 19.183L29.5402 18.9448L27.6696 14.2862L30.9997 11.6655L26.6933 9.97897L27.7845 5.32033L24.1193 7.00747L22.2308 3Z" fill="#F9A333"/>
<mask id="mask1_13_886" style="mask-type:luminance" maskUnits="userSpaceOnUse" x="-1" y="3" width="32" height="27">
<path d="M31 3H-1V29.3526H31V3Z" fill="white"/>
</mask>
<g mask="url(#mask1_13_886)">
<path d="M27.1975 14.3539C27.022 18.612 23.4474 21.9208 19.2132 21.7446C14.9789 21.5684 11.6884 17.9747 11.8639 13.7172C12.0395 9.4597 15.6131 6.14994 19.8464 6.32549C24.0797 6.50104 27.3731 10.0958 27.1975 14.3539Z" fill="#E66735"/>
<path d="M20.4703 20.6926C16.237 20.5158 12.9449 16.921 13.1204 12.6636C13.195 10.7714 13.9622 8.9736 15.2748 7.61563C14.267 8.28954 13.4325 9.19406 12.8396 10.255C12.2467 11.3159 11.9123 12.5031 11.8639 13.7191C11.6887 17.9766 14.9789 21.5713 19.2132 21.7462C20.2942 21.7924 21.3728 21.6075 22.3775 21.2037C23.3823 20.7998 24.2904 20.1862 25.0419 19.4034C23.6933 20.3115 22.0919 20.7637 20.4703 20.6942" fill="#BB6130"/>
<path d="M27.2009 14.1252C27.2051 13.8518 27.1944 13.5784 27.169 13.3062C26.6972 12.9693 26.1505 12.7538 25.5767 12.6788C25.4589 12.664 25.346 12.6573 25.2304 12.6486C25.1566 12.142 25.0424 11.6422 24.8889 11.154C24.9687 11.1592 25.0485 11.1627 25.1293 11.1681C25.6689 11.2086 26.2007 11.2699 26.725 11.3469C26.6513 11.1505 26.5699 10.9579 26.4825 10.7692C25.892 10.679 25.293 10.6088 24.6859 10.5632H24.6802C24.4855 10.0668 24.248 9.58848 23.9704 9.13376C24.3623 9.05256 24.7121 8.89145 24.9955 8.62219C24.8503 8.47489 24.6993 8.33335 24.543 8.19632C24.2966 8.4245 23.9771 8.54517 23.6113 8.59395C23.5555 8.51532 23.4996 8.43605 23.4412 8.35999C22.9351 7.69474 22.3334 7.10884 21.6559 6.62151C21.0666 6.45058 20.459 6.35134 19.8462 6.32593C19.8121 6.32593 19.7779 6.32593 19.7432 6.32433C20.9087 6.78518 21.9504 7.55959 22.7876 8.59716C21.9897 8.51982 21.0689 8.25055 20.1577 7.98226C19.889 7.9017 19.6254 7.82372 19.3697 7.75311C17.8199 7.3221 16.6279 7.25342 15.7333 7.33141C15.0701 7.71208 14.467 8.18983 13.9437 8.74896C14.9095 8.3433 16.8589 7.65138 19.2232 8.30961C19.4744 8.37957 19.7358 8.45595 20.0007 8.53426C21.046 8.84364 22.2192 9.18799 23.2319 9.19891C23.511 9.61729 23.7526 10.0598 23.9538 10.5211C23.7546 10.5117 23.5564 10.5053 23.3592 10.5019C18.4321 10.4162 14.2077 11.8989 11.8619 14.2645C11.8738 14.7272 11.9272 15.1879 12.0215 15.641C12.6831 14.6862 13.6619 13.8245 14.9258 13.1095C17.3105 11.7615 20.4753 11.0523 23.8376 11.1107C23.9535 11.1126 24.07 11.1174 24.1855 11.1216C24.3567 11.6135 24.4835 12.12 24.5643 12.6348C22.3989 12.7272 20.9946 14.0864 19.3831 15.5328C17.9348 16.8348 16.1705 18.1317 13.5853 18.9125C13.8289 19.2128 14.0945 19.4943 14.38 19.7547C16.8142 18.7694 18.4333 17.2344 19.798 16.0059C21.3495 14.6111 22.681 13.2734 24.6371 13.2073C24.6887 13.7585 24.6896 14.3133 24.64 14.8646C24.3767 17.8875 22.6366 20.4488 20.2618 21.7146C20.8599 21.6585 21.4492 21.5307 22.0171 21.334C22.2086 21.1757 22.3931 21.0095 22.5722 20.832C24.1284 19.2915 25.0954 17.1911 25.2927 14.9218C25.3417 14.3605 25.3428 13.796 25.2959 13.2346C25.3942 13.2455 25.4905 13.2536 25.5911 13.2709C26.2575 13.3803 26.787 13.7183 27.2003 14.1252" fill="#2A3236"/>
</g>
</g>
</g>
<defs>
<clipPath id="clip0_13_886">
<rect width="32" height="32" rx="16" fill="white"/>
</clipPath>
</defs>
</svg>
