<svg width="32" height="32" viewBox="0 0 32 32" fill="none" xmlns="http://www.w3.org/2000/svg">
<g clip-path="url(#clip0_13_796)">
<rect width="32" height="32" rx="16" fill="black"/>
<path d="M23.7893 23.7698C24.2827 23.2747 24.7316 22.7307 25.1218 22.152C25.5191 21.5636 25.8604 20.9351 26.136 20.2827C26.7093 18.9262 27.0009 17.4853 27.0009 16C27.0009 14.5147 26.7102 13.0738 26.136 11.7173C25.8604 11.0658 25.5191 10.4364 25.1218 9.848C24.728 9.26578 24.2764 8.71734 23.7778 8.21956C23.5618 8.00356 23.336 7.79645 23.1031 7.59823L28 2.70222H13.7351L8.22933 8.208C8.22578 8.21156 8.22222 8.216 8.21778 8.21956C7.72 8.71734 7.26756 9.26578 6.87378 9.848C6.47644 10.4364 6.13511 11.0649 5.85956 11.7173C5.28622 13.0738 4.99467 14.5147 4.99467 16C4.99467 17.4853 5.28533 18.9262 5.85956 20.2827C6.13511 20.9342 6.47644 21.5636 6.87378 22.152C7.26756 22.7342 7.71911 23.2827 8.21778 23.7804C8.43467 23.9973 8.66044 24.2053 8.89511 24.4036L4 29.2978H18.2613L23.7893 23.7698Z" fill="black"/>
<path d="M23.1351 23.1689C27.088 19.216 27.0871 12.8053 23.1333 8.85245C22.9173 8.63645 22.6942 8.43289 22.4649 8.24089L16.4773 14.2284C16.7724 14.3111 17.0506 14.4684 17.2826 14.6996C17.2835 14.7004 17.2835 14.7004 17.2844 14.7013C18.0071 15.424 18.0071 16.5964 17.2844 17.32L6.19464 28.4098H7.4942L17.9342 17.9698C19.0124 16.8916 19.016 15.1449 17.944 14.0622L18.5938 13.4124C20.0249 14.8533 20.0213 17.1822 18.584 18.6196L8.79375 28.4098H10.0933L19.2346 19.2684C21.0311 17.472 21.0338 14.5627 19.2444 12.7618L19.8942 12.112C22.0426 14.2711 22.0391 17.7627 19.8844 19.9173L11.3929 28.4089H12.6924L20.5333 20.568C23.0471 18.0542 23.0506 13.9804 20.5431 11.4631L21.1929 10.8133C24.0586 13.6898 24.056 18.3458 21.1831 21.2178L13.9911 28.4098H15.2906L21.8329 21.8676C25.064 18.6364 25.0675 13.3991 21.8426 10.1636L22.4969 9.50934C26.0826 13.1058 26.08 18.9289 22.4871 22.5209L16.5991 28.4089H17.8986L23.1351 23.1689Z" fill="white"/>
<path d="M8.86664 8.84C4.91375 12.7929 4.91464 19.2036 8.86842 23.1564C9.08442 23.3724 9.30753 23.576 9.53686 23.768L15.5244 17.7804C15.2293 17.6978 14.9511 17.5404 14.7191 17.3093C14.7182 17.3084 14.7182 17.3084 14.7173 17.3076C13.9946 16.5849 13.9946 15.4124 14.7173 14.6889L25.8222 3.58489H24.5226L14.0675 14.04C12.9893 15.1182 12.9857 16.8649 14.0577 17.9476L13.408 18.5973C11.9769 17.1564 11.9804 14.8276 13.4177 13.3902L23.224 3.58489H21.9244L12.768 12.7404C10.9715 14.5369 10.9689 17.4462 12.7582 19.2471L12.1084 19.8969C9.95997 17.7378 9.96353 14.2462 12.1182 12.0916L20.6249 3.58489H19.3253L11.4684 11.4418C8.95464 13.9556 8.95108 18.0293 11.4586 20.5467L10.8089 21.1964C7.94308 18.32 7.94575 13.664 10.8186 10.792L18.0257 3.58489H16.7262L10.1689 10.1422C6.93775 13.3733 6.93419 18.6107 10.1591 21.8462L9.50486 22.5004C5.91908 18.904 5.92175 13.0809 9.51464 9.48889L15.4177 3.58578H14.1182L8.86664 8.84Z" fill="#C8102E"/>
</g>
<rect x="0.5" y="0.5" width="31" height="31" rx="15.5" stroke="black"/>
<defs>
<clipPath id="clip0_13_796">
<rect width="32" height="32" rx="16" fill="white"/>
</clipPath>
</defs>
</svg>
