<svg width="32" height="32" viewBox="0 0 32 32" fill="none" xmlns="http://www.w3.org/2000/svg">
<rect width="32" height="32" rx="16" fill="#592C82"/>
<g clip-path="url(#clip0_13_932)">
<mask id="mask0_13_932" style="mask-type:luminance" maskUnits="userSpaceOnUse" x="3" y="1" width="26" height="29">
<path d="M28.8982 1H3V30H28.8982V1Z" fill="white"/>
</mask>
<g mask="url(#mask0_13_932)">
<path d="M28.8982 1L25.191 4.65109L22.094 1.61383L18.9822 4.65109L15.8903 1.61629L12.7985 4.65355L9.70408 1.61629L6.6147 4.65355L3 1.07366V17.2445C3 24.2766 8.74849 30 15.9103 30C23.0722 30 28.8982 24.2766 28.8982 17.2445V1Z" fill="white"/>
<path d="M4.1557 19.4592C4.46089 20.9815 5.06625 22.4129 5.9593 23.7167C6.49713 22.7886 7.57529 21.6371 9.69157 21.1485C9.52897 20.6156 9.38388 20.0485 9.2613 19.4592H4.1557Z" fill="#5B6670"/>
<path d="M6.80225 24.8119C9.08863 27.4416 12.3831 28.959 15.8527 28.9811C15.525 28.8166 15.2049 28.6373 14.8971 28.441C13.4263 27.5079 11.4025 25.6909 10.0967 22.3222C8.0405 22.7617 7.16997 23.9059 6.80225 24.8119Z" fill="#5B6670"/>
<path d="M11.3651 22.1478C12.2931 24.4363 13.694 26.1943 15.5326 27.3728C16.7483 28.1536 17.9141 28.5096 18.682 28.6717C20.6032 28.2322 22.3993 27.3213 23.8852 26.0371C22.7119 25.9119 21.5112 25.249 20.2405 24.5492C18.2593 23.4566 15.7902 22.0988 12.4607 22.0988C12.1005 22.0988 11.7328 22.1159 11.3651 22.1478Z" fill="#5B6670"/>
<path d="M16.3731 13.5075H12.088V18.5139H13.8665V14.4971H15.2024V18.5139H16.8984V14.2097C16.8984 13.8291 16.6607 13.5075 16.3706 13.5075H16.3731Z" fill="#592C82"/>
<path d="M17.6538 13.5075V17.8018C17.6538 18.1848 17.889 18.5139 18.1791 18.5139H22.4592V15.4741H20.7508V17.5219H19.415V14.4724H22.4592V13.505H17.6538V13.5075Z" fill="#592C82"/>
<path d="M7.35261 13.5075L6.38452 15.5307H5.82668V13.5075H4.0556V18.5139H5.82668V16.5006H6.38452L7.35261 18.5139H9.12368L7.87542 16.0145L9.12368 13.5075H7.35261Z" fill="#592C82"/>
<path d="M11.4277 13.5075H9.59406V18.5139H11.4277V13.5075Z" fill="#592C82"/>
<path d="M27.8476 14.8628V13.5099H23.1447V15.7958C23.1447 16.1764 23.3798 16.4882 23.67 16.4882H26.0665V17.5784H23.1447V18.5163H27.8501V16.2182C27.8501 15.8622 27.65 15.5282 27.3798 15.5282H24.9083V14.4798H26.144V14.8628H27.8451H27.8476Z" fill="#592C82"/>
<path d="M22.8445 8.42983H21.3436L24.4404 5.39012L22.0941 3.08947L18.9822 6.12672L15.8903 3.08947L10.452 8.42983H8.95107L12.043 5.38521L9.70403 3.08947L6.61466 6.12672L4.0556 3.63209V8.61644V12.5892H27.8475V8.7343V3.5167L22.8445 8.42983Z" fill="#592C82"/>
<path d="M9.25128 11.6267C9.25128 11.7568 9.35885 11.8624 9.49143 11.8624H10.8272V11.5088H9.73657V10.3646H10.8272V10.0135H9.25128V11.6267Z" fill="white"/>
<path d="M7.07245 10.0161V11.8649H7.55775V11.3812H8.16061V11.8649H8.64841V10.2518C8.64841 10.1143 8.53585 10.0161 8.38074 10.0161H7.07245ZM8.16311 11.0301H7.56024V10.3696H8.16311V11.0301Z" fill="white"/>
<path d="M26.7244 10.0161H25.6212C25.4912 10.0161 25.3835 10.1216 25.3835 10.2493V11.6268C25.3835 11.7569 25.4912 11.8625 25.6212 11.8625H26.7244C26.857 11.8625 26.9621 11.7544 26.9621 11.6268V10.2493C26.9621 10.1192 26.8544 10.0161 26.7244 10.0161ZM26.4742 11.5089H25.8739V10.3672H26.4742V11.5089Z" fill="white"/>
<path d="M4.89117 10.8803C4.89117 11.0104 4.99874 11.116 5.13132 11.116H5.98184V11.5113H4.89117V11.8649H6.46713V11.0006C6.46713 10.8803 6.37458 10.7796 6.252 10.7673H5.37646V10.3696H6.46713V10.0185H4.89117V10.8827V10.8803Z" fill="white"/>
<path d="M14.9097 10.0161H13.5739V11.8649H14.0617V11.3812H14.6646V11.8649H15.1524V10.2518C15.1524 10.1216 15.0448 10.0161 14.9123 10.0161H14.9097ZM14.6671 11.0301H14.0642V10.3696H14.6671V11.0301Z" fill="white"/>
<path d="M23.2623 10.3672H23.8077V11.8625H24.2929V10.3672H24.8382V10.0161H23.2623V10.3672Z" fill="white"/>
<path d="M18.2167 10.0161H15.7953V11.8649H16.283V10.3696H16.8809V11.8649H17.3737V10.3696H17.9691V11.8649H18.4569V10.2518C18.4569 10.1216 18.3493 10.0161 18.2167 10.0161Z" fill="white"/>
<path d="M22.5293 10.0161H21.1935V11.8649H21.6789V10.3696H22.2817V11.8649H22.7694V10.2518C22.7694 10.1216 22.6619 10.0161 22.5293 10.0161Z" fill="white"/>
<path d="M19.1173 11.6268C19.1173 11.7569 19.2249 11.8625 19.3575 11.8625H20.6933V11.5089H19.605V11.1136H20.6933V10.7625H19.605V10.3672H20.6933V10.0161H19.1173V11.6292V11.6268Z" fill="white"/>
<path d="M12.7059 11.1896H12.9661V10.2492C12.9661 10.1117 12.851 10.0135 12.6984 10.0135H11.3901V11.8624H11.8754V11.1896H12.2281L12.5183 11.8624H12.9936L12.7059 11.1896ZM12.4783 10.8385H11.8754V10.3671H12.4783V10.8385Z" fill="white"/>
<path d="M12.2006 20.8759C14.7346 20.8244 17.2412 21.448 20.4406 23.2379C22.8045 24.5613 23.8427 24.9615 24.5531 24.7897C25.2059 24.6326 25.8113 24.2544 26.882 22.0349C27.2897 21.1877 27.5824 20.1859 27.725 19.4592H10.527C10.6471 19.9699 10.7647 20.4781 10.9223 20.9471C11.3375 20.9005 11.7678 20.8759 12.2006 20.8759Z" fill="#5B6670"/>
</g>
</g>
<defs>
<clipPath id="clip0_13_932">
<rect width="26" height="29" fill="white" transform="translate(3 1)"/>
</clipPath>
</defs>
</svg>
