<svg width="32" height="32" viewBox="0 0 32 32" fill="none" xmlns="http://www.w3.org/2000/svg">
<rect x="0.5" y="0.5" width="31" height="31" rx="15.5" fill="black"/>
<rect x="0.5" y="0.5" width="31" height="31" rx="15.5" stroke="black"/>
<path d="M32 6.49916L29.3437 12.2312H18.672L15.3166 19.4544H12.2875C12.3108 19.1049 12.3807 18.7321 12.4972 18.3826C12.7769 17.5204 13.3361 16.7981 14.0118 16.2855C14.1982 16.4952 14.3613 16.7049 14.5011 16.9379C14.5244 16.9845 14.571 16.9612 14.5943 16.9379L19.4642 6.52246H32V6.49916Z" fill="white"/>
<path d="M7.27788 21.668C6.97497 22.2738 6.53226 22.7864 6.01964 23.1825C5.57693 22.6699 5.22741 22.0641 4.99441 21.3884C4.8313 20.9224 4.7614 20.4796 4.7381 20.0136H7.7439C7.6973 20.5728 7.53419 21.1321 7.27788 21.668Z" fill="white"/>
<path d="M9.70118 20.0136V25C8.46624 24.9301 7.3012 24.4408 6.41577 23.6019C6.99829 23.1592 7.46431 22.5767 7.79052 21.9243C8.09343 21.3185 8.25653 20.666 8.30314 20.0136H9.70118Z" fill="white"/>
<path d="M7.51089 18.3593C7.6274 18.7088 7.6973 19.0816 7.7206 19.4311H4.7381C4.808 18.2661 5.25072 17.1476 6.01964 16.2622C6.69537 16.7748 7.23128 17.4971 7.51089 18.3593Z" fill="white"/>
<path d="M9.70118 14.4447V19.4311H8.30314C8.27983 19.0117 8.18663 18.5923 8.07013 18.1729C7.74392 17.2175 7.1614 16.4253 6.41577 15.8428C6.95169 15.3535 7.60411 14.9574 8.32644 14.7011C8.79245 14.5613 9.25847 14.468 9.70118 14.4447Z" fill="white"/>
<path d="M11.6817 19.4311H10.2837V14.4447C11.5186 14.5147 12.6837 15.004 13.5691 15.8428C12.8002 16.4253 12.2177 17.2408 11.9147 18.1962C11.7982 18.5923 11.705 19.0117 11.6817 19.4311Z" fill="white"/>
<path d="M13.5924 23.6252C13.0565 24.1146 12.4041 24.5107 11.6818 24.7437C11.2157 24.9068 10.7497 24.9767 10.307 25V20.0136H11.6818C11.7284 20.666 11.8915 21.3185 12.1944 21.9243C12.5439 22.6 13.0099 23.1825 13.5924 23.6252Z" fill="white"/>
<path d="M15.2933 20.0136C15.2234 21.1787 14.7807 22.3204 14.0117 23.1825C13.4758 22.7864 13.0331 22.2738 12.7302 21.6447C12.4739 21.1321 12.3108 20.5728 12.2875 19.9903H15.2933V20.0136Z" fill="white"/>
</svg>
