<svg width="32" height="32" viewBox="0 0 32 32" fill="none" xmlns="http://www.w3.org/2000/svg">
<g clip-path="url(#clip0_13_715)">
<path d="M16.0284 0.356583H16.0014C7.37258 0.356583 0.370136 7.34493 0.356628 15.9757V16.0027C0.356628 24.6335 7.34827 31.6353 15.9825 31.6434H16.0041C24.6356 31.6434 31.6353 24.6497 31.6434 16.0189V16C31.6434 7.37195 24.6545 0.372791 16.0257 0.356583" fill="white"/>
<path d="M32 15.9649C31.9811 7.14233 24.822 0 16.0014 0H15.9662C7.14293 0.0189093 0.00270156 7.17744 0 15.9919V16.0189C0.0108062 24.8469 7.16724 31.9946 15.9959 32H16.0176C24.8463 31.9892 31.9946 24.8334 32 16.0108C32 16.0027 32 15.9973 32 15.9892C32 15.9892 32 15.9838 32 15.9649ZM31.6461 16.0108V16.0189C31.6353 24.6524 24.6382 31.6407 16.0068 31.6434H15.9851C7.35095 31.6353 0.359308 24.6335 0.359308 16.0027V15.9757C0.370114 7.34493 7.37256 0.356576 16.0014 0.356576H16.0284C24.6572 0.372784 31.6434 7.37194 31.6461 16V16.0108Z" fill="#C4CED4"/>
<path d="M10.7711 12.4478C12.3974 10.8242 13.0809 8.92521 13.0809 8.92521L13.4429 7.60426L13.5294 7.29631L11.8652 6.36435C11.8652 6.36435 10.8927 5.68901 8.72332 6.95053C6.18115 8.44978 4.11175 10.3893 3.04193 12.445C2.45029 13.585 1.97752 14.8979 1.73438 16.389C1.81002 19.2119 2.70153 21.8322 4.18739 24.0176C3.76325 19.9494 7.69672 15.4922 10.7738 12.4478" fill="#002B5C"/>
<path d="M23.3037 6.95053C21.1316 5.6917 20.1618 6.36434 20.1618 6.36434L18.4976 7.2963L18.5841 7.60425L18.9461 8.9225C18.9461 8.9225 19.6296 10.8215 21.2559 12.445C24.3249 15.4786 28.2422 19.9196 27.8477 23.977C29.339 21.7673 30.2251 19.1146 30.2764 16.2593C30.0279 14.8195 29.5659 13.5499 28.9878 12.4423C27.918 10.3866 25.8486 8.44707 23.3064 6.94783" fill="#002B5C"/>
<path d="M18.0789 4.51123C23.7846 5.15685 27.5343 8.39575 29.4713 11.2673C28.0152 7.12342 24.6977 3.85481 20.5238 2.46092C19.6025 2.73376 18.5813 3.30644 18.0789 4.51394" fill="#E31937"/>
<path d="M13.9454 4.51122C13.4402 3.29562 12.4109 2.72564 11.4843 2.45551C7.28338 3.8548 3.95235 7.15312 2.50702 11.3348C4.43053 8.44436 8.19381 5.15954 13.9454 4.51122Z" fill="#E31937"/>
<path d="M14.8802 4.34915L16.0122 2.68242L17.1468 4.34915C17.6007 3.10653 18.3193 2.42039 19.0379 2.04761C18.0653 1.83691 17.055 1.72345 16.0176 1.72345C14.9748 1.72345 13.9617 1.83691 12.9837 2.04761C13.705 2.42039 14.4236 3.10383 14.8802 4.34915Z" fill="#E31937"/>
<path d="M23.7684 16.8563C21.4477 13.1015 16.1797 9.3115 16.0122 9.19264C15.8474 9.3115 10.5793 13.1015 8.2587 16.8563C5.12489 21.924 5.53283 24.8469 6.34329 26.5136C8.36136 28.3694 10.917 29.6498 13.7483 30.101L14.9694 12.7935L15.9879 11.7724L16.0014 11.7589L16.0149 11.7724L17.0334 12.7935L18.2626 30.0875L18.2464 30.0956C21.1019 29.6444 23.6738 28.3532 25.7027 26.4758C26.4996 24.801 26.8779 21.8862 23.7684 16.8563Z" fill="#002B5C"/>
<path d="M17.0306 12.7935L16.0148 11.7724L16.0256 31.3598L18.2436 30.0956L18.2598 30.0875L17.0306 12.7935Z" fill="#C4CED4"/>
<path d="M16.0068 7.8771L15.5637 8.20396L13.7023 9.57624L14.1886 7.80686L14.2724 7.49891L14.4372 6.90462L13.8969 6.61287L12.1462 5.67011C13.0297 5.47561 13.932 5.34865 14.8451 5.28922L15.2909 5.26221L15.3098 5.22439L15.4881 4.85971L15.5151 4.80298L16.0149 3.78728L16.5309 4.83539L16.5417 4.85701L16.72 5.22169L16.7389 5.2595L17.1847 5.28652C18.0951 5.34325 19.0001 5.47291 19.8835 5.66741L18.1329 6.61017L17.5899 6.90191L17.7547 7.49621L17.8384 7.80416L18.3247 9.57353L16.4633 8.20126L16.0203 7.87439V7.86629L16.0122 7.87169L16.0068 7.86629V7.87439V7.8771Z" fill="#C4CED4"/>
<path d="M16.0176 7.86899V7.8771L16.4606 8.20396L18.322 9.57624L17.8357 7.80686L17.752 7.49891L17.5872 6.90462L18.1275 6.61287L19.8781 5.67011C18.9947 5.47561 18.0923 5.34865 17.1792 5.28922L16.7335 5.2622L16.7146 5.22439L16.5335 4.85971L16.5227 4.8381L16.0067 3.78998L15.5097 4.80298L15.4826 4.85971L15.3043 5.22439L15.2854 5.2622L14.8397 5.28922C13.9265 5.34595 13.0242 5.47561 12.1408 5.67011L13.8914 6.61287L14.4317 6.90462L14.2669 7.49891L14.1832 7.80686L13.6969 9.57624L15.5583 8.20396L16.0013 7.8771V7.86899L16.0067 7.87439L16.0148 7.86899H16.0176Z" fill="#C4CED4"/>
</g>
<defs>
<clipPath id="clip0_13_715">
<rect width="32" height="32" fill="white"/>
</clipPath>
</defs>
</svg>
